<svg xmlns="http://www.w3.org/2000/svg" width="177.305" height="156.528" viewBox="0 0 177.305 156.528">
  <g id="Add_files-bro" data-name="Add files-bro" transform="translate(-69.464 -93.616)">
    <g id="freepik--background-simple--inject-49" transform="translate(69.464 93.616)">
      <path id="Path_375" data-name="Path 375" d="M117.039,157.27c-3.96,2.346-8.033,4.455-12.023,6.811-18.369,10.751-33.485,25.165-35.341,47.245-1.356,16.166,3.737,34.975,17.958,44.33a32.951,32.951,0,0,0,11.543,4.737c5.8,1.183,11.944.718,17.864.376Z" transform="translate(-69.464 -125.763)" fill="#76ba1b"/>
      <path id="Path_376" data-name="Path 376" d="M269.177,110.82H212.151a67.387,67.387,0,0,0-10.281,7.88h78.374a78.539,78.539,0,0,0-11.068-7.88Z" transform="translate(-136.332 -102.304)" fill="#76ba1b"/>
      <path id="Path_377" data-name="Path 377" d="M279.579,100.646A65.432,65.432,0,0,0,266.586,95.4c-13.637-3.816-27.144-1.277-38.836,5.242Z" transform="translate(-149.402 -93.616)" fill="#76ba1b"/>
      <path id="Path_378" data-name="Path 378" d="M327.716,151.321a99.619,99.619,0,0,0-17.992-21.581H256.87V253.806a83.114,83.114,0,0,0,12.087,3.059c26.946,4.316,57.1-5.281,67.549-32.441C345.876,200.086,341.219,172.991,327.716,151.321Z" transform="translate(-164.109 -111.859)" fill="#76ba1b"/>
      <path id="Path_379" data-name="Path 379" d="M210.832,129.74H185.3q-1.579,1.559-3.079,3.217a49.994,49.994,0,0,1-10.088,8.415V246.708A101.187,101.187,0,0,1,199.6,249.43c3.806.911,7.519,2.128,11.231,3.336Z" transform="translate(-121.313 -111.859)" fill="#76ba1b"/>
      <g id="Group_3465" data-name="Group 3465" opacity="0.8">
        <path id="Path_380" data-name="Path 380" d="M117.039,157.27c-3.96,2.346-8.033,4.455-12.023,6.811-18.369,10.751-33.485,25.165-35.341,47.245-1.356,16.166,3.737,34.975,17.958,44.33a32.951,32.951,0,0,0,11.543,4.737c5.8,1.183,11.944.718,17.864.376Z" transform="translate(-69.464 -125.763)" fill="#fff"/>
        <path id="Path_381" data-name="Path 381" d="M269.177,110.82H212.151a67.387,67.387,0,0,0-10.281,7.88h78.374a78.539,78.539,0,0,0-11.068-7.88Z" transform="translate(-136.332 -102.304)" fill="#fff"/>
        <path id="Path_382" data-name="Path 382" d="M279.579,100.646A65.432,65.432,0,0,0,266.586,95.4c-13.637-3.816-27.144-1.277-38.836,5.242Z" transform="translate(-149.402 -93.616)" fill="#fff"/>
        <path id="Path_383" data-name="Path 383" d="M327.716,151.321a99.619,99.619,0,0,0-17.992-21.581H256.87V253.806a83.114,83.114,0,0,0,12.087,3.059c26.946,4.316,57.1-5.281,67.549-32.441C345.876,200.086,341.219,172.991,327.716,151.321Z" transform="translate(-164.109 -111.859)" fill="#fff"/>
        <path id="Path_384" data-name="Path 384" d="M210.832,129.74H185.3q-1.579,1.559-3.079,3.217a49.994,49.994,0,0,1-10.088,8.415V246.708A101.187,101.187,0,0,1,199.6,249.43c3.806.911,7.519,2.128,11.231,3.336Z" transform="translate(-121.313 -111.859)" fill="#fff"/>
      </g>
    </g>
    <g id="freepik--Shadow--inject-49" transform="translate(84.267 240.422)">
      <ellipse id="Ellipse_51" data-name="Ellipse 51" cx="72.756" cy="4.861" rx="72.756" ry="4.861" fill="#76ba1b"/>
      <ellipse id="Ellipse_52" data-name="Ellipse 52" cx="72.756" cy="4.861" rx="72.756" ry="4.861" fill="#fff" opacity="0.5"/>
    </g>
    <g id="freepik--Folders--inject-49" transform="translate(133.269 115.728)">
      <path id="Path_385" data-name="Path 385" d="M205.334,138.29H198.37v11.964h14.77V139.81h-7.311Z" transform="translate(-198.37 -138.29)" fill="#76ba1b"/>
      <path id="Path_386" data-name="Path 386" d="M205.334,184.29H198.37v11.964h14.77V185.81h-7.311Z" transform="translate(-198.37 -161.521)" fill="#76ba1b"/>
      <path id="Path_387" data-name="Path 387" d="M205.334,230.29H198.37v11.964h14.77V231.81h-7.311Z" transform="translate(-198.37 -184.752)" fill="#76ba1b"/>
      <path id="Path_388" data-name="Path 388" d="M205.334,276.29H198.37v11.964h14.77V277.81h-7.311Z" transform="translate(-198.37 -207.983)" fill="#76ba1b"/>
      <path id="Path_389" data-name="Path 389" d="M205.334,322.29H198.37v11.964h14.77V323.81h-7.311Z" transform="translate(-198.37 -231.215)" fill="#76ba1b"/>
      <path id="Path_390" data-name="Path 390" d="M295.5,138.29H288.54v11.964h14.765V139.81h-7.311Z" transform="translate(-243.908 -138.29)" fill="#76ba1b"/>
      <path id="Path_391" data-name="Path 391" d="M353.494,139.81,353,138.29H346.04v11.964h14.765V139.81Z" transform="translate(-272.947 -138.29)" fill="#76ba1b"/>
      <path id="Path_392" data-name="Path 392" d="M295.5,184.29H288.54v11.964h14.765V185.81h-7.311Z" transform="translate(-243.908 -161.521)" fill="#76ba1b"/>
      <path id="Path_393" data-name="Path 393" d="M353,230.29H346.04v11.964h14.765V231.81h-7.311Z" transform="translate(-272.947 -184.752)" fill="#76ba1b"/>
      <path id="Path_394" data-name="Path 394" d="M353,184.29H346.04v11.964h14.765V185.81h-7.311Z" transform="translate(-272.947 -161.521)" fill="#76ba1b"/>
      <path id="Path_395" data-name="Path 395" d="M295.5,230.29H288.54v11.964h14.765V231.81h-7.311Z" transform="translate(-243.908 -184.752)" fill="#76ba1b"/>
      <path id="Path_396" data-name="Path 396" d="M295.5,276.29H288.54v11.964h14.765V277.81h-7.311Z" transform="translate(-243.908 -207.983)" fill="#76ba1b"/>
      <path id="Path_397" data-name="Path 397" d="M353,276.29H346.04v11.964h14.765V277.81h-7.311Z" transform="translate(-272.947 -207.983)" fill="#76ba1b"/>
      <path id="Path_398" data-name="Path 398" d="M295.5,322.29H288.54v11.964h14.765V323.81h-7.311Z" transform="translate(-243.908 -231.215)" fill="#76ba1b"/>
      <path id="Path_399" data-name="Path 399" d="M353,322.29H346.04v11.964h14.765V323.81h-7.311Z" transform="translate(-272.947 -231.215)" fill="#76ba1b"/>
      <g id="Group_3466" data-name="Group 3466" transform="translate(0)" opacity="0.5">
        <path id="Path_400" data-name="Path 400" d="M205.334,138.29H198.37v11.964h14.77V139.81h-7.311Z" transform="translate(-198.37 -138.29)" fill="#fff"/>
        <path id="Path_401" data-name="Path 401" d="M205.334,184.29H198.37v11.964h14.77V185.81h-7.311Z" transform="translate(-198.37 -161.521)" fill="#fff"/>
        <path id="Path_402" data-name="Path 402" d="M205.334,230.29H198.37v11.964h14.77V231.81h-7.311Z" transform="translate(-198.37 -184.752)" fill="#fff"/>
        <path id="Path_403" data-name="Path 403" d="M205.334,276.29H198.37v11.964h14.77V277.81h-7.311Z" transform="translate(-198.37 -207.983)" fill="#fff"/>
        <path id="Path_404" data-name="Path 404" d="M205.334,322.29H198.37v11.964h14.77V323.81h-7.311Z" transform="translate(-198.37 -231.215)" fill="#fff"/>
        <path id="Path_405" data-name="Path 405" d="M295.5,138.29H288.54v11.964h14.765V139.81h-7.311Z" transform="translate(-243.908 -138.29)" fill="#fff"/>
        <path id="Path_406" data-name="Path 406" d="M353.494,139.81,353,138.29H346.04v11.964h14.765V139.81Z" transform="translate(-272.947 -138.29)" fill="#fff"/>
        <path id="Path_407" data-name="Path 407" d="M295.5,184.29H288.54v11.964h14.765V185.81h-7.311Z" transform="translate(-243.908 -161.521)" fill="#fff"/>
        <path id="Path_408" data-name="Path 408" d="M353,230.29H346.04v11.964h14.765V231.81h-7.311Z" transform="translate(-272.947 -184.752)" fill="#fff"/>
        <path id="Path_409" data-name="Path 409" d="M353,184.29H346.04v11.964h14.765V185.81h-7.311Z" transform="translate(-272.947 -161.521)" fill="#fff"/>
        <path id="Path_410" data-name="Path 410" d="M295.5,230.29H288.54v11.964h14.765V231.81h-7.311Z" transform="translate(-243.908 -184.752)" fill="#fff"/>
        <path id="Path_411" data-name="Path 411" d="M295.5,276.29H288.54v11.964h14.765V277.81h-7.311Z" transform="translate(-243.908 -207.983)" fill="#fff"/>
        <path id="Path_412" data-name="Path 412" d="M353,276.29H346.04v11.964h14.765V277.81h-7.311Z" transform="translate(-272.947 -207.983)" fill="#fff"/>
        <path id="Path_413" data-name="Path 413" d="M295.5,322.29H288.54v11.964h14.765V323.81h-7.311Z" transform="translate(-243.908 -231.215)" fill="#fff"/>
        <path id="Path_414" data-name="Path 414" d="M353,322.29H346.04v11.964h14.765V323.81h-7.311Z" transform="translate(-272.947 -231.215)" fill="#fff"/>
      </g>
    </g>
    <g id="freepik--Characters--inject-49" transform="translate(90.133 116.164)">
      <path id="Path_415" data-name="Path 415" d="M133.406,205.647a8.1,8.1,0,0,0,1.03,5.143c1.475,2.089,12.236,10.84,13.2,11.345s5.088-.574,3.841-3.91-10.31-10.394-12.127-12.305a4.285,4.285,0,0,0-3.509-1.633" transform="translate(-122.393 -172.048)" fill="#76ba1b" stroke="#263238" stroke-miterlimit="10" stroke-width="1"/>
      <path id="Path_416" data-name="Path 416" d="M163.276,229.527s2.064.144,5.9,0,13.414.441,14.889.441h1.485l-.144,3.391s-7.227.589-12.236,1.327-9.137,1.624-13.265-.441" transform="translate(-135.806 -184.792)" fill="#76ba1b" stroke="#263238" stroke-linecap="round" stroke-linejoin="round" stroke-width="1"/>
      <path id="Path_417" data-name="Path 417" d="M211.483,226.4l.257-.6a5.019,5.019,0,0,1,1.98-2.3h0a8.791,8.791,0,0,0,2.2-.99l.124-.074s.921.267.381.99a1.43,1.43,0,0,1-1.267.653l-.738,1.178,5.074.411s.733.292.144.733-3.465.332-3.465.332l3.658.643s.416.416.238.767-4.014-.119-4.014-.119l3.247.886a.742.742,0,0,1,.233.886c-.114.3-.822.178-1.119.059s-2.42-.47-2.42-.47l2.361,1.3a.871.871,0,0,1-.495.648,1.98,1.98,0,0,1-1.064,0L213.73,230.1s-.163.411-2.44-.267Z" transform="translate(-161.759 -181.224)" fill="#fff" stroke="#263238" stroke-linecap="round" stroke-linejoin="round" stroke-width="1"/>
      <path id="Path_418" data-name="Path 418" d="M216.792,228.06s.292,2.178-.832,2.594" transform="translate(-164.117 -184.062)" fill="#fff" stroke="#263238" stroke-linecap="round" stroke-linejoin="round" stroke-width="1"/>
      <path id="Path_419" data-name="Path 419" d="M333.8,207.751a8.113,8.113,0,0,1-2.059,4.826c-1.871,1.747-14.186,8.113-15.23,8.415s-4.866-1.6-2.97-4.608,12.216-8.068,14.384-9.578,3.767-.886,3.767-.886" transform="translate(-213.135 -172.816)" fill="#76ba1b" stroke="#263238" stroke-miterlimit="10" stroke-width="1"/>
      <path id="Path_420" data-name="Path 420" d="M294.937,220.808s-2.049-.277-5.771-1.2-13.221-2.3-14.666-2.6l-1.44-.3-.549,3.351s6.93,2.049,11.706,3.8,8.618,3.465,13.077,2.272" transform="translate(-192.676 -178.325)" fill="#76ba1b" stroke="#263238" stroke-linecap="round" stroke-linejoin="round" stroke-width="1"/>
      <path id="Path_421" data-name="Path 421" d="M264.656,211.766l-.129-.639a5.024,5.024,0,0,0-1.485-2.653h0a8.963,8.963,0,0,1-1.955-1.435l-.1-.1s-.96.074-.569.871a1.416,1.416,0,0,0,1.1.9l.495,1.307-5.049-.634s-.782.139-.292.688,3.311,1.025,3.311,1.025l-3.712-.109s-.495.317-.391.7,3.96.7,3.96.7l-3.356.2a.747.747,0,0,0-.416.817c.059.317.777.342,1.089.287s2.475.035,2.475.035l-2.579.787a.881.881,0,0,0,.332.733,1.98,1.98,0,0,0,1.039.218l3.257-.589s.079.436,2.445.238Z" transform="translate(-184.273 -173.396)" fill="#fff" stroke="#263238" stroke-linecap="round" stroke-linejoin="round" stroke-width="1"/>
      <path id="Path_422" data-name="Path 422" d="M268.011,213.15s-.728,2.074.282,2.708" transform="translate(-190.276 -176.532)" fill="#fff" stroke="#263238" stroke-linecap="round" stroke-linejoin="round" stroke-width="1"/>
      <path id="Path_423" data-name="Path 423" d="M246.625,217.953H218.51V180.3h19.745l8.37,7.667Z" transform="translate(-165.405 -159.942)" fill="#fff" stroke="#263238" stroke-linecap="round" stroke-linejoin="round" stroke-width="1"/>
      <path id="Path_424" data-name="Path 424" d="M258.4,180.3v7.667h8.37Z" transform="translate(-185.551 -159.942)" fill="#263238" stroke="#263238" stroke-linecap="round" stroke-linejoin="round" stroke-width="1"/>
      <circle id="Ellipse_53" data-name="Ellipse 53" cx="7.598" cy="7.598" r="7.598" transform="translate(67.847 53.452) rotate(-46.62)" fill="#263238"/>
      <path id="Path_425" data-name="Path 425" d="M269.912,241.492h-3.217V238.28h-1.752v3.212H261.73v1.757h3.212v3.212h1.752V243.25h3.217Z" transform="translate(-187.232 -189.224)" fill="#fff"/>
      <path id="Path_426" data-name="Path 426" d="M241.573,300.042h-54.1L181.24,258.35h60.333Z" transform="translate(-146.583 -199.359)" fill="#263238" stroke="#263238" stroke-linecap="round" stroke-linejoin="round" stroke-width="1"/>
      <path id="Path_427" data-name="Path 427" d="M219.944,253.78l-.812-2.336a3.193,3.193,0,0,0-3.014-2.143H194.23v46.171h54.1l6.232-41.692Z" transform="translate(-153.143 -194.789)" fill="#76ba1b" stroke="#263238" stroke-linecap="round" stroke-linejoin="round" stroke-width="1"/>
      <path id="Path_428" data-name="Path 428" d="M118.9,382.107s1.2,2.7,2.4,3.6,3.465.752,3.752,2.252-.9,1.648-1.95,1.648-4.351,0-4.95-.148a18.77,18.77,0,0,1-5.252-2.851c-1.8-1.485-2.247-1.351-.9-4.2S118.9,382.107,118.9,382.107Z" transform="translate(-111.222 -261.328)" fill="#76ba1b" stroke="#263238" stroke-miterlimit="10" stroke-width="1"/>
      <path id="Path_429" data-name="Path 429" d="M125.1,391.393a17.8,17.8,0,0,1-6.816,0c-2.51-.609-5.474-2.866-6.974-4.1-.312,1.168.277,1.381,1.6,2.475a18.768,18.768,0,0,0,5.252,2.826c.6.148,3.9.148,4.95.148S125.191,392.621,125.1,391.393Z" transform="translate(-111.223 -264.477)" fill="#fff" stroke="#263238" stroke-miterlimit="10" stroke-width="1"/>
      <path id="Path_430" data-name="Path 430" d="M124.189,284.2s-2.059,17.275-3.707,21.625-4.133,7.1-4.732,10.394-2.97,17.265-2.97,17.265,1.485,1.485,2.549,1.351,4.2.3,5.1-1.351a18.768,18.768,0,0,0,1.272-4.777c.148-.45,6.435-12.612,7.954-17.413s6.331-24.63,6.182-27.031" transform="translate(-112.009 -212.414)" fill="#263238" stroke="#263238" stroke-miterlimit="10" stroke-width="1"/>
      <path id="Path_431" data-name="Path 431" d="M132.281,260.26a25.753,25.753,0,0,0-1.148,10.226c.688,4.826,6.093,7.241,9.9,6.549s4.826-3.331,4.826-7.92a65.608,65.608,0,0,0-.589-8.489,19.616,19.616,0,0,1-12.988-.366Z" transform="translate(-121.199 -200.324)" fill="#263238" stroke="#263238" stroke-miterlimit="10" stroke-width="1"/>
      <path id="Path_432" data-name="Path 432" d="M132.405,189.22s-3.465,6.435-3.678,11.6,2.411,23.561,2.411,23.561,1.035,2.069,5.979,2.3,7.009-1.485,7.009-1.485,1.723-11.721,1.723-17.928-4.826-15.4-4.826-15.4Z" transform="translate(-120.057 -164.447)" fill="#76ba1b" stroke="#263238" stroke-miterlimit="10" stroke-width="1"/>
      <path id="Path_433" data-name="Path 433" d="M130.79,218.13s.3,3.638,4.7,4.093" transform="translate(-121.104 -179.047)" fill="none" stroke="#263238" stroke-linecap="round" stroke-linejoin="round" stroke-width="1"/>
      <path id="Path_434" data-name="Path 434" d="M133.24,227.93a7.6,7.6,0,0,0,5.326.911" transform="translate(-122.342 -183.997)" fill="none" stroke="#263238" stroke-linecap="round" stroke-linejoin="round" stroke-width="1"/>
      <path id="Path_435" data-name="Path 435" d="M136.61,253.276A43.249,43.249,0,0,0,143.282,246" transform="translate(-124.044 -193.122)" fill="none" stroke="#263238" stroke-linecap="round" stroke-linejoin="round" stroke-width="1"/>
      <path id="Path_436" data-name="Path 436" d="M143.908,253.35s-3.792,3.96-5.158,4.4" transform="translate(-125.124 -196.834)" fill="none" stroke="#263238" stroke-linecap="round" stroke-linejoin="round" stroke-width="1"/>
      <path id="Path_437" data-name="Path 437" d="M140.336,168.105s-.114,3.217-.455,5.4-.46,3.1-.46,3.1l6.321,2.411s-.579-4.366.228-6.207a11.231,11.231,0,0,0,.921-3.1s-2.069-5.059-4.252-5.405S140.336,168.105,140.336,168.105Z" transform="translate(-125.463 -151.856)" fill="#fff" stroke="#263238" stroke-miterlimit="10" stroke-width="1"/>
      <path id="Path_438" data-name="Path 438" d="M142.513,146.13s1.148-1.035-.346-4.455-8.731-3.217-12.181-.119-4.6,8.622-1.609,12.181,6.549,4.024,8.85,2.643a5.789,5.789,0,0,0,2.524-5.054c0-1.035-.8-3.564.346-4.252A8.029,8.029,0,0,1,142.513,146.13Z" transform="translate(-119.017 -139.171)" fill="#263238" stroke="#263238" stroke-miterlimit="10" stroke-width="1"/>
      <path id="Path_439" data-name="Path 439" d="M134.77,186.63,145,190.768l-.574-3.331-9.083-3.8Z" transform="translate(-123.114 -161.629)" fill="#fff" stroke="#263238" stroke-miterlimit="10" stroke-width="1"/>
      <path id="Path_440" data-name="Path 440" d="M153.734,391.33s3,1.8,4.648,2.549,1.8.6,1.8,1.648.148,1.2-2.554,1.2-10.5.148-11.246-.45S152.685,390.879,153.734,391.33Z" transform="translate(-128.951 -266.502)" fill="#76ba1b" stroke="#263238" stroke-miterlimit="10" stroke-width="1"/>
      <path id="Path_441" data-name="Path 441" d="M157.626,400.856c2.529,0,2.559-.134,2.554-.99-7.687.233-11.434-.059-13.255-.4-.495.46-.718.817-.544.955C147.153,401,154.929,400.856,157.626,400.856Z" transform="translate(-128.949 -270.628)" fill="#fff" stroke="#263238" stroke-miterlimit="10" stroke-width="1"/>
      <path id="Path_442" data-name="Path 442" d="M149.136,151.6s-5.4,2.529-5.4,3.465,2.3,1.262,1.609,2.415a9.067,9.067,0,0,1-1.158,1.594s.916,1.609.114,1.836-1.148.228-1.98-.921-1.609-1.723-1.836.233.688,2.3,1.376,2.411a6.812,6.812,0,0,0,1.609,0s1.153,2.757,1.955,3.1,4.712.807,5.514-.114.233-5.059.233-5.059,1.148-.228,1.148-1.262-1.836-2.529-1.836-2.529a3.2,3.2,0,0,0,.114-2.3,7.078,7.078,0,0,0-1.46-2.876Z" transform="translate(-125.982 -145.448)" fill="#fff" stroke="#263238" stroke-miterlimit="10" stroke-width="1"/>
      <path id="Path_443" data-name="Path 443" d="M157.643,162.413c0,.361-.144.658-.327.658s-.327-.3-.327-.658.144-.653.327-.653S157.643,162.052,157.643,162.413Z" transform="translate(-134.336 -150.579)" fill="#263238"/>
      <path id="Path_444" data-name="Path 444" d="M155.37,159.871s.168-.99,1.658-.8" transform="translate(-133.518 -149.21)" fill="none" stroke="#263238" stroke-linecap="round" stroke-linejoin="round" stroke-width="1"/>
      <path id="Path_445" data-name="Path 445" d="M157.84,171.972a2.109,2.109,0,0,1-1.43-.742" transform="translate(-134.043 -155.362)" fill="none" stroke="#263238" stroke-linecap="round" stroke-linejoin="round" stroke-width="1"/>
      <path id="Path_446" data-name="Path 446" d="M134,282.659s1.049,10.35,2.4,14.849a20.954,20.954,0,0,1,.9,10.35c-.45,3.915-1.95,7.5-.9,11.1s3.153,19,3.153,19.6-.153,1.485.6,1.8,7.2-4.049,7.35-4.95-1.049-3.6-1.049-6,.747-16.448.747-23.195.752-19.651-1.648-25.65" transform="translate(-122.725 -210.576)" fill="#263238" stroke="#263238" stroke-miterlimit="10" stroke-width="1"/>
      <path id="Path_447" data-name="Path 447" d="M135.74,298s.708,5.034,1.544,8.316,1.693,4.821.673,8.91-1.366,5.445-.856,7.5" transform="translate(-123.604 -219.384)" fill="none" stroke="#fff" stroke-linecap="round" stroke-linejoin="round" stroke-width="1"/>
      <path id="Path_448" data-name="Path 448" d="M311.265,385.44s-6.138,2.049-7.6,2.475-2.777.733-1.46,2.193,7.746,1.609,9.642,1.609,3.217,1.02,3.653-.148a19.654,19.654,0,0,0,.441-4.385Z" transform="translate(-207.401 -263.543)" fill="#76ba1b" stroke="#263238" stroke-miterlimit="10" stroke-width="1"/>
      <path id="Path_449" data-name="Path 449" d="M315.709,394.37c-1.633-.049-4.717-.2-8.365-.673a21.017,21.017,0,0,1-5.593-1.327c-.134.292,0,.683.495,1.247,1.317,1.46,7.746,1.609,9.642,1.609s3.217,1.02,3.653-.148A3.963,3.963,0,0,0,315.709,394.37Z" transform="translate(-207.419 -267.043)" fill="#fff" stroke="#263238" stroke-miterlimit="10" stroke-width="1"/>
      <path id="Path_450" data-name="Path 450" d="M351.245,388.39s-4.678,3.509-5.989,4.237-1.609,1.9-.441,1.9,10.667.292,11.983-.584-.584-5.113-.584-5.113S352.705,388.39,351.245,388.39Z" transform="translate(-228.824 -265.033)" fill="#76ba1b" stroke="#263238" stroke-miterlimit="10" stroke-width="1"/>
      <path id="Path_451" data-name="Path 451" d="M356.819,398.2a1.475,1.475,0,0,0,.455-1.381,57.3,57.3,0,0,1-12.869.792c-.465.6-.371,1.173.45,1.173C346,398.785,355.5,399.077,356.819,398.2Z" transform="translate(-228.844 -269.29)" fill="#fff" stroke="#263238" stroke-miterlimit="10" stroke-width="1"/>
      <path id="Path_452" data-name="Path 452" d="M328.366,250.522s-6.435,22.353-6.722,27.615-.584,33.2-.584,34.51v4.237l4.678,1.752s2.193-16.537,2.628-20.482.733-8.33,1.317-10.394,1.752-10.394,2.193-12.127a79.732,79.732,0,0,0,1.168-17.388C332.751,249.913,329.39,248.473,328.366,250.522Z" transform="translate(-217.195 -194.987)" fill="#263238" stroke="#263238" stroke-miterlimit="10" stroke-width="1"/>
      <path id="Path_453" data-name="Path 453" d="M334.35,248.12s.144,6.573.292,13-.292,16.22,1.168,23.234,7.157,22.239,7.741,24.719,2.633,9.063,2.633,9.063a20.948,20.948,0,0,0,5.113-.148s-1.9-14.2-2.193-19.754-3.8-13.444-4.529-15.344,1.48-17.091,1.48-17.091,3.5-6.435,2.628-10.523a13.241,13.241,0,0,0-3.361-6.435S336.538,250.041,334.35,248.12Z" transform="translate(-223.907 -194.193)" fill="#263238" stroke="#263238" stroke-miterlimit="10" stroke-width="1"/>
      <path id="Path_454" data-name="Path 454" d="M335.281,266.63s-.168,16.889.495,21.665a36.092,36.092,0,0,0,1.361,6.657" transform="translate(-224.368 -203.541)" fill="none" stroke="#fff" stroke-linecap="round" stroke-linejoin="round" stroke-width="1"/>
      <path id="Path_455" data-name="Path 455" d="M342.164,191.686s-1.752-1.312-5.549,1.485-8.182,10.37-7.89,13.3,2.777,11.543,2.777,13,.436.876,2.188,1.46,6.722.441,7.89-.144.584-4.385.876-7.6,2.193-9.5,2.049-14.028S342.749,192.285,342.164,191.686Z" transform="translate(-221.06 -165.537)" fill="#76ba1b" stroke="#263238" stroke-miterlimit="10" stroke-width="1"/>
      <path id="Path_456" data-name="Path 456" d="M337.741,157.43s-1.752,2.193-1.752,3.653-.327,2.97-1.2,3.688-.846,1.426-.114,1.574l.733.144a20.917,20.917,0,0,0,.99,4.361c.579,1.173,2.658.168,3.094,0s-.144,4.237-.144,4.678,4.381-.148,4.95-.148.292-5.262.876-6.865,2.475-3.653.148-7.162S339.058,154.946,337.741,157.43Z" transform="translate(-223.794 -147.922)" fill="#fff" stroke="#263238" stroke-miterlimit="10" stroke-width="1"/>
      <path id="Path_457" data-name="Path 457" d="M340.14,170.868c0,.361.144.653.327.653s.327-.292.327-.653-.144-.658-.327-.658S340.14,170.507,340.14,170.868Z" transform="translate(-226.831 -154.846)" fill="#263238"/>
      <path id="Path_458" data-name="Path 458" d="M338.34,178.8s.495.569,1.614-.193" transform="translate(-225.922 -159.089)" fill="none" stroke="#263238" stroke-linecap="round" stroke-linejoin="round" stroke-width="1"/>
      <path id="Path_459" data-name="Path 459" d="M339.11,167.443s.851-1.044,1.9.287" transform="translate(-226.311 -153.252)" fill="none" stroke="#263238" stroke-linecap="round" stroke-linejoin="round" stroke-width="1"/>
      <path id="Path_460" data-name="Path 460" d="M344.642,191.113s-3.792,1.361-4.4,2.272-1.059,2.425-.148,2.425,4.846-2.648,5.91-2.881S346,189.747,344.642,191.113Z" transform="translate(-226.547 -165.221)" fill="#fff" stroke="#263238" stroke-miterlimit="10" stroke-width="1"/>
      <path id="Path_461" data-name="Path 461" d="M336.311,153.938a13.2,13.2,0,0,0,2.336,5.405c1.9,2.475,3.8,1.9,3.361,3.96s-3.653,4.95-2.336,8.187,4.237,3.8,4.821,5.113,1.9,1.752.44,7.014-3.653,9.494-1.757,14.463a7.745,7.745,0,0,0,10.667,4.529c3.8-1.752,1.46-7.306,2.341-10.667s8.474-5.989,5.841-15.344-8.766-11.835-10.394-15.052-1.312-8.618-4.673-10.81-7.162-.292-8.474,0-2.049-1.9-4.678-.876-4.2,5.94.495,6.969A9.934,9.934,0,0,1,336.311,153.938Z" transform="translate(-222.364 -144.43)" fill="#263238" stroke="#263238" stroke-miterlimit="10" stroke-width="1"/>
      <path id="Path_462" data-name="Path 462" d="M351.19,172.52a9.9,9.9,0,0,0,3.227,2.227c5.445,2.386,9.211,5.8,9.211,11.6s-5.445,9.726-5.633,14.676,2.559,8.7,5.445,7.162,1.539-4.6.495-4.6" transform="translate(-232.412 -156.013)" fill="none" stroke="#fff" stroke-linecap="round" stroke-linejoin="round" stroke-width="1"/>
      <path id="Path_463" data-name="Path 463" d="M346,161.51a8.91,8.91,0,0,0,.851,2.94" transform="translate(-229.791 -150.453)" fill="none" stroke="#fff" stroke-linecap="round" stroke-linejoin="round" stroke-width="1"/>
      <path id="Path_464" data-name="Path 464" d="M375.095,194.17a18.735,18.735,0,0,1,1.673,7.717c-.173,5.969-7.336,8.7-8.192,12.285-.767,3.222,1.539,6.138,3.584,4.95" transform="translate(-241.116 -166.947)" fill="none" stroke="#fff" stroke-linecap="round" stroke-linejoin="round" stroke-width="1"/>
      <path id="Path_465" data-name="Path 465" d="M377.7,186.32a21,21,0,0,1,1.307,2.247" transform="translate(-245.8 -162.982)" fill="none" stroke="#fff" stroke-linecap="round" stroke-linejoin="round" stroke-width="1"/>
      <path id="Path_466" data-name="Path 466" d="M358.364,195.311a11.176,11.176,0,0,0-.173-6.994c-1.366-3.584-2.9-5.291-2.9-7.167" transform="translate(-234.482 -160.371)" fill="none" stroke="#fff" stroke-linecap="round" stroke-linejoin="round" stroke-width="1"/>
      <path id="Path_467" data-name="Path 467" d="M337.653,156.825a3.044,3.044,0,0,0-2.519-1.525c-1.708,0-1.539,2.217.337,2.559" transform="translate(-223.706 -147.317)" fill="none" stroke="#fff" stroke-linecap="round" stroke-linejoin="round" stroke-width="1"/>
      <path id="Path_468" data-name="Path 468" d="M137.114,201.628s-2.1,3-1.648,6,7.2,18,7.949,19.047,5.7,2.1,6.148-2.1-5.4-16.5-6.3-19.5-2.851-3.6-2.851-3.6" transform="translate(-123.434 -170.639)" fill="#76ba1b" stroke="#263238" stroke-miterlimit="10" stroke-width="1"/>
      <path id="Path_469" data-name="Path 469" d="M156.735,241.8a22.422,22.422,0,0,1,7.474,2.42c3.079,1.861,12.869,5.346,12.869,5.346l-.7,2.906s-10.776-1.242-15.344-2.084-7.534-1.242-9.221-3.668" transform="translate(-131.72 -191.001)" fill="#76ba1b" stroke="#263238" stroke-miterlimit="10" stroke-width="1"/>
      <path id="Path_470" data-name="Path 470" d="M211.058,259.663l-4-1.252.045-.421s3.41.658,3.782.7.495-.139.495-.371a.812.812,0,0,0-.233-.465l-5.593-2.01,3.212-.6c.465-.371-.049-.742-.049-.742l-3.772.089-2.782,1.391-.7,2.905s5.163,4.455,5.4,4.6.371.371.742.139.233-.495.233-.495l-1.648-1.693,2.841.836c.322.094.371.188.6.094s.277-.7.277-.7l-3.306-1.534.144-.327s3.668.881,3.9.881.371,0,.559-.416A.455.455,0,0,0,211.058,259.663Z" transform="translate(-156.794 -197.415)" fill="#fff" stroke="#263238" stroke-linecap="round" stroke-linejoin="round" stroke-width="1"/>
      <path id="Path_471" data-name="Path 471" d="M338.605,202.761s-2.029-2.816-4.89-.99-13.236,11.439-13.236,11.439-2.1,2.475.99,4.286,15.76-9.454,17.131-10.394" transform="translate(-216.55 -170.475)" fill="#76ba1b" stroke="#263238" stroke-miterlimit="10" stroke-width="1"/>
      <path id="Path_472" data-name="Path 472" d="M302.421,216.53a15.265,15.265,0,0,0-5.039-1.579c-3.5-.614-15.522-7.311-15.522-7.311l-1.98,2.475s8.459,6.222,12.869,8.885,6.38,3.366,7.8,3.222,4.717-3.237,4.717-3.237" transform="translate(-196.398 -173.75)" fill="#76ba1b" stroke="#263238" stroke-miterlimit="10" stroke-width="1"/>
      <path id="Path_473" data-name="Path 473" d="M265.681,195.705l3.2,2.549.312-.262s-2.386-2.4-2.623-2.673-.168-.495,0-.619a.817.817,0,0,1,.495-.064l4.663,3.43-1.257-2.925c.049-.579.629-.366.629-.366l1.98,3.1.614,3.049-1.534,2.757s-7.063-2.4-7.3-2.51-.495-.1-.52-.53.287-.465.287-.465l2.267.441-2.2-1.846c-.252-.213-.351-.2-.406-.441s.416-.6.416-.6l3.039,1.836.188-.292s-2.717-2.475-2.846-2.678-.2-.3.035-.678A.436.436,0,0,1,265.681,195.705Z" transform="translate(-188.521 -167.176)" fill="#fff" stroke="#263238" stroke-linecap="round" stroke-linejoin="round" stroke-width="1"/>
    </g>
  </g>
</svg>
