<svg xmlns="http://www.w3.org/2000/svg" width="229.543" height="171.037" viewBox="0 0 229.543 171.037">
  <g id="City_driver-rafiki" data-name="City driver-rafiki" transform="translate(0 -55)">
    <g id="freepik--background-complete--inject-79" transform="translate(0 55)">
      <rect id="Rectangle_407" data-name="Rectangle 407" width="229.543" height="0.115" transform="translate(0 150.305)" fill="#ebebeb"/>
      <path id="Path_3115" data-name="Path 3115" d="M129.472,184.83H40.827a2.621,2.621,0,0,1-2.617-2.621V57.6A2.621,2.621,0,0,1,40.827,55h88.645a2.621,2.621,0,0,1,2.621,2.621V182.208A2.621,2.621,0,0,1,129.472,184.83ZM40.827,55.092a2.507,2.507,0,0,0-2.5,2.507v124.61a2.507,2.507,0,0,0,2.5,2.507h88.645a2.511,2.511,0,0,0,2.507-2.507V57.6a2.511,2.511,0,0,0-2.507-2.507Z" transform="translate(-20.668 -55)" fill="#ebebeb"/>
      <path id="Path_3116" data-name="Path 3116" d="M345.771,184.83h-88.65a2.626,2.626,0,0,1-2.621-2.621V57.6a2.626,2.626,0,0,1,2.621-2.6h88.65a2.621,2.621,0,0,1,2.612,2.6v124.61A2.621,2.621,0,0,1,345.771,184.83ZM257.121,55.092a2.511,2.511,0,0,0-2.507,2.507v124.61a2.511,2.511,0,0,0,2.507,2.507h88.65a2.511,2.511,0,0,0,2.507-2.507V57.6a2.511,2.511,0,0,0-2.507-2.507Z" transform="translate(-137.662 -55)" fill="#ebebeb"/>
      <rect id="Rectangle_408" data-name="Rectangle 408" width="11.936" height="0.115" transform="translate(194.607 157.692)" fill="#ebebeb"/>
      <rect id="Rectangle_409" data-name="Rectangle 409" width="20.673" height="0.115" transform="translate(142.776 158.941)" fill="#ebebeb"/>
      <rect id="Rectangle_410" data-name="Rectangle 410" width="27.908" height="0.115" transform="translate(166.24 153.431)" fill="#ebebeb"/>
      <rect id="Rectangle_411" data-name="Rectangle 411" width="8.828" height="0.115" transform="translate(24.084 154.203)" fill="#ebebeb"/>
      <rect id="Rectangle_412" data-name="Rectangle 412" width="25.383" height="0.115" transform="translate(37.002 154.203)" fill="#ebebeb"/>
      <rect id="Rectangle_413" data-name="Rectangle 413" width="34.188" height="0.115" transform="translate(77.893 156.14)" fill="#ebebeb"/>
      <rect id="Rectangle_414" data-name="Rectangle 414" width="9.733" height="33.688" transform="translate(21.228 116.617)" fill="#fafafa"/>
      <rect id="Rectangle_415" data-name="Rectangle 415" width="9.733" height="26.297" transform="translate(29.749 124.009)" fill="#fafafa"/>
      <rect id="Rectangle_416" data-name="Rectangle 416" width="9.733" height="47.965" transform="translate(35.974 102.34)" fill="#fafafa"/>
      <rect id="Rectangle_417" data-name="Rectangle 417" width="9.733" height="86.859" transform="translate(42.443 63.446)" fill="#fafafa"/>
      <rect id="Rectangle_418" data-name="Rectangle 418" width="26.117" height="80.097" transform="translate(50.132 70.208)" fill="#fafafa"/>
      <rect id="Rectangle_419" data-name="Rectangle 419" width="11.119" height="23.055" transform="translate(188.914 150.305) rotate(180)" fill="#fafafa"/>
      <rect id="Rectangle_420" data-name="Rectangle 420" width="11.119" height="17.996" transform="translate(179.172 150.305) rotate(180)" fill="#fafafa"/>
      <rect id="Rectangle_421" data-name="Rectangle 421" width="11.119" height="32.829" transform="translate(172.066 150.305) rotate(180)" fill="#fafafa"/>
      <rect id="Rectangle_422" data-name="Rectangle 422" width="11.119" height="59.447" transform="translate(164.674 150.305) rotate(180)" fill="#fafafa"/>
      <rect id="Rectangle_423" data-name="Rectangle 423" width="34.124" height="72.623" transform="translate(125.409 77.682)" fill="#f0f0f0"/>
      <rect id="Rectangle_424" data-name="Rectangle 424" width="1.625" height="8.837" transform="translate(154.657 80.726)" fill="#f5f5f5"/>
      <rect id="Rectangle_425" data-name="Rectangle 425" width="1.625" height="8.837" transform="translate(154.657 94.549)" fill="#f5f5f5"/>
      <rect id="Rectangle_426" data-name="Rectangle 426" width="1.625" height="8.837" transform="translate(154.657 108.367)" fill="#f5f5f5"/>
      <rect id="Rectangle_427" data-name="Rectangle 427" width="1.625" height="8.837" transform="translate(154.657 122.186)" fill="#f5f5f5"/>
      <rect id="Rectangle_428" data-name="Rectangle 428" width="1.625" height="8.837" transform="translate(154.657 136.009)" fill="#f5f5f5"/>
      <rect id="Rectangle_429" data-name="Rectangle 429" width="1.625" height="8.837" transform="translate(148.9 80.726)" fill="#f5f5f5"/>
      <rect id="Rectangle_430" data-name="Rectangle 430" width="1.625" height="8.837" transform="translate(148.9 94.549)" fill="#f5f5f5"/>
      <rect id="Rectangle_431" data-name="Rectangle 431" width="1.625" height="8.837" transform="translate(148.9 108.367)" fill="#f5f5f5"/>
      <rect id="Rectangle_432" data-name="Rectangle 432" width="1.625" height="8.837" transform="translate(148.9 122.186)" fill="#f5f5f5"/>
      <rect id="Rectangle_433" data-name="Rectangle 433" width="1.625" height="8.837" transform="translate(148.9 136.009)" fill="#f5f5f5"/>
      <rect id="Rectangle_434" data-name="Rectangle 434" width="1.625" height="8.837" transform="translate(143.143 80.726)" fill="#f5f5f5"/>
      <rect id="Rectangle_435" data-name="Rectangle 435" width="1.625" height="8.837" transform="translate(143.143 94.549)" fill="#f5f5f5"/>
      <rect id="Rectangle_436" data-name="Rectangle 436" width="1.625" height="8.837" transform="translate(143.143 108.367)" fill="#f5f5f5"/>
      <rect id="Rectangle_437" data-name="Rectangle 437" width="1.625" height="8.837" transform="translate(143.143 122.186)" fill="#f5f5f5"/>
      <rect id="Rectangle_438" data-name="Rectangle 438" width="1.625" height="8.837" transform="translate(143.143 136.009)" fill="#f5f5f5"/>
      <rect id="Rectangle_439" data-name="Rectangle 439" width="1.625" height="8.837" transform="translate(137.386 80.726)" fill="#f5f5f5"/>
      <rect id="Rectangle_440" data-name="Rectangle 440" width="1.625" height="8.837" transform="translate(137.386 94.549)" fill="#f5f5f5"/>
      <rect id="Rectangle_441" data-name="Rectangle 441" width="1.625" height="8.837" transform="translate(137.386 108.367)" fill="#f5f5f5"/>
      <rect id="Rectangle_442" data-name="Rectangle 442" width="1.625" height="8.837" transform="translate(137.386 122.186)" fill="#f5f5f5"/>
      <rect id="Rectangle_443" data-name="Rectangle 443" width="1.625" height="8.837" transform="translate(137.386 136.009)" fill="#f5f5f5"/>
      <rect id="Rectangle_444" data-name="Rectangle 444" width="1.625" height="8.837" transform="translate(131.625 80.726)" fill="#f5f5f5"/>
      <rect id="Rectangle_445" data-name="Rectangle 445" width="1.625" height="8.837" transform="translate(131.625 94.549)" fill="#f5f5f5"/>
      <rect id="Rectangle_446" data-name="Rectangle 446" width="1.625" height="8.837" transform="translate(131.625 108.367)" fill="#f5f5f5"/>
      <rect id="Rectangle_447" data-name="Rectangle 447" width="1.625" height="8.837" transform="translate(131.625 122.186)" fill="#f5f5f5"/>
      <rect id="Rectangle_448" data-name="Rectangle 448" width="1.625" height="8.837" transform="translate(131.625 136.009)" fill="#f5f5f5"/>
      <path id="Path_3117" data-name="Path 3117" d="M273.17,224.21H280.2l3.058,72.623H273.17Z" transform="translate(-147.761 -146.528)" fill="#e0e0e0" opacity="0.5"/>
      <path id="Path_3118" data-name="Path 3118" d="M236.63,163.09l20.237,3.829v96.854H236.63Z" transform="translate(-127.996 -113.467)" fill="#f0f0f0"/>
      <rect id="Rectangle_449" data-name="Rectangle 449" width="16.192" height="100.682" transform="translate(92.442 49.623)" fill="#e6e6e6"/>
      <rect id="Rectangle_450" data-name="Rectangle 450" width="36.429" height="0.514" transform="translate(128.87 58.483) rotate(180)" fill="#e0e0e0"/>
      <rect id="Rectangle_451" data-name="Rectangle 451" width="36.429" height="0.514" transform="translate(128.87 63.965) rotate(180)" fill="#e0e0e0"/>
      <rect id="Rectangle_452" data-name="Rectangle 452" width="36.429" height="0.514" transform="translate(128.87 69.446) rotate(180)" fill="#e0e0e0"/>
      <rect id="Rectangle_453" data-name="Rectangle 453" width="36.429" height="0.514" transform="translate(128.87 74.923) rotate(180)" fill="#e0e0e0"/>
      <rect id="Rectangle_454" data-name="Rectangle 454" width="36.429" height="0.514" transform="translate(128.87 80.409) rotate(180)" fill="#e0e0e0"/>
      <rect id="Rectangle_455" data-name="Rectangle 455" width="36.429" height="0.514" transform="translate(128.87 85.891) rotate(180)" fill="#e0e0e0"/>
      <rect id="Rectangle_456" data-name="Rectangle 456" width="36.429" height="0.514" transform="translate(128.87 91.372) rotate(180)" fill="#e0e0e0"/>
      <rect id="Rectangle_457" data-name="Rectangle 457" width="36.429" height="0.514" transform="translate(128.87 96.854) rotate(180)" fill="#e0e0e0"/>
      <rect id="Rectangle_458" data-name="Rectangle 458" width="36.429" height="0.514" transform="translate(128.87 102.34) rotate(180)" fill="#e0e0e0"/>
      <rect id="Rectangle_459" data-name="Rectangle 459" width="36.429" height="0.514" transform="translate(128.87 107.821) rotate(180)" fill="#e0e0e0"/>
      <rect id="Rectangle_460" data-name="Rectangle 460" width="36.429" height="0.514" transform="translate(128.87 113.303) rotate(180)" fill="#e0e0e0"/>
      <rect id="Rectangle_461" data-name="Rectangle 461" width="36.429" height="0.514" transform="translate(128.87 118.78) rotate(180)" fill="#e0e0e0"/>
      <rect id="Rectangle_462" data-name="Rectangle 462" width="36.429" height="0.514" transform="translate(128.87 124.266) rotate(180)" fill="#e0e0e0"/>
      <rect id="Rectangle_463" data-name="Rectangle 463" width="36.429" height="0.514" transform="translate(128.87 129.747) rotate(180)" fill="#e0e0e0"/>
      <rect id="Rectangle_464" data-name="Rectangle 464" width="36.429" height="0.514" transform="translate(128.87 135.229) rotate(180)" fill="#e0e0e0"/>
      <rect id="Rectangle_465" data-name="Rectangle 465" width="36.429" height="0.514" transform="translate(128.87 140.71) rotate(180)" fill="#e0e0e0"/>
      <rect id="Rectangle_466" data-name="Rectangle 466" width="36.429" height="0.514" transform="translate(128.87 146.196) rotate(180)" fill="#e0e0e0"/>
      <rect id="Rectangle_467" data-name="Rectangle 467" width="16.927" height="122.08" transform="translate(66.659 28.225)" fill="#f0f0f0"/>
      <path id="Path_3119" data-name="Path 3119" d="M162.127,103.779H145.2L151.43,93h24.24Z" transform="translate(-78.541 -75.555)" fill="#fafafa"/>
      <path id="Path_3120" data-name="Path 3120" d="M182.07,103.779,195.613,93V225.86H182.07Z" transform="translate(-98.484 -75.555)" fill="#ebebeb"/>
      <rect id="Rectangle_468" data-name="Rectangle 468" width="30.47" height="0.652" transform="translate(66.659 33.913)" fill="#e0e0e0"/>
      <rect id="Rectangle_469" data-name="Rectangle 469" width="30.47" height="0.652" transform="translate(66.659 40.822)" fill="#e0e0e0"/>
      <rect id="Rectangle_470" data-name="Rectangle 470" width="30.47" height="0.652" transform="translate(66.659 47.731)" fill="#e0e0e0"/>
      <rect id="Rectangle_471" data-name="Rectangle 471" width="30.47" height="0.652" transform="translate(66.659 54.645)" fill="#e0e0e0"/>
      <rect id="Rectangle_472" data-name="Rectangle 472" width="30.47" height="0.652" transform="translate(66.659 61.554)" fill="#e0e0e0"/>
      <rect id="Rectangle_473" data-name="Rectangle 473" width="30.47" height="0.652" transform="translate(66.659 68.464)" fill="#e0e0e0"/>
      <rect id="Rectangle_474" data-name="Rectangle 474" width="30.47" height="0.652" transform="translate(66.659 75.373)" fill="#e0e0e0"/>
      <rect id="Rectangle_475" data-name="Rectangle 475" width="30.47" height="0.652" transform="translate(66.659 82.282)" fill="#e0e0e0"/>
      <rect id="Rectangle_476" data-name="Rectangle 476" width="30.47" height="0.652" transform="translate(66.659 89.191)" fill="#e0e0e0"/>
      <rect id="Rectangle_477" data-name="Rectangle 477" width="30.47" height="0.652" transform="translate(66.659 96.105)" fill="#e0e0e0"/>
      <rect id="Rectangle_478" data-name="Rectangle 478" width="30.47" height="0.652" transform="translate(66.659 103.015)" fill="#e0e0e0"/>
      <rect id="Rectangle_479" data-name="Rectangle 479" width="30.47" height="0.652" transform="translate(66.659 109.924)" fill="#e0e0e0"/>
      <rect id="Rectangle_480" data-name="Rectangle 480" width="30.47" height="0.652" transform="translate(66.659 116.833)" fill="#e0e0e0"/>
      <rect id="Rectangle_481" data-name="Rectangle 481" width="30.47" height="0.652" transform="translate(66.659 123.742)" fill="#e0e0e0"/>
      <rect id="Rectangle_482" data-name="Rectangle 482" width="30.47" height="0.652" transform="translate(66.659 130.652)" fill="#e0e0e0"/>
      <rect id="Rectangle_483" data-name="Rectangle 483" width="30.47" height="0.652" transform="translate(66.659 137.565)" fill="#e0e0e0"/>
      <rect id="Rectangle_484" data-name="Rectangle 484" width="30.47" height="0.652" transform="translate(66.659 144.475)" fill="#e0e0e0"/>
      <rect id="Rectangle_485" data-name="Rectangle 485" width="18.478" height="63.005" transform="translate(45.243 87.3)" fill="#f0f0f0"/>
      <rect id="Rectangle_486" data-name="Rectangle 486" width="2.966" height="10.114" transform="translate(48.879 90.555)" fill="#e6e6e6"/>
      <rect id="Rectangle_487" data-name="Rectangle 487" width="2.966" height="10.114" transform="translate(56.156 90.555)" fill="#e6e6e6"/>
      <rect id="Rectangle_488" data-name="Rectangle 488" width="2.966" height="10.114" transform="translate(48.879 103.653)" fill="#e6e6e6"/>
      <rect id="Rectangle_489" data-name="Rectangle 489" width="2.966" height="10.114" transform="translate(56.156 103.653)" fill="#e6e6e6"/>
      <rect id="Rectangle_490" data-name="Rectangle 490" width="2.966" height="10.114" transform="translate(48.879 116.746)" fill="#e6e6e6"/>
      <rect id="Rectangle_491" data-name="Rectangle 491" width="2.966" height="10.114" transform="translate(56.156 116.746)" fill="#e6e6e6"/>
      <rect id="Rectangle_492" data-name="Rectangle 492" width="2.966" height="10.114" transform="translate(48.879 129.844)" fill="#e6e6e6"/>
      <rect id="Rectangle_493" data-name="Rectangle 493" width="2.966" height="10.114" transform="translate(56.156 129.844)" fill="#e6e6e6"/>
      <path id="Path_3121" data-name="Path 3121" d="M117.024,240.016H98.55l4.334-4.366h18.478Z" transform="translate(-53.307 -152.716)" fill="#fff"/>
      <path id="Path_3122" data-name="Path 3122" d="M138.79,240.016l4.338-4.366,4.334,4.366v63.005H138.79Z" transform="translate(-75.073 -152.716)" fill="#e6e6e6"/>
    </g>
    <g id="freepik--Shadow--inject-79" transform="translate(25.759 215.644)">
      <ellipse id="freepik--path--inject-79" cx="89.012" cy="5.197" rx="89.012" ry="5.197" transform="translate(0 0)" fill="#f5f5f5"/>
    </g>
    <g id="freepik--Smartphone--inject-79" transform="translate(125.951 82.352)">
      <rect id="Rectangle_494" data-name="Rectangle 494" width="67.077" height="138.484" rx="9.29" transform="translate(2.654)" fill="#76ba1b"/>
      <rect id="Rectangle_495" data-name="Rectangle 495" width="67.077" height="138.484" rx="9.29" fill="#76ba1b"/>
      <rect id="Rectangle_496" data-name="Rectangle 496" width="67.077" height="138.484" rx="9.29" fill="#fff" opacity="0.7"/>
      <g id="Group_3657" data-name="Group 3657" opacity="0.9">
        <rect id="Rectangle_497" data-name="Rectangle 497" width="3.631" height="138.484" transform="translate(9.834)" fill="#fff"/>
        <rect id="Rectangle_498" data-name="Rectangle 498" width="2.227" height="138.484" transform="translate(49.659)" fill="#fff"/>
        <path id="Path_3123" data-name="Path 3123" d="M274.35,175.2v3.631l67.077-4.155V171.05Z" transform="translate(-274.35 -145.125)" fill="#fff"/>
        <rect id="Rectangle_499" data-name="Rectangle 499" width="3.631" height="67.077" transform="translate(0.005 119.5) rotate(-90)" fill="#fff"/>
        <rect id="Rectangle_500" data-name="Rectangle 500" width="1.979" height="67.077" transform="translate(0 50.187) rotate(-90)" fill="#fff"/>
        <path id="Path_3124" data-name="Path 3124" d="M274.35,294.817v4.159l67.077-22.7V272.12Z" transform="translate(-274.35 -199.795)" fill="#fff"/>
        <path id="Path_3125" data-name="Path 3125" d="M321.281,114.58H317.65l9.76,138.488h3.631Z" transform="translate(-297.772 -114.58)" fill="#fff"/>
      </g>
    </g>
    <g id="freepik--Car--inject-79" transform="translate(35.249 145.273)">
      <path id="Path_3126" data-name="Path 3126" d="M300.908,355.962H221.05V331.07h70.392l6.57,5.339a7.832,7.832,0,0,1,2.9,6.106Z" transform="translate(-154.817 -294.603)" fill="#76ba1b"/>
      <path id="Path_3127" data-name="Path 3127" d="M300.908,355.962H221.05V331.07h70.392l6.57,5.339a7.832,7.832,0,0,1,2.9,6.106Z" transform="translate(-154.817 -294.603)" opacity="0.5"/>
      <path id="Path_3128" data-name="Path 3128" d="M208.572,361.019c0-9.085,4.132-16.449,9.182-16.449h-9.742c-5.082,0-9.182,7.345-9.182,16.449s4.132,16.454,9.182,16.454h9.76C212.681,377.473,208.572,370.1,208.572,361.019Z" transform="translate(-142.798 -301.905)" fill="#263238"/>
      <ellipse id="Ellipse_94" data-name="Ellipse 94" cx="9.2" cy="16.449" rx="9.2" ry="16.449" transform="translate(65.773 42.665)" fill="#263238"/>
      <ellipse id="Ellipse_95" data-name="Ellipse 95" cx="6.524" cy="12.827" rx="6.524" ry="12.827" transform="translate(69.189 46.287)" fill="#fff"/>
      <path id="Path_3129" data-name="Path 3129" d="M93.062,361.019c0-9.085,4.132-16.449,9.182-16.449H92.5c-5.082,0-9.182,7.345-9.182,16.449s4.132,16.454,9.182,16.454h9.76C97.18,377.473,93.062,370.1,93.062,361.019Z" transform="translate(-80.317 -301.905)" fill="#263238"/>
      <ellipse id="Ellipse_96" data-name="Ellipse 96" cx="9.2" cy="16.449" rx="9.2" ry="16.449" transform="translate(12.744 42.665)" fill="#263238"/>
      <path id="Path_3130" data-name="Path 3130" d="M345.9,361.019c0-9.085,4.132-16.449,9.182-16.449h-9.742c-5.078,0-9.182,7.345-9.182,16.449s4.132,16.454,9.182,16.454h9.76C350.024,377.473,345.9,370.1,345.9,361.019Z" transform="translate(-217.082 -301.905)" fill="#263238"/>
      <ellipse id="Ellipse_97" data-name="Ellipse 97" cx="9.2" cy="16.449" rx="9.2" ry="16.449" transform="translate(128.82 42.665)" fill="#263238"/>
      <ellipse id="Ellipse_98" data-name="Ellipse 98" cx="6.524" cy="12.827" rx="6.524" ry="12.827" transform="translate(132.24 46.287)" fill="#fff"/>
      <path id="Path_3131" data-name="Path 3131" d="M131.682,371.171h-11.8l-.661-.643a3.627,3.627,0,0,0-2.562-1.065h-29.5a3.627,3.627,0,0,0-2.562,1.065l-.4.4H83.115a6.335,6.335,0,0,1-6.335-6.368v-9.71h66.944L138.4,366.428a7.116,7.116,0,0,1-6.716,4.742Z" transform="translate(-76.78 -307.466)" fill="#76ba1b"/>
      <path id="Path_3132" data-name="Path 3132" d="M131.682,371.171h-11.8l-.661-.643a3.627,3.627,0,0,0-2.562-1.065h-29.5a3.627,3.627,0,0,0-2.562,1.065l-.4.4H83.115a6.335,6.335,0,0,1-6.335-6.368v-9.71h66.944L138.4,366.428a7.116,7.116,0,0,1-6.716,4.742Z" transform="translate(-76.78 -307.466)" opacity="0.2"/>
      <path id="Path_3133" data-name="Path 3133" d="M347.889,257.624a.207.207,0,0,1-.115-.032.225.225,0,0,1-.083-.312l3.214-5.509a.23.23,0,1,1,.395.23l-3.214,5.509A.229.229,0,0,1,347.889,257.624Z" transform="translate(-223.302 -251.636)" fill="#263238"/>
      <path id="Path_3134" data-name="Path 3134" d="M305.788,286.93v-6.262c0-3.292-4.784-18.823-11.362-21.733s-22.5-4.205-32.522-3.673-23.413,21.5-23.413,21.5l1.455,18.033c2.038,0,8.53-.615,9.48,17.225a4.9,4.9,0,0,0,4.908,4.655h35.1a4.889,4.889,0,0,0,4.839-4.214c.918-6.358,3.315-17.679,9.094-17.679a7.166,7.166,0,0,1,6.96,7.451h0a26.977,26.977,0,0,0-3.094-12.551Z" transform="translate(-164.251 -253.534)" fill="#76ba1b"/>
      <path id="Path_3135" data-name="Path 3135" d="M163.6,255.4c-18.258,0-38.944,21.5-38.944,21.5h52.276s13.373-20.966,23.413-21.5Z" transform="translate(-102.679 -253.672)" fill="#76ba1b"/>
      <path id="Path_3136" data-name="Path 3136" d="M168.972,255.4c-15.379,0-31.512,15.26-36.217,20.067a.845.845,0,0,0,.606,1.437h42.172a10.789,10.789,0,0,0,8.723-4.4c4.536-6.179,13.272-16.725,20.342-17.106Z" transform="translate(-106.926 -253.672)" fill="#fff" opacity="0.4"/>
      <path id="Path_3137" data-name="Path 3137" d="M151.037,302.24l-19.309,15.237-51.964-.165s-2.984,4.338-2.984,9.081h66.944c1.1-2.906,4.944-6.12,8.769-6.12C152.493,314.865,151.037,302.24,151.037,302.24Z" transform="translate(-76.78 -279.008)" fill="#76ba1b"/>
      <path id="Path_3138" data-name="Path 3138" d="M210.733,312a.228.228,0,0,1-.032-.454,25.48,25.48,0,0,0,12.533-5.83,3.7,3.7,0,0,0,.666-4.931.23.23,0,1,1,.376-.262,4.164,4.164,0,0,1-.748,5.541,25.865,25.865,0,0,1-12.758,5.931Z" transform="translate(-149.114 -278.02)" opacity="0.2"/>
      <path id="Path_3139" data-name="Path 3139" d="M83.28,317.312s9.127-10.637,19-15.072h52.276l-19.309,15.237Z" transform="translate(-80.296 -279.008)" fill="#76ba1b"/>
      <rect id="Rectangle_501" data-name="Rectangle 501" width="34.28" height="0.996" transform="translate(9.127 38.304)" fill="#263238"/>
      <path id="Path_3140" data-name="Path 3140" d="M168.736,323.957l1.836-1.836a3.049,3.049,0,0,1,1.506-.822l13.869-3.021a3.021,3.021,0,0,1,1.474.046l.744.207a3.048,3.048,0,0,1,1.469,4.94l-2.984,3.411a3.057,3.057,0,0,1-2.011,1.028l-13.465,1.221a3.039,3.039,0,0,1-2.433-.872h0A3.048,3.048,0,0,1,168.736,323.957Z" transform="translate(-126.041 -287.646)" fill="#fff"/>
      <path id="Path_3141" data-name="Path 3141" d="M89.254,327.947l-1.52-2.842a2.516,2.516,0,0,0-.918-.964h0a2.5,2.5,0,0,0-2.447-.069l-1.152.606a2.511,2.511,0,0,0-1.2,1.409l-.7,2.08a2.5,2.5,0,0,0,1.942,3.273l3.172.546a2.5,2.5,0,0,0,2.631-1.281l.211-.39A2.493,2.493,0,0,0,89.254,327.947Z" transform="translate(-79.159 -290.662)" fill="#fff"/>
      <path id="Path_3142" data-name="Path 3142" d="M258.773,281.3h48.333a2.626,2.626,0,0,0,2.516-3.383c-1.1-3.673-3.214-9.416-6.386-12.345a2.667,2.667,0,0,0-1.253-.643c-5.7-1.207-14.856-2.011-21.651-2.479a21.375,21.375,0,0,0-16.715,6.354,58.806,58.806,0,0,0-6.974,8.507,2.566,2.566,0,0,0,2.13,3.989Z" transform="translate(-173.837 -257.459)" fill="#fff" opacity="0.4"/>
      <path id="Path_3143" data-name="Path 3143" d="M185.606,363.357c0,1.506-1.543,2.732-3.443,2.732s-3.443-1.226-3.443-2.732,1.538-2.727,3.443-2.727S185.606,361.851,185.606,363.357Z" transform="translate(-131.921 -310.592)" fill="#263238"/>
      <path id="Path_3144" data-name="Path 3144" d="M129.735,330.53c1.129,0,1.68,1.157,1.23,2.58a3.534,3.534,0,0,1-2.86,2.585c-1.134,0-1.68-1.157-1.23-2.585A3.527,3.527,0,0,1,129.735,330.53Z" transform="translate(-103.791 -294.311)" fill="#263238"/>
      <path id="Path_3145" data-name="Path 3145" d="M80.542,363.357c0,1.506-.459,2.732-.969,2.732s-.973-1.226-.973-2.732.459-2.727.973-2.727S80.542,361.851,80.542,363.357Z" transform="translate(-77.764 -310.592)" fill="#263238"/>
      <path id="Path_3146" data-name="Path 3146" d="M258.55,297.277V295.73a2.984,2.984,0,0,1,3.595-2.924l5.885,1.226a2.989,2.989,0,0,1,2.378,2.924v.321a2.989,2.989,0,0,1-2.984,2.989h-5.885A2.989,2.989,0,0,1,258.55,297.277Z" transform="translate(-175.102 -273.871)" fill="#263238"/>
      <path id="Path_3147" data-name="Path 3147" d="M323.463,263.677s-.785-.078-2.153-.2c6.051,12.4,4.508,18.4,4.508,18.4h4.618C330.483,274.337,323.463,263.677,323.463,263.677Z" transform="translate(-209.049 -258.043)" fill="#263238"/>
      <path id="Path_3148" data-name="Path 3148" d="M180.108,276.836a3.939,3.939,0,0,1-3.916,3.563H152.4c-1.735,0-2.364-1.937-1.106-3.379a67.192,67.192,0,0,1,7.373-7.2,21.79,21.79,0,0,1,15.246-5.371l1.965.142a3.948,3.948,0,0,1,3.553,3.108,29.905,29.905,0,0,1,.679,9.136Z" transform="translate(-116.726 -258.544)" fill="#76ba1b" opacity="0.2"/>
      <path id="Path_3149" data-name="Path 3149" d="M332.06,340.691a.23.23,0,0,1-.23-.23c0-4.646,2.369-23.8,2.989-26.673a17.538,17.538,0,0,0,0-7.924.23.23,0,0,1,.156-.285.234.234,0,0,1,.285.156,18,18,0,0,1,0,8.149c-.62,2.856-2.979,21.949-2.979,26.577A.23.23,0,0,1,332.06,340.691Z" transform="translate(-214.74 -280.811)" opacity="0.2"/>
      <path id="Path_3150" data-name="Path 3150" d="M323.563,321.235h-5.6a.693.693,0,0,1-.7-.849l.115-.647a1.056,1.056,0,0,1,1-.849h5.6a.693.693,0,0,1,.7.849l-.115.647A1.056,1.056,0,0,1,323.563,321.235Z" transform="translate(-206.854 -288.014)" opacity="0.2"/>
    </g>
    <g id="freepik--Pin--inject-79" transform="translate(145.365 96.368)">
      <path id="Path_3151" data-name="Path 3151" d="M353.07,157.675h-.459a12.152,12.152,0,0,0-.5-3.454l.46-.127a12.557,12.557,0,0,1,.5,3.581Zm-1.979-5.872a12.147,12.147,0,0,0-10.591-6.234v-.459a12.588,12.588,0,0,1,10.991,6.473Z" transform="translate(-329.546 -145.11)" fill="#76ba1b"/>
      <path id="Path_3152" data-name="Path 3152" d="M327.594,148.61a10.958,10.958,0,0,0-10.954,10.958c0,10.559,10.954,17.794,10.954,17.794s10.963-7.24,10.963-17.794A10.963,10.963,0,0,0,327.594,148.61Zm0,16.119a5.114,5.114,0,1,1,5.119-5.114A5.114,5.114,0,0,1,327.594,164.729Z" transform="translate(-316.64 -147.003)" fill="#76ba1b"/>
    </g>
    <g id="freepik--Character--inject-79" transform="translate(122.732 118.206)">
      <path id="Path_3153" data-name="Path 3153" d="M297.97,407.093l2.773-.046.8-6.427-2.768.046Z" transform="translate(-283.908 -305.156)" fill="#b55b52"/>
      <path id="Path_3154" data-name="Path 3154" d="M324.831,406.124l2.69-.822-1.671-6.092-2.69.826Z" transform="translate(-297.534 -304.393)" fill="#b55b52"/>
      <path id="Path_3155" data-name="Path 3155" d="M328.791,410.059l-3,1.547a.243.243,0,0,0-.119.28l.643,2.438a.4.4,0,0,0,.583.253c.96-.514,1.634-.918,2.851-1.566.748-.386,3.044-1.469,4.077-2.006s.643-1.625.174-1.5a10.958,10.958,0,0,1-4.729.5A.661.661,0,0,0,328.791,410.059Z" transform="translate(-298.886 -309.958)" fill="#263238"/>
      <path id="Path_3156" data-name="Path 3156" d="M299.683,413.92l-3.025.051a.239.239,0,0,0-.23.193l-.51,2.47a.4.4,0,0,0,.4.487c1.093-.037,2.667-.124,4.04-.147,1.6-.023,2.07.041,3.953,0,1.134,0,1.432-1.175.955-1.272-2.176-.459-3.025-.459-4.912-1.588A1.377,1.377,0,0,0,299.683,413.92Z" transform="translate(-282.793 -312.35)" fill="#263238"/>
      <path id="Path_3157" data-name="Path 3157" d="M308.837,231.05c.629,1.262,1.341,2.6,2.052,3.87s1.464,2.539,2.268,3.728c.207.294.4.6.611.881l.519.707c.106.138.165.2.184.234s.028.078.161.087a2.659,2.659,0,0,0,1.308-.643c.253-.193.51-.413.762-.647s.5-.505.725-.721l1.832,1.019a9.291,9.291,0,0,1-.542,1.18,8.057,8.057,0,0,1-.707,1.111,6.561,6.561,0,0,1-.964,1.047,4.5,4.5,0,0,1-1.455.868,3.6,3.6,0,0,1-2.093.115,4.132,4.132,0,0,1-1.754-.918,3.963,3.963,0,0,1-.317-.3l-.147-.151-.106-.119-.4-.459c-.271-.308-.519-.624-.776-.918a40.129,40.129,0,0,1-2.709-3.948c-.4-.679-.8-1.377-1.171-2.061s-.725-1.377-1.065-2.153Z" transform="translate(-287.738 -213.433)" fill="#b55b52"/>
      <path id="Path_3158" data-name="Path 3158" d="M302.394,228.527C301.646,231.07,306.9,238,306.9,238l5.3-3.411a33.823,33.823,0,0,0-3.673-6.234C306.361,225.584,303.211,225.731,302.394,228.527Z" transform="translate(-286.262 -210.892)" fill="#76ba1b"/>
      <g id="Group_3658" data-name="Group 3658" transform="translate(16.059 15.459)" opacity="0.2">
        <path id="Path_3159" data-name="Path 3159" d="M302.394,228.527C301.646,231.07,306.9,238,306.9,238l5.3-3.411a33.823,33.823,0,0,0-3.673-6.234C306.361,225.584,303.211,225.731,302.394,228.527Z" transform="translate(-302.321 -226.351)"/>
      </g>
      <path id="Path_3160" data-name="Path 3160" d="M307.043,237.529c1.088.459,2.695,3.094,3.53,5.05l-2.25,1.446a41.967,41.967,0,0,1-3.383-5.3C305.652,237.933,306.464,237.285,307.043,237.529Z" transform="translate(-287.678 -216.91)" opacity="0.2"/>
      <path id="Path_3161" data-name="Path 3161" d="M331.32,244.8l1.919-3.1,1.676,2.676a3.3,3.3,0,0,1-1.836,1.51Z" transform="translate(-301.948 -219.194)" fill="#b55b52"/>
      <path id="Path_3162" data-name="Path 3162" d="M338.187,240.944v.959a1.294,1.294,0,0,1-.294.822l-.7.863-1.676-2.676,1.731-.629a.7.7,0,0,1,.937.661Z" transform="translate(-304.22 -218.406)" fill="#b55b52"/>
      <path id="Path_3163" data-name="Path 3163" d="M333.691,242.983l-3.021-.046,1.671-6.257,3.021.046Z" transform="translate(-301.596 -216.479)" fill="#76ba1b"/>
      <path id="Path_3164" data-name="Path 3164" d="M334.361,242.983l-3.021-.046,1.671-6.257,3.021.046Z" transform="translate(-301.959 -216.479)" fill="#263238"/>
      <path id="Path_3165" data-name="Path 3165" d="M302,400.63l-.413,3.31-2.773.046.413-3.315Z" transform="translate(-284.363 -305.162)" opacity="0.2"/>
      <path id="Path_3166" data-name="Path 3166" d="M323.16,400.036l2.695-.826.858,3.14-2.695.826Z" transform="translate(-297.534 -304.393)" opacity="0.2"/>
      <path id="Path_3167" data-name="Path 3167" d="M276.919,229.37c2.263,9.742,1.772,19.406,2.02,21.49l14.778-1.1c1.419-15.834-1.942-23.873-1.942-23.873s-.95-.184-2.24-.317c-.4-.041-.845-.078-1.3-.1-.252,0-.505-.023-.767-.028a54.867,54.867,0,0,0-6.28.459c-.395.051-.794.106-1.184.17l-1.047.193h-.041a2.566,2.566,0,0,0-2,3.108Z" transform="translate(-272.484 -210.399)" fill="#76ba1b"/>
      <g id="Group_3659" data-name="Group 3659" transform="translate(4.366 15.041)" opacity="0.2">
        <path id="Path_3168" data-name="Path 3168" d="M276.919,229.37c2.263,9.742,1.772,19.406,2.02,21.49l14.778-1.1c1.419-15.834-1.942-23.873-1.942-23.873s-.95-.184-2.24-.317c-.4-.041-.845-.078-1.3-.1-.252,0-.505-.023-.767-.028a54.867,54.867,0,0,0-6.28.459c-.395.051-.794.106-1.184.17l-1.047.193h-.041a2.566,2.566,0,0,0-2,3.108Z" transform="translate(-276.85 -225.44)"/>
      </g>
      <path id="Path_3169" data-name="Path 3169" d="M280.449,238.48l-1.7,2.181a.505.505,0,0,1,0,.083c.239,1.478.422,2.924.56,4.32C280.94,243.057,280.7,239.435,280.449,238.48Z" transform="translate(-273.512 -217.452)" opacity="0.2"/>
      <path id="Path_3170" data-name="Path 3170" d="M286.985,216.239a4.7,4.7,0,0,1-.735,4.325,7.067,7.067,0,0,0,5.114,2.07c2.406-.092,1.868-1.717,1.166-2.539-2.052-.331-2.057-1.666-2.075-3.136a.7.7,0,0,0-.491-.666l-2.259-.725a.565.565,0,0,0-.721.67Z" transform="translate(-277.569 -205.045)" fill="#b55b52"/>
      <path id="Path_3171" data-name="Path 3171" d="M298.861,243.61c-1.24,0-2.383-1.487-2.608-3.388a3.769,3.769,0,0,1,.684-2.892,1.547,1.547,0,0,1,1.175-.56h0c1.235,0,2.383,1.487,2.6,3.388a3.774,3.774,0,0,1-.679,2.892,1.57,1.57,0,0,1-1.175.56Zm-.744-6.381h0a1.088,1.088,0,0,0-.831.409,3.342,3.342,0,0,0-.569,2.53c.188,1.621,1.171,2.984,2.149,2.984h0a1.088,1.088,0,0,0,.836-.409,3.361,3.361,0,0,0,.569-2.53h0c-.179-1.621-1.161-2.984-2.135-2.984Z" transform="translate(-282.949 -216.527)" fill="#76ba1b"/>
      <path id="Path_3172" data-name="Path 3172" d="M292.742,218.81l-2.273.294c.051.1.115.2.174.294a3.471,3.471,0,0,0,2.36,1.308,4.834,4.834,0,0,1-.262-1.9Z" transform="translate(-279.851 -206.813)" opacity="0.2"/>
      <path id="Path_3173" data-name="Path 3173" d="M301.84,202.311c1.263.211,3.622-1.221,3.071-3.131-.707.886-3.071.588-3.071.588Z" transform="translate(-286.002 -196.195)" fill="#263238"/>
      <path id="Path_3174" data-name="Path 3174" d="M287.2,210.222c.138,1.276-1.437,3.549-3.31,2.883.918-.652.771-3.035.771-3.035Z" transform="translate(-276.292 -202.085)" fill="#263238"/>
      <path id="Path_3175" data-name="Path 3175" d="M286.682,201.1c-.34,2.727-.679,4.311.427,5.968a3.658,3.658,0,0,0,6.368-.721c1.033-2.3,1.414-6.386-1.028-7.956a3.751,3.751,0,0,0-5.766,2.709Z" transform="translate(-277.624 -195.44)" fill="#b55b52"/>
      <path id="Path_3176" data-name="Path 3176" d="M283.2,201.089c.666.7,2.5-2.167,2.162-3.214a1.477,1.477,0,0,0,1.928-1.414c2.061,1.1,5.05,1.974,5.1,0s-1.836-3.466-3.673-3.622c.22.592-.363.845-1.561.592s-5.817-2.378-5.307,1.868C280.12,195.4,279.9,197.586,283.2,201.089Z" transform="translate(-274.519 -192.677)" fill="#263238"/>
      <path id="Path_3177" data-name="Path 3177" d="M283.281,207.03a2.612,2.612,0,0,0,1.01,1.722c.734.546,1.194-.032,1.262-.9.064-.78,0-2-.877-2.208a1.171,1.171,0,0,0-1.4,1.382Z" transform="translate(-275.95 -199.679)" fill="#b55b52"/>
      <path id="Path_3178" data-name="Path 3178" d="M292.364,279.151l9.714-.721s1.258,19.938,1.162,28.39c-.1,8.8-4.132,30.359-4.132,30.359l-4.692.073s.372-20.916.372-29.551c0-11.629-2.438-28.551-2.438-28.551" transform="translate(-280.868 -239.062)" fill="#263238"/>
      <path id="Path_3179" data-name="Path 3179" d="M300.56,325.15c.129.574,3.742,16.738,4.908,26.168.62-3.921,1.258-8.323,1.689-12.212Z" transform="translate(-285.309 -264.333)" opacity="0.2"/>
      <path id="Path_3180" data-name="Path 3180" d="M290.9,279.29s7.4,18.116,9.062,26.062c1.836,8.7,4.752,30.7,4.752,30.7l-5.018.78s-3.8-16.449-5.922-24.85c-2.415-9.577-11.991-24.74-12.4-31.989Z" transform="translate(-274.935 -239.527)" fill="#263238"/>
      <path id="Path_3181" data-name="Path 3181" d="M325.309,401.387l-6.234,1.46-.785-2.4,6.808-1.166Z" transform="translate(-294.9 -304.431)" fill="#76ba1b"/>
      <path id="Path_3182" data-name="Path 3182" d="M301.769,404.38l-5.592.087-.028-1.8,6.244-.193Z" transform="translate(-282.924 -306.157)" fill="#76ba1b"/>
      <path id="Path_3183" data-name="Path 3183" d="M295.337,207.662c-.041.22.041.418.184.459s.294-.129.335-.349-.041-.418-.188-.459S295.379,207.441,295.337,207.662Z" transform="translate(-282.479 -200.59)" fill="#263238"/>
      <path id="Path_3184" data-name="Path 3184" d="M301.257,208.923a.385.385,0,0,0,.184.459c.142.041.294-.129.335-.349s-.041-.422-.184-.459S301.3,208.7,301.257,208.923Z" transform="translate(-285.681 -201.273)" fill="#263238"/>
      <path id="Path_3185" data-name="Path 3185" d="M298.86,209.22a8,8,0,0,0,.7,2.075,1.3,1.3,0,0,1-1.088,0Z" transform="translate(-284.179 -201.625)" fill="#a02724"/>
      <path id="Path_3186" data-name="Path 3186" d="M296.044,214.1a1.836,1.836,0,0,1-1.194-.84.066.066,0,1,1,.115-.064,1.777,1.777,0,0,0,1.377.817.069.069,0,0,1,0,.133A1.762,1.762,0,0,1,296.044,214.1Z" transform="translate(-282.217 -203.76)" fill="#263238"/>
      <path id="Path_3187" data-name="Path 3187" d="M294.648,205.252a.262.262,0,0,1-.06-.037.142.142,0,0,1,0-.188,1.318,1.318,0,0,1,1.152-.335.133.133,0,0,1,.092.161.129.129,0,0,1-.156.092h0a1.051,1.051,0,0,0-.918.28A.133.133,0,0,1,294.648,205.252Z" transform="translate(-282.06 -199.163)" fill="#263238"/>
      <path id="Path_3188" data-name="Path 3188" d="M303.523,206.594a.133.133,0,0,1-.087-.092,1.019,1.019,0,0,0-.615-.716.132.132,0,0,1,.078-.253,1.3,1.3,0,0,1,.79.918.124.124,0,0,1-.092.161A.1.1,0,0,1,303.523,206.594Z" transform="translate(-286.482 -199.628)" fill="#263238"/>
      <path id="Path_3189" data-name="Path 3189" d="M333.834,409.761a3.213,3.213,0,0,1-.689.243.055.055,0,0,1-.069,0,.064.064,0,0,1,0-.073c.06-.1.6-1,.946-1a.211.211,0,0,1,.188.115.4.4,0,0,1,.037.372A.854.854,0,0,1,333.834,409.761Zm-.565.073a1.345,1.345,0,0,0,.854-.491.266.266,0,0,0-.032-.252c-.028-.046-.051-.051-.073-.051C333.838,409.04,333.494,409.486,333.269,409.834Z" transform="translate(-302.892 -309.651)" fill="#76ba1b"/>
      <path id="Path_3190" data-name="Path 3190" d="M332.946,409.584h-.037a.073.073,0,0,1-.055-.041,1.969,1.969,0,0,1-.156-1.152.372.372,0,0,1,.211-.207h0a.211.211,0,0,1,.262.06c.2.248,0,1.042-.2,1.313A.046.046,0,0,1,332.946,409.584Zm0-1.253a.234.234,0,0,0-.11.119,1.592,1.592,0,0,0,.11.918c.152-.326.257-.9.142-1.038,0,0-.037-.046-.115,0h0Z" transform="translate(-302.679 -309.235)" fill="#76ba1b"/>
      <path id="Path_3191" data-name="Path 3191" d="M304.692,414.023a.064.064,0,0,1,0-.119c.124-.069,1.23-.652,1.57-.459a.22.22,0,0,1,.11.174h0a.377.377,0,0,1-.119.321c-.3.271-1.093.174-1.543.092Zm1.5-.482a2.726,2.726,0,0,0-1.249.386,1.8,1.8,0,0,0,1.239-.092.239.239,0,0,0,.074-.216.073.073,0,0,0-.041-.069Z" transform="translate(-287.523 -312.072)" fill="#76ba1b"/>
      <path id="Path_3192" data-name="Path 3192" d="M304.707,413.272h0a.073.073,0,0,1-.028-.06,1.914,1.914,0,0,1,.413-1.074.505.505,0,0,1,.363-.119h0a.221.221,0,0,1,.248.184c.055.312-.6.918-.918,1.074A.064.064,0,0,1,304.707,413.272Zm.785-1.116a.12.12,0,0,0-.064,0h0a.335.335,0,0,0-.266.087,1.533,1.533,0,0,0-.354.859c.34-.207.78-.689.748-.872,0-.028-.009-.055-.064-.073ZM305.433,412.078Z" transform="translate(-287.538 -311.321)" fill="#76ba1b"/>
      <path id="Path_3193" data-name="Path 3193" d="M276.187,233.349c-.918,1.63-1.836,3.37-2.663,5.082a39.783,39.783,0,0,0-2.135,5.178c-.069.216-.119.427-.184.638-.023.1-.064.234-.078.3s-.027.107-.037.161a2.682,2.682,0,0,0,.023.868,8.062,8.062,0,0,0,.9,2.236,28.092,28.092,0,0,0,3.315,4.494l-1.331,1.6a20.076,20.076,0,0,1-4.674-4.292,10.324,10.324,0,0,1-1.685-3.1,5.968,5.968,0,0,1-.289-2.08,4.853,4.853,0,0,1,.06-.574c.023-.188.05-.285.078-.432.055-.266.106-.546.165-.808a34.894,34.894,0,0,1,2.084-5.941,50.761,50.761,0,0,1,2.846-5.472Z" transform="translate(-267.34 -213.515)" fill="#b55b52"/>
      <path id="Path_3194" data-name="Path 3194" d="M274.38,227.465c-2.557.7-5.05,7.887-5.05,7.887l6.156,1.708a19.835,19.835,0,0,0,2.557-4.921C279.338,228.645,277.474,226.62,274.38,227.465Z" transform="translate(-268.417 -211.391)" fill="#76ba1b"/>
      <g id="Group_3660" data-name="Group 3660" transform="translate(0.913 15.883)" opacity="0.2">
        <path id="Path_3195" data-name="Path 3195" d="M274.38,227.465c-2.557.7-5.05,7.887-5.05,7.887l6.156,1.708a19.835,19.835,0,0,0,2.557-4.921C279.338,228.645,277.474,226.62,274.38,227.465Z" transform="translate(-269.33 -227.273)"/>
      </g>
      <path id="Path_3196" data-name="Path 3196" d="M281.2,276.14l2.81.739-1.116,2.64s-2.52-.533-2.507-1.905Z" transform="translate(-274.399 -237.823)" fill="#b55b52"/>
      <path id="Path_3197" data-name="Path 3197" d="M288.044,279.54l-.831,2.089-1.364-1.24,1.116-2.64Z" transform="translate(-277.352 -238.694)" fill="#b55b52"/>
    </g>
  </g>
</svg>
