<svg xmlns="http://www.w3.org/2000/svg" xmlns:xlink="http://www.w3.org/1999/xlink" width="136.132" height="171.244" viewBox="0 0 136.132 171.244">
  <defs>
    <clipPath id="clip-path">
      <path id="Path_1479" data-name="Path 1479" d="M218.81,200.386a13.7,13.7,0,0,0,1.351,5.022,9,9,0,0,1,2.766-3.161c1.185-.723,1.869-1.4,3.256-1.5a10.6,10.6,0,0,1,2.849.727,11.818,11.818,0,0,0-2.888-3.386,19.554,19.554,0,0,1,1.185-6.009c1.355,3.07,1.628,9.127,1.7,9.4a5.986,5.986,0,0,1-.838,3.161,63.664,63.664,0,0,0-3.951,11.292c3.919.62,8.107-1.031,11.912-2.56a2.338,2.338,0,0,1,.739-.2,2.28,2.28,0,0,1,1.091.332c2.9,1.478,5.824,3.129,9.06,3.556a9.483,9.483,0,0,0,6.171-1.249,20.571,20.571,0,0,0-4.469-12.027s-.182-3.224-.182-3.951c0-7.029,1.861-16.91,2.062-18.214s.992-3.3,1.975-3.3c-2.951-1.067-7.9-2.73-10.166-4.623-.043.107-.087.2-.13.3h0a13.83,13.83,0,0,1-1.249,2.489c-1,1.47-1.007,1.513-.984,2.126a3.054,3.054,0,0,0,.2.763,4.776,4.776,0,0,1,0,1.162c-.261,3.587-2.015,13.9-3.785,16.219a32.907,32.907,0,0,1-2-16.78l.083-.478c.075-.443,1.272-1.209.707-2.833-.324-.932-.51-1.608-.64-2.118a3.622,3.622,0,0,0-.581-1.58,17.866,17.866,0,0,0-2.371,1.648c-.067.154-.518.3-.423.17a10.4,10.4,0,0,1-3.773.873c-1.885.3-3.192,1.49-4.7,2.651C220.213,190.05,218.81,200.386,218.81,200.386Z" transform="translate(-218.81 -172.97)" fill="#76ba1b" stroke="#263238" stroke-linecap="round" stroke-linejoin="round" stroke-width="1"/>
    </clipPath>
    <clipPath id="clip-path-2">
      <path id="Path_1503" data-name="Path 1503" d="M249.754,243.272l.15.162c.446.49.877,1,1.292,1.525.518.656,1,1.324,1.462,2.019s.925,1.454,1.4,2.169A30.206,30.206,0,0,0,257.079,253a2.544,2.544,0,0,0,.62.545,2.766,2.766,0,0,0,1.039.273,8.331,8.331,0,0,1,4.441,1.624,10.126,10.126,0,0,0,1.462,1.308c.565.328,1.458.589,1.486,1.276a1.087,1.087,0,0,1-.146.529,2.822,2.822,0,0,1-2.714,1.288,7.974,7.974,0,0,1-2.987-1.023,66.976,66.976,0,0,1-6.017-3.319c-1.616-1.031-3.161-2.177-4.686-3.354a39.722,39.722,0,0,1-3.734-3.161,18.337,18.337,0,0,1-2.062-2.371C245.029,245.01,247.561,243.09,249.754,243.272Z" transform="translate(-243.78 -243.26)" fill="#fff" stroke="#263238" stroke-linecap="round" stroke-linejoin="round" stroke-width="1"/>
    </clipPath>
  </defs>
  <g id="Coffee_break-bro" data-name="Coffee break-bro" transform="translate(0 0.541)">
    <g id="freepik--background-simple--inject-430" transform="translate(0 8.674)">
      <path id="Path_1424" data-name="Path 1424" d="M209.463,107.662c7.76,25.689,3.994,53.943-6.4,78.664-3.082,7.341-8.341,15.93-12.777,22.521-3.86,5.749-26.653,7.582-41.047,7.9-18.937.443-46.843-1.434-53.157-8.044-13.433-14.069-23.39-36.981-16.242-55.116,4.966-12.6,15.2-22.335,21.643-34.239C110.246,103.15,111.968,83,124.4,69.4c5.5-6,12.722-10.154,20.292-12.979,3.3-1.229,13.9-2.971,21.493.486a78.882,78.882,0,0,1,32.829,28.495,85.392,85.392,0,0,1,10.446,22.256Z" transform="translate(-77.46 -54.881)" fill="#76ba1b" opacity="0.7"/>
      <path id="Path_1425" data-name="Path 1425" d="M209.463,107.662c7.76,25.689,3.994,53.943-6.4,78.664-3.082,7.341-8.341,15.93-12.777,22.521-3.86,5.749-26.653,7.582-41.047,7.9-18.937.443-46.843-1.434-53.157-8.044-13.433-14.069-23.39-36.981-16.242-55.116,4.966-12.6,15.2-22.335,21.643-34.239C110.246,103.15,111.968,83,124.4,69.4c5.5-6,12.722-10.154,20.292-12.979,3.3-1.229,13.9-2.971,21.493.486a78.882,78.882,0,0,1,32.829,28.495,85.392,85.392,0,0,1,10.446,22.256Z" transform="translate(-77.46 -54.881)" fill="#fff" opacity="0.7"/>
    </g>
    <g id="freepik--Shadow--inject-430" transform="translate(19.08 152.679)">
      <ellipse id="Ellipse_71" data-name="Ellipse 71" cx="47.009" cy="9.012" rx="47.009" ry="9.012" fill="#bfbfbf"/>
    </g>
    <g id="freepik--Window--inject-430" transform="translate(13.691 0.878)">
      <path id="Path_1426" data-name="Path 1426" d="M327.38,122.487l23.7-7.546V42.692l-23.7-7.542Z" transform="translate(-327.38 -35.15)" fill="#fff" stroke="#263238" stroke-linecap="round" stroke-linejoin="round" stroke-width="1"/>
      <line id="Line_88" data-name="Line 88" x2="6.211" y2="16.942" transform="translate(12.39 10.241)" fill="#fff" stroke="#263238" stroke-linecap="round" stroke-linejoin="round" stroke-width="1"/>
      <line id="Line_89" data-name="Line 89" x2="0.66" y2="1.806" transform="translate(11.391 7.515)" fill="#fff" stroke="#263238" stroke-linecap="round" stroke-linejoin="round" stroke-width="1"/>
      <line id="Line_90" data-name="Line 90" x2="1.225" y2="3.339" transform="translate(9.87 3.366)" fill="#fff" stroke="#263238" stroke-linecap="round" stroke-linejoin="round" stroke-width="1"/>
      <line id="Line_91" data-name="Line 91" x2="8.218" y2="22.418" transform="translate(9.415 12.596)" fill="#fff" stroke="#263238" stroke-linecap="round" stroke-linejoin="round" stroke-width="1"/>
      <line id="Line_92" data-name="Line 92" x2="2.655" y2="7.242" transform="translate(6.329 4.184)" fill="#fff" stroke="#263238" stroke-linecap="round" stroke-linejoin="round" stroke-width="1"/>
      <line id="Line_93" data-name="Line 93" x2="6.298" y2="17.179" transform="translate(12.173 55.966)" fill="#fff" stroke="#263238" stroke-linecap="round" stroke-linejoin="round" stroke-width="1"/>
    </g>
    <g id="freepik--Wall--inject-430" transform="translate(9.704 16.504)">
      <line id="Line_94" data-name="Line 94" y1="18.783" x2="25.579" transform="translate(19.506 103.066)" fill="none" stroke="#263238" stroke-linecap="round" stroke-linejoin="round" stroke-width="1"/>
      <line id="Line_95" data-name="Line 95" y1="0.502" x2="0.684" transform="translate(25.006 117.309)" fill="none" stroke="#263238" stroke-linecap="round" stroke-linejoin="round" stroke-width="1"/>
      <line id="Line_96" data-name="Line 96" y1="15.472" x2="21.063" transform="translate(0 120.703)" fill="none" stroke="#263238" stroke-linecap="round" stroke-linejoin="round" stroke-width="1"/>
      <line id="Line_97" data-name="Line 97" x2="7.839" transform="translate(114.899 103.066)" fill="none" stroke="#263238" stroke-linecap="round" stroke-linejoin="round" stroke-width="1"/>
      <path id="Path_1427" data-name="Path 1427" d="M178.44,335.56h0Z" transform="translate(-125.493 -232.494)" fill="none" stroke="#263238" stroke-linecap="round" stroke-linejoin="round" stroke-width="1"/>
      <path id="Path_1428" data-name="Path 1428" d="M271.3,177.766H263.44V74.7" transform="translate(-218.355 -74.7)" fill="none" stroke="#263238" stroke-linecap="round" stroke-linejoin="round" stroke-width="1"/>
    </g>
    <g id="freepik--coffee-machine--inject-430" transform="translate(95.192 52.122)">
      <path id="Path_1429" data-name="Path 1429" d="M117.22,216.51a1.343,1.343,0,0,0,.439.075h17.72a1.327,1.327,0,0,0,.439-.075Z" transform="translate(-110.586 -196.099)" fill="none" stroke="#263238" stroke-linecap="round" stroke-linejoin="round" stroke-width="1"/>
      <rect id="Rectangle_303" data-name="Rectangle 303" width="28.08" height="45.974" transform="translate(1.331 24.121)" fill="none" stroke="#263238" stroke-linecap="round" stroke-linejoin="round" stroke-width="1"/>
      <path id="Path_1430" data-name="Path 1430" d="M103.41,216.51v3.71H134.1v-3.71h-5.456a1.326,1.326,0,0,1-.439.075h-17.72a1.343,1.343,0,0,1-.439-.075Z" transform="translate(-103.41 -196.099)" fill="#263238" stroke="#263238" stroke-linecap="round" stroke-linejoin="round" stroke-width="1"/>
      <path id="Path_1431" data-name="Path 1431" d="M117.22,216.51a1.343,1.343,0,0,0,.439.075h17.72a1.327,1.327,0,0,0,.439-.075Z" transform="translate(-110.586 -196.099)" fill="none" stroke="#263238" stroke-linecap="round" stroke-linejoin="round" stroke-width="1"/>
      <g id="freepik--coffee-machine--inject-430-2" data-name="freepik--coffee-machine--inject-430" transform="translate(5.666 0)">
        <path id="Path_1432" data-name="Path 1432" d="M123.27,184.921l1.608,9.877h10.585l1.616-9.929c-.13,0-.269.02-.4.02H123.278Z" transform="translate(-119.904 -176.96)" fill="#fff" stroke="#263238" stroke-linecap="round" stroke-linejoin="round" stroke-width="1"/>
        <path id="Path_1433" data-name="Path 1433" d="M118.866,164.85h13.2a3.556,3.556,0,0,1,3.556,3.556v.79a3.556,3.556,0,0,1-3.161,3.556c-.13,0-.269.02-.4.02H118.656a3.58,3.58,0,0,1-3.366-3.556v-.79a3.556,3.556,0,0,1,3.576-3.576Zm2.4,2.849a1.13,1.13,0,1,0,1.134,1.13A1.13,1.13,0,0,0,121.264,167.7Zm4.852-.79a2.217,2.217,0,0,0-.233-.047.3.3,0,1,0-.593,0,1.98,1.98,0,0,0,.269,3.951,1.861,1.861,0,0,0,.557-.079,1.975,1.975,0,0,0,0-3.817Zm7.507,1.9a.8.8,0,1,0,.016.016Zm-15.235,1.13a1.1,1.1,0,1,0,.016.016Z" transform="translate(-115.29 -164.85)" fill="#263238" stroke="#263238" stroke-linecap="round" stroke-linejoin="round" stroke-width="1"/>
        <path id="Path_1434" data-name="Path 1434" d="M120.28,173.19a1.13,1.13,0,1,0,.332-.8A1.13,1.13,0,0,0,120.28,173.19Z" transform="translate(-104.184 -169.211)" fill="#fff" stroke="#263238" stroke-linecap="round" stroke-linejoin="round" stroke-width="1"/>
        <path id="Path_1435" data-name="Path 1435" d="M135.663,171.464a1.975,1.975,0,0,0,1.975,1.975,1.86,1.86,0,0,0,.557-.079,1.975,1.975,0,0,0,0-3.817,2.211,2.211,0,0,0-.233-.047.3.3,0,1,0-.593,0A1.975,1.975,0,0,0,135.663,171.464Z" transform="translate(-127.381 -167.481)" fill="none" stroke="#263238" stroke-linecap="round" stroke-linejoin="round" stroke-width="1"/>
        <path id="Path_1436" data-name="Path 1436" d="M148.75,173.19a1.134,1.134,0,1,0,1.134-1.13A1.134,1.134,0,0,0,148.75,173.19Z" transform="translate(-143.91 -169.211)" fill="none" stroke="#263238" stroke-linecap="round" stroke-linejoin="round" stroke-width="1"/>
        <path id="Path_1437" data-name="Path 1437" d="M155.99,173.19a1.134,1.134,0,1,0,1.134-1.13,1.134,1.134,0,0,0-1.134,1.13Z" transform="translate(-154.01 -169.211)" fill="#fff" stroke="#263238" stroke-linecap="round" stroke-linejoin="round" stroke-width="1"/>
        <rect id="Rectangle_304" data-name="Rectangle 304" width="3.813" height="2.185" transform="translate(8.368 10.549)" fill="#263238" stroke="#263238" stroke-linecap="round" stroke-linejoin="round" stroke-width="1"/>
        <path id="Path_1438" data-name="Path 1438" d="M115.01,211.366a1.332,1.332,0,0,0,.4.928,1.41,1.41,0,0,0,.49.308,1.343,1.343,0,0,0,.439.075h17.708a1.328,1.328,0,0,0,.439-.075,1.314,1.314,0,0,0-.439-2.552h-17.72a1.312,1.312,0,0,0-1.312,1.316Z" transform="translate(-114.915 -192.191)" fill="#5c5c5c" stroke="#263238" stroke-linecap="round" stroke-linejoin="round" stroke-width="1"/>
        <path id="Path_1439" data-name="Path 1439" d="M135.663,171.875a1.975,1.975,0,0,0,1.975,1.975,1.861,1.861,0,0,0,.557-.079,1.976,1.976,0,0,0,0-3.817,2.211,2.211,0,0,0-.233-.047,1.766,1.766,0,0,0-.324-.028,2,2,0,0,0-.269.02A1.976,1.976,0,0,0,135.663,171.875Z" transform="translate(-127.381 -167.893)" fill="#fff" stroke="#263238" stroke-linecap="round" stroke-linejoin="round" stroke-width="1"/>
        <rect id="Rectangle_305" data-name="Rectangle 305" width="6.357" height="2.544" transform="translate(7.136 7.965)" fill="#fff" stroke="#263238" stroke-linecap="round" stroke-linejoin="round" stroke-width="1"/>
        <rect id="Rectangle_306" data-name="Rectangle 306" width="3.181" height="0.992" transform="translate(5.16 11.3)" fill="#263238" stroke="#263238" stroke-linecap="round" stroke-linejoin="round" stroke-width="1"/>
      </g>
      <path id="Path_1440" data-name="Path 1440" d="M149.9,172.06a1.13,1.13,0,1,1-1.134,1.13A1.13,1.13,0,0,1,149.9,172.06Z" transform="translate(-138.264 -169.211)" fill="#fff" stroke="#263238" stroke-linecap="round" stroke-linejoin="round" stroke-width="1"/>
      <path id="Path_1441" data-name="Path 1441" d="M139.93,169.546v1a.3.3,0,0,0,.3.3.3.3,0,0,0,.3-.3v-1a.3.3,0,1,0-.593,0Z" transform="translate(-124.268 -167.512)" fill="#fff" stroke="#263238" stroke-linecap="round" stroke-linejoin="round" stroke-width="1"/>
      <path id="Path_1442" data-name="Path 1442" d="M111.26,271.918h24.5V230.35h-24.5Z" transform="translate(-108.17 -204.471)" fill="none" stroke="#263238" stroke-linecap="round" stroke-linejoin="round" stroke-width="1"/>
      <rect id="Rectangle_307" data-name="Rectangle 307" width="1.889" height="5.78" transform="translate(5.689 41.699)" fill="none" stroke="#263238" stroke-linecap="round" stroke-linejoin="round" stroke-width="1"/>
    </g>
    <g id="freepik--Plant--inject-430" transform="translate(9.572 90.785)">
      <path id="Path_1443" data-name="Path 1443" d="M335.81,377.49l1.256,15.78h0a23.449,23.449,0,0,0,13.927,0h0l1.245-15.78Z" transform="translate(-327.753 -332.139)" fill="#fff" stroke="#263238" stroke-linecap="round" stroke-linejoin="round" stroke-width="1"/>
      <ellipse id="Ellipse_72" data-name="Ellipse 72" cx="8.222" cy="1.055" rx="8.222" ry="1.055" transform="translate(8.053 44.296)" fill="#263238" stroke="#263238" stroke-linecap="round" stroke-linejoin="round" stroke-width="1"/>
      <path id="Path_1444" data-name="Path 1444" d="M334.032,286.05a8.938,8.938,0,0,1,2.687-2.916,10.809,10.809,0,0,1,3.746-1.975c1.537-.4,3.422-.478,3.26.221a17.555,17.555,0,0,0-.221,2.141,8.692,8.692,0,0,1-6.017,7.27,4.106,4.106,0,0,1-1.975.162C333.277,290.483,333.178,287.721,334.032,286.05Z" transform="translate(-318.349 -273.686)" fill="#76ba1b"/>
      <path id="Path_1445" data-name="Path 1445" d="M330.117,364.921a7.175,7.175,0,0,1,3.1-.628,8.32,8.32,0,0,1,3.275.49c1.146.466,2.343,1.3,1.9,1.679a14.649,14.649,0,0,0-1.185,1.28,6.994,6.994,0,0,1-7.29,1.869,3.015,3.015,0,0,1-1.3-.822C327.458,367.43,328.77,365.6,330.117,364.921Z" transform="translate(-310.985 -324.15)" fill="#76ba1b"/>
      <path id="Path_1446" data-name="Path 1446" d="M358.237,272a7.78,7.78,0,0,1,.087-3.951,8.274,8.274,0,0,1,1.715-3.651c1.011-1.134,2.556-2.161,2.947-1.458a23.092,23.092,0,0,0,1.43,2.015c2.216,3.125,2.371,7.052.344,9.514a3.335,3.335,0,0,1-1.561,1.154C360.928,276.331,358.767,273.913,358.237,272Z" transform="translate(-350.476 -262.707)" fill="#76ba1b"/>
      <path id="Path_1447" data-name="Path 1447" d="M375.224,299.856a8.83,8.83,0,0,1-3.607-1.651,10.771,10.771,0,0,1-3.026-2.951c-.853-1.339-1.513-3.1-.79-3.161a16.914,16.914,0,0,0,2.1-.458,8.664,8.664,0,0,1,8.755,3.477,4.085,4.085,0,0,1,.79,1.829C379.653,299.216,377.073,300.152,375.224,299.856Z" transform="translate(-367.491 -280.103)" fill="#76ba1b"/>
      <path id="Path_1448" data-name="Path 1448" d="M327.613,307.057a8.989,8.989,0,0,1,3.327-2.165,10.886,10.886,0,0,1,4.113-.972c1.58,0,3.429.4,3.1,1.019a17.393,17.393,0,0,0-.739,2.019,8.664,8.664,0,0,1-7.625,5.531,4.121,4.121,0,0,1-1.956-.328C325.775,311.154,326.376,308.46,327.613,307.057Z" transform="translate(-310.021 -287.637)" fill="#76ba1b"/>
      <path id="Path_1449" data-name="Path 1449" d="M372.314,329.065a10.972,10.972,0,0,1-3.623-1.624c-3.7-2.106-4.437-5.982-5.867-6.669.506.51,3.4.265,4.1.111a8.664,8.664,0,0,1,8.783,3.406,4.073,4.073,0,0,1,.79,1.821C376.755,328.389,374.163,329.345,372.314,329.065Z" transform="translate(-362.7 -297.787)" fill="#76ba1b"/>
      <path id="Path_1450" data-name="Path 1450" d="M323.351,344.534a8.977,8.977,0,0,1,3.785-1.185,10.925,10.925,0,0,1,4.224.166c1.529.423,3.2,1.3,2.714,1.817a17.13,17.13,0,0,0-1.256,1.746,8.692,8.692,0,0,1-8.83,3.283,4.168,4.168,0,0,1-1.8-.842C320.482,347.987,321.782,345.553,323.351,344.534Z" transform="translate(-303.974 -311.407)" fill="#76ba1b"/>
      <path id="Path_1451" data-name="Path 1451" d="M365.093,353.127a7.112,7.112,0,0,1-2.876-1.316,8.226,8.226,0,0,1-2.371-2.323c-.652-1.051-1.134-2.43-.549-2.473a14.287,14.287,0,0,0,1.715-.336,7,7,0,0,1,7,2.766,3.046,3.046,0,0,1,.569,1.43C368.716,352.656,366.579,353.372,365.093,353.127Z" transform="translate(-353.274 -313.426)" fill="#76ba1b"/>
      <path id="Path_1452" data-name="Path 1452" d="M369.087,363.923a5.334,5.334,0,0,1-1.814-1.505,6.287,6.287,0,0,1-1.268-2.149c-.281-.893-.375-2,.047-1.924a9.923,9.923,0,0,0,1.284.071,5.172,5.172,0,0,1,4.488,3.346,2.331,2.331,0,0,1,.15,1.158C371.754,364.255,370.106,364.382,369.087,363.923Z" transform="translate(-359.342 -320.556)" fill="#76ba1b"/>
      <path id="Path_1453" data-name="Path 1453" d="M353,275.5a80.292,80.292,0,0,0-7.554,8.368A17.938,17.938,0,0,1,342,273.725a29.3,29.3,0,0,1,.853-6.875" transform="translate(-330.956 -265.213)" fill="none" stroke="#5c5c5c" stroke-linecap="round" stroke-linejoin="round" stroke-width="1"/>
      <path id="Path_1454" data-name="Path 1454" d="M375.045,300.793a2.067,2.067,0,0,1-.4-.122c-1.458-.589-2.544-1.019-4.034-1.529-3.22-1.1-9-4.872-9-4.872" transform="translate(-360.757 -281.799)" fill="none" stroke="#5c5c5c" stroke-linecap="round" stroke-linejoin="round" stroke-width="1"/>
      <path id="Path_1455" data-name="Path 1455" d="M341.855,307.71c-1.383,1.762-3.485,3.2-9.388,4.84A2.205,2.205,0,0,0,330.6,315.2" transform="translate(-315.287 -289.929)" fill="none" stroke="#5c5c5c" stroke-linecap="round" stroke-linejoin="round" stroke-width="1"/>
      <path id="Path_1456" data-name="Path 1456" d="M371.314,328.289a6.787,6.787,0,0,1-4.67-.04c-2.533-.838-5.713-2.766-7.934-3.75" transform="translate(-355.876 -300.086)" fill="none" stroke="#5c5c5c" stroke-linecap="round" stroke-linejoin="round" stroke-width="1"/>
      <path id="Path_1457" data-name="Path 1457" d="M364.8,354.572c-3.007.324-5.887-1.363-8.3-3.192" transform="translate(-348.486 -316.345)" fill="none" stroke="#5c5c5c" stroke-linecap="round" stroke-linejoin="round" stroke-width="1"/>
      <path id="Path_1458" data-name="Path 1458" d="M340.813,350.12a23.37,23.37,0,0,1-10.273,3.69" transform="translate(-314.245 -315.583)" fill="none" stroke="#5c5c5c" stroke-linecap="round" stroke-linejoin="round" stroke-width="1"/>
      <path id="Path_1459" data-name="Path 1459" d="M353.365,365.624a33.554,33.554,0,0,1-9.265.316,15.965,15.965,0,0,1-1.679-.265,12.481,12.481,0,0,1-2.9-1.308,9.48,9.48,0,0,1-2.525-1.8" transform="translate(-329.35 -323.114)" fill="none" stroke="#5c5c5c" stroke-linecap="round" stroke-linejoin="round" stroke-width="1"/>
      <path id="Path_1460" data-name="Path 1460" d="M357.236,305a39.8,39.8,0,0,0,.324,7.191c.5,3.607,1.489,7.179,1.355,10.814-.063,1.833-1,3.615-1.549,5.654a16.577,16.577,0,0,0-.506,4.828" transform="translate(-342.739 -288.29)" fill="none" stroke="#5c5c5c" stroke-linecap="round" stroke-linejoin="round" stroke-width="4"/>
    </g>
    <g id="freepik--Character--inject-430" transform="translate(28.977 35.25)">
      <path id="Path_1461" data-name="Path 1461" d="M198.65,319.748v.952a10.4,10.4,0,0,0,2.809-.814v-.138C199.673,315.82,198.65,319.748,198.65,319.748Z" transform="translate(-142.186 -240.62)" fill="#fff" stroke="#263238" stroke-linecap="round" stroke-linejoin="round" stroke-width="1"/>
      <path id="Path_1462" data-name="Path 1462" d="M302.38,319.749v.04c.13.067.265.126.4.186s.2.087.3.126l.19.071.194.067.4.126.312.087.328.079c.111.028.221.051.336.071l.348.063v-.917a6.9,6.9,0,0,0-.514-.948C303.21,316.565,302.38,319.749,302.38,319.749Z" transform="translate(-286.892 -240.621)" fill="#fff" stroke="#263238" stroke-linecap="round" stroke-linejoin="round" stroke-width="1"/>
      <path id="Path_1463" data-name="Path 1463" d="M217.261,220.529l-.486,32s.2,1.928-1.185,1.75c-.363-.047-.672,0-.755-4.816-.15-8.633-.4-28.941-.4-28.941S215.459,216.605,217.261,220.529Z" transform="translate(-164.227 -180.603)" fill="#fff" stroke="#263238" stroke-linecap="round" stroke-linejoin="round" stroke-width="1"/>
      <path id="Path_1464" data-name="Path 1464" d="M289.825,220.529l-.486,32s.205,1.928-1.185,1.75c-.367-.047-.676,0-.759-4.816-.146-8.633-.4-28.941-.4-28.941S288.008,216.605,289.825,220.529Z" transform="translate(-265.459 -180.603)" fill="#fff" stroke="#263238" stroke-linecap="round" stroke-linejoin="round" stroke-width="1"/>
      <path id="Path_1465" data-name="Path 1465" d="M294.84,296.938s.043,3.426.1,8.064c0,.62.02,1.26.028,1.916l.328.043.336.04c.229.024.462.039.7.055.336,0,.688.032,1.043.032h.142l.154-10.15C295.883,293.01,294.84,296.938,294.84,296.938Z" transform="translate(-276.401 -226.822)" fill="#fff" stroke="#263238" stroke-linecap="round" stroke-linejoin="round" stroke-width="1"/>
      <path id="Path_1466" data-name="Path 1466" d="M206,296.938s.059,4.5.122,10.15h.312a16.584,16.584,0,0,0,2.24-.146l.15-10C207.019,293.01,206,296.938,206,296.938Z" transform="translate(-152.456 -226.822)" fill="#fff" stroke="#263238" stroke-linecap="round" stroke-linejoin="round" stroke-width="1"/>
      <rect id="Rectangle_308" data-name="Rectangle 308" width="2.967" height="2.086" transform="translate(49.791 78.18)" fill="#fff" stroke="#263238" stroke-linecap="round" stroke-linejoin="round" stroke-width="1"/>
      <path id="Path_1467" data-name="Path 1467" d="M284.28,325.3V356a1.482,1.482,0,0,0,1.482,1.482h0A1.481,1.481,0,0,0,287.247,356V325.3Z" transform="translate(-261.806 -245.034)" fill="#fff" stroke="#263238" stroke-linecap="round" stroke-linejoin="round" stroke-width="1"/>
      <rect id="Rectangle_309" data-name="Rectangle 309" width="2.967" height="2.086" transform="translate(22.474 78.18)" fill="#fff" stroke="#263238" stroke-linecap="round" stroke-linejoin="round" stroke-width="1"/>
      <path id="Path_1468" data-name="Path 1468" d="M203.272,359.257h0a1.482,1.482,0,0,0,1.482-1.486V320H201.79v37.771a1.482,1.482,0,0,0,1.482,1.486Z" transform="translate(-146.721 -241.828)" fill="#fff" stroke="#263238" stroke-linecap="round" stroke-linejoin="round" stroke-width="1"/>
      <path id="Path_1469" data-name="Path 1469" d="M298.18,324v36.191a1.482,1.482,0,0,0,1.482,1.486h0a1.486,1.486,0,0,0,1.486-1.486V324.482a6.757,6.757,0,0,1-.7-.055l-.336-.04-.328-.043a1.131,1.131,0,0,1-.281-.051l-.348-.063c-.115-.02-.225-.043-.336-.071s-.221-.047-.328-.079S298.283,324.024,298.18,324Z" transform="translate(-281.198 -244.248)" fill="#fff" stroke="#263238" stroke-linecap="round" stroke-linejoin="round" stroke-width="1"/>
      <path id="Path_1470" data-name="Path 1470" d="M298.18,320v1.58l.312.087.328.079c.111.028.221.051.336.071l.348.063c.091.024.186.036.281.051l.328.043.336.039c.229.024.462.04.7.055V320Z" transform="translate(-281.198 -241.828)" fill="#fff" stroke="#263238" stroke-linecap="round" stroke-linejoin="round" stroke-width="1"/>
      <path id="Path_1471" data-name="Path 1471" d="M194.371,303.054c.13.067.265.126.4.186s.2.087.3.126l.19.071.194.067.4.126.312.087.328.079c.111.028.221.051.336.071l.348.063c.091.024.186.036.28.051l.328.043.336.039c.229.024.462.04.7.055.336,0,.687.032,1.043.032h33q.565,0,1.09-.036c.4-.024.79-.059,1.15-.111l.257-.04.36-.059h.055c.134-.024.265-.051.4-.083l.142-.032c.2-.043.4-.095.565-.146h.043l.1-.032.067-.024.162-.051.119-.04c.154-.055.3-.111.446-.17s.237-.1.352-.154c2.438-1.142,3.327-3.121,2.082-5.184l-2.26-3.746c-.976-1.624-3.532-2.924-6.48-3.532a16.906,16.906,0,0,0-2.066-.3h0c-.518-.047-1.039-.071-1.561-.071H204.861a17.283,17.283,0,0,0-2.026.119,16.645,16.645,0,0,0-2.059.359h0c-2.766.644-5.093,1.893-6.021,3.429l-2.256,3.746C191.282,299.977,192.084,301.9,194.371,303.054Z" transform="translate(-178.883 -223.887)" fill="#263238" stroke="#263238" stroke-linecap="round" stroke-linejoin="round" stroke-width="1"/>
      <rect id="Rectangle_310" data-name="Rectangle 310" width="38.534" height="23.896" rx="11.948" transform="translate(18.562 25.379)" fill="#263238" stroke="#263238" stroke-linecap="round" stroke-linejoin="round" stroke-width="1"/>
      <path id="Path_1472" data-name="Path 1472" d="M215.14,325.3V356a1.482,1.482,0,0,0,1.482,1.482h0A1.482,1.482,0,0,0,218.107,356V325.3Z" transform="translate(-165.349 -245.034)" fill="#fff" stroke="#263238" stroke-linecap="round" stroke-linejoin="round" stroke-width="1"/>
      <path id="Path_1473" data-name="Path 1473" d="M218.958,288.938c.743,2.161,2.529,2.371,4.741,2.959,1.58.4,3.192.79,4.812,1.1a38.913,38.913,0,0,0,14.619-.138c3.109-.624,5.022-3.769,6.029-6.772a23.875,23.875,0,0,0,1.185-8.83,9.483,9.483,0,0,1-6.171,1.248c-3.236-.419-6.156-2.07-9.06-3.556a2.28,2.28,0,0,0-1.09-.332,2.34,2.34,0,0,0-.739.2c-3.8,1.529-7.993,3.181-11.912,2.56-.126.577-.245,1.205-.356,1.916-.336,2.2-1.288,3.809-1.893,5.729A5.7,5.7,0,0,0,218.958,288.938Z" transform="translate(-199.021 -214.378)" fill="#263238" stroke="#263238" stroke-linecap="round" stroke-linejoin="round" stroke-width="1"/>
      <path id="Path_1474" data-name="Path 1474" d="M218.81,200.386a13.7,13.7,0,0,0,1.351,5.022,9,9,0,0,1,2.766-3.161c1.185-.723,1.869-1.4,3.256-1.5a10.6,10.6,0,0,1,2.849.727,11.818,11.818,0,0,0-2.888-3.386,19.554,19.554,0,0,1,1.185-6.009c1.355,3.07,1.628,9.127,1.7,9.4a5.986,5.986,0,0,1-.838,3.161,63.664,63.664,0,0,0-3.951,11.292c3.919.62,8.107-1.031,11.912-2.56a2.338,2.338,0,0,1,.739-.2,2.28,2.28,0,0,1,1.091.332c2.9,1.478,5.824,3.129,9.06,3.556a9.483,9.483,0,0,0,6.171-1.249,20.571,20.571,0,0,0-4.469-12.027s-.182-3.224-.182-3.951c0-7.029,1.861-16.91,2.062-18.214s.992-3.3,1.975-3.3c-2.951-1.067-7.9-2.73-10.166-4.623-.043.107-.087.2-.13.3h0a13.83,13.83,0,0,1-1.249,2.489c-1,1.47-1.007,1.513-.984,2.126a3.054,3.054,0,0,0,.2.763,4.776,4.776,0,0,1,0,1.162c-.261,3.587-2.015,13.9-3.785,16.219a32.907,32.907,0,0,1-2-16.78l.083-.478c.075-.443,1.272-1.209.707-2.833-.324-.932-.51-1.608-.64-2.118a3.622,3.622,0,0,0-.581-1.58,17.866,17.866,0,0,0-2.371,1.648c-.067.154-.518.3-.423.17a10.4,10.4,0,0,1-3.773.873c-1.885.3-3.192,1.49-4.7,2.651C220.213,190.05,218.81,200.386,218.81,200.386Z" transform="translate(-201.907 -152.89)" fill="#76ba1b"/>
      <g id="Group_3513" data-name="Group 3513" transform="translate(16.903 20.08)" clip-path="url(#clip-path)">
        <path id="Path_1475" data-name="Path 1475" d="M263.333,192.724a6.028,6.028,0,0,0,2,2.56,2.122,2.122,0,0,1-2.639-.5,2.256,2.256,0,0,0,.964,1.58,4.986,4.986,0,0,1-5-3.437,9.414,9.414,0,0,1-.292-2.3,7.433,7.433,0,0,1,.091-1.944,2.576,2.576,0,0,1,1.023-1.608.909.909,0,0,1,.506-.174c.375,0,.656.344.869.656a25.926,25.926,0,0,1,2.054,3.556c.146.316.292.632.435.952v.036Z" transform="translate(-246.545 -181.396)" opacity="0.2"/>
        <path id="Path_1476" data-name="Path 1476" d="M228.862,188.8a22.094,22.094,0,0,1-2.454-7.7c-.154-.818-.2-1.877.545-2.248a1.335,1.335,0,0,1,1.513.4,4.429,4.429,0,0,1,.79,1.482,23.8,23.8,0,0,0,1.628,3.422c1.513,2.627,3.556,5.061,4.137,8.036a3.588,3.588,0,0,1-.1,2.1c-.205.478-.968,1.335-1.58,1.031-.34-.17-.932-1.841-1.185-2.217C231.126,191.613,229.814,190.341,228.862,188.8Z" transform="translate(-203.694 -176.473)" opacity="0.2"/>
        <path id="Path_1477" data-name="Path 1477" d="M237.933,235.7a13,13,0,0,0-1.545-1.549,7.173,7.173,0,0,0-1.26-.68l-2.912-1.324c-2.244-1.015-4.611-2.141-5.926-4.22-.15-.229-.277-.541-.111-.759s.518-.174.79-.095c.561.154,1.122.312,1.679.474,2.825.81,5.622,1.711,8.356,2.766a6.591,6.591,0,0,1,3.331,2.224,12.831,12.831,0,0,0,1.071,1.81,8.179,8.179,0,0,0,1.561,1.051,7.234,7.234,0,0,1,2.608,3.5c-1.055.3-3.058-.6-4.085-1a10.035,10.035,0,0,1-3.556-2.2Z" transform="translate(-214.049 -205.657)" opacity="0.2"/>
        <path id="Path_1478" data-name="Path 1478" d="M287.292,225.047a2.161,2.161,0,0,0,.352.731,1.881,1.881,0,0,0,.529.4,4.149,4.149,0,0,0,1.912.494,7.876,7.876,0,0,0,.312-2.288,2.683,2.683,0,0,1-2.4-.739c-.431-.415-.687-1.47-1.256-1.58A10.273,10.273,0,0,0,287.292,225.047Z" transform="translate(-282.831 -202.665)" opacity="0.2"/>
      </g>
      <path id="Path_1480" data-name="Path 1480" d="M218.81,200.386a13.7,13.7,0,0,0,1.351,5.022,9,9,0,0,1,2.766-3.161c1.185-.723,1.869-1.4,3.256-1.5a10.6,10.6,0,0,1,2.849.727,11.818,11.818,0,0,0-2.888-3.386,19.554,19.554,0,0,1,1.185-6.009c1.355,3.07,1.628,9.127,1.7,9.4a5.986,5.986,0,0,1-.838,3.161,63.664,63.664,0,0,0-3.951,11.292c3.919.62,8.107-1.031,11.912-2.56a2.338,2.338,0,0,1,.739-.2,2.28,2.28,0,0,1,1.091.332c2.9,1.478,5.824,3.129,9.06,3.556a9.483,9.483,0,0,0,6.171-1.249,20.571,20.571,0,0,0-4.469-12.027s-.182-3.224-.182-3.951c0-7.029,1.861-16.91,2.062-18.214s.992-3.3,1.975-3.3c-2.951-1.067-7.9-2.73-10.166-4.623-.043.107-.087.2-.13.3h0a13.83,13.83,0,0,1-1.249,2.489c-1,1.47-1.007,1.513-.984,2.126a3.054,3.054,0,0,0,.2.763,4.776,4.776,0,0,1,0,1.162c-.261,3.587-2.015,13.9-3.785,16.219a32.907,32.907,0,0,1-2-16.78l.083-.478c.075-.443,1.272-1.209.707-2.833-.324-.932-.51-1.608-.64-2.118a3.622,3.622,0,0,0-.581-1.58,17.866,17.866,0,0,0-2.371,1.648c-.067.154-.518.3-.423.17a10.4,10.4,0,0,1-3.773.873c-1.885.3-3.192,1.49-4.7,2.651C220.213,190.05,218.81,200.386,218.81,200.386Z" transform="translate(-201.907 -152.89)" fill="none" stroke="#263238" stroke-linecap="round" stroke-linejoin="round" stroke-width="1"/>
      <path id="Path_1481" data-name="Path 1481" d="M283.676,199.68c-1.252,3.184-.186,7.456.6,10.356" transform="translate(-258.366 -169.047)" fill="#76ba1b" stroke="#263238" stroke-linecap="round" stroke-linejoin="round" stroke-width="1"/>
      <path id="Path_1482" data-name="Path 1482" d="M283.1,193.45c0,3.9,1.442,8.653,2.564,12.817" transform="translate(-259.757 -165.278)" fill="none" stroke="#263238" stroke-linecap="round" stroke-linejoin="round" stroke-width="1"/>
      <path id="Path_1483" data-name="Path 1483" d="M294.135,233.742a5.472,5.472,0,0,0-3.426-.209" transform="translate(-271.235 -189.415)" fill="#76ba1b" stroke="#263238" stroke-linecap="round" stroke-linejoin="round" stroke-width="1"/>
      <path id="Path_1484" data-name="Path 1484" d="M292.984,236.292a3.3,3.3,0,0,0-3.394.818" transform="translate(-269.641 -191.091)" fill="#76ba1b" stroke="#263238" stroke-linecap="round" stroke-linejoin="round" stroke-width="1"/>
      <path id="Path_1485" data-name="Path 1485" d="M255.152,247.015a12.055,12.055,0,0,1-5.962-.6" transform="translate(-215.847 -197.314)" fill="none" stroke="#263238" stroke-linecap="round" stroke-linejoin="round" stroke-width="1"/>
      <path id="Path_1486" data-name="Path 1486" d="M272.405,248.807c-.4-.182-.79-.4-1.185-.6" transform="translate(-241.805 -198.402)" fill="none" stroke="#263238" stroke-linecap="round" stroke-linejoin="round" stroke-width="1"/>
      <path id="Path_1487" data-name="Path 1487" d="M253.617,250.956a15.693,15.693,0,0,1-10.067-.336" transform="translate(-212.084 -199.86)" fill="none" stroke="#263238" stroke-linecap="round" stroke-linejoin="round" stroke-width="1"/>
      <path id="Path_1488" data-name="Path 1488" d="M245.934,257.2c-3.343.719-7.084.138-10.273,1.462-.4.162-.826.478-.727.885s.636.474,1.051.466c4.631-.071,9.565.423,13.232,3.256" transform="translate(-204.274 -203.841)" fill="none" stroke="#263238" stroke-linecap="round" stroke-linejoin="round" stroke-width="1"/>
      <path id="Path_1489" data-name="Path 1489" d="M238.331,255.05A9.005,9.005,0,0,1,237,255.6" transform="translate(-194.211 -202.54)" fill="none" stroke="#263238" stroke-linecap="round" stroke-linejoin="round" stroke-width="1"/>
      <path id="Path_1490" data-name="Path 1490" d="M260.89,232.54q.047,8.226.091,16.452" transform="translate(-226.299 -188.924)" fill="none" stroke="#263238" stroke-linecap="round" stroke-linejoin="round" stroke-width="1"/>
      <path id="Path_1491" data-name="Path 1491" d="M218.978,288.969a4.244,4.244,0,0,0,.205.49c.02-.364.055-.723.1-1.079a2.3,2.3,0,0,1,.059-.435c.055-.435.13-.861.225-1.292.028-.15.067-.3.1-.454a1.026,1.026,0,0,1,.059-.241c.047-.2.1-.4.158-.589s.122-.4.186-.585a11.842,11.842,0,0,1,5.393-6.823,8.279,8.279,0,0,0,3.161,3.382c3.3,1.652,6.586-1.719,10.668-1.106,0,0,6.973.9,6.768,7.373a5.413,5.413,0,0,1-3.643,4.808c.142.17.284.352.431.545l.292-.051c3.109-.624,5.022-3.769,6.029-6.772a23.875,23.875,0,0,0,1.185-8.83,9.482,9.482,0,0,1-6.171,1.249c-3.236-.419-6.156-2.07-9.06-3.556a2.28,2.28,0,0,0-1.09-.332,2.338,2.338,0,0,0-.739.2c-3.8,1.529-7.993,3.181-11.912,2.56-.126.577-.245,1.205-.356,1.916-.336,2.2-1.288,3.809-1.893,5.729A5.687,5.687,0,0,0,218.978,288.969Z" transform="translate(-199.041 -214.408)" fill="#fff" stroke="#263238" stroke-linecap="round" stroke-linejoin="round" stroke-width="1"/>
      <path id="Path_1492" data-name="Path 1492" d="M181.165,396.068s2.947,1.395,3.848,2.833,3.785,6.4,4.595,8.2,2.252,10.632-2.971,10.273-4.129-6.077-5.318-8.368S173.326,394.626,181.165,396.068Z" transform="translate(-122.773 -287.77)" fill="#263238" stroke="#263238" stroke-linecap="round" stroke-linejoin="round" stroke-width="1"/>
      <path id="Path_1493" data-name="Path 1493" d="M218.337,396.118s.952-.04,1.3,3.627.96,3.919.873,4.8a4.637,4.637,0,0,1-2.442,4.279c-2.363,1.221-3.876,2.588-6.385-1.924-1.312-2.371,1.134-9.81,2.019-10.778C215.99,393.617,218.337,396.118,218.337,396.118Z" transform="translate(-166.251 -287.2)" fill="#263238" stroke="#263238" stroke-linecap="round" stroke-linejoin="round" stroke-width="1"/>
      <path id="Path_1494" data-name="Path 1494" d="M216.05,298.645a9.589,9.589,0,0,0,.644,2.675,9.141,9.141,0,0,0,.715,1.466c3.24,5.326,6.717,8.637,11.561,12.813,2.485,2.145,5.136,4.093,7.55,6.322,2.766,2.56,5.369,5.887,5.184,9.66-.063,1.391-.4,3.52,1.233,3.623,6.278.4,5.369-3.054,5.2-4.172a8.874,8.874,0,0,0-1.324-3.1c-2.272-3.888-4.548-7.772-7-11.549-3.346-5.136-7.017-10.1-10.146-15.385a16.345,16.345,0,0,1-2.268-5.286c-.344-1.893-.2-4.382,1.118-5.792-.067-.4-1.58-1.932-3.09-3.58a8.128,8.128,0,0,1-3.161-3.382,11.929,11.929,0,0,0-5.393,6.843c-.063.194-.126.4-.186.585s-.111.4-.158.589c-.02.079-.043.158-.059.241-.036.15-.075.3-.1.454-.095.431-.17.857-.225,1.292-.024.142-.043.292-.059.435-.043.356-.079.715-.1,1.079A25.83,25.83,0,0,0,216.05,298.645Z" transform="translate(-195.837 -219.423)" fill="#5c5c5c" stroke="#263238" stroke-linecap="round" stroke-linejoin="round" stroke-width="1"/>
      <path id="Path_1495" data-name="Path 1495" d="M206.753,296a5.425,5.425,0,0,1-3.647,4.812c2.612,3.161,5.847,10.178,7.859,15.847,1.454,4.085,3.4,9.143,5.717,12.382a53.935,53.935,0,0,1,3.975,6.381c.32.6.616,1.134.842,1.474.9,1.351,2.145,6.4-.557,7.025s-7.112-6.464-8.143-9.573a12.056,12.056,0,0,0-.522-1.426,18.742,18.742,0,0,0-1.331-2.019c-.581-.9-1.837-3.062-2.406-3.951-6.847-10.976-10.636-12.6-15.768-21.446a29.745,29.745,0,0,1-2.967-5.974c-.79-3.015.557-4.39,2.7-7.092,1.932-2.442,4.4-4.271,7.479-3.785C199.981,288.632,206.951,289.537,206.753,296Z" transform="translate(-159.724 -222.823)" fill="#5c5c5c" stroke="#263238" stroke-linecap="round" stroke-linejoin="round" stroke-width="1"/>
      <path id="Path_1496" data-name="Path 1496" d="M266.824,321.724a18.312,18.312,0,0,1-3.734-5.484" transform="translate(-233.011 -239.554)" fill="none" stroke="#263238" stroke-linecap="round" stroke-linejoin="round" stroke-width="1"/>
      <path id="Path_1497" data-name="Path 1497" d="M259.567,332.751c-.4-.32-.814-.668-1.237-1.051" transform="translate(-223.873 -248.906)" fill="none" stroke="#263238" stroke-linecap="round" stroke-linejoin="round" stroke-width="1"/>
      <path id="Path_1498" data-name="Path 1498" d="M290.528,333.2a3.022,3.022,0,0,1-1.738-.735,6.092,6.092,0,0,1-1.359-1.608" transform="translate(-266.331 -248.398)" fill="#5c5c5c" stroke="#263238" stroke-linecap="round" stroke-linejoin="round" stroke-width="1"/>
      <path id="Path_1499" data-name="Path 1499" d="M253.924,207.4c1.77-2.319,3.524-12.643,3.785-16.219-.205.328-.419.656-.644.972a36.143,36.143,0,0,0-2.837,4.555,34.871,34.871,0,0,1-2.3-6.069A32.77,32.77,0,0,0,253.924,207.4Z" transform="translate(-219.349 -163.578)" fill="#fff" stroke="#263238" stroke-linecap="round" stroke-linejoin="round" stroke-width="1"/>
      <path id="Path_1500" data-name="Path 1500" d="M281.009,248.511a2.213,2.213,0,0,0,2.284.62l.47-.162c3.591-1.28,4.883-2.955,5.354-4.01a2.643,2.643,0,0,0,.261-1.011,3.062,3.062,0,0,0-1.7-.676c-2.193-.182-4.741,1.738-5.974,3.335C281.045,247.444,280.737,248.195,281.009,248.511Z" transform="translate(-262.605 -195.408)" fill="#263238" stroke="#263238" stroke-linecap="round" stroke-linejoin="round" stroke-width="1"/>
      <path id="Path_1501" data-name="Path 1501" d="M249.754,243.272l.15.162c.446.49.877,1,1.292,1.525.518.656,1,1.324,1.462,2.019s.925,1.454,1.4,2.169A30.206,30.206,0,0,0,257.079,253a2.544,2.544,0,0,0,.62.545,2.766,2.766,0,0,0,1.039.273,8.331,8.331,0,0,1,4.441,1.624,10.126,10.126,0,0,0,1.462,1.308c.565.328,1.458.589,1.486,1.276a1.087,1.087,0,0,1-.146.529,2.822,2.822,0,0,1-2.714,1.288,7.974,7.974,0,0,1-2.987-1.023,66.976,66.976,0,0,1-6.017-3.319c-1.616-1.031-3.161-2.177-4.686-3.354a39.722,39.722,0,0,1-3.734-3.161,18.337,18.337,0,0,1-2.062-2.371C245.029,245.01,247.561,243.09,249.754,243.272Z" transform="translate(-224.685 -195.408)" fill="#fff"/>
      <g id="Group_3514" data-name="Group 3514" transform="translate(19.095 47.852)" clip-path="url(#clip-path-2)">
        <path id="Path_1502" data-name="Path 1502" d="M291.5,246.388l-1.237,1.908c-.071.107-.166.229-.3.217a.364.364,0,0,1-.2-.13,5.927,5.927,0,0,1-1.28-2.082,6.963,6.963,0,0,1,3.793-2.687C294.533,243.3,292.013,245.594,291.5,246.388Z" transform="translate(-288.52 -243.456)" opacity="0.2"/>
      </g>
      <path id="Path_1504" data-name="Path 1504" d="M249.754,243.272l.15.162c.446.49.877,1,1.292,1.525.518.656,1,1.324,1.462,2.019s.925,1.454,1.4,2.169A30.206,30.206,0,0,0,257.079,253a2.544,2.544,0,0,0,.62.545,2.766,2.766,0,0,0,1.039.273,8.331,8.331,0,0,1,4.441,1.624,10.126,10.126,0,0,0,1.462,1.308c.565.328,1.458.589,1.486,1.276a1.087,1.087,0,0,1-.146.529,2.822,2.822,0,0,1-2.714,1.288,7.974,7.974,0,0,1-2.987-1.023,66.976,66.976,0,0,1-6.017-3.319c-1.616-1.031-3.161-2.177-4.686-3.354a39.722,39.722,0,0,1-3.734-3.161,18.337,18.337,0,0,1-2.062-2.371C245.029,245.01,247.561,243.09,249.754,243.272Z" transform="translate(-224.685 -195.408)" fill="none" stroke="#263238" stroke-linecap="round" stroke-linejoin="round" stroke-width="1"/>
      <path id="Path_1505" data-name="Path 1505" d="M240.975,150.829a4.97,4.97,0,0,1,1.158,3.378,14.693,14.693,0,0,1-.6,3.6l-.936,3.7a1.079,1.079,0,0,1-.288.589,1.055,1.055,0,0,1-.917.095,18.336,18.336,0,0,1-2.544-.731,3.33,3.33,0,0,1-1.794-1.209,3.161,3.161,0,0,1-.375-1.454,10.956,10.956,0,0,1,1.335-5.97,4.879,4.879,0,0,1,1.754-1.975,2.371,2.371,0,0,1,2.521,0l.087.431Z" transform="translate(-197.087 -139.287)" fill="#263238" stroke="#263238" stroke-linecap="round" stroke-linejoin="round" stroke-width="1"/>
      <path id="Path_1506" data-name="Path 1506" d="M245.07,176.241a34.869,34.869,0,0,0,2.3,6.088,36.144,36.144,0,0,1,2.837-4.536c.225-.316.439-.644.644-.972a4.376,4.376,0,0,0,0-1.162,3.064,3.064,0,0,1-.2-.763c0-.616,0-.656.988-2.13a13.785,13.785,0,0,0,1.248-2.485h0c-.162-1.5.913-3.453.4-3.414a5.532,5.532,0,0,1-1.387,1.051,12.141,12.141,0,0,1-3.461,1.11,2.1,2.1,0,0,1-1.288.091,1.707,1.707,0,0,1-.4-.174,3.238,3.238,0,0,1-.668-.537l-.051-.055c-.111-.1-.249-.288-.2.4.107,1.557-.249,2.007-.6,2.094.13.51.316,1.185.64,2.118.565,1.62-.632,2.371-.707,2.833Z" transform="translate(-212.49 -149.199)" fill="#fff" stroke="#263238" stroke-linecap="round" stroke-linejoin="round" stroke-width="1"/>
      <path id="Path_1507" data-name="Path 1507" d="M248.147,169.621c-1.58.269-2.987-3.37-2.651-3.8a1.517,1.517,0,0,1,1.067-.466,30.21,30.21,0,0,1,3.718.328,4.872,4.872,0,0,0,1.778-.324c.624-.209.984-.4.857.4C252.62,167.63,249.8,169.333,248.147,169.621Z" transform="translate(-212.158 -148.178)" fill="#263238" stroke="#263238" stroke-linecap="round" stroke-linejoin="round" stroke-width="1"/>
      <path id="Path_1508" data-name="Path 1508" d="M238.864,141.3c.02.2.043.4.075.589a7.934,7.934,0,0,0,2.019,4.346l.051.055a3.367,3.367,0,0,0,.68.549,1.158,1.158,0,0,0,.221.111.661.661,0,0,0,.174.067,2.176,2.176,0,0,0,1.32-.095,19.475,19.475,0,0,0,4.943-2.2h0a24.384,24.384,0,0,0,1.245-2.169,1.185,1.185,0,0,1,.687-.13,1.541,1.541,0,0,0,.427-.083,1.882,1.882,0,0,1,.028-.4,5.162,5.162,0,0,0,0-.7c-.043-.984-1.114-1.912-1.8-2.62a10.17,10.17,0,0,1-2.315-3.848,19.4,19.4,0,0,0-1.067-3.236,3.146,3.146,0,0,0-2.288-1.742h-.292a15.013,15.013,0,0,0-3.556,5.322l-.036.162c-.039.162-.071.332-.1.49a19.526,19.526,0,0,0-.419,5.531Z" transform="translate(-207.343 -126.77)" fill="#fff" stroke="#263238" stroke-linecap="round" stroke-linejoin="round" stroke-width="1"/>
      <path id="Path_1509" data-name="Path 1509" d="M238.07,129.8a3.146,3.146,0,0,1,2.288,1.742,19.4,19.4,0,0,1,1.067,3.236,10.17,10.17,0,0,0,2.315,3.848c.684.707,1.754,1.636,1.8,2.62a5.167,5.167,0,0,1,0,.7,1.882,1.882,0,0,1-.028.4,1.9,1.9,0,0,0,.32-.138,5.458,5.458,0,0,0,0-.719c-.043-1-1.138-1.956-1.837-2.675a10.4,10.4,0,0,1-2.371-3.951,19.735,19.735,0,0,0-1.094-3.3A3.12,3.12,0,0,0,238.07,129.8Z" transform="translate(-202.143 -126.776)" fill="#fff" stroke="#263238" stroke-linecap="round" stroke-linejoin="round" stroke-width="1"/>
      <path id="Path_1510" data-name="Path 1510" d="M260.847,154.005a1.439,1.439,0,0,1-.881.1c-.51-.111-.984-.861-.454-1.122a1.976,1.976,0,0,0,.79-.972" transform="translate(-225.529 -140.211)" fill="none" stroke="#263238" stroke-linecap="round" stroke-linejoin="round" stroke-width="1"/>
      <path id="Path_1511" data-name="Path 1511" d="M256.638,161.35a3.213,3.213,0,0,1-3.4.66" transform="translate(-218.933 -145.861)" fill="none" stroke="#263238" stroke-linecap="round" stroke-linejoin="round" stroke-width="1"/>
      <path id="Path_1512" data-name="Path 1512" d="M264.275,146.33c-.245,0-.466.4-.49.869s.146.9.4.913.466-.371.494-.865S264.524,146.346,264.275,146.33Z" transform="translate(-231.138 -136.775)" fill="#263238"/>
      <path id="Path_1513" data-name="Path 1513" d="M253.046,146.53c-.241,0-.466.4-.49.869s.146.9.4.913.466-.371.494-.865S253.271,146.546,253.046,146.53Z" transform="translate(-215.472 -136.896)" fill="#263238"/>
      <path id="Path_1514" data-name="Path 1514" d="M265.725,148.05l.45-1.908a.309.309,0,0,0,0-.1.4.4,0,0,0-.4-.431l-4.287-.233a.545.545,0,0,0-.115,0,.419.419,0,0,0-.332.494l.288,1.948a.419.419,0,0,0,.4.371l3.556.194A.447.447,0,0,0,265.725,148.05Z" transform="translate(-231.557 -136.196)" fill="none" stroke="#263238" stroke-linecap="round" stroke-linejoin="round" stroke-width="1"/>
      <path id="Path_1515" data-name="Path 1515" d="M248.116,148.988l.494-1.908a.273.273,0,0,0,0-.1.446.446,0,0,0-.458-.439l-4.781-.257a.394.394,0,0,0-.095,0,.454.454,0,0,0-.4.5l.316,1.952a.478.478,0,0,0,.458.371l3.951.213A.474.474,0,0,0,248.116,148.988Z" transform="translate(-206.816 -136.747)" fill="none" stroke="#263238" stroke-linecap="round" stroke-linejoin="round" stroke-width="1"/>
      <line id="Line_98" data-name="Line 98" x1="2.106" y1="0.115" transform="translate(34.433 9.484)" fill="none" stroke="#263238" stroke-linecap="round" stroke-linejoin="round" stroke-width="1"/>
      <line id="Line_99" data-name="Line 99" x1="1.466" y1="0.079" transform="translate(34.567 10.448)" fill="none" stroke="#263238" stroke-linecap="round" stroke-linejoin="round" stroke-width="1"/>
      <path id="Path_1516" data-name="Path 1516" d="M263.871,143.044l-.028-.024a1.632,1.632,0,0,0-2.284.344" transform="translate(-229.454 -134.58)" fill="none" stroke="#263238" stroke-linecap="round" stroke-linejoin="round" stroke-width="1"/>
      <path id="Path_1517" data-name="Path 1517" d="M251.595,143.516c-1.636-1.391-2.825-.284-2.825-.284" transform="translate(-212.124 -134.648)" fill="none" stroke="#263238" stroke-linecap="round" stroke-linejoin="round" stroke-width="1"/>
      <path id="Path_1518" data-name="Path 1518" d="M232.32,270.267c0,1.58,3.9,2.853,8.692,2.853s8.692-1.276,8.692-2.853-3.9-2.857-8.692-2.857S232.32,268.69,232.32,270.267Z" transform="translate(-203.734 -210.017)" fill="#fff" stroke="#263238" stroke-linecap="round" stroke-linejoin="round" stroke-width="1"/>
      <path id="Path_1519" data-name="Path 1519" d="M247.234,259.262c2.888-.107,5.29,1.4,5.361,3.366s-2.213,3.643-5.1,3.75-5.29-1.4-5.361-3.366S244.354,259.365,247.234,259.262Zm.213,2.983c.881-.032,1.58-.312,1.58-.628s-.739-.545-1.62-.514-1.58.312-1.58.628S246.563,262.276,247.448,262.245Z" transform="translate(-210.506 -205.084)" fill="#fff" stroke="#263238" stroke-linecap="round" stroke-linejoin="round" stroke-width="1"/>
      <path id="Path_1520" data-name="Path 1520" d="M252.032,263.477c-.178-.04-.261-.245-.419-.336a.545.545,0,0,0-.628.146,6.354,6.354,0,0,0-.4.565,1.5,1.5,0,0,1-2.051.229,1.415,1.415,0,0,0-.332-.245c-.363-.15-.731.162-1.075.344a1.711,1.711,0,0,1-1.8-.17,1.77,1.77,0,0,0-.486-.34c-.4-.13-.79.213-1.233.237a1.347,1.347,0,0,1-1.075-.644c-.134-.182-.253-.4-.4-.573.142-1.841,2.339-3.37,5.089-3.469,2.371-.087,4.4.9,5.1,2.343a1.013,1.013,0,0,0-.146-.118,1.013,1.013,0,0,1,.146.118,2.486,2.486,0,0,1,.261,1.023,2.432,2.432,0,0,1-.047.561,1.285,1.285,0,0,1-.146.182A.439.439,0,0,1,252.032,263.477Zm-4.623-2.414c-.885.032-1.58.312-1.58.628s.739.545,1.624.514,1.58-.312,1.58-.628-.743-.529-1.624-.5Z" transform="translate(-210.511 -205.06)" fill="#5c5c5c" stroke="#263238" stroke-linecap="round" stroke-linejoin="round" stroke-width="1"/>
      <path id="Path_1521" data-name="Path 1521" d="M281.269,210.864a2.827,2.827,0,0,1-.095.541,4.351,4.351,0,0,1-.269.759,3.711,3.711,0,0,1-.616.865l-.17.162a3.739,3.739,0,0,1-.482.419,3.161,3.161,0,0,1-1.094.581.253.253,0,0,0-.166.15c-.043.1-.1.2-.146.3a2.075,2.075,0,0,0-.115.253.6.6,0,0,1-.229.3,2.034,2.034,0,0,1-.684.288,7.24,7.24,0,0,1-1.928.253,9.539,9.539,0,0,1-1.008-.028,7.6,7.6,0,0,1-1.075-.17,3,3,0,0,1-.814-.3.612.612,0,0,1-.257-.245c-.028-.059-.04-.115-.071-.174-.083-.166-.162-.336-.241-.5-.122-.257-.225-.522-.324-.79s-.2-.518-.269-.79-.146-.545-.2-.822c-.1-.462-.182-.932-.257-1.407-.036-.221-.047-.478-.071-.7a1.949,1.949,0,0,1,.028-.545.744.744,0,0,1,.174-.336,2.533,2.533,0,0,1,.846-.624,4.265,4.265,0,0,1,.952-.312c.138-.028.269-.071.4-.095a10.233,10.233,0,0,1,4.346.079,6.323,6.323,0,0,1,.846.257,3.259,3.259,0,0,1,.676.4,1.375,1.375,0,0,1,.4.427.92.92,0,0,1,.079.205c.028.087.028.091.111.071a1.3,1.3,0,0,1,1.272.32,1.355,1.355,0,0,1,.292.486A1.793,1.793,0,0,1,281.269,210.864Zm-3.643-.9a4.1,4.1,0,0,0,.834-.292.505.505,0,0,0,.186-.115,1.186,1.186,0,0,0-.4-.4,2.648,2.648,0,0,0-.332-.174,3.7,3.7,0,0,0-.62-.213,8.321,8.321,0,0,0-1-.178,8.711,8.711,0,0,0-.964-.067h-.846a9.744,9.744,0,0,0-1.126.142,5.038,5.038,0,0,0-1.1.32,1.916,1.916,0,0,0-.79.553l.028.024.083.055a2,2,0,0,0,.241.126,4.321,4.321,0,0,0,.988.3c.079.02.154.036.233.047l.13.02c.253.043.506.067.759.091a6.716,6.716,0,0,0,.743.032h.739a7,7,0,0,0,.759-.055c.253-.028.45-.032.676-.063S277.373,210.018,277.626,209.959Zm2.461.735a.549.549,0,0,0-.458-.4h-.166c-.043.371-.115.727-.174,1.083-.079.466-.194.925-.312,1.383a2.411,2.411,0,0,1-.253.644l.253-.217a3.7,3.7,0,0,0,.628-.79,3.6,3.6,0,0,0,.458-.913A1.312,1.312,0,0,0,280.087,210.694Z" transform="translate(-250.455 -173.901)" fill="#fff" stroke="#263238" stroke-linecap="round" stroke-linejoin="round" stroke-width="1"/>
      <path id="Path_1522" data-name="Path 1522" d="M281.269,210.864a2.827,2.827,0,0,1-.095.541,4.351,4.351,0,0,1-.269.759,3.711,3.711,0,0,1-.616.865l-.17.162a3.739,3.739,0,0,1-.482.419,3.161,3.161,0,0,1-1.094.581.253.253,0,0,0-.166.15c-.043.1-.1.2-.146.3a2.075,2.075,0,0,0-.115.253.6.6,0,0,1-.229.3,2.034,2.034,0,0,1-.684.288,7.24,7.24,0,0,1-1.928.253,9.539,9.539,0,0,1-1.008-.028,7.6,7.6,0,0,1-1.075-.17,3,3,0,0,1-.814-.3.612.612,0,0,1-.257-.245c-.028-.059-.04-.115-.071-.174-.083-.166-.162-.336-.241-.5-.122-.257-.225-.522-.324-.79s-.2-.518-.269-.79-.146-.545-.2-.822c-.1-.462-.182-.932-.257-1.407-.036-.221-.047-.478-.071-.7a1.949,1.949,0,0,1,.028-.545.744.744,0,0,1,.174-.336,2.533,2.533,0,0,1,.846-.624,4.265,4.265,0,0,1,.952-.312c.138-.028.269-.071.4-.095a10.233,10.233,0,0,1,4.346.079,6.323,6.323,0,0,1,.846.257,3.259,3.259,0,0,1,.676.4,1.375,1.375,0,0,1,.4.427.92.92,0,0,1,.079.205c.028.087.028.091.111.071a1.3,1.3,0,0,1,1.272.32,1.355,1.355,0,0,1,.292.486A1.793,1.793,0,0,1,281.269,210.864Zm-3.643-.9a4.1,4.1,0,0,0,.834-.292.505.505,0,0,0,.186-.115,1.186,1.186,0,0,0-.4-.4,2.648,2.648,0,0,0-.332-.174,3.7,3.7,0,0,0-.62-.213,8.321,8.321,0,0,0-1-.178,8.711,8.711,0,0,0-.964-.067h-.846a9.744,9.744,0,0,0-1.126.142,5.038,5.038,0,0,0-1.1.32,1.916,1.916,0,0,0-.79.553l.028.024.083.055a2,2,0,0,0,.241.126,4.321,4.321,0,0,0,.988.3c.079.02.154.036.233.047l.13.02c.253.043.506.067.759.091a6.716,6.716,0,0,0,.743.032h.739a7,7,0,0,0,.759-.055c.253-.028.45-.032.676-.063S277.373,210.018,277.626,209.959Zm2.461.735a.549.549,0,0,0-.458-.4h-.166c-.043.371-.115.727-.174,1.083-.079.466-.194.925-.312,1.383a2.411,2.411,0,0,1-.253.644l.253-.217a3.7,3.7,0,0,0,.628-.79,3.6,3.6,0,0,0,.458-.913A1.312,1.312,0,0,0,280.087,210.694Z" transform="translate(-250.455 -173.901)" fill="#fff" stroke="#263238" stroke-linecap="round" stroke-linejoin="round" stroke-width="1" opacity="0.8"/>
      <path id="Path_1523" data-name="Path 1523" d="M284.481,210.8a1.122,1.122,0,0,0-.4-.4,2.2,2.2,0,0,0-.328-.178,3.529,3.529,0,0,0-.624-.213,8.4,8.4,0,0,0-.992-.178c-.328-.04-.636-.059-.968-.067a7.367,7.367,0,0,0-.846.024,9.037,9.037,0,0,0-1.126.138,5.175,5.175,0,0,0-1.1.32,1.976,1.976,0,0,0-.79.553h.024a.42.42,0,0,0,.087.059,1.365,1.365,0,0,0,.237.126,4.346,4.346,0,0,0,.988.3l.233.043.13.02c.253.043.506.071.759.091s.494.032.743.032h.743c.253,0,.506-.028.759-.047s.446-.036.672-.067.51-.107.763-.166a3.9,3.9,0,0,0,.838-.292A.49.49,0,0,0,284.481,210.8Z" transform="translate(-256.287 -175.146)" fill="#fff" stroke="#263238" stroke-linecap="round" stroke-linejoin="round" stroke-width="1" opacity="0.7"/>
      <path id="Path_1524" data-name="Path 1524" d="M284.511,210.8a1.122,1.122,0,0,0-.4-.4,2.2,2.2,0,0,0-.328-.178,3.528,3.528,0,0,0-.624-.213,8.41,8.41,0,0,0-.992-.178c-.328-.039-.636-.059-.968-.067a7.367,7.367,0,0,0-.846.024,9.039,9.039,0,0,0-1.126.138,5.174,5.174,0,0,0-1.1.32,1.976,1.976,0,0,0-.79.553h.024a.422.422,0,0,0,.087.059,1.362,1.362,0,0,0,.237.126,4.345,4.345,0,0,0,.988.3l.233.043.13.02c.253.043.506.071.759.091s.494.032.743.032h.743c.253,0,.506-.028.759-.047s.446-.036.672-.067.51-.107.763-.166a3.9,3.9,0,0,0,.838-.292A.49.49,0,0,0,284.511,210.8Z" transform="translate(-256.328 -175.146)" fill="#fff" stroke="#263238" stroke-linecap="round" stroke-linejoin="round" stroke-width="1"/>
      <path id="Path_1525" data-name="Path 1525" d="M284.511,210.8a1.122,1.122,0,0,0-.4-.4,2.2,2.2,0,0,0-.328-.178,3.528,3.528,0,0,0-.624-.213,8.41,8.41,0,0,0-.992-.178c-.328-.039-.636-.059-.968-.067a7.367,7.367,0,0,0-.846.024,9.039,9.039,0,0,0-1.126.138,5.174,5.174,0,0,0-1.1.32,1.976,1.976,0,0,0-.79.553h.024a.422.422,0,0,0,.087.059,1.362,1.362,0,0,0,.237.126,4.345,4.345,0,0,0,.988.3l.233.043.13.02c.253.043.506.071.759.091s.494.032.743.032h.743c.253,0,.506-.028.759-.047s.446-.036.672-.067.51-.107.763-.166a3.9,3.9,0,0,0,.838-.292A.49.49,0,0,0,284.511,210.8Z" transform="translate(-256.328 -175.146)" fill="#fff" stroke="#263238" stroke-linecap="round" stroke-linejoin="round" stroke-width="1"/>
      <path id="Path_1526" data-name="Path 1526" d="M284.479,210.8a.506.506,0,0,1-.186.115,4.091,4.091,0,0,1-.834.292c-.253.059-.506.13-.763.166s-.45.047-.676.063-.506.043-.759.055h-.739a5.813,5.813,0,0,1-.743-.032c-.245-.032-.506-.047-.759-.091l-.13-.02a.979.979,0,0,1-.233-.047,4.322,4.322,0,0,1-.988-.3,1.992,1.992,0,0,1-.241-.126l-.083-.055-.028-.024a1.916,1.916,0,0,1,.79-.553,5.038,5.038,0,0,1,1.1-.32,9.736,9.736,0,0,1,1.126-.142c.3,0,.541-.028.846,0a8.714,8.714,0,0,1,.964.067,8.33,8.33,0,0,1,1,.178,3.7,3.7,0,0,1,.62.213,2.65,2.65,0,0,1,.332.174A1.186,1.186,0,0,1,284.479,210.8Z" transform="translate(-256.289 -175.149)" fill="#263238"/>
      <path id="Path_1527" data-name="Path 1527" d="M280.9,162.162c2.114-2.031,5.369-2.137,8.3-2.086a6.107,6.107,0,0,1,3.105.6,2.184,2.184,0,0,1,1.043,2.7c-.49.948-1.885,1.549-1.58,2.548,2.458,1.138,5.33.759,8,1.217a12.79,12.79,0,0,1,5.828,2.627,2.517,2.517,0,0,1,1.023,1.391c.174.98-.672,1.723-1.58,2.228a.213.213,0,0,0,.044.4,5.377,5.377,0,0,1,1.8.849h0a.431.431,0,0,1-.3.763h-.15c-1.11,0-2.011.6-2.011,1.351s.9,1.355,2.011,1.355c.277,0,.091.34-.3.439a5.927,5.927,0,0,1-2.371,0,3.872,3.872,0,0,1-2.54-1.138c-.585-.743-.36-2.134.577-2.3a32.9,32.9,0,0,1-5.662-.727,3.212,3.212,0,0,1-2.149-1.15c-.446-.707,0-1.916.834-1.829-2.45-.739-5-1.083-7.467-1.754a13.769,13.769,0,0,1-6.653-3.623,3.054,3.054,0,0,1-.834-1.442A2.871,2.871,0,0,1,280.9,162.162Z" transform="translate(-279.843 -145.085)" fill="#fff" stroke="#263238" stroke-linecap="round" stroke-linejoin="round" stroke-width="1"/>
      <path id="Path_1528" data-name="Path 1528" d="M280.9,162.162c2.114-2.031,5.369-2.137,8.3-2.086a6.107,6.107,0,0,1,3.105.6,2.184,2.184,0,0,1,1.043,2.7c-.49.948-1.885,1.549-1.58,2.548,2.458,1.138,5.33.759,8,1.217a12.79,12.79,0,0,1,5.828,2.627,2.517,2.517,0,0,1,1.023,1.391c.174.98-.672,1.723-1.58,2.228a.213.213,0,0,0,.044.4,5.377,5.377,0,0,1,1.8.849h0a.431.431,0,0,1-.3.763h-.15c-1.11,0-2.011.6-2.011,1.351s.9,1.355,2.011,1.355c.277,0,.091.34-.3.439a5.927,5.927,0,0,1-2.371,0,3.872,3.872,0,0,1-2.54-1.138c-.585-.743-.36-2.134.577-2.3a32.9,32.9,0,0,1-5.662-.727,3.212,3.212,0,0,1-2.149-1.15c-.446-.707,0-1.916.834-1.829-2.45-.739-5-1.083-7.467-1.754a13.769,13.769,0,0,1-6.653-3.623,3.054,3.054,0,0,1-.834-1.442A2.871,2.871,0,0,1,280.9,162.162Z" transform="translate(-279.843 -145.085)" fill="#fff" stroke="#263238" stroke-linecap="round" stroke-linejoin="round" stroke-width="1" opacity="0.8"/>
      <path id="Path_1529" data-name="Path 1529" d="M247.029,216.913a14.955,14.955,0,0,1-2.434-1.9c-.518-.47-.842-1-1.3-1.462s-1.3-1.655-4.176-1.612c-.885.439.443,1.063,1.517,1.509a.162.162,0,0,1-.1.308,13.224,13.224,0,0,0-2.236-.656c-.332.446-.363.849.284,1.545,1.359,1.454-.221,3.062,1.383,4.239a9.63,9.63,0,0,0,1.782.921c.707.284,2.592.225,3.3.506,1.976.79,7.112,3.623,7.819,3.291-.04-1-.083-2-.122-2.995-.047-1.185.15-1.62-.972-2.031C249.423,217.719,248.819,217.746,247.029,216.913Z" transform="translate(-209.171 -176.461)" fill="#fff" stroke="#263238" stroke-linecap="round" stroke-linejoin="round" stroke-width="1"/>
      <path id="Path_1530" data-name="Path 1530" d="M215.569,204.059c-3.951-1.1-5.531-1.58-5.531-1.58-1.043,2.047,0,7.732.363,7.835,3.2.9,3.872,1.039,9.265,2.236,1.276.281,1.727-1.15,1.829-1.442,1.7-4.8,1.525-8.629,1.106-15.354,0,0-.261-7.317-3.983-9.633C215.359,184.087,214.964,200.373,215.569,204.059Z" transform="translate(-167.931 -160.739)" fill="#76ba1b" stroke="#263238" stroke-linecap="round" stroke-linejoin="round" stroke-width="1"/>
      <path id="Path_1531" data-name="Path 1531" d="M211.248,208.55a7.732,7.732,0,0,1-.988,3.817" transform="translate(-156.562 -174.412)" fill="none" stroke="#263238" stroke-linecap="round" stroke-linejoin="round" stroke-width="1"/>
      <path id="Path_1532" data-name="Path 1532" d="M228.59,247.028a24.176,24.176,0,0,1-7.7-3.718" transform="translate(-178.105 -195.438)" fill="none" stroke="#263238" stroke-linecap="round" stroke-linejoin="round" stroke-width="1"/>
      <path id="Path_1533" data-name="Path 1533" d="M224.86,238a11.586,11.586,0,0,1,.533,2.572" transform="translate(-176.476 -192.226)" fill="none" stroke="#263238" stroke-linecap="round" stroke-linejoin="round" stroke-width="1"/>
      <path id="Path_1534" data-name="Path 1534" d="M226.98,233.57a10.1,10.1,0,0,1,.439.936" transform="translate(-179.339 -189.547)" fill="none" stroke="#263238" stroke-linecap="round" stroke-linejoin="round" stroke-width="1"/>
      <path id="Path_1535" data-name="Path 1535" d="M222.12,233.84a3.1,3.1,0,0,1,1,1.659" transform="translate(-173.116 -189.71)" fill="none" stroke="#263238" stroke-linecap="round" stroke-linejoin="round" stroke-width="1"/>
      <path id="Path_1536" data-name="Path 1536" d="M221.2,151.354c.541,1.865,2.766,3.378,4.457,2.4-1.486-.972-1.58-3.208-.79-4.789a4.482,4.482,0,0,0,1.975,4.382,1.584,1.584,0,0,0,1.774-.024c-3.248-2.556-1.063-11.063-1.134-11.1a3.365,3.365,0,0,1-.68-.549l-.051-.055a7.934,7.934,0,0,1-2.019-4.346c-.051-.277-.091-.549-.115-.826a19.164,19.164,0,0,1,.427-5.4c.032-.162.059-.32.095-.482a.356.356,0,0,1,.04-.158c.241-.525.277-1.308.553-1.363,2.347-.442,2.766-3.291,2.888-3.283.032,0,3.663,1.762,3.8,4.405.079,1.5,1.268,2.766,2.315,3.848.683.707,1.754,1.636,1.8,2.62a5.167,5.167,0,0,1,0,.7,1.88,1.88,0,0,1-.028.4c-.281,2.766-1.908,5.381-1.742,8.175s2.122,5.188,3.753,7.507,2.912,4.638,1.9,7.309c2.209-.865,3.244-3.5,3.161-5.875s-.36-5.879-1.525-7.949c-4.714-8.372,2.533-14.33-2.28-20.648-6.823-8.961-14.856-1.391-16.242,5.354a54.438,54.438,0,0,0-.644,6.717,46.1,46.1,0,0,1-1.185,7.3C221.244,147.5,220.667,149.481,221.2,151.354Z" transform="translate(-193.141 -122.147)" fill="#263238" stroke="#263238" stroke-linecap="round" stroke-linejoin="round" stroke-width="1"/>
    </g>
    <g id="freepik--Clock--inject-430" transform="translate(64.459)">
      <ellipse id="Ellipse_73" data-name="Ellipse 73" cx="9.759" cy="9.759" rx="9.759" ry="9.759" transform="translate(19.445 21.129) rotate(-175.05)" fill="#fff" stroke="#263238" stroke-linecap="round" stroke-linejoin="round" stroke-width="1"/>
      <ellipse id="Ellipse_74" data-name="Ellipse 74" cx="7.685" cy="7.685" rx="7.685" ry="7.685" transform="translate(3.539 18.857) rotate(-94.71)" fill="#fff" stroke="#263238" stroke-linecap="round" stroke-linejoin="round" stroke-width="1"/>
      <path id="Path_1537" data-name="Path 1537" d="M230.8,59.518a.846.846,0,1,0,0-1.185A.845.845,0,0,0,230.8,59.518Z" transform="translate(-221.06 -48.143)" fill="#263238" stroke="#263238" stroke-linecap="round" stroke-linejoin="round" stroke-width="1"/>
      <path id="Path_1538" data-name="Path 1538" d="M238.06,52.291l.15-4.915-.281-.506-.229.49-.134,4.453L231.975,53.1l-.375.229.474.273Z" transform="translate(-227.438 -41.362)" fill="#263238" stroke="#263238" stroke-linecap="round" stroke-linejoin="round" stroke-width="1"/>
    </g>
  </g>
</svg>
