<svg xmlns="http://www.w3.org/2000/svg" width="175.923" height="184.039" viewBox="0 0 175.923 184.039">
  <g id="Download-amico" transform="translate(-27.06 -13.129)">
    <g id="freepik--Floor--inject-70" transform="translate(27.06 95.595)">
      <ellipse id="Ellipse_36" data-name="Ellipse 36" cx="87.962" cy="50.787" rx="87.962" ry="50.787" transform="translate(0)" fill="#494848"/>
    </g>
    <g id="freepik--Shadows--inject-70" transform="translate(38.577 116.47)">
      <ellipse id="Ellipse_37" data-name="Ellipse 37" cx="12.835" cy="7.41" rx="12.835" ry="7.41" transform="translate(0 27.738)" fill="#e0e0e0"/>
      <path id="Path_51" data-name="Path 51" d="M129.381,300.07,94.025,320.484,68.32,305.53l35.356-20.41Z" transform="translate(-63.558 -281.146)" fill="#e0e0e0"/>
      <path id="Path_52" data-name="Path 52" d="M234.82,335.892,147.9,285.709a1.184,1.184,0,0,1,0-2.056l14.03-8.1a3.752,3.752,0,0,1,3.764,0l86.916,50.179a1.184,1.184,0,0,1,0,2.06l-14.026,8.1A3.78,3.78,0,0,1,234.82,335.892Z" transform="translate(-111.381 -275.047)" fill="#e0e0e0"/>
    </g>
    <g id="freepik--Plant--inject-70" transform="translate(173.663 124.593)">
      <path id="Path_53" data-name="Path 53" d="M400.542,322.427l4.885,2.837a38.087,38.087,0,0,1-1.1-15.782,15.527,15.527,0,0,1,1.973-5.271c.371-.8,3.33-5.737.738-8.009s-8.68,2.249-8.4,14.441A47.252,47.252,0,0,0,400.542,322.427Z" transform="translate(-398.627 -295.635)" fill="#76ba1b"/>
      <path id="Path_54" data-name="Path 54" d="M400.542,322.427l4.885,2.837a38.087,38.087,0,0,1-1.1-15.782,15.527,15.527,0,0,1,1.973-5.271c.371-.8,3.33-5.737.738-8.009s-8.68,2.249-8.4,14.441A47.252,47.252,0,0,0,400.542,322.427Z" transform="translate(-398.627 -295.635)" opacity="0.3"/>
      <path id="Path_55" data-name="Path 55" d="M406.258,327.03a.177.177,0,0,1-.166-.114,41.416,41.416,0,0,1-1.768-13.391c.095-8.219,4.435-12.661,4.478-12.7a.179.179,0,0,1,.253.253c-.043.043-4.281,4.34-4.376,12.456a41.437,41.437,0,0,0,1.744,13.265.174.174,0,0,1-.1.225A.178.178,0,0,1,406.258,327.03Z" transform="translate(-402.074 -298.742)" fill="#fff"/>
      <path id="Path_56" data-name="Path 56" d="M403.95,335.94l8.073,4.735s3.693-.544,3.413-4.02-1.779-4.3.091-5.828,2.367-1.63,2.261-3.129a4.469,4.469,0,0,0-1.578-2.762c-.481-.612-1.8-1.839-.868-3.646s2.194-3.551.32-4.38c-1.117-.493-2.995.126-4.241,1.448a8.055,8.055,0,0,1-3.448,2.58c-1.18.308-3.642.331-3.551,2.367s.612,2.734.118,3.638C403.591,328.681,399.61,329.58,403.95,335.94Z" transform="translate(-400.647 -308.414)" fill="#76ba1b"/>
      <path id="Path_57" data-name="Path 57" d="M414.976,339.7a.182.182,0,0,1-.178-.162c0-.122-.884-12.133,7.461-20.02a.174.174,0,0,1,.249,0,.181.181,0,0,1,0,.253c-8.219,7.769-7.358,19.613-7.347,19.728a.181.181,0,0,1-.162.193Z" transform="translate(-408.402 -310.064)" fill="#fff"/>
      <path id="Path_58" data-name="Path 58" d="M414.8,336.481a.178.178,0,0,1-.178-.162,6.9,6.9,0,0,0-2.486-4.814.178.178,0,0,1-.039-.249.174.174,0,0,1,.245-.039,7.1,7.1,0,0,1,2.62,5.09.182.182,0,0,1-.166.189Z" transform="translate(-406.762 -317.158)" fill="#fff"/>
      <path id="Path_59" data-name="Path 59" d="M417.188,346.581a.166.166,0,0,1-.118-.047.174.174,0,0,1,0-.249c.087-.095,2.182-2.367,7.019-1.689a.178.178,0,0,1,.154.2.182.182,0,0,1-.2.154c-4.64-.639-6.688,1.551-6.707,1.578A.174.174,0,0,1,417.188,346.581Z" transform="translate(-409.761 -325.202)" fill="#fff"/>
    </g>
    <g id="freepik--Folder--inject-70" transform="translate(79.093 53.738)">
      <path id="Path_60" data-name="Path 60" d="M366.774,263.417l-11.264-6.6,6.707,9.225Z" transform="translate(-277.953 -201.28)" fill="#76ba1b"/>
      <path id="Path_61" data-name="Path 61" d="M366.774,263.417l-11.264-6.6,6.707,9.225Z" transform="translate(-277.953 -201.28)" opacity="0.6"/>
      <path id="Path_62" data-name="Path 62" d="M264.5,202.6l-65.926-38.066a1.858,1.858,0,0,1-.931-1.61V117.914a1.862,1.862,0,0,1,2.789-1.614l65.934,38.066a1.866,1.866,0,0,1,.931,1.614V201a1.862,1.862,0,0,1-2.8,1.61Z" transform="translate(-182.371 -116.053)" fill="#e0e0e0"/>
      <path id="Path_63" data-name="Path 63" d="M370.494,276.168l4.557-2.628V326.8a2.726,2.726,0,0,1-1.369,2.367l-4.5,2.608Z" transform="translate(-286.229 -211.403)" fill="#76ba1b"/>
      <path id="Path_64" data-name="Path 64" d="M370.494,276.168l4.557-2.628V326.8a2.726,2.726,0,0,1-1.369,2.367l-4.5,2.608Z" transform="translate(-286.229 -211.403)" opacity="0.3"/>
      <path id="Path_65" data-name="Path 65" d="M256.911,206.852l-65.934-38.066a1.87,1.87,0,0,1-.927-1.614V122.146a1.858,1.858,0,0,1,2.789-1.61L258.773,158.6a1.858,1.858,0,0,1,.931,1.61v45.026a1.862,1.862,0,0,1-2.793,1.614Z" transform="translate(-177.775 -118.616)" fill="#ebebeb"/>
      <path id="Path_66" data-name="Path 66" d="M249.321,211.337l-65.93-38.062a1.866,1.866,0,0,1-.931-1.614V126.646a1.858,1.858,0,0,1,2.79-1.61L251.183,163.1a1.858,1.858,0,0,1,.931,1.618v45.007a1.862,1.862,0,0,1-2.793,1.61Z" transform="translate(-173.18 -121.341)" fill="#fafafa"/>
      <path id="Path_67" data-name="Path 67" d="M158.94,124.1v66.166a5.347,5.347,0,0,0,2.676,4.633l77.726,44.868a2.584,2.584,0,0,0,3.875-2.237V184.147l-40.994-23.673L195.14,144.14a15.482,15.482,0,0,0-6.471-7.256l-25.942-14.993a2.525,2.525,0,0,0-3.788,2.206Z" transform="translate(-158.94 -119.383)" fill="#76ba1b"/>
      <path id="Path_68" data-name="Path 68" d="M158.94,124.1v66.166a5.347,5.347,0,0,0,2.676,4.633l77.726,44.868a2.584,2.584,0,0,0,3.875-2.237V184.147l-40.994-23.673L195.14,144.14a15.482,15.482,0,0,0-6.471-7.256l-25.942-14.993a2.525,2.525,0,0,0-3.788,2.206Z" transform="translate(-158.94 -119.383)" opacity="0.2"/>
      <path id="Path_69" data-name="Path 69" d="M250.652,265.379c-.217-.126-.434-.237-.647-.335-.166-5.09-3.717-11.107-8.057-13.616a6.935,6.935,0,0,0-4.02-1.081c-1.657-5.374-5.465-10.653-9.9-13.225-5.658-3.267-10.3-.911-10.748,5.228-.272-.189-.548-.367-.825-.529-4.3-2.478-7.777-.47-7.777,4.49a17.182,17.182,0,0,0,7.777,13.47l34.208,19.751c3.389,1.973,6.135.371,6.135-3.551A13.483,13.483,0,0,0,250.652,265.379Z" transform="translate(-189.055 -188.462)" fill="#76ba1b"/>
      <path id="Path_70" data-name="Path 70" d="M250.652,265.379c-.217-.126-.434-.237-.647-.335-.166-5.09-3.717-11.107-8.057-13.616a6.935,6.935,0,0,0-4.02-1.081c-1.657-5.374-5.465-10.653-9.9-13.225-5.658-3.267-10.3-.911-10.748,5.228-.272-.189-.548-.367-.825-.529-4.3-2.478-7.777-.47-7.777,4.49a17.182,17.182,0,0,0,7.777,13.47l34.208,19.751c3.389,1.973,6.135.371,6.135-3.551A13.483,13.483,0,0,0,250.652,265.379Z" transform="translate(-189.055 -188.462)" fill="#fff" opacity="0.4"/>
      <path id="Path_71" data-name="Path 71" d="M241.19,290.988l8.061,14.7,8.613-5.22-3.4-1.922V284l-9.177-5.287v14.666Z" transform="translate(-208.738 -214.533)" fill="#fff"/>
    </g>
    <g id="freepik--Arrow--inject-70" transform="translate(45.381 37.312)">
      <path id="Path_72" data-name="Path 72" d="M116.471,74.42a40.454,40.454,0,0,0-38.56,28.219l-3.263-1.879a.651.651,0,0,0-.978.517,40.244,40.244,0,0,0,2.663,18.6,33.537,33.537,0,0,0,4.632,8.179.564.564,0,0,0,.967-.142,37.483,37.483,0,0,1,5.816-9.864,36.738,36.738,0,0,1,5.279-5.33.864.864,0,0,0-.118-1.42l-3.914-2.261a34.878,34.878,0,0,1,67.76,2.19A40.453,40.453,0,0,0,116.471,74.42Z" transform="translate(-73.495 -74.42)" fill="#76ba1b"/>
      <path id="Path_73" data-name="Path 73" d="M116.471,74.42a40.454,40.454,0,0,0-38.56,28.219l-3.263-1.879a.651.651,0,0,0-.978.517,40.244,40.244,0,0,0,2.663,18.6,33.537,33.537,0,0,0,4.632,8.179.564.564,0,0,0,.967-.142,37.483,37.483,0,0,1,5.816-9.864,36.738,36.738,0,0,1,5.279-5.33.864.864,0,0,0-.118-1.42l-3.914-2.261a34.878,34.878,0,0,1,67.76,2.19A40.453,40.453,0,0,0,116.471,74.42Z" transform="translate(-73.495 -74.42)" fill="#fff" opacity="0.4"/>
    </g>
    <g id="freepik--Files--inject-70" transform="translate(119.353 13.129)">
      <ellipse id="Ellipse_38" data-name="Ellipse 38" cx="9.304" cy="16.114" rx="9.304" ry="16.114" transform="translate(22.619 9.304) rotate(-30)" fill="#76ba1b"/>
      <ellipse id="Ellipse_39" data-name="Ellipse 39" cx="9.304" cy="16.114" rx="9.304" ry="16.114" transform="translate(22.619 9.304) rotate(-30)" opacity="0.2"/>
      <ellipse id="Ellipse_40" data-name="Ellipse 40" cx="9.304" cy="16.114" rx="9.304" ry="16.114" transform="translate(21.95 9.69) rotate(-30)" fill="#76ba1b"/>
      <path id="Path_74" data-name="Path 74" d="M344.789,51.254l8.771,5.09a.7.7,0,0,0,1.057-.608V44.886a1.535,1.535,0,0,0-.789-1.33l-8.771-5.074A.7.7,0,0,0,344,39.09V49.94a1.535,1.535,0,0,0,.789,1.314Z" transform="translate(-311.244 -28.421)" fill="#76ba1b"/>
      <path id="Path_75" data-name="Path 75" d="M344.789,51.254l8.771,5.09a.7.7,0,0,0,1.057-.608V44.886a1.535,1.535,0,0,0-.789-1.33l-8.771-5.074A.7.7,0,0,0,344,39.09V49.94a1.535,1.535,0,0,0,.789,1.314Z" transform="translate(-311.244 -28.421)" fill="#fff" opacity="0.6"/>
      <path id="Path_76" data-name="Path 76" d="M347.285,51.986l7.051,4.052a.56.56,0,0,0,.844-.5V47.409a1.231,1.231,0,0,0-.615-1.065l-7.051-4.068a.564.564,0,0,0-.844.489V50.9A1.231,1.231,0,0,0,347.285,51.986Z" transform="translate(-312.86 -30.731)" fill="#76ba1b"/>
      <path id="Path_77" data-name="Path 77" d="M355.18,47.4v8.128a.56.56,0,0,1-.844.489l-7.051-4.04a1.219,1.219,0,0,1-.616-1.061V42.76a.56.56,0,0,1,.844-.489l7.051,4.072A1.219,1.219,0,0,1,355.18,47.4Z" transform="translate(-312.86 -30.726)" fill="#fff" opacity="0.4"/>
      <path id="Path_78" data-name="Path 78" d="M355.18,65v.288a.56.56,0,0,1-.844.489l-7.051-4.04a1.219,1.219,0,0,1-.615-1.061v-.789l1.846-1.578,2.178,3.1,2.127-2.529Z" transform="translate(-312.861 -40.484)" fill="#fafafa"/>
      <path id="Path_79" data-name="Path 79" d="M352.83,51.09a2.107,2.107,0,0,0,.947,1.645c.525.3.951.059.951-.548a2.107,2.107,0,0,0-.951-1.645C353.256,50.253,352.83,50.486,352.83,51.09Z" transform="translate(-316.59 -35.706)" fill="#fafafa"/>
      <ellipse id="Ellipse_41" data-name="Ellipse 41" cx="9.304" cy="16.114" rx="9.304" ry="16.114" transform="translate(42.367 49.812) rotate(-30)" fill="#76ba1b"/>
      <ellipse id="Ellipse_42" data-name="Ellipse 42" cx="9.304" cy="16.114" rx="9.304" ry="16.114" transform="translate(42.367 49.812) rotate(-30)" opacity="0.2"/>
      <ellipse id="Ellipse_43" data-name="Ellipse 43" cx="9.304" cy="16.114" rx="9.304" ry="16.114" transform="translate(41.699 50.202) rotate(-30)" fill="#76ba1b"/>
      <path id="Path_80" data-name="Path 80" d="M395.107,141.157a.706.706,0,0,0-1.057.612v10.85a1.527,1.527,0,0,0,.769,1.326l8.791,5.078a.7.7,0,0,0,1.073-.623v-8.053l-2.367-5.046Z" transform="translate(-341.547 -90.587)" fill="#76ba1b"/>
      <path id="Path_81" data-name="Path 81" d="M395.107,141.157a.706.706,0,0,0-1.057.612v10.85a1.527,1.527,0,0,0,.769,1.326l8.791,5.078a.7.7,0,0,0,1.073-.623v-8.053l-2.367-5.046Z" transform="translate(-341.547 -90.587)" fill="#fff" opacity="0.6"/>
      <path id="Path_82" data-name="Path 82" d="M414.1,153.646l.308-1.846,2.367,5.05-2.15-1.772a1.527,1.527,0,0,1-.525-1.432Z" transform="translate(-353.669 -97.087)" fill="#76ba1b"/>
      <path id="Path_83" data-name="Path 83" d="M414.1,153.646l.308-1.846,2.367,5.05-2.15-1.772a1.527,1.527,0,0,1-.525-1.432Z" transform="translate(-353.669 -97.087)" fill="#fff" opacity="0.4"/>
      <path id="Path_84" data-name="Path 84" d="M405.28,160.341a.24.24,0,0,1-.122-.036l-6.94-4a.245.245,0,0,1-.087-.331.241.241,0,0,1,.327-.087l6.944,4a.245.245,0,0,1,.087.331.237.237,0,0,1-.209.114Z" transform="translate(-343.997 -99.545)" fill="#fafafa"/>
      <path id="Path_85" data-name="Path 85" d="M405.28,166.289a.28.28,0,0,1-.122-.032l-6.94-4.009a.245.245,0,0,1-.087-.331.241.241,0,0,1,.328-.087l6.944,3.993a.245.245,0,0,1,.087.331A.237.237,0,0,1,405.28,166.289Z" transform="translate(-343.998 -103.141)" fill="#fafafa"/>
      <path id="Path_86" data-name="Path 86" d="M405.28,172.249a.281.281,0,0,1-.122-.032l-6.94-4.009a.245.245,0,0,1-.087-.331.241.241,0,0,1,.328-.087L405.4,171.8a.241.241,0,0,1-.122.45Z" transform="translate(-343.998 -106.749)" fill="#fafafa"/>
      <ellipse id="Ellipse_44" data-name="Ellipse 44" cx="9.336" cy="16.169" rx="9.336" ry="16.169" transform="translate(1.105 26.252) rotate(-29.887)" fill="#76ba1b"/>
      <ellipse id="Ellipse_45" data-name="Ellipse 45" cx="9.336" cy="16.169" rx="9.336" ry="16.169" transform="translate(1.105 26.252) rotate(-29.887)" opacity="0.2"/>
      <ellipse id="Ellipse_46" data-name="Ellipse 46" cx="9.304" cy="16.114" rx="9.304" ry="16.114" transform="translate(0 26.539) rotate(-30)" fill="#76ba1b"/>
      <path id="Path_87" data-name="Path 87" d="M289.111,93.983l8.791,5.074a.7.7,0,0,0,1.057-.608V87.6a1.535,1.535,0,0,0-.769-1.33L289.383,81.2a.7.7,0,0,0-1.053.608v10.85A1.539,1.539,0,0,0,289.111,93.983Z" transform="translate(-277.539 -54.283)" fill="#76ba1b"/>
      <path id="Path_88" data-name="Path 88" d="M289.111,93.983l8.791,5.074a.7.7,0,0,0,1.057-.608V87.6a1.535,1.535,0,0,0-.769-1.33L289.383,81.2a.7.7,0,0,0-1.053.608v10.85A1.539,1.539,0,0,0,289.111,93.983Z" transform="translate(-277.539 -54.283)" fill="#fff" opacity="0.6"/>
      <path id="Path_89" data-name="Path 89" d="M296.38,98.469v3.681a.548.548,0,0,0,.548.548h3.192a.548.548,0,0,0,.414-.907l-3.192-3.681a.548.548,0,0,0-.963.359Z" transform="translate(-282.413 -64.466)" fill="#fafafa"/>
      <path id="Path_90" data-name="Path 90" d="M358.72,98.516a.28.28,0,0,1-.28-.28V97.49a.28.28,0,0,1,.28-.28.276.276,0,0,1,.276.28v.746a.276.276,0,0,1-.276.28Z" transform="translate(-319.987 -64.036)" fill="#76ba1b"/>
      <path id="Path_91" data-name="Path 91" d="M358.72,143.685a.28.28,0,0,1-.28-.28v-1.491a.28.28,0,0,1,.28-.28.276.276,0,0,1,.276.28V143.4a.276.276,0,0,1-.276.28Zm0-2.983a.28.28,0,0,1-.28-.28v-1.487a.28.28,0,0,1,.28-.28.276.276,0,0,1,.276.28v1.476a.276.276,0,0,1-.276.292Zm0-2.979a.28.28,0,0,1-.28-.28v-1.491a.28.28,0,0,1,.28-.28.276.276,0,0,1,.276.28v1.491a.276.276,0,0,1-.276.28Zm0-2.983a.28.28,0,0,1-.28-.28v-1.491a.278.278,0,0,1,.556,0v1.491a.276.276,0,0,1-.276.28Zm0-2.979a.28.28,0,0,1-.28-.28V129.99a.28.28,0,0,1,.28-.28.276.276,0,0,1,.276.28v1.491a.276.276,0,0,1-.276.28Zm0-2.983a.28.28,0,0,1-.28-.28V127a.28.28,0,0,1,.28-.28A.276.276,0,0,1,359,127v1.491a.276.276,0,0,1-.276.292Zm0-2.983a.276.276,0,0,1-.28-.276v-1.491a.28.28,0,0,1,.28-.28.276.276,0,0,1,.276.28v1.491a.276.276,0,0,1-.276.292Zm0-2.979a.28.28,0,0,1-.28-.28v-1.491a.28.28,0,0,1,.28-.28.276.276,0,0,1,.276.28v1.491a.276.276,0,0,1-.276.28Zm0-2.983a.28.28,0,0,1-.28-.28v-1.487a.28.28,0,0,1,.28-.28.276.276,0,0,1,.276.28v1.487a.276.276,0,0,1-.276.28Zm0-2.979a.28.28,0,0,1-.28-.28v-1.491a.28.28,0,0,1,.28-.28.276.276,0,0,1,.276.28v1.491a.276.276,0,0,1-.276.28Zm0-2.983a.28.28,0,0,1-.28-.28V112.1a.278.278,0,0,1,.556,0v1.48a.276.276,0,0,1-.276.292Zm0-2.979a.28.28,0,0,1-.28-.28v-1.491a.28.28,0,0,1,.28-.28.276.276,0,0,1,.276.28v1.491a.276.276,0,0,1-.276.28Zm0-2.983a.28.28,0,0,1-.28-.28v-1.491a.28.28,0,0,1,.28-.28.276.276,0,0,1,.276.28v1.491a.276.276,0,0,1-.276.28Zm0-2.983a.276.276,0,0,1-.28-.276V103.16a.28.28,0,0,1,.28-.28.276.276,0,0,1,.276.28v1.491A.276.276,0,0,1,358.72,104.928Z" transform="translate(-319.987 -67.469)" fill="#76ba1b"/>
      <path id="Path_92" data-name="Path 92" d="M358.72,210a.276.276,0,0,1-.28-.276v-.746a.28.28,0,0,1,.28-.28.276.276,0,0,1,.276.28v.746A.276.276,0,0,1,358.72,210Z" transform="translate(-319.987 -131.537)" fill="#76ba1b"/>
      <path id="Path_93" data-name="Path 93" d="M376.572,164.125a.272.272,0,0,1-.249-.154.276.276,0,0,1,.126-.375l.667-.331a.278.278,0,0,1,.249.5l-.667.335A.28.28,0,0,1,376.572,164.125Z" transform="translate(-330.796 -104.011)" fill="#76ba1b"/>
      <path id="Path_94" data-name="Path 94" d="M368.239,167.478a.272.272,0,0,1-.249-.154.276.276,0,0,1,.126-.395l1.641-.817a.293.293,0,1,1,.268.521l-1.661.817A.28.28,0,0,1,368.239,167.478Z" transform="translate(-325.745 -105.73)" fill="#76ba1b"/>
      <path id="Path_95" data-name="Path 95" d="M362.389,171.132a.272.272,0,0,1-.249-.154.276.276,0,0,1,.126-.395l.667-.331a.284.284,0,1,1,.268.5l-.667.331A.28.28,0,0,1,362.389,171.132Z" transform="translate(-322.203 -108.237)" fill="#76ba1b"/>
      <path id="Path_96" data-name="Path 96" d="M335.608,119.441a.272.272,0,0,1-.237-.134l-.395-.639a.276.276,0,0,1,.091-.395.284.284,0,0,1,.395.095l.395.639a.276.276,0,0,1-.241.422Z" transform="translate(-305.752 -76.762)" fill="#76ba1b"/>
      <path id="Path_97" data-name="Path 97" d="M343.518,132.485a.28.28,0,0,1-.241-.134l-.765-1.263a.28.28,0,1,1,.477-.292l.765,1.263a.284.284,0,0,1-.095.395A.268.268,0,0,1,343.518,132.485Zm-1.531-2.525a.28.28,0,0,1-.241-.134l-.765-1.263a.284.284,0,0,1,.095-.395.28.28,0,0,1,.395.095l.765,1.263a.284.284,0,0,1-.237.426Zm-1.531-2.525a.288.288,0,0,1-.241-.138l-.765-1.263a.28.28,0,0,1,.477-.288l.762,1.251a.276.276,0,0,1-.091.395A.3.3,0,0,1,340.456,127.434Zm-1.531-2.529a.284.284,0,0,1-.241-.134l-.765-1.263a.28.28,0,0,1,.481-.288l.765,1.263a.276.276,0,0,1-.241.422Z" transform="translate(-307.538 -79.701)" fill="#76ba1b"/>
      <path id="Path_98" data-name="Path 98" d="M354.058,149.907a.276.276,0,0,1-.237-.138l-.395-.635a.28.28,0,0,1,.477-.292l.395.639a.272.272,0,0,1-.241.426Z" transform="translate(-316.931 -95.222)" fill="#76ba1b"/>
    </g>
    <g id="freepik--Stairs--inject-70" transform="translate(48.476 109.937)">
      <path id="Path_99" data-name="Path 99" d="M108.28,258.49l-17.7,10.467v9.781l-9.24,5.177v5.259l17.147,9.947,26.936-15.115V268.437Z" transform="translate(-81.34 -258.49)" fill="#263238"/>
      <path id="Path_100" data-name="Path 100" d="M81.34,322.93l17.147,9.947v5.259L81.34,328.189Z" transform="translate(-81.34 -297.505)" fill="#455a64"/>
      <path id="Path_101" data-name="Path 101" d="M134.036,294.171v9.781l-9.237,5.173v5.259l26.936-15.115V283.7Z" transform="translate(-107.653 -273.753)" fill="#263238"/>
      <path id="Path_102" data-name="Path 102" d="M98.487,324.933l9.236-5.173L90.58,309.81l-9.24,5.177Z" transform="translate(-81.34 -289.562)" fill="#37474f"/>
      <path id="Path_103" data-name="Path 103" d="M121.9,304.752v-9.781L104.76,285.02V294.8Z" transform="translate(-95.52 -274.553)" fill="#455a64"/>
      <path id="Path_104" data-name="Path 104" d="M121.9,278.908l-17.143-9.951,17.7-10.467,17.143,9.947Z" transform="translate(-95.52 -258.49)" fill="#37474f"/>
    </g>
    <g id="freepik--Character--inject-70" transform="translate(40.825 74.229)">
      <path id="Path_105" data-name="Path 105" d="M156.67,193.37s-4.222,5.918-1.712,7.966,8.013.395,8.234-.58S156.67,193.37,156.67,193.37Z" transform="translate(-117.778 -183.355)" fill="#263238"/>
      <path id="Path_106" data-name="Path 106" d="M103.2,324.65,97,332.9l1.724,1.361a4.944,4.944,0,0,0,3.366-3.8,39.457,39.457,0,0,0,1.113-5.812Z" transform="translate(-83.17 -262.838)" fill="#ffa8a7"/>
      <path id="Path_107" data-name="Path 107" d="M101.6,323.23s1.724,1.578.963,2.963-2.083,2.525-2.123,4.368-.963,5.129-3.006,5.65-4.044-.189-4-.915a16.283,16.283,0,0,1,1.409-3.251s1.878,1.164,3.263.039,1.7-5.847,1.7-5.847Z" transform="translate(-81.008 -261.978)" fill="#76ba1b"/>
      <path id="Path_108" data-name="Path 108" d="M101.6,323.23s1.724,1.578.963,2.963-2.083,2.525-2.123,4.368-.963,5.129-3.006,5.65-4.044-.189-4-.915a16.283,16.283,0,0,1,1.409-3.251s1.878,1.164,3.263.039,1.7-5.847,1.7-5.847Z" transform="translate(-81.008 -261.978)" opacity="0.2"/>
      <path id="Path_109" data-name="Path 109" d="M113.6,258.47s-13.833,5.851-14.954,6.427-3.085,1.578-2.888,6.088,1.33,15.679,1.33,15.679l7.583-14.6,19.582-9.307Z" transform="translate(-82.41 -222.77)" fill="#76ba1b"/>
      <path id="Path_110" data-name="Path 110" d="M113.6,258.47s-13.833,5.851-14.954,6.427-3.085,1.578-2.888,6.088,1.33,15.679,1.33,15.679l7.583-14.6,19.582-9.307Z" transform="translate(-82.41 -222.77)" opacity="0.5"/>
      <path id="Path_111" data-name="Path 111" d="M97.72,287.738c.292,3.188.556,5.78.556,5.78l7.583-14.6,13.963-6.648-3.156-2.482c-4.462,2.241-10.945,5.492-12.882,6.486-2.462,1.263-3.224,4.833-5.346,9.793C98.2,286.614,97.961,287.166,97.72,287.738Z" transform="translate(-83.606 -229.623)" fill="#76ba1b"/>
      <path id="Path_112" data-name="Path 112" d="M97.72,287.738c.292,3.188.556,5.78.556,5.78l7.583-14.6,13.963-6.648-3.156-2.482c-4.462,2.241-10.945,5.492-12.882,6.486-2.462,1.263-3.224,4.833-5.346,9.793C98.2,286.614,97.961,287.166,97.72,287.738Z" transform="translate(-83.606 -229.623)" opacity="0.7"/>
      <path id="Path_113" data-name="Path 113" d="M143.89,266.03l1.428,2.158-1.117.17Z" transform="translate(-111.559 -227.347)" fill="#76ba1b"/>
      <path id="Path_114" data-name="Path 114" d="M143.89,266.03l1.428,2.158-1.117.17Z" transform="translate(-111.559 -227.347)" opacity="0.7"/>
      <path id="Path_115" data-name="Path 115" d="M75.852,353.81a5.133,5.133,0,0,1,.2,2c0,1.669-.667,2.02-1.491,2.3a16.024,16.024,0,0,0-3.946,2.857c-.671.781-3.377,1.578-6.052,1.113s-3.239-2.233-1.953-3.366a43.524,43.524,0,0,1,4.952-3.2Z" transform="translate(-61.947 -280.493)" fill="#76ba1b"/>
      <path id="Path_116" data-name="Path 116" d="M124.128,265.117l-5.95-1.377s-16.528,8.286-18.99,9.548-3.22,4.837-5.35,9.8c-1.578,3.732-3.681,8.854-5.058,11.931a3.417,3.417,0,0,0,4.08,1.945h0c1.05-2.292,2.9-4.34,5.6-7.986a19.9,19.9,0,0,0,3.606-7.615,2.671,2.671,0,0,1,1.973-2.048c2.726-.663,8.286-2.1,14.157-4.123C126.472,272.341,124.128,265.117,124.128,265.117Z" transform="translate(-78.193 -225.96)" fill="#76ba1b"/>
      <path id="Path_117" data-name="Path 117" d="M124.128,265.117l-5.95-1.377s-16.528,8.286-18.99,9.548-3.22,4.837-5.35,9.8c-1.578,3.732-3.681,8.854-5.058,11.931a3.417,3.417,0,0,0,4.08,1.945h0c1.05-2.292,2.9-4.34,5.6-7.986a19.9,19.9,0,0,0,3.606-7.615,2.671,2.671,0,0,1,1.973-2.048c2.726-.663,8.286-2.1,14.157-4.123C126.472,272.341,124.128,265.117,124.128,265.117Z" transform="translate(-78.193 -225.96)" opacity="0.5"/>
      <path id="Path_118" data-name="Path 118" d="M77.82,343c-.454,1.014-.829,1.807-1.085,2.253-1.038,1.8-4.064,3.756-5.129,4.679s-1.29,1.27-.272,2.052c2.576,1.973,4.81-.181,6.254-1.578a17.889,17.889,0,0,1,3.156-2.316.643.643,0,0,0,.32-.434,10.791,10.791,0,0,1,.84-2.707h0A3.42,3.42,0,0,1,77.82,343Z" transform="translate(-67.233 -273.948)" fill="#ffa8a7"/>
      <path id="Path_119" data-name="Path 119" d="M119.865,266.008l-10.4,6.005-17.3-10,10.4-6.131Z" transform="translate(-80.239 -221.202)" fill="#37474f"/>
      <path id="Path_120" data-name="Path 120" d="M132.852,271.585l-3.9-2.253,2.446-1.413,3.906,2.253Z" transform="translate(-102.514 -228.491)" fill="#263238"/>
      <path id="Path_121" data-name="Path 121" d="M127.185,278.675l5.259-3.1L122.17,269.36Z" transform="translate(-98.409 -229.363)" fill="#263238"/>
      <path id="Path_122" data-name="Path 122" d="M118.977,245.92l-4.163,1.973a36.882,36.882,0,0,0-3.673,1.136s-2.9,1.184-3.03,1.973,2.174,2.647,4.2,1.736a6.593,6.593,0,0,1,1.693-.612,5.918,5.918,0,0,0,3.326-1.428l3.366-.923S122.43,246.405,118.977,245.92Z" transform="translate(-89.894 -215.171)" fill="#ffa8a7"/>
      <path id="Path_123" data-name="Path 123" d="M124.8,258.382c-.481.517-1.854,1.819-2.154,2.194s-1.01-.592.233-2.032a11.69,11.69,0,0,0,3-1.633A11.787,11.787,0,0,1,124.8,258.382Z" transform="translate(-98.407 -221.825)" fill="#ffa8a7"/>
      <path id="Path_124" data-name="Path 124" d="M141.7,209.161h0a4.088,4.088,0,0,0-4.522,2.742,17.923,17.923,0,0,0-.848,4.092c-.359,4.285-.458,6.427-.458,6.427l-4.309,1.973s2.328.11,2.17,3.393l5.362-1.361Z" transform="translate(-104.094 -192.885)" fill="#76ba1b"/>
      <path id="Path_125" data-name="Path 125" d="M141.7,209.161h0a4.088,4.088,0,0,0-4.522,2.742,17.923,17.923,0,0,0-.848,4.092c-.359,4.285-.458,6.427-.458,6.427l-4.309,1.973s2.308.11,2.17,3.393l5.362-1.361Z" transform="translate(-104.094 -192.885)" fill="#fff" opacity="0.3"/>
      <path id="Path_126" data-name="Path 126" d="M142.48,242.081a2.979,2.979,0,0,1,1.27.789,3.206,3.206,0,0,0-1.247-1.29Z" transform="translate(-110.706 -212.544)" fill="#76ba1b"/>
      <path id="Path_127" data-name="Path 127" d="M142.48,242.081a2.979,2.979,0,0,1,1.27.789,3.206,3.206,0,0,0-1.247-1.29Z" transform="translate(-110.706 -212.544)" fill="#fff" opacity="0.1"/>
      <path id="Path_128" data-name="Path 128" d="M149.541,174.534a2.783,2.783,0,0,1-1.7-3.792c.959-3,7.741-4.289,12.847,0,0,0,3.583-.552,3.583,4.451s-2,7.287,1.081,8.589c0,0-1.882,1.783-3.4,0,0,0-.32,3.906-6.092,2.545Z" transform="translate(-113.825 -167.987)" fill="#263238"/>
      <path id="Path_129" data-name="Path 129" d="M154.194,210.944l3.022,1.286v8.862a19.657,19.657,0,0,0-1.511,7.149v4.387s-6.179,2.2-10.969-.182a10.2,10.2,0,0,1-3.756-3.784s2.553-1.5,2.553-3.338a25.545,25.545,0,0,0-.509-4.265,5.129,5.129,0,0,1-1.472-4.3c.339-2.928,5.847-7.524,5.847-7.524l2.052.28Z" transform="translate(-109.797 -192.963)" fill="#76ba1b"/>
      <path id="Path_130" data-name="Path 130" d="M167.193,202.565l-4.743-1.424V195.4h4.743Z" transform="translate(-122.796 -184.584)" fill="#ffa8a7"/>
      <path id="Path_131" data-name="Path 131" d="M162.45,201.221a7.623,7.623,0,0,0,4.34-4.143V195.5h-4.34Z" transform="translate(-122.796 -184.645)" fill="#f28f8f"/>
      <path id="Path_132" data-name="Path 132" d="M153.743,175.536s-4.34.253-3.8,7.674c.249,3.429,1.049,5.2,3.693,5.074,2.991-.146,7.24-2.2,6.964-8.073S153.743,175.536,153.743,175.536Z" transform="translate(-115.194 -172.497)" fill="#ffa8a7"/>
      <path id="Path_133" data-name="Path 133" d="M162.749,182.244s-1.184.316-1.184-1.389c0,0-5.287-.359-6.455-5.607,0,0,.521-1.578,3.823-1.578s6.072,2.916,5.212,6.928Z" transform="translate(-118.352 -171.428)" fill="#263238"/>
      <path id="Path_134" data-name="Path 134" d="M155.775,191.36v2.553l-1.5-.458Z" transform="translate(-117.85 -182.138)" fill="#f28f8f"/>
      <path id="Path_135" data-name="Path 135" d="M162.162,191.251a.517.517,0,1,1-.15-.368.521.521,0,0,1,.15.368Z" transform="translate(-121.991 -181.757)" fill="#263238"/>
      <path id="Path_136" data-name="Path 136" d="M153.5,190.337a.521.521,0,1,1-.517-.517A.521.521,0,0,1,153.5,190.337Z" transform="translate(-116.748 -181.206)" fill="#263238"/>
      <path id="Path_137" data-name="Path 137" d="M152.129,187.1l1.018-.6s-.395-.395-.789-.162A.71.71,0,0,0,152.129,187.1Z" transform="translate(-116.527 -179.053)" fill="#263238"/>
      <path id="Path_138" data-name="Path 138" d="M158.4,199.31a2.64,2.64,0,0,0,1.673-.45s.114.884-.623,1.049a.951.951,0,0,1-1.05-.6Z" transform="translate(-120.344 -186.679)" fill="#f28f8f"/>
      <path id="Path_139" data-name="Path 139" d="M173.406,192.571a2.869,2.869,0,0,1,.233-1.259,1.33,1.33,0,0,1,1.156-.9,1.5,1.5,0,0,1,1.491,1.7,2.745,2.745,0,0,1-2.825,2.545Z" transform="translate(-129.428 -181.562)" fill="#ffa8a7"/>
      <path id="Path_140" data-name="Path 140" d="M159.738,210l-1.4,1.819a1.771,1.771,0,0,0,.58,2.647h0a3.022,3.022,0,0,0,3.76-.789l1.8-2.253Z" transform="translate(-120.084 -193.424)" fill="#ffa8a7"/>
      <path id="Path_141" data-name="Path 141" d="M146.234,265.4l-3.946,2.158a12.278,12.278,0,0,0-1.823,0c-.7.087-2.565.426-3.046.446s-.02.919,1.243.84c0,0-2.845,1.3-2.947,2.083s2.281,2.557,4.269,1.578a6.453,6.453,0,0,1,1.661-.679,5.962,5.962,0,0,0,3.267-1.578l3.326-1.065S149.7,265.739,146.234,265.4Z" transform="translate(-106.608 -226.965)" fill="#ffa8a7"/>
      <path id="Path_142" data-name="Path 142" d="M170.166,216.82s-2.419,1.649-2,6.778a60.219,60.219,0,0,1,0,9.323l-5.792,3.066a4.423,4.423,0,0,1,1.973,3.784s8.317-1.712,8.814-3.65.679-11.205.679-12.815S173.189,218.106,170.166,216.82Z" transform="translate(-122.748 -197.553)" fill="#76ba1b"/>
      <path id="Path_143" data-name="Path 143" d="M170.166,216.82s-2.419,1.649-2,6.778a60.219,60.219,0,0,1,0,9.323l-5.792,3.066a4.423,4.423,0,0,1,1.973,3.784s8.317-1.712,8.814-3.65.679-11.205.679-12.815S173.189,218.106,170.166,216.82Z" transform="translate(-122.748 -197.553)" fill="#fff" opacity="0.3"/>
      <path id="Path_144" data-name="Path 144" d="M177.06,256.94a4.734,4.734,0,0,1,1.862.339,3.977,3.977,0,0,0-1.827-.789Z" transform="translate(-131.642 -221.571)" fill="#76ba1b"/>
      <path id="Path_145" data-name="Path 145" d="M177.06,256.94a4.734,4.734,0,0,1,1.862.339,3.977,3.977,0,0,0-1.827-.789Z" transform="translate(-131.642 -221.571)" fill="#fff" opacity="0.1"/>
      <path id="Path_146" data-name="Path 146" d="M86.037,241.412l1.807,11.837a.035.035,0,0,0,0,.02l17.972,10.424a.028.028,0,0,0,.039-.028L104.1,252.179a1.689,1.689,0,0,0-.789-1.184l-16.477-10.12a.525.525,0,0,0-.8.537Z" transform="translate(-76.527 -212.068)" fill="#455a64"/>
      <path id="Path_147" data-name="Path 147" d="M136.083,288.372l9.6-5.559a1.464,1.464,0,0,0,.73-1.263h0L136,287.555Z" transform="translate(-106.782 -236.743)" fill="#263238"/>
      <path id="Path_148" data-name="Path 148" d="M108.331,267.482c0,.848-.592,1.184-1.326.765a2.931,2.931,0,0,1-1.326-2.3c0-.844.6-1.184,1.326-.765a2.928,2.928,0,0,1,1.326,2.3Z" transform="translate(-88.425 -226.727)" fill="#37474f"/>
      <path id="Path_149" data-name="Path 149" d="M157.25,238.146s3.626.986,5.551-1.736C162.8,236.41,161.555,239.925,157.25,238.146Z" transform="translate(-119.648 -209.413)" opacity="0.2"/>
    </g>
  </g>
</svg>
