<svg id="download" xmlns="http://www.w3.org/2000/svg" width="16" height="16" viewBox="0 0 16 16">
  <g id="Group_3468" data-name="Group 3468" transform="translate(5.334)">
    <g id="Group_3467" data-name="Group 3467">
      <path id="Path_474" data-name="Path 474" d="M175.937,7.7a.667.667,0,0,0-.6-.369h-1.333V.667a.667.667,0,0,0-1.333,0V7.333H171.34a.666.666,0,0,0-.533,1.067l2,2.667c.009.011.022.015.031.026a.651.651,0,0,0,.154.129.685.685,0,0,0,.069.046.626.626,0,0,0,.559,0,.675.675,0,0,0,.068-.046.65.65,0,0,0,.154-.129c.009-.011.023-.015.031-.026l2-2.667A.666.666,0,0,0,175.937,7.7Z" transform="translate(-170.674)" fill="#76ba1b"/>
    </g>
  </g>
  <g id="Group_3470" data-name="Group 3470" transform="translate(0 10)">
    <g id="Group_3469" data-name="Group 3469">
      <path id="Path_475" data-name="Path 475" d="M15.333,320a.666.666,0,0,0-.667.667v2a2,2,0,0,1-2,2H3.333a2,2,0,0,1-2-2v-2a.667.667,0,0,0-1.333,0v2A3.337,3.337,0,0,0,3.333,326h9.333A3.337,3.337,0,0,0,16,322.667v-2A.666.666,0,0,0,15.333,320Z" transform="translate(0 -320)" fill="#76ba1b"/>
    </g>
  </g>
</svg>
