<svg id="employee" xmlns="http://www.w3.org/2000/svg" width="37.238" height="37.238" viewBox="0 0 37.238 37.238">
  <path id="Path_25" data-name="Path 25" d="M11.758,15.516a7.758,7.758,0,1,1,7.758-7.758A7.767,7.767,0,0,1,11.758,15.516Z" transform="translate(2.206)" fill="#76ba1b"/>
  <path id="Path_26" data-name="Path 26" d="M7.37,12.009A7.377,7.377,0,0,0,0,19.379v5.431a1.172,1.172,0,0,0,1.164,1.164H15.516V20.93A5.828,5.828,0,0,1,20.5,15.189,5.968,5.968,0,0,1,22.638,12.3C21.086,11.86,21,12.009,7.37,12.009Z" transform="translate(0 6.611)" fill="#76ba1b"/>
  <path id="Path_27" data-name="Path 27" d="M27.63,17.379H25.69V16.215A2.718,2.718,0,0,0,22.975,13.5H19.1a2.718,2.718,0,0,0-2.715,2.715v1.164h-1.94a2.7,2.7,0,0,0-1.944.827l8.538,4.455,8.538-4.455A2.7,2.7,0,0,0,27.63,17.379Zm-8.922,0V16.215a.388.388,0,0,1,.388-.388h3.879a.388.388,0,0,1,.388.388v1.164Z" transform="translate(6.893 7.447)" fill="#76ba1b"/>
  <path id="Path_28" data-name="Path 28" d="M21.848,22.542a1.165,1.165,0,0,1-1.075,0L12,17.965v6.649a2.718,2.718,0,0,0,2.715,2.715H27.9a2.718,2.718,0,0,0,2.715-2.715V17.965Z" transform="translate(6.619 9.91)" fill="#76ba1b"/>
</svg>
