<svg xmlns="http://www.w3.org/2000/svg" width="16" height="9.537" viewBox="0 0 16 9.537">
  <g id="eye" transform="translate(0 -98.725)" opacity="0.5">
    <path id="Path_1" data-name="Path 1" d="M8,98.725a9.981,9.981,0,0,0-7.875,4.389.633.633,0,0,0,0,.756A9.976,9.976,0,0,0,8,108.262a9.981,9.981,0,0,0,7.875-4.389.633.633,0,0,0,0-.756A9.976,9.976,0,0,0,8,98.725Zm.219,8.127a3.365,3.365,0,1,1,3.139-3.139A3.367,3.367,0,0,1,8.219,106.852Zm-.1-1.551a1.812,1.812,0,1,1,1.692-1.692A1.809,1.809,0,0,1,8.118,105.3Z" transform="translate(0)" fill="#161616"/>
  </g>
</svg>
