<svg xmlns="http://www.w3.org/2000/svg" width="122.947" height="147.537" viewBox="0 0 122.947 147.537">
  <g id="gas-station" transform="translate(-7.847 -9.416)" opacity="0.7">
    <g id="Group_3573" data-name="Group 3573" transform="translate(0)">
      <path id="Path_2172" data-name="Path 2172" d="M164.713,19.343,152.418,7.048a3.073,3.073,0,0,0-4.346,4.346l10.122,10.122L148.072,31.637a3.071,3.071,0,0,0-.9,2.173v9.221a12.307,12.307,0,0,0,12.295,12.295v52.252a3.074,3.074,0,1,1-6.148,0v-6.147A9.231,9.231,0,0,0,144.1,92.21h-3.073V12.295A12.307,12.307,0,0,0,128.729,0H67.256A12.307,12.307,0,0,0,54.961,12.295V122.947a12.307,12.307,0,0,0-12.295,12.295v9.221a3.072,3.072,0,0,0,3.074,3.074H150.245a3.072,3.072,0,0,0,3.074-3.074v-9.221a12.307,12.307,0,0,0-12.295-12.295V98.358H144.1a3.076,3.076,0,0,1,3.074,3.074v6.147a9.221,9.221,0,0,0,18.442,0V21.516A3.073,3.073,0,0,0,164.713,19.343ZM128.729,52.309a3.072,3.072,0,0,1-3.074,3.074H70.329a3.072,3.072,0,0,1-3.074-3.074V15.368a3.072,3.072,0,0,1,3.074-3.074h55.326a3.072,3.072,0,0,1,3.074,3.074Z" transform="translate(-34.819 9.416)" fill="#76ba1b"/>
    </g>
  </g>
</svg>
