<svg id="headphones" xmlns="http://www.w3.org/2000/svg" width="37.725" height="35" viewBox="0 0 37.725 35">
  <g id="Group_3335" data-name="Group 3335" transform="translate(0 0)">
    <g id="Group_3334" data-name="Group 3334" transform="translate(0 0)">
      <path id="Path_6" data-name="Path 6" d="M281.612,217a2.434,2.434,0,0,0-2.412,2.412v17.379a2.412,2.412,0,0,0,4.825,0V219.467A2.378,2.378,0,0,0,281.612,217Z" transform="translate(-253.542 -204.204)" fill="#fff"/>
      <path id="Path_7" data-name="Path 7" d="M37.61,34.1a17.589,17.589,0,0,0-1.151-6.321,18.254,18.254,0,0,0-2.8-4.966,2.675,2.675,0,0,0,.269-1.053,2.365,2.365,0,0,0-.729-1.731A20.174,20.174,0,0,0,26.6,15.7a20.917,20.917,0,0,0-15.581,0,20.174,20.174,0,0,0-6.6,4.327,2.365,2.365,0,0,0-.729,1.731,2.054,2.054,0,0,0,.269,1.053,18.254,18.254,0,0,0-2.8,4.966A18.459,18.459,0,0,0,0,34.1v6.81a6.082,6.082,0,0,0,1.842,4.364A6.409,6.409,0,0,0,5.3,47.007V34.817a6.18,6.18,0,0,0-3.339,1.618v-2.37A16.305,16.305,0,0,1,5.45,24.02a2.976,2.976,0,0,0,.806.113,2.545,2.545,0,0,0,1.689-.64l.077-.075a15.612,15.612,0,0,1,16.694-3.273,14.5,14.5,0,0,1,4.951,3.273l.038.038a2.629,2.629,0,0,0,1.765.715,2.976,2.976,0,0,0,.806-.113,17.556,17.556,0,0,1,2.456,4.364A16.745,16.745,0,0,1,35.768,34.1v2.37a6.454,6.454,0,0,0-3.339-1.618V47.007a6.162,6.162,0,0,0,3.454-1.731,6.018,6.018,0,0,0,1.842-4.364V34.1H37.61Z" transform="translate(0 -14.2)" fill="#fff"/>
      <path id="Path_8" data-name="Path 8" d="M80.012,217a2.434,2.434,0,0,0-2.412,2.412v17.379a2.412,2.412,0,0,0,4.825,0V219.467A2.446,2.446,0,0,0,80.012,217Z" transform="translate(-70.469 -204.204)" fill="#fff"/>
    </g>
  </g>
</svg>
