<svg xmlns="http://www.w3.org/2000/svg" width="209.443" height="177.289" viewBox="0 0 209.443 177.289">
  <g id="Job_hunt-amico" data-name="Job hunt-amico" transform="translate(-25.199 -57.542)">
    <g id="freepik--Floor--inject-324" transform="translate(25.199 114.523)">
      <path id="freepik--floor--inject-324-2" data-name="freepik--floor--inject-324" d="M203.97,282.029c-40.9,23.494-107.2,23.494-148.1,0s-40.893-61.58,0-85.07,107.207-23.49,148.1,0S244.868,258.54,203.97,282.029Z" transform="translate(-25.199 -179.343)" fill="#fafafa"/>
    </g>
    <g id="freepik--Shadows--inject-324" transform="translate(38.19 119.957)">
      <path id="freepik--Shadow--inject-324" d="M202.617,303.689c-8.594-4.959-22.526-4.959-31.12,0-7.284,4.21-8.388,10.624-3.326,15.508a3.414,3.414,0,0,0-.819.332L140.218,335.2a1.272,1.272,0,0,0,0,2.409l1.7.982a4.29,4.29,0,0,0,4.1-.117l25.263-16.547a2.09,2.09,0,0,0,.29-.229c8.6,4.917,22.456,4.9,31.036-.042S211.234,308.653,202.617,303.689Z" transform="translate(-98.941 -248.971)" fill="#e6e6e6"/>
      <path id="freepik--shadow--inject-324-2" data-name="freepik--shadow--inject-324" d="M292.109,227.632l-34.582,20.009a3.074,3.074,0,0,1-2.784,0L194.585,212.9a.847.847,0,0,1,0-1.6l34.582-20.009a3.074,3.074,0,0,1,2.784,0l60.158,34.736A.847.847,0,0,1,292.109,227.632Z" transform="translate(-128.026 -190.958)" fill="#e6e6e6"/>
      <path id="freepik--shadow--inject-324-3" data-name="freepik--shadow--inject-324" d="M63.055,298.68l-9.249-5.343a1.235,1.235,0,0,1,0-2.339l64.359-37.16a4.477,4.477,0,0,1,4.051,0l9.254,5.343a1.235,1.235,0,0,1,0,2.339L67.106,298.68a4.477,4.477,0,0,1-4.051,0Z" transform="translate(-52.967 -224.164)" fill="#e6e6e6"/>
      <ellipse id="freepik--shadow--inject-324-4" data-name="freepik--shadow--inject-324" cx="17.09" cy="9.338" rx="17.09" ry="9.338" transform="translate(147.086 66.461)" fill="#e6e6e6"/>
    </g>
    <g id="freepik--Plants--inject-324" transform="translate(25.72 161.642)">
      <g id="freepik--plants--inject-324-2" data-name="freepik--plants--inject-324" transform="translate(183.591 12.589)">
        <path id="Path_803" data-name="Path 803" d="M419.89,319.223c.164-2.072,2.007-6.241,4.374-8.758s5.9-4.21,8.234-3.2c2.175.936,1.7,3.86-1.174,5.581s-7.139,3.841-8.6,7.1l-2.83,3.92Z" transform="translate(-419.355 -306.971)" fill="#76ba1b"/>
        <path id="Path_804" data-name="Path 804" d="M419.89,319.223c.164-2.072,2.007-6.241,4.374-8.758s5.9-4.21,8.234-3.2c2.175.936,1.7,3.86-1.174,5.581s-7.139,3.841-8.6,7.1l-2.83,3.92Z" transform="translate(-419.355 -306.971)" opacity="0.1"/>
        <path id="Path_805" data-name="Path 805" d="M418.9,323.67a.154.154,0,0,0,.15-.112c1.956-6.957,8.136-12.243,11.658-13.235a.154.154,0,0,0-.084-.295c-3.588,1.015-9.885,6.386-11.869,13.45a.15.15,0,0,0,.108.187Z" transform="translate(-418.747 -308.596)" fill="#fff"/>
        <path id="Path_806" data-name="Path 806" d="M420.2,336.632a10.434,10.434,0,0,1,4.43-4.346c2.685-1.549,5.969-2.1,6.821-3.406,1.025-1.567-.234-3.228-2.877-3.116s-7.518,3.307-8.683,8.617Z" transform="translate(-419.355 -316.969)" fill="#76ba1b"/>
        <path id="Path_807" data-name="Path 807" d="M419.521,337.091a.145.145,0,0,0,.136-.089c2.657-5.881,7.448-7.635,9.609-7.743a.15.15,0,1,0,0-.3c-2.391.117-7.158,1.913-9.871,7.916a.15.15,0,0,0,.08.2A.132.132,0,0,0,419.521,337.091Z" transform="translate(-419.084 -318.673)" fill="#fff"/>
      </g>
      <g id="freepik--plants--inject-324-3" data-name="freepik--plants--inject-324">
        <path id="Path_808" data-name="Path 808" d="M40.622,293.352a20.052,20.052,0,0,0-2.629-7.64c-2.161-3.34-5.081-5.417-7.822-5.637s-4.954,2.306-2.021,4.042,8.145,3.5,10.545,9.979Z" transform="translate(-26.552 -280.061)" fill="#76ba1b"/>
        <path id="Path_809" data-name="Path 809" d="M40.622,293.352a20.052,20.052,0,0,0-2.629-7.64c-2.161-3.34-5.081-5.417-7.822-5.637s-4.954,2.306-2.021,4.042,8.145,3.5,10.545,9.979Z" transform="translate(-26.552 -280.061)" opacity="0.1"/>
        <path id="Path_810" data-name="Path 810" d="M42.194,293.706h.028a.145.145,0,0,0,.08-.192c-2.891-7.13-8.421-10.105-10.91-10.685a.15.15,0,0,0-.065.29c2.456.561,7.855,3.49,10.7,10.5a.15.15,0,0,0,.164.084Z" transform="translate(-28.928 -281.534)" fill="#fff"/>
        <path id="Path_811" data-name="Path 811" d="M26.424,301.546a2.638,2.638,0,0,0,1.52,1.151,2.966,2.966,0,0,1,1.586,1.067c.66,1.137-.421,2.737.285,3.841a2.016,2.016,0,0,0,1.4.8,13.232,13.232,0,0,0,1.366.126,5.991,5.991,0,0,0,.65-.051,2.919,2.919,0,0,1,1.871.2c.9.505,1.179,1.647,1.726,2.526a4.309,4.309,0,0,0,3.046,1.909,3.009,3.009,0,0,0,1.572-.1l.089-.056h0a2,2,0,0,0,.159-.192v-.028a6.6,6.6,0,0,0-.112-1.811v-.112c0-.706.047-1.4.061-2.115q.047-1.951.037-3.9a6.242,6.242,0,0,0-.262-2.564c-.4-.875-1.38-.894-1.75-1.754-.15-.342-.229-.706-.374-1.053a3.017,3.017,0,0,0-2.573-1.8c-1.722-.089-3.275,1.3-4.978,1.174a12.739,12.739,0,0,1-1.315-.248,3.709,3.709,0,0,0-3.78,1.31,1.8,1.8,0,0,0-.229,1.675Z" transform="translate(-26.313 -289.412)" fill="#76ba1b"/>
        <path id="Path_812" data-name="Path 812" d="M43.664,312.529h0a.14.14,0,0,0,.1-.178c-2.363-8.907-11.742-10.189-13.923-10.035a.145.145,0,0,0-.136.154.14.14,0,0,0,.136.159c2.147-.154,11.326,1.1,13.647,9.824a.145.145,0,0,0,.173.075Z" transform="translate(-28.12 -291.899)" fill="#fff"/>
        <path id="Path_813" data-name="Path 813" d="M37.073,311.977a.15.15,0,0,0,.08-.042,7.79,7.79,0,0,1,6.381-1.8.154.154,0,0,0,.168-.126.145.145,0,0,0-.126-.164,8.089,8.089,0,0,0-6.624,1.885.145.145,0,0,0,0,.206A.154.154,0,0,0,37.073,311.977Z" transform="translate(-31.952 -295.857)" fill="#fff"/>
      </g>
    </g>
    <g id="freepik--Device--inject-324" transform="translate(105.413 114.713)">
      <g id="freepik--device--inject-324-2" data-name="freepik--device--inject-324">
        <path id="Path_814" data-name="Path 814" d="M293.149,215.187l-33.412,19.335a2.994,2.994,0,0,1-2.69,0L198.9,200.956a.816.816,0,0,1,0-1.549l33.436-19.34a2.985,2.985,0,0,1,2.685,0l58.132,33.567A.828.828,0,0,1,293.149,215.187Z" transform="translate(-197.553 -179.748)" fill="#37474f"/>
        <path id="Path_815" data-name="Path 815" d="M357.655,271.488a4.131,4.131,0,0,1-3.743,0,1.136,1.136,0,0,1,0-2.152,4.1,4.1,0,0,1,3.743,0A1.134,1.134,0,0,1,357.655,271.488Z" transform="translate(-279.934 -227.184)" fill="#263238"/>
        <path id="Path_816" data-name="Path 816" d="M328.029,273.239,361.465,253.9c.664-.384.734-.982.211-1.4a3.008,3.008,0,0,1,1.137,2.18v1.263a2.971,2.971,0,0,1-1.347,2.339l-33.412,19.335a2.755,2.755,0,0,1-1.343.323v-4.365A2.756,2.756,0,0,0,328.029,273.239Z" transform="translate(-265.869 -218.465)" fill="#455a64"/>
        <path id="Path_817" data-name="Path 817" d="M198,227.837a2.971,2.971,0,0,1-1.343-2.339v-1.263a3.008,3.008,0,0,1,1.137-2.185c-.524.43-.468,1.025.206,1.4L256.13,257.02a2.761,2.761,0,0,0,1.347.323v4.365a2.761,2.761,0,0,1-1.347-.323Z" transform="translate(-196.66 -202.26)" fill="#263238"/>
        <path id="Path_818" data-name="Path 818" d="M262.371,235.478l31.518-18.245a.491.491,0,0,0,0-.936L247.3,189.35a1.773,1.773,0,0,0-1.609,0L214.162,207.6a.491.491,0,0,0,0,.936l46.6,26.947a1.782,1.782,0,0,0,1.614,0Z" transform="translate(-205.792 -184.755)" fill="#fafafa"/>
        <path id="Path_819" data-name="Path 819" d="M224.523,211.37l15.055,8.73a2.241,2.241,0,0,0,2.026,0l26.479-15.284a.618.618,0,0,0,0-1.17l-15.073-8.711a2.241,2.241,0,0,0-2.026,0L224.523,210.2a.618.618,0,0,0,0,1.17Z" transform="translate(-211.265 -187.701)" fill="#ebebeb"/>
        <path id="Path_820" data-name="Path 820" d="M245.9,220.534l3.864.753a1.24,1.24,0,0,0,.72-.066l3.275-1.4c.519-.225,1.258,0,1.249.37l-.051,2.339c0,.15.122.29.332.379l3.331,1.361c.529.215.4.688-.22.8l-3.906.706a.711.711,0,0,0-.515.3l-1.212,2.25a1.1,1.1,0,0,1-1.4.126l-2.339-1.923a1.02,1.02,0,0,0-.646-.192l-4.084.028c-.65,0-1.025-.421-.636-.72l2.442-1.871a.3.3,0,0,0,.112-.416l-1.31-2.232C244.7,220.749,245.284,220.412,245.9,220.534Z" transform="translate(-221.589 -201.024)" fill="#fafafa"/>
        <path id="Path_821" data-name="Path 821" d="M266.67,205.274l8.29-4.786a1.216,1.216,0,0,1,1.085-.075c.262.154.2.435-.131.627l-8.285,4.786a1.235,1.235,0,0,1-1.085.075C266.282,205.747,266.343,205.466,266.67,205.274Z" transform="translate(-233.763 -190.696)" fill="#fafafa"/>
        <path id="Path_822" data-name="Path 822" d="M271.142,207.854l8.285-4.786a1.216,1.216,0,0,1,1.085-.075c.262.154.206.435-.131.627l-8.285,4.786a1.235,1.235,0,0,1-1.085.075C270.744,208.327,270.8,208.046,271.142,207.854Z" transform="translate(-236.139 -192.069)" fill="#fafafa"/>
        <path id="Path_823" data-name="Path 823" d="M275.606,210.432l8.285-4.786a1.2,1.2,0,0,1,1.085-.075c.267.154.206.435-.131.627l-8.276,4.786a1.235,1.235,0,0,1-1.085.075C275.213,210.9,275.269,210.624,275.606,210.432Z" transform="translate(-238.516 -193.44)" fill="#fafafa"/>
        <path id="Path_824" data-name="Path 824" d="M280.065,213.008l8.29-4.781a1.193,1.193,0,0,1,1.081-.075c.267.15.206.43-.126.627l-8.29,4.781a1.2,1.2,0,0,1-1.085.075C279.672,213.485,279.733,213.2,280.065,213.008Z" transform="translate(-240.89 -194.813)" fill="#fafafa"/>
        <path id="Path_825" data-name="Path 825" d="M284.527,215.588l8.285-4.781a1.2,1.2,0,0,1,1.085-.075c.262.15.206.43-.131.627l-8.285,4.781a1.2,1.2,0,0,1-1.085.075C284.12,216.065,284.19,215.784,284.527,215.588Z" transform="translate(-243.26 -196.186)" fill="#fafafa"/>
        <path id="Path_826" data-name="Path 826" d="M288.994,218.168l8.266-4.781a1.2,1.2,0,0,1,1.085-.075c.262.15.206.43-.131.627l-8.267,4.791a1.2,1.2,0,0,1-1.085.075C288.6,218.645,288.657,218.364,288.994,218.168Z" transform="translate(-245.64 -197.559)" fill="#fafafa"/>
        <path id="Path_827" data-name="Path 827" d="M264.419,241.9l.683.4a1.357,1.357,0,0,0,1.216,0l15.906-9.174c.337-.2.337-.51,0-.7l-.688-.4a1.357,1.357,0,0,0-1.216,0L264.414,241.2a.37.37,0,0,0,0,.7Z" transform="translate(-232.583 -207.492)" fill="#e0e0e0"/>
        <path id="Path_828" data-name="Path 828" d="M316.7,217.951l.683.4c.337.192.337.505,0,.7L311,222.737a1.357,1.357,0,0,1-1.216,0l-.683-.4c-.337-.192-.337-.505,0-.7l6.367-3.686a1.357,1.357,0,0,1,1.235,0Z" transform="translate(-256.364 -199.999)" fill="#e0e0e0"/>
        <path id="Path_829" data-name="Path 829" d="M273.271,239.493l15.092,8.706a2.241,2.241,0,0,0,2.026,0l26.479-15.284a.618.618,0,0,0,0-1.17l-15.073-8.711a2.241,2.241,0,0,0-2.026,0l-26.5,15.293a.618.618,0,0,0,0,1.165Z" transform="translate(-237.211 -202.655)" fill="#ebebeb"/>
        <path id="Path_830" data-name="Path 830" d="M294.683,248.679l3.869.758a1.244,1.244,0,0,0,.72-.066l3.275-1.4c.524-.225,1.263,0,1.254.365l-.051,2.339c0,.15.117.29.327.374l3.336,1.361c.529.22.4.692-.22.8l-3.9.7a.73.73,0,0,0-.515.3l-1.212,2.25a1.1,1.1,0,0,1-1.4.126l-2.339-1.923a1.034,1.034,0,0,0-.65-.192l-4.084.028c-.646,0-1.025-.421-.636-.72l2.442-1.871a.313.313,0,0,0,.117-.416l-1.315-2.232C293.486,248.9,294.07,248.562,294.683,248.679Z" transform="translate(-247.554 -216.005)" fill="#fafafa"/>
        <path id="Path_831" data-name="Path 831" d="M315.465,233.424l8.285-4.786a1.216,1.216,0,0,1,1.085-.075c.267.154.206.435-.131.627l-8.285,4.786a1.235,1.235,0,0,1-1.085.075C315.1,233.9,315.128,233.616,315.465,233.424Z" transform="translate(-259.733 -205.677)" fill="#fafafa"/>
        <path id="Path_832" data-name="Path 832" d="M319.919,236l8.3-4.786a1.216,1.216,0,0,1,1.085-.075c.262.154.2.435-.131.627l-8.29,4.786a1.221,1.221,0,0,1-1.085.084C319.526,236.477,319.586,236.2,319.919,236Z" transform="translate(-262.1 -207.05)" fill="#fafafa"/>
        <path id="Path_833" data-name="Path 833" d="M324.382,238.583l8.285-4.777a1.2,1.2,0,0,1,1.085-.075c.262.15.206.43-.131.627l-8.285,4.781a1.235,1.235,0,0,1-1.085.075C323.984,239.06,324.045,238.78,324.382,238.583Z" transform="translate(-264.472 -208.426)" fill="#fafafa"/>
        <path id="Path_834" data-name="Path 834" d="M328.844,241.158l8.285-4.781a1.2,1.2,0,0,1,1.085-.075c.267.15.206.43-.131.627l-8.285,4.8a1.2,1.2,0,0,1-1.085.075C328.451,241.635,328.507,241.354,328.844,241.158Z" transform="translate(-266.847 -209.794)" fill="#fafafa"/>
        <path id="Path_835" data-name="Path 835" d="M333.305,243.738l8.29-4.781a1.193,1.193,0,0,1,1.081-.075c.267.15.206.43-.126.627l-8.29,4.781a1.2,1.2,0,0,1-1.085.075C332.913,244.215,332.973,243.934,333.305,243.738Z" transform="translate(-269.222 -211.167)" fill="#fafafa"/>
        <path id="Path_836" data-name="Path 836" d="M337.772,246.368l8.285-4.781a1.2,1.2,0,0,1,1.085-.075c.262.15.206.43-.131.627l-8.285,4.781a1.2,1.2,0,0,1-1.085.075C337.374,246.836,337.435,246.541,337.772,246.368Z" transform="translate(-271.597 -212.566)" fill="#fafafa"/>
        <path id="Path_837" data-name="Path 837" d="M313.192,270.052l.688.4a1.357,1.357,0,0,0,1.216,0L331,261.276a.37.37,0,0,0,0-.7l-.688-.4a1.357,1.357,0,0,0-1.216,0l-15.906,9.174a.37.37,0,0,0,0,.7Z" transform="translate(-258.54 -222.473)" fill="#e0e0e0"/>
        <path id="Path_838" data-name="Path 838" d="M365.474,246.106l.688.4c.337.192.337.505,0,.7l-6.386,3.686a1.356,1.356,0,0,1-1.216,0l-.688-.4a.37.37,0,0,1,0-.7l6.391-3.686A1.347,1.347,0,0,1,365.474,246.106Z" transform="translate(-282.318 -214.986)" fill="#e0e0e0"/>
        <path id="Path_839" data-name="Path 839" d="M240.155,203.549a.936.936,0,0,1-.823,0,.248.248,0,0,1,0-.468.936.936,0,0,1,.823,0C240.384,203.208,240.384,203.418,240.155,203.549Z" transform="translate(-219.28 -192.115)" fill="#263238"/>
        <path id="Path_840" data-name="Path 840" d="M236.239,210.892a1.825,1.825,0,0,1-1.647,0,.505.505,0,0,1,0-.936,1.824,1.824,0,0,1,1.647,0,.505.505,0,0,1,0,.936Z" transform="translate(-216.679 -195.72)" fill="#263238"/>
        <path id="Path_841" data-name="Path 841" d="M240.753,204.179c-.3-.178-.285-.468.037-.655l5.417-3.13a1.249,1.249,0,0,1,1.137,0c.3.173.285.468-.037.655l-5.417,3.125a1.263,1.263,0,0,1-1.137,0Z" transform="translate(-220.01 -190.663)" fill="#263238"/>
      </g>
    </g>
    <g id="freepik--Newspaper--inject-324" transform="translate(38.902 75.116)">
      <g id="freepik--news-paper--inject-324" transform="translate(0)">
        <path id="Path_842" data-name="Path 842" d="M130.764,103.514v1.1l-3.8,2.194h0l-5.7,3.275-50.3,29.075a2.1,2.1,0,0,0-.716.753,2.044,2.044,0,0,0-.3,1v66.853c0,3.635-2.554,5.109-5.7,3.275a12.636,12.636,0,0,1-5.7-9.871V134.311a2.241,2.241,0,0,1,1.015-1.754l55.994-32.332,5.422-3.125a2.073,2.073,0,0,1,.29,1.006v1.02L61.465,133.745a2,2,0,0,0-.678.7,2.059,2.059,0,0,0-.332,1.053v66.764a8.39,8.39,0,0,0,3.8,6.578c2.1,1.212,3.8.229,3.8-2.194V139.794a2.227,2.227,0,0,1,1-1.754l61.416-35.461A1.946,1.946,0,0,1,130.764,103.514Z" transform="translate(-56.651 -96.167)" fill="#e0e0e0"/>
        <path id="Path_843" data-name="Path 843" d="M129.388,102.791v3.219l-57.88,33.431a2.241,2.241,0,0,0-1.034,1.745v66.853c0,1.212-.847,1.7-1.895,1.095a4.182,4.182,0,0,1-1.9-3.275V139a2.091,2.091,0,0,1,.295-1,2.18,2.18,0,0,1,.716-.753L129.1,101.79A2.1,2.1,0,0,1,129.388,102.791Z" transform="translate(-60.977 -98.663)" fill="#e0e0e0"/>
        <path id="Path_844" data-name="Path 844" d="M69.984,180.936a2.059,2.059,0,0,0-.295,1V248.21a10.807,10.807,0,0,1-.094,1.441q-.028.187-.056.365a1.669,1.669,0,0,1-.065.332c-.023.112-.047.2-.075.29s-.047.182-.075.271a4.678,4.678,0,0,1-2.04,2.741c-1.361.781-3.186.688-5.193-.468-4.21-2.423-7.6-8.58-7.6-13.745V173.156a2.058,2.058,0,0,1,.295-1l1.9,1.095a2.044,2.044,0,0,0-.3,1v66.853a12.594,12.594,0,0,0,5.7,9.871c3.148,1.815,5.7.346,5.7-3.275V180.838a2.044,2.044,0,0,1,.3-1Z" transform="translate(-54.49 -136.112)" fill="#ebebeb"/>
        <path id="Path_845" data-name="Path 845" d="M70.507,181.259a2.072,2.072,0,0,0-.295,1v66.853c0,2.423-1.7,3.406-3.8,2.194a8.4,8.4,0,0,1-3.8-6.578V177.943a2.058,2.058,0,0,1,.332-1.053l1.871,1.076a2.091,2.091,0,0,0-.295,1V245.82a4.182,4.182,0,0,0,1.9,3.275c1.048.608,1.895.117,1.895-1.095V181.152a2.044,2.044,0,0,1,.3-1Z" transform="translate(-58.811 -138.63)" fill="#ebebeb"/>
        <path id="Path_846" data-name="Path 846" d="M119.156,96.039l-5.413,3.125-56,32.332a2.058,2.058,0,0,0-.716.753l-1.9-1.095a2.072,2.072,0,0,1,.716-.758l56-32.332,1.081-.627,1.095-.618.936-.543.557-.323,1.034-.594a2.171,2.171,0,0,1,1.965-.037A1.9,1.9,0,0,1,119.156,96.039Z" transform="translate(-54.825 -95.107)" fill="#fafafa"/>
        <path id="Path_847" data-name="Path 847" d="M147.609,112.465h0L142.2,115.59l-9.5,5.483L86.2,147.921a2.124,2.124,0,0,0-.72.758l-1.871-1.1a2.1,2.1,0,0,1,.692-.734l50.3-29.057,5.7-3.275h0l3.8-2.194.884-.51.1-.051a2.166,2.166,0,0,1,1.871,0h0l.1.061a2,2,0,0,1,.561.646Z" transform="translate(-69.987 -103.855)" fill="#fafafa"/>
        <path id="Path_848" data-name="Path 848" d="M127.309,100.708,65.9,136.165a2.18,2.18,0,0,0-.716.753l-1.871-1.076a2,2,0,0,1,.678-.7L123.8,100.521l.88-.51a2.171,2.171,0,0,1,1.965-.037,1.932,1.932,0,0,1,.669.734Z" transform="translate(-59.184 -97.581)" fill="#fafafa"/>
        <path id="Path_849" data-name="Path 849" d="M139.45,107.757,78.02,143.219a2.086,2.086,0,0,0-.72.758l-1.9-1.1a2.059,2.059,0,0,1,.749-.753l57.9-33.431,2.807-1.609a2.171,2.171,0,0,1,1.965-.033A1.871,1.871,0,0,1,139.45,107.757Z" transform="translate(-65.618 -101.346)" fill="#fafafa"/>
        <path id="Path_850" data-name="Path 850" d="M146.842,114.521V180.8c0,2.718-.936,4.622-2.447,5.464L81.65,222.491a4.781,4.781,0,0,0,2.2-3.06c.028-.094.051-.192.075-.29s.042-.22.065-.332.037-.239.056-.365A10.805,10.805,0,0,0,84.144,217V150.726a2.059,2.059,0,0,1,.295-1,2.124,2.124,0,0,1,.72-.758l46.493-26.844,9.5-5.483,5.413-3.125A2.054,2.054,0,0,1,146.842,114.521Z" transform="translate(-68.944 -104.906)" fill="#494848"/>
        <path id="Path_851" data-name="Path 851" d="M100.185,185.335l9.357-5.413c.561-.323,1.011-.065,1.011.585v13.02a2.232,2.232,0,0,1-1.01,1.754l-9.357,5.413c-.561.323-1.015.061-1.015-.585v-13.02A2.236,2.236,0,0,1,100.185,185.335Z" transform="translate(-78.267 -140.169)" fill="#455a64"/>
        <path id="Path_852" data-name="Path 852" d="M99.17,201.413l51.311-29.623v2.194L99.17,203.607Z" transform="translate(-78.267 -135.915)" fill="#76ba1b"/>
        <path id="Path_853" data-name="Path 853" d="M99.17,201.413l51.311-29.623v2.194L99.17,203.607Z" transform="translate(-78.267 -135.915)" fill="#fff" opacity="0.4"/>
        <path id="Path_854" data-name="Path 854" d="M99.778,241.645l10.189-5.881c.332-.2.6-.037.6.351v20.538a1.343,1.343,0,0,1-.6,1.053l-10.189,5.881c-.337.2-.608.037-.608-.351V242.7A1.338,1.338,0,0,1,99.778,241.645Z" transform="translate(-78.267 -169.916)" fill="#f0f0f0"/>
        <path id="Path_855" data-name="Path 855" d="M99.778,293.213l10.189-5.885c.332-.192.6-.033.6.351v16.075l-11.4,6.6v-16.07A1.338,1.338,0,0,1,99.778,293.213Z" transform="translate(-78.267 -197.358)" fill="#f0f0f0"/>
        <path id="Path_856" data-name="Path 856" d="M128.218,225.217l10.185-5.881c.337-.192.608-.037.608.351v27.134a1.343,1.343,0,0,1-.608,1.053l-10.185,5.881c-.337.192-.608.037-.608-.351V226.27a1.352,1.352,0,0,1,.608-1.053Z" transform="translate(-93.402 -161.175)" fill="#f0f0f0"/>
        <path id="Path_857" data-name="Path 857" d="M156.648,208.8l10.185-5.895c.337-.2.608-.037.608.351v20.538a1.338,1.338,0,0,1-.608,1.053l-10.185,5.895c-.337.2-.608.037-.608-.351V209.851a1.338,1.338,0,0,1,.608-1.053Z" transform="translate(-108.532 -152.429)" fill="#f0f0f0"/>
        <path id="Path_858" data-name="Path 858" d="M185.088,192.395l10.185-5.881c.337-.2.608-.037.608.351V214a1.352,1.352,0,0,1-.608,1.053l-10.185,5.881c-.337.192-.608.037-.608-.351V193.447A1.338,1.338,0,0,1,185.088,192.395Z" transform="translate(-123.667 -143.706)" fill="#f0f0f0"/>
        <path id="Path_859" data-name="Path 859" d="M128.218,290.895l10.185-5.881c.337-.2.608-.037.608.351v9.488l-11.4,6.587v-9.492A1.338,1.338,0,0,1,128.218,290.895Z" transform="translate(-93.402 -196.125)" fill="#f0f0f0"/>
        <path id="Path_860" data-name="Path 860" d="M156,261.46v16.075l11.4-6.582V254.877c0-.388-.271-.543-.608-.351l-10.185,5.881A1.343,1.343,0,0,0,156,261.46Z" transform="translate(-108.511 -179.902)" fill="#f0f0f0"/>
        <path id="Path_861" data-name="Path 861" d="M185.083,258.065l10.189-5.881c.337-.2.608-.037.608.351v9.488l-11.4,6.582v-9.488A1.343,1.343,0,0,1,185.083,258.065Z" transform="translate(-123.667 -178.654)" fill="#f0f0f0"/>
        <path id="Path_862" data-name="Path 862" d="M132.308,295.711l6.386-3.687c.337-.2.608-.037.608.351v5.207a1.338,1.338,0,0,1-.608,1.053l-6.386,3.677c-.337.192-.608.037-.608-.351v-5.179a1.338,1.338,0,0,1,.608-1.071Z" transform="translate(-95.579 -199.856)" fill="#e0e0e0"/>
        <path id="Path_863" data-name="Path 863" d="M189.148,262.921l6.386-3.686c.332-.2.608-.037.608.351v5.179a1.357,1.357,0,0,1-.608,1.053l-6.386,3.686c-.337.192-.608.037-.608-.351v-5.179A1.338,1.338,0,0,1,189.148,262.921Z" transform="translate(-125.828 -182.406)" fill="#e0e0e0"/>
        <path id="Path_864" data-name="Path 864" d="M103.838,246.488l6.386-3.691c.337-.192.608-.033.608.351v5.183a1.352,1.352,0,0,1-.608,1.053l-6.386,3.687c-.332.192-.608.037-.608-.351v-5.193A1.343,1.343,0,0,1,103.838,246.488Z" transform="translate(-80.428 -173.66)" fill="#e0e0e0"/>
        <path id="Path_865" data-name="Path 865" d="M103.637,262.919,110.43,259c.225-.126.4-.023.4.234v.164a.894.894,0,0,1-.4.7l-6.793,3.92a.252.252,0,0,1-.407-.234v-.164a.9.9,0,0,1,.407-.7Z" transform="translate(-80.428 -182.297)" fill="#e0e0e0"/>
        <path id="Path_866" data-name="Path 866" d="M103.637,267.609l6.793-3.92c.225-.126.4-.023.4.234v.164a.894.894,0,0,1-.4.7l-6.793,3.92a.252.252,0,0,1-.407-.234v-.164a.9.9,0,0,1,.407-.7Z" transform="translate(-80.428 -184.793)" fill="#e0e0e0"/>
        <path id="Path_867" data-name="Path 867" d="M103.637,272.3l6.793-3.92c.225-.126.4-.023.4.234v.164a.894.894,0,0,1-.4.7l-6.793,3.92c-.225.131-.407.023-.407-.234V273a.9.9,0,0,1,.407-.7Z" transform="translate(-80.428 -187.289)" fill="#e0e0e0"/>
        <path id="Path_868" data-name="Path 868" d="M103.637,276.989l6.793-3.92c.225-.126.4-.023.4.234v.173a.894.894,0,0,1-.4.7l-6.793,3.92c-.225.131-.407.023-.407-.234v-.178a.9.9,0,0,1,.407-.7Z" transform="translate(-80.428 -189.785)" fill="#e0e0e0"/>
        <path id="Path_869" data-name="Path 869" d="M103.637,281.679l6.793-3.92c.225-.126.4-.023.4.234v.164a.893.893,0,0,1-.4.7l-6.793,3.92c-.225.131-.407.023-.407-.234v-.164a.9.9,0,0,1,.407-.7Z" transform="translate(-80.428 -192.28)" fill="#e0e0e0"/>
        <path id="Path_870" data-name="Path 870" d="M132.308,230.071l6.386-3.686c.337-.2.608-.037.608.351v5.179a1.343,1.343,0,0,1-.608,1.053l-6.386,3.686c-.337.192-.608.037-.608-.351v-5.179A1.338,1.338,0,0,1,132.308,230.071Z" transform="translate(-95.579 -164.924)" fill="#e0e0e0"/>
        <path id="Path_871" data-name="Path 871" d="M132.072,246.476l6.793-3.92c.225-.131.407-.028.407.234v.159a.894.894,0,0,1-.407.7l-6.793,3.92a.249.249,0,0,1-.4-.234v-.159a.893.893,0,0,1,.4-.7Z" transform="translate(-95.563 -173.545)" fill="#e0e0e0"/>
        <path id="Path_872" data-name="Path 872" d="M132.072,251.2l6.793-3.92c.225-.131.407-.028.407.234v.159a.894.894,0,0,1-.407.7l-6.793,3.92c-.22.131-.4.023-.4-.234V251.9A.894.894,0,0,1,132.072,251.2Z" transform="translate(-95.563 -176.056)" fill="#e0e0e0"/>
        <path id="Path_873" data-name="Path 873" d="M132.072,255.87l6.793-3.934c.225-.131.407-.028.407.234v.159a.894.894,0,0,1-.407.7l-6.793,3.92c-.22.131-.4.023-.4-.234v-.159A.894.894,0,0,1,132.072,255.87Z" transform="translate(-95.563 -178.536)" fill="#e0e0e0"/>
        <path id="Path_874" data-name="Path 874" d="M132.072,260.576l6.793-3.92c.225-.131.407-.028.407.234v.159a.894.894,0,0,1-.407.7l-6.793,3.92c-.22.131-.4.023-.4-.234v-.159A.893.893,0,0,1,132.072,260.576Z" transform="translate(-95.563 -181.048)" fill="#e0e0e0"/>
        <path id="Path_875" data-name="Path 875" d="M132.072,265.266l6.793-3.92c.225-.131.407-.028.407.234v.159a.894.894,0,0,1-.407.7l-6.793,3.92c-.22.131-.4.023-.4-.234v-.159A.893.893,0,0,1,132.072,265.266Z" transform="translate(-95.563 -183.544)" fill="#e0e0e0"/>
        <path id="Path_876" data-name="Path 876" d="M132.072,269.957l6.793-3.92c.225-.131.407-.023.407.234v.159a.884.884,0,0,1-.407.7l-6.793,3.92c-.22.131-.4.028-.4-.234v-.15A.907.907,0,0,1,132.072,269.957Z" transform="translate(-95.563 -186.041)" fill="#e0e0e0"/>
        <path id="Path_877" data-name="Path 877" d="M132.072,274.647l6.793-3.92c.225-.131.407-.023.407.234v.159a.884.884,0,0,1-.407.7l-6.793,3.92c-.22.131-.4.028-.4-.234v-.159a.907.907,0,0,1,.4-.7Z" transform="translate(-95.563 -188.537)" fill="#e0e0e0"/>
        <path id="Path_878" data-name="Path 878" d="M132.072,279.337l6.793-3.92c.225-.131.407-.023.407.234v.159a.884.884,0,0,1-.407.7l-6.793,3.92c-.22.131-.4.028-.4-.234v-.159a.908.908,0,0,1,.4-.7Z" transform="translate(-95.563 -191.033)" fill="#e0e0e0"/>
        <path id="Path_879" data-name="Path 879" d="M103.838,298.089l6.386-3.691c.337-.192.608-.033.608.351v5.184a1.343,1.343,0,0,1-.608,1.053l-6.386,3.686c-.332.192-.608.037-.608-.351v-5.179a1.343,1.343,0,0,1,.608-1.053Z" transform="translate(-80.428 -201.12)" fill="#e0e0e0"/>
        <path id="Path_880" data-name="Path 880" d="M103.637,314.479l6.793-3.92c.225-.126.4-.023.4.234v.164a.894.894,0,0,1-.4.7l-6.793,3.92c-.225.131-.407.023-.407-.234v-.164a.9.9,0,0,1,.407-.7Z" transform="translate(-80.428 -209.736)" fill="#e0e0e0"/>
        <path id="Path_881" data-name="Path 881" d="M103.637,319.209l6.793-3.92c.225-.126.4-.023.4.234v.164a.893.893,0,0,1-.4.7l-6.793,3.92c-.225.131-.407.023-.407-.234v-.164a.9.9,0,0,1,.407-.7Z" transform="translate(-80.428 -212.253)" fill="#e0e0e0"/>
        <path id="Path_882" data-name="Path 882" d="M103.637,323.883l6.793-3.944c.225-.126.4-.023.4.234v.164a.894.894,0,0,1-.4.7l-6.793,3.92c-.225.131-.407.023-.407-.234v-.159a.884.884,0,0,1,.407-.683Z" transform="translate(-80.428 -214.727)" fill="#e0e0e0"/>
        <path id="Path_883" data-name="Path 883" d="M160.708,213.653l6.386-3.686c.337-.192.608-.037.608.351V215.5a1.338,1.338,0,0,1-.608,1.053l-6.386,3.682c-.332.192-.608.033-.608-.351v-5.174A1.362,1.362,0,0,1,160.708,213.653Z" transform="translate(-110.693 -156.188)" fill="#e0e0e0"/>
        <path id="Path_884" data-name="Path 884" d="M160.537,230.094l6.793-3.92a.25.25,0,0,1,.4.234v.164a.908.908,0,0,1-.4.7l-6.793,3.939a.253.253,0,0,1-.407-.234v-.164a.9.9,0,0,1,.407-.72Z" transform="translate(-110.709 -164.83)" fill="#e0e0e0"/>
        <path id="Path_885" data-name="Path 885" d="M160.537,234.784l6.793-3.92a.25.25,0,0,1,.4.234v.164a.908.908,0,0,1-.4.7l-6.793,3.92a.253.253,0,0,1-.407-.234v-.164A.9.9,0,0,1,160.537,234.784Z" transform="translate(-110.709 -167.326)" fill="#e0e0e0"/>
        <path id="Path_886" data-name="Path 886" d="M160.537,239.479l6.793-3.92c.22-.126.4-.023.4.234v.164a.907.907,0,0,1-.4.7l-6.793,3.916a.253.253,0,0,1-.407-.234v-.164A.9.9,0,0,1,160.537,239.479Z" transform="translate(-110.709 -169.823)" fill="#e0e0e0"/>
        <path id="Path_887" data-name="Path 887" d="M160.537,244.159l6.793-3.92c.22-.126.4-.023.4.234v.164a.908.908,0,0,1-.4.7l-6.793,3.906c-.225.126-.407.023-.407-.234v-.164A.9.9,0,0,1,160.537,244.159Z" transform="translate(-110.709 -172.313)" fill="#e0e0e0"/>
        <path id="Path_888" data-name="Path 888" d="M160.537,248.854l6.779-3.916c.22-.126.4-.023.4.234v.164a.907.907,0,0,1-.4.7l-6.779,3.916c-.225.126-.407.023-.407-.234v-.164A.9.9,0,0,1,160.537,248.854Z" transform="translate(-110.709 -174.814)" fill="#e0e0e0"/>
        <path id="Path_889" data-name="Path 889" d="M189.148,197.241l6.386-3.687c.332-.2.608-.037.608.351v5.179a1.357,1.357,0,0,1-.608,1.053l-6.386,3.687c-.337.192-.608.037-.608-.351v-5.179a1.338,1.338,0,0,1,.608-1.053Z" transform="translate(-125.828 -147.453)" fill="#e0e0e0"/>
        <path id="Path_890" data-name="Path 890" d="M188.942,213.669l6.793-3.92c.225-.126.407-.023.407.234v.164a.9.9,0,0,1-.407.7l-6.793,3.92c-.22.131-.4.023-.4-.234v-.164a.908.908,0,0,1,.4-.7Z" transform="translate(-125.828 -156.087)" fill="#e0e0e0"/>
        <path id="Path_891" data-name="Path 891" d="M188.942,218.364l6.793-3.925c.225-.126.407-.023.407.234v.164a.9.9,0,0,1-.407.7l-6.793,3.92c-.22.131-.4.023-.4-.234v-.159A.894.894,0,0,1,188.942,218.364Z" transform="translate(-125.828 -158.583)" fill="#e0e0e0"/>
        <path id="Path_892" data-name="Path 892" d="M188.942,223.054l6.793-3.925c.225-.126.407-.023.407.234v.145a.9.9,0,0,1-.407.7l-6.793,3.92c-.22.131-.4.023-.4-.234v-.159a.893.893,0,0,1,.4-.683Z" transform="translate(-125.828 -161.079)" fill="#e0e0e0"/>
        <path id="Path_893" data-name="Path 893" d="M188.942,227.748l6.793-3.925a.253.253,0,0,1,.407.234v.164a.9.9,0,0,1-.407.7l-6.793,3.92a.249.249,0,0,1-.4-.234v-.159A.894.894,0,0,1,188.942,227.748Z" transform="translate(-125.828 -163.58)" fill="#e0e0e0"/>
        <path id="Path_894" data-name="Path 894" d="M188.942,232.478l6.793-3.925a.253.253,0,0,1,.407.234v.164a.9.9,0,0,1-.407.7l-6.793,3.9a.249.249,0,0,1-.4-.234v-.159A.894.894,0,0,1,188.942,232.478Z" transform="translate(-125.828 -166.097)" fill="#e0e0e0"/>
        <path id="Path_895" data-name="Path 895" d="M188.942,237.126l6.793-3.92c.225-.131.407-.028.407.234v.159a.893.893,0,0,1-.407.7l-6.793,3.925a.249.249,0,0,1-.4-.234v-.159a.9.9,0,0,1,.4-.706Z" transform="translate(-125.828 -168.569)" fill="#e0e0e0"/>
        <path id="Path_896" data-name="Path 896" d="M188.942,241.837l6.793-3.9c.225-.131.407-.028.407.234v.159a.894.894,0,0,1-.407.7l-6.793,3.92a.249.249,0,0,1-.4-.234v-.159A.9.9,0,0,1,188.942,241.837Z" transform="translate(-125.828 -171.086)" fill="#e0e0e0"/>
        <path id="Path_897" data-name="Path 897" d="M188.942,246.476l6.793-3.92c.225-.131.407-.028.407.234v.159a.894.894,0,0,1-.407.7l-6.793,3.92c-.22.131-.4.028-.4-.234v-.159A.9.9,0,0,1,188.942,246.476Z" transform="translate(-125.828 -173.545)" fill="#e0e0e0"/>
        <path id="Path_898" data-name="Path 898" d="M160.708,265.253l6.386-3.686c.337-.192.608-.037.608.351V267.1a1.338,1.338,0,0,1-.608,1.053l-6.386,3.691c-.332.192-.608.033-.608-.351v-5.184A1.361,1.361,0,0,1,160.708,265.253Z" transform="translate(-110.693 -183.648)" fill="#e0e0e0"/>
        <path id="Path_899" data-name="Path 899" d="M160.537,281.689l6.793-3.92c.22-.126.4-.023.4.234v.164a.907.907,0,0,1-.4.7l-6.793,3.92c-.225.126-.407.023-.407-.234v-.164A.9.9,0,0,1,160.537,281.689Z" transform="translate(-110.709 -192.286)" fill="#e0e0e0"/>
        <path id="Path_900" data-name="Path 900" d="M160.537,286.384l6.793-3.92a.25.25,0,0,1,.4.234v.164a.908.908,0,0,1-.4.7l-6.793,3.92c-.225.126-.407.023-.407-.234v-.164A.9.9,0,0,1,160.537,286.384Z" transform="translate(-110.709 -194.786)" fill="#e0e0e0"/>
        <path id="Path_901" data-name="Path 901" d="M160.537,291.074l6.793-3.92a.25.25,0,0,1,.4.234v.164a.908.908,0,0,1-.4.7l-6.793,3.92c-.225.126-.407.023-.407-.234v-.164A.9.9,0,0,1,160.537,291.074Z" transform="translate(-110.709 -197.282)" fill="#e0e0e0"/>
        <path id="Path_902" data-name="Path 902" d="M132.14,184.588q-.14-.047-.14-.267a1.333,1.333,0,0,1,.084-.416l.505-1.609a.781.781,0,0,1,.211-.384.234.234,0,0,1,.225,0,1.679,1.679,0,0,0,1.6-.168,2.246,2.246,0,0,0,.936-1.062,4.281,4.281,0,0,0,.3-1.722v-9.436a1.918,1.918,0,0,1,.145-.8,1.207,1.207,0,0,1,.524-.543l1.039-.6c.234-.136.4-.154.5-.051a.936.936,0,0,1,.15.632v9.469a8.888,8.888,0,0,1-.823,3.85,5.881,5.881,0,0,1-2.409,2.643A3.123,3.123,0,0,1,132.14,184.588Z" transform="translate(-95.739 -133.616)" fill="#455a64"/>
        <path id="Path_903" data-name="Path 903" d="M148.874,173.516q-1.258-1.291-1.258-4.945a15.2,15.2,0,0,1,1.258-6.4,8.861,8.861,0,0,1,3.644-4.117c1.586-.936,2.807-.936,3.635-.084s1.258,2.5,1.258,4.94a15.2,15.2,0,0,1-1.258,6.4,8.856,8.856,0,0,1-3.635,4.112Q150.133,174.8,148.874,173.516Zm5.577-5.071a11.621,11.621,0,0,0,.655-4.21,6.338,6.338,0,0,0-.655-3.443c-.435-.608-1.076-.664-1.932-.173a4.617,4.617,0,0,0-1.946,2.414,11.593,11.593,0,0,0-.65,4.21,6.339,6.339,0,0,0,.65,3.439c.435.6,1.085.664,1.946.164a4.547,4.547,0,0,0,1.932-2.4Z" transform="translate(-104.047 -128.229)" fill="#455a64"/>
        <path id="Path_904" data-name="Path 904" d="M171.162,162.8a.9.9,0,0,1-.15-.618V149.348a1.923,1.923,0,0,1,.15-.8,1.114,1.114,0,0,1,.468-.515l4.117-2.381q1.553-.894,2.339-.243a3.231,3.231,0,0,1,.772,2.573,6.5,6.5,0,0,1-.313,2,4.95,4.95,0,0,1-.865,1.647q1.446-.1,1.446,2.433a8.272,8.272,0,0,1-.37,2.442,7.3,7.3,0,0,1-1.127,2.217,6,6,0,0,1-1.871,1.647l-4.117,2.381C171.419,162.872,171.26,162.891,171.162,162.8Zm4.21-10.966a2.218,2.218,0,0,0,.87-.936,3.083,3.083,0,0,0,.313-1.436c0-.589-.1-.936-.29-1.1s-.491-.094-.894.136l-2.03,1.179v3.35Zm.225,6.016a2.185,2.185,0,0,0,.936-1.043,3.672,3.672,0,0,0,.3-1.506c0-.618-.117-1.015-.351-1.188s-.566-.14-.987.1l-2.157,1.24v3.7Z" transform="translate(-116.496 -121.73)" fill="#455a64"/>
        <path id="Path_905" data-name="Path 905" d="M190.724,151.529a2.541,2.541,0,0,1-1.623-.065.351.351,0,0,1-.211-.313,1.155,1.155,0,0,1,.07-.342l.58-1.74a.576.576,0,0,1,.182-.323.225.225,0,0,1,.211,0,2.709,2.709,0,0,0,1.193.047,4.108,4.108,0,0,0,1.361-.505,3.406,3.406,0,0,0,1.212-1.1,2.751,2.751,0,0,0,.393-1.492,1.441,1.441,0,0,0-.192-.842.856.856,0,0,0-.561-.327,8.534,8.534,0,0,0-1.146-.075,5.525,5.525,0,0,1-1.525-.178,1.8,1.8,0,0,1-1.025-.8,3.476,3.476,0,0,1-.4-1.871,7.181,7.181,0,0,1,.973-3.705,6.938,6.938,0,0,1,2.554-2.568c1.4-.809,2.465-1.02,3.2-.641a.388.388,0,0,1,.211.313,1.155,1.155,0,0,1-.07.342l-.575,1.74a.557.557,0,0,1-.182.318.21.21,0,0,1-.211,0,2.306,2.306,0,0,0-2.077.332,2.807,2.807,0,0,0-1.52,2.568,1.459,1.459,0,0,0,.178.814.763.763,0,0,0,.468.327,5.02,5.02,0,0,0,.973.08h.393a5.516,5.516,0,0,1,1.614.248,1.614,1.614,0,0,1,.908.828,4.271,4.271,0,0,1,.313,1.871,7.1,7.1,0,0,1-.936,3.527,6.919,6.919,0,0,1-2.667,2.653A7.209,7.209,0,0,1,190.724,151.529Z" transform="translate(-126.014 -116.071)" fill="#455a64"/>
      </g>
    </g>
    <g id="freepik--speech-bubbles--inject-324" transform="translate(133.918 64.371)">
      <g id="freepik--Tab--inject-324" transform="translate(0 0)">
        <path id="Path_906" data-name="Path 906" d="M285.744,73.329h0l-1.9-1.1h0a.851.851,0,0,0-.861.084L258.811,86.3a2.7,2.7,0,0,0-1.216,2.105v49.824a.851.851,0,0,0,.356.786h0l1.871,1.095h.028a.861.861,0,0,0,.823-.1l6.386-3.686v3.841c0,.678.108,1.071.285,1.179h0l1.871,1.09h0c.215.117.529-.182.88-.936l4.529-9.59L284.808,126a2.7,2.7,0,0,0,1.216-2.105V74.11a.856.856,0,0,0-.281-.781Z" transform="translate(-257.59 -72.145)" fill="#76ba1b"/>
        <path id="Path_907" data-name="Path 907" d="M286.123,73.3a.9.9,0,0,0-.814.108L261.132,87.4a2.437,2.437,0,0,0-.842.884l-1.9-1.1a2.4,2.4,0,0,1,.842-.884L283.4,72.3a1.113,1.113,0,0,1,.538-.164.646.646,0,0,1,.323.08Z" transform="translate(-258.016 -72.14)" fill="#fff" opacity="0.4"/>
        <path id="Path_908" data-name="Path 908" d="M278.191,213.129h0c-.173-.108-.281-.5-.281-1.179v-3.836L279.823,207v6.035c0,.646.1,1.039.253,1.17Z" transform="translate(-268.404 -143.909)" opacity="0.2"/>
        <path id="Path_909" data-name="Path 909" d="M259.876,157.22h0l-1.9-1.095h0a.866.866,0,0,1-.351-.781V105.511A2.5,2.5,0,0,1,258,104.29l1.9,1.1a2.493,2.493,0,0,0-.37,1.221v49.824A.847.847,0,0,0,259.876,157.22Z" transform="translate(-257.607 -89.249)" opacity="0.1"/>
        <path id="Path_910" data-name="Path 910" d="M270.79,98.347l16.977-9.824c.561-.323,1.015-.061,1.015.585V99.9a2.245,2.245,0,0,1-1.015,1.759l-16.977,9.824c-.557.323-1.011.061-1.011-.585V100.1a2.246,2.246,0,0,1,1.011-1.754Z" transform="translate(-264.077 -80.785)" fill="#455a64"/>
        <path id="Path_911" data-name="Path 911" d="M288.783,121.843a2.171,2.171,0,0,1-1.015,1.684l-16.977,9.8c-.557.323-1.01.094-1.01-.515a2.175,2.175,0,0,1,1.01-1.68l16.977-9.8C288.329,121.011,288.783,121.24,288.783,121.843Z" transform="translate(-264.077 -98.241)" fill="#455a64"/>
        <path id="Path_912" data-name="Path 912" d="M288.783,131.243a2.171,2.171,0,0,1-1.015,1.684l-16.977,9.824c-.557.323-1.01.094-1.01-.515a2.175,2.175,0,0,1,1.01-1.68l16.977-9.824C288.329,130.4,288.783,130.626,288.783,131.243Z" transform="translate(-264.077 -103.239)" fill="#455a64"/>
        <path id="Path_913" data-name="Path 913" d="M288.783,140.6a2.171,2.171,0,0,1-1.015,1.684l-16.977,9.824c-.557.323-1.01.094-1.01-.515a2.175,2.175,0,0,1,1.01-1.679l16.977-9.824C288.329,139.771,288.783,140,288.783,140.6Z" transform="translate(-264.077 -108.225)" fill="#455a64"/>
        <path id="Path_914" data-name="Path 914" d="M288.783,149.986a2.171,2.171,0,0,1-1.015,1.684l-16.977,9.8c-.557.323-1.01.094-1.01-.515a2.175,2.175,0,0,1,1.01-1.68l16.977-9.824C288.329,149.177,288.783,149.383,288.783,149.986Z" transform="translate(-264.077 -113.219)" fill="#455a64"/>
        <path id="Path_915" data-name="Path 915" d="M269.78,180.322c0,.6.468.833,1.011.51l1.778-1.025a2.175,2.175,0,0,0,1.01-1.68c0-.608-.468-.837-1.01-.515l-1.778,1.025A2.176,2.176,0,0,0,269.78,180.322Z" transform="translate(-264.077 -128.192)" fill="#455a64"/>
        <path id="Path_916" data-name="Path 916" d="M283.4,166.666c0,.6.468.833,1.015.51l10.6-6.129a2.171,2.171,0,0,0,1.015-1.684c0-.6-.468-.833-1.015-.51l-10.6,6.129a2.171,2.171,0,0,0-1.015,1.684Z" transform="translate(-271.325 -118.209)" fill="#455a64"/>
        <path id="Path_917" data-name="Path 917" d="M269.78,189.752c0,.6.468.833,1.011.51l1.778-1.025a2.175,2.175,0,0,0,1.01-1.679c0-.608-.468-.837-1.01-.515l-1.778,1.025A2.175,2.175,0,0,0,269.78,189.752Z" transform="translate(-264.077 -133.211)" fill="#455a64"/>
        <path id="Path_918" data-name="Path 918" d="M283.4,176.046c0,.6.468.833,1.015.51l10.6-6.129a2.171,2.171,0,0,0,1.015-1.684c0-.6-.468-.833-1.015-.51l-10.6,6.129a2.171,2.171,0,0,0-1.015,1.684Z" transform="translate(-271.325 -123.2)" fill="#455a64"/>
        <path id="Path_919" data-name="Path 919" d="M269.78,199.082c0,.6.468.833,1.011.51l1.778-1.025a2.175,2.175,0,0,0,1.01-1.68c0-.608-.468-.837-1.01-.515L270.79,197.4A2.175,2.175,0,0,0,269.78,199.082Z" transform="translate(-264.077 -138.176)" fill="#455a64"/>
        <path id="Path_920" data-name="Path 920" d="M283.4,185.426c0,.6.468.833,1.015.51l10.6-6.129a2.171,2.171,0,0,0,1.015-1.68c0-.608-.468-.837-1.015-.515l-10.6,6.129a2.171,2.171,0,0,0-1.015,1.684Z" transform="translate(-271.325 -128.192)" fill="#455a64"/>
      </g>
      <g id="freepik--tab--inject-324-2" data-name="freepik--tab--inject-324" transform="translate(22.83 13.137)">
        <path id="Path_921" data-name="Path 921" d="M334.53,101.409h0l-1.871-1.1h0a.851.851,0,0,0-.861.084l-24.187,13.983a2.7,2.7,0,0,0-1.216,2.105v49.824a.851.851,0,0,0,.356.786h0l1.895,1.095h.023a.866.866,0,0,0,.828-.1l6.386-3.686v3.841c0,.678.108,1.071.281,1.179h0l1.871,1.09h.023c.215.117.529-.182.875-.936l4.533-9.59,10.185-5.913a2.7,2.7,0,0,0,1.216-2.105V102.19a.856.856,0,0,0-.337-.781Z" transform="translate(-306.39 -100.225)" fill="#76ba1b"/>
        <path id="Path_922" data-name="Path 922" d="M334.877,101.375a.9.9,0,0,0-.814.108l-24.182,13.993a2.438,2.438,0,0,0-.842.884l-1.9-1.1a2.437,2.437,0,0,1,.842-.884l24.177-13.993a1.09,1.09,0,0,1,.538-.164.641.641,0,0,1,.318.08Z" transform="translate(-306.789 -100.22)" fill="#fff" opacity="0.4"/>
        <path id="Path_923" data-name="Path 923" d="M326.951,241.225h0c-.173-.108-.281-.5-.281-1.179v-3.836l1.9-1.1v6.03c0,.646.1,1.039.257,1.17Z" transform="translate(-317.182 -172.005)" opacity="0.2"/>
        <path id="Path_924" data-name="Path 924" d="M308.641,185.311h0l-1.895-1.095h0a.856.856,0,0,1-.351-.781V133.611a2.494,2.494,0,0,1,.37-1.221l1.9,1.1a2.494,2.494,0,0,0-.37,1.221v49.824A.847.847,0,0,0,308.641,185.311Z" transform="translate(-306.39 -117.34)" opacity="0.1"/>
        <path id="Path_925" data-name="Path 925" d="M319.555,126.427l16.977-9.824c.557-.323,1.01-.061,1.01.585v10.821a2.25,2.25,0,0,1-1.01,1.759l-16.977,9.824c-.561.323-1.015.061-1.015-.585V128.182A2.236,2.236,0,0,1,319.555,126.427Z" transform="translate(-312.856 -108.865)" fill="#455a64"/>
        <path id="Path_926" data-name="Path 926" d="M337.543,149.923a2.175,2.175,0,0,1-1.01,1.684l-16.977,9.8c-.561.323-1.015.094-1.015-.515a2.171,2.171,0,0,1,1.015-1.68l16.977-9.8C337.089,149.091,337.543,149.32,337.543,149.923Z" transform="translate(-312.856 -126.321)" fill="#455a64"/>
        <path id="Path_927" data-name="Path 927" d="M337.543,159.31a2.176,2.176,0,0,1-1.01,1.684l-16.977,9.8c-.561.323-1.015.094-1.015-.515a2.171,2.171,0,0,1,1.015-1.68l16.977-9.782C337.089,158.478,337.543,158.707,337.543,159.31Z" transform="translate(-312.856 -131.32)" fill="#455a64"/>
        <path id="Path_928" data-name="Path 928" d="M337.543,168.683a2.175,2.175,0,0,1-1.01,1.67l-16.977,9.824c-.561.323-1.015.094-1.015-.515a2.171,2.171,0,0,1,1.015-1.68l16.977-9.81C337.089,167.851,337.543,168.08,337.543,168.683Z" transform="translate(-312.856 -136.305)" fill="#455a64"/>
        <path id="Path_929" data-name="Path 929" d="M337.543,178.056a2.175,2.175,0,0,1-1.01,1.684l-16.977,9.824c-.561.323-1.015.094-1.015-.515a2.171,2.171,0,0,1,1.015-1.679l16.977-9.824C337.089,177.21,337.543,177.453,337.543,178.056Z" transform="translate(-312.856 -141.29)" fill="#455a64"/>
        <path id="Path_930" data-name="Path 930" d="M318.54,208.4c0,.6.468.833,1.015.51l1.773-1.025a2.171,2.171,0,0,0,1.015-1.68c0-.608-.468-.837-1.015-.515l-1.773,1.025A2.171,2.171,0,0,0,318.54,208.4Z" transform="translate(-312.856 -156.272)" fill="#455a64"/>
        <path id="Path_931" data-name="Path 931" d="M332.17,194.746c0,.6.468.833,1.015.51l10.6-6.129a2.175,2.175,0,0,0,1.011-1.684c0-.6-.468-.833-1.011-.51l-10.606,6.129A2.175,2.175,0,0,0,332.17,194.746Z" transform="translate(-320.109 -146.289)" fill="#455a64"/>
        <path id="Path_932" data-name="Path 932" d="M318.54,217.752c0,.6.468.833,1.015.51l1.773-1.025a2.171,2.171,0,0,0,1.015-1.679c0-.608-.468-.837-1.015-.515l-1.773,1.025A2.171,2.171,0,0,0,318.54,217.752Z" transform="translate(-312.856 -161.248)" fill="#455a64"/>
        <path id="Path_933" data-name="Path 933" d="M332.17,204.126c0,.6.468.833,1.015.51l10.6-6.129a2.175,2.175,0,0,0,1.011-1.684c0-.6-.468-.833-1.011-.51l-10.606,6.129a2.175,2.175,0,0,0-1.01,1.684Z" transform="translate(-320.109 -151.28)" fill="#455a64"/>
        <path id="Path_934" data-name="Path 934" d="M318.54,227.162c0,.6.468.833,1.015.51l1.773-1.025a2.171,2.171,0,0,0,1.015-1.68c0-.608-.468-.837-1.015-.515l-1.773,1.025A2.171,2.171,0,0,0,318.54,227.162Z" transform="translate(-312.856 -166.256)" fill="#455a64"/>
        <path id="Path_935" data-name="Path 935" d="M332.17,213.506c0,.6.468.833,1.015.51l10.6-6.129a2.175,2.175,0,0,0,1.011-1.68c0-.608-.468-.837-1.011-.515l-10.606,6.147A2.175,2.175,0,0,0,332.17,213.506Z" transform="translate(-320.109 -156.272)" fill="#455a64"/>
      </g>
    </g>
    <g id="freepik--Icons--inject-324" transform="translate(196.616 57.542)">
      <path id="Path_936" data-name="Path 936" d="M404.6,59.383l-2.517-1.441h-.023c-1.109-.622-2.629-.529-4.313.44a13.577,13.577,0,0,0-6.138,10.638c0,1.951.683,3.326,1.792,3.967h0l2.274,1.3.543-.936a6.18,6.18,0,0,0,1.764-.683,13.574,13.574,0,0,0,6.138-10.634,6.682,6.682,0,0,0-.192-1.567Z" transform="translate(-391.61 -57.546)" fill="#76ba1b"/>
      <path id="Path_937" data-name="Path 937" d="M391.64,74.667c0,1.956.683,3.331,1.792,3.972h0l2.274,1.3.543-.908a6.343,6.343,0,0,0,1.764-.688,12.753,12.753,0,0,0,4.557-4.978L393.68,68.22A12.729,12.729,0,0,0,391.64,74.667Z" transform="translate(-391.626 -63.224)" fill="#263238"/>
      <path id="Path_938" data-name="Path 938" d="M406.942,59.379l-2.5-1.441h-.023c-1.109-.627-2.629-.533-4.313.44A12.262,12.262,0,0,0,396,62.547l8.889,5.146a12.271,12.271,0,0,0,1.572-5.614,6.687,6.687,0,0,0-.192-1.567Z" transform="translate(-393.946 -57.542)" fill="#455a64"/>
      <path id="Path_939" data-name="Path 939" d="M402.848,61.257a13.58,13.58,0,0,0-6.138,10.657c0,3.939,2.751,5.5,6.138,3.541A13.649,13.649,0,0,0,409.009,64.8C409.009,60.883,406.24,59.283,402.848,61.257Z" transform="translate(-394.324 -59.068)" fill="#37474f"/>
      <path id="Path_940" data-name="Path 940" d="M408.091,68.117a1.1,1.1,0,0,1,.566-.042.9.9,0,0,1,.412.22,1.01,1.01,0,0,1,.248.388,1.5,1.5,0,0,1,.1.468.44.44,0,0,1-.051.225.351.351,0,0,1-.131.15l-.468.267c-.075.047-.131.056-.168.033a.271.271,0,0,1-.1-.122.519.519,0,0,0-.309-.253.781.781,0,0,0-.594.159,1.6,1.6,0,0,0-.327.243,1.745,1.745,0,0,0-.271.318,1.481,1.481,0,0,0-.182.365,1.2,1.2,0,0,0-.065.384.594.594,0,0,0,.075.342.3.3,0,0,0,.234.117,1.445,1.445,0,0,0,.416-.042l.618-.145a2.3,2.3,0,0,1,.669-.075.772.772,0,0,1,.468.168.833.833,0,0,1,.253.43,2.913,2.913,0,0,1,.075.7,3.342,3.342,0,0,1-.1.781,3.891,3.891,0,0,1-.29.786,3.94,3.94,0,0,1-.468.725,3.769,3.769,0,0,1-.613.608V76a.5.5,0,0,1-.056.22.328.328,0,0,1-.122.154l-.538.309a.094.094,0,0,1-.126,0,.215.215,0,0,1-.051-.159v-.692a1.512,1.512,0,0,1-.557.084.936.936,0,0,1-.468-.15.959.959,0,0,1-.313-.384,1.623,1.623,0,0,1-.131-.632.416.416,0,0,1,.051-.225.36.36,0,0,1,.126-.154l.468-.267c.075-.042.131-.056.173-.037a.238.238,0,0,1,.1.126,1.694,1.694,0,0,0,.112.2.365.365,0,0,0,.178.131.617.617,0,0,0,.281,0,1.338,1.338,0,0,0,.421-.178,2.833,2.833,0,0,0,.384-.267,2.19,2.19,0,0,0,.323-.337,1.767,1.767,0,0,0,.225-.4,1.134,1.134,0,0,0,.084-.44.412.412,0,0,0-.094-.313.379.379,0,0,0-.281-.08,2.284,2.284,0,0,0-.468.075c-.187.047-.4.089-.641.136a1.834,1.834,0,0,1-.58.042.674.674,0,0,1-.407-.173.973.973,0,0,1-.243-.435,2.933,2.933,0,0,1-.079-.744,3.062,3.062,0,0,1,.1-.791,4.12,4.12,0,0,1,.271-.763,3.661,3.661,0,0,1,.421-.688,3.887,3.887,0,0,1,.533-.571v-.688a.556.556,0,0,1,.051-.22.36.36,0,0,1,.126-.154l.538-.309a.089.089,0,0,1,.122,0,.2.2,0,0,1,.056.159Z" transform="translate(-399.118 -62.686)" fill="#fafafa"/>
      <path id="Path_941" data-name="Path 941" d="M404.6,157.229l-2.517-1.441h-.023c-1.109-.627-2.629-.533-4.313.44a13.562,13.562,0,0,0-6.138,10.634c0,1.956.683,3.326,1.792,3.972h0l2.274,1.3.543-.908a6.326,6.326,0,0,0,1.764-.683A13.59,13.59,0,0,0,404.12,159.9a6.717,6.717,0,0,0-.192-1.567Z" transform="translate(-391.61 -109.615)" fill="#76ba1b"/>
      <path id="Path_942" data-name="Path 942" d="M391.64,172.541c0,1.956.683,3.326,1.792,3.972h0l2.274,1.3.543-.908a6.344,6.344,0,0,0,1.764-.688,12.739,12.739,0,0,0,4.557-4.987l-8.889-5.146A12.757,12.757,0,0,0,391.64,172.541Z" transform="translate(-391.626 -115.303)" fill="#263238"/>
      <path id="Path_943" data-name="Path 943" d="M406.953,157.229l-2.5-1.441h-.023c-1.109-.627-2.629-.533-4.313.44a12.263,12.263,0,0,0-4.1,4.178l8.889,5.146a12.3,12.3,0,0,0,1.577-5.665,6.717,6.717,0,0,0-.192-1.567Z" transform="translate(-393.957 -109.615)" fill="#455a64"/>
      <path id="Path_944" data-name="Path 944" d="M402.848,159.119a13.574,13.574,0,0,0-6.138,10.634c0,3.916,2.751,5.5,6.138,3.546a13.613,13.613,0,0,0,6.161-10.634C409.009,158.759,406.24,157.164,402.848,159.119Z" transform="translate(-394.324 -111.154)" fill="#37474f"/>
      <path id="Path_945" data-name="Path 945" d="M409.256,171.428l-6.246,3.607c-.075.042-.131,0-.131-.126V169.37a.346.346,0,0,1,.131-.281l6.246-3.607c.07-.042.131,0,.131.126v5.544A.346.346,0,0,1,409.256,171.428Z" transform="translate(-397.607 -114.976)" fill="#fafafa"/>
      <path id="Path_946" data-name="Path 946" d="M409.512,166.974c-.07.042-.131,0-.131-.126v-.842l-2.194,1.268v.842a.346.346,0,0,1-.136.281c-.07.042-.131,0-.131-.126v-1.048a.346.346,0,0,1,.131-.276l2.461-1.4c.075-.042.131,0,.131.126v1.015a.337.337,0,0,1-.131.29Z" transform="translate(-399.758 -115.008)" fill="#fafafa"/>
      <path id="Path_947" data-name="Path 947" d="M409.512,165.377l-2.461,1.4c-.07.042-.131,0-.131-.126v-.468a.36.36,0,0,1,.131-.281l2.461-1.4c.075-.042.131,0,.131.126v.468a.346.346,0,0,1-.131.281Z" transform="translate(-399.758 -114.455)" fill="#fafafa"/>
      <path id="Path_948" data-name="Path 948" d="M409.6,173.047l-1.787,1.029c-.051.033-.094,0-.094-.094v-.337a.253.253,0,0,1,.094-.2l1.787-1.029c.056-.033.1,0,.1.089v.337a.253.253,0,0,1-.1.206Z" transform="translate(-400.183 -118.668)" fill="#37474f"/>
      <path id="Path_949" data-name="Path 949" d="M404.6,108.3l-2.517-1.446h-.023c-1.109-.627-2.629-.533-4.313.44a13.569,13.569,0,0,0-6.138,10.634c0,1.956.683,3.331,1.792,3.972h0l2.274,1.3.543-.908a6.18,6.18,0,0,0,1.764-.683,13.581,13.581,0,0,0,6.138-10.634,6.727,6.727,0,0,0-.192-1.572Z" transform="translate(-391.61 -83.576)" fill="#76ba1b"/>
      <path id="Path_950" data-name="Path 950" d="M391.64,123.629c0,1.956.683,3.331,1.792,3.972h0l2.274,1.3.543-.908a6.179,6.179,0,0,0,1.764-.683,12.753,12.753,0,0,0,4.557-5.01l-8.889-5.146A12.758,12.758,0,0,0,391.64,123.629Z" transform="translate(-391.626 -89.264)" fill="#263238"/>
      <path id="Path_951" data-name="Path 951" d="M406.953,108.306l-2.5-1.446h-.023c-1.109-.622-2.629-.533-4.313.44a12.263,12.263,0,0,0-4.1,4.178l8.889,5.146a12.3,12.3,0,0,0,1.572-5.637,6.727,6.727,0,0,0-.192-1.572Z" transform="translate(-393.957 -83.578)" fill="#455a64"/>
      <path id="Path_952" data-name="Path 952" d="M402.848,110.2a13.581,13.581,0,0,0-6.138,10.634c0,3.916,2.751,5.506,6.138,3.546a13.606,13.606,0,0,0,6.161-10.634C409.009,109.827,406.24,108.26,402.848,110.2Z" transform="translate(-394.324 -85.122)" fill="#37474f"/>
      <path id="Path_953" data-name="Path 953" d="M405,121.807a2.78,2.78,0,0,1,1.048-2.217c.58-.346,1.048.117,1.048,1.01a2.773,2.773,0,0,1-1.048,2.217C405.468,123.163,405,122.7,405,121.807Z" transform="translate(-398.736 -90.5)" fill="#fff"/>
      <path id="Path_954" data-name="Path 954" d="M406.855,130.067,403,132.294l.206-2.564a3.507,3.507,0,0,1,1.347-2.6l.744-.43c.683-.393,1.258.056,1.347,1.048Z" transform="translate(-397.671 -94.27)" fill="#fff"/>
      <path id="Path_955" data-name="Path 955" d="M410.44,116.1a2.78,2.78,0,0,1,1.048-2.217c.58-.346,1.048.117,1.048,1.011a2.773,2.773,0,0,1-1.048,2.217C410.908,117.453,410.44,116.99,410.44,116.1Z" transform="translate(-401.631 -87.462)" fill="#fff"/>
      <path id="Path_956" data-name="Path 956" d="M412.733,124.376l-2.363,1.366-.108-1.226c-.08-.861-.468-1.4-.982-1.4a3,3,0,0,1,1.156-1.661l.744-.426c.683-.4,1.258.051,1.347,1.043Z" transform="translate(-401.013 -91.249)" fill="#fff"/>
    </g>
    <g id="freepik--magnifying-glass--inject-324" transform="translate(80.061 166.567)">
      <g id="freepik--magnifying-glass--inject-324-2" data-name="freepik--magnifying-glass--inject-324">
        <path id="Path_957" data-name="Path 957" d="M237.819,301.924c0-2.9-1.918-5.8-5.754-8.014-7.668-4.43-20.117-4.43-27.77,0-3.836,2.213-5.754,5.113-5.754,8.014h0v5.347c0,2.9,1.918,5.8,5.754,8.019,7.668,4.426,20.117,4.426,27.77,0,3.836-2.217,5.754-5.118,5.754-8.019Zm-32.575-6.372a28.835,28.835,0,0,1,25.871,0c3.1,1.787,4.8,4.051,4.8,6.372s-1.708,4.585-4.8,6.372a28.8,28.8,0,0,1-25.871,0c-3.1-1.787-4.8-4.051-4.8-6.372S202.147,297.33,205.244,295.552Z" transform="translate(-172.309 -290.587)" fill="#76ba1b"/>
        <path id="Path_958" data-name="Path 958" d="M204.292,309.985c7.672,4.426,20.117,4.426,27.775,0s7.668-11.607,0-16.032-20.117-4.43-27.775,0S196.625,305.54,204.292,309.985Zm-3.85-8.019c0-2.339,1.7-4.585,4.8-6.372a28.845,28.845,0,0,1,25.876,0c3.1,1.787,4.8,4.051,4.8,6.372s-1.7,4.585-4.8,6.372a28.884,28.884,0,0,1-25.876-.019c-3.1-1.787-4.8-4.051-4.8-6.372Z" transform="translate(-172.312 -290.611)" fill="#fff" opacity="0.3"/>
        <path id="Path_959" data-name="Path 959" d="M202.6,304.086a5.272,5.272,0,0,0,.767,2.676,10.673,10.673,0,0,1,4.037-3.7,28.8,28.8,0,0,1,25.871,0,10.8,10.8,0,0,1,4.042,3.7,5.31,5.31,0,0,0,.763-2.676c0-2.339-1.708-4.585-4.8-6.372a28.835,28.835,0,0,0-25.871,0C204.3,299.492,202.6,301.766,202.6,304.086Z" transform="translate(-174.47 -292.749)" fill="#76ba1b"/>
        <path id="Path_960" data-name="Path 960" d="M202.6,304.086a5.272,5.272,0,0,0,.767,2.676,10.673,10.673,0,0,1,4.037-3.7,28.8,28.8,0,0,1,25.871,0,10.8,10.8,0,0,1,4.042,3.7,5.31,5.31,0,0,0,.763-2.676c0-2.339-1.708-4.585-4.8-6.372a28.835,28.835,0,0,0-25.871,0C204.3,299.492,202.6,301.766,202.6,304.086Z" transform="translate(-174.47 -292.749)" opacity="0.1"/>
        <path id="Path_961" data-name="Path 961" d="M207.581,302.884a28.845,28.845,0,0,1,25.876,0c2.554,1.478,4.159,3.275,4.646,5.146-.468,1.871-2.091,3.686-4.646,5.146a25.991,25.991,0,0,1-12.935,3.1,26.357,26.357,0,0,1-12.94-3.069c-2.554-1.474-4.159-3.275-4.641-5.146C203.436,306.159,205.027,304.363,207.581,302.884Z" transform="translate(-174.65 -295.501)" fill="#fff" opacity="0.4"/>
        <path id="Path_962" data-name="Path 962" d="M213.55,323.852v5.343a25.772,25.772,0,0,1-9.258-3c-3.836-2.217-5.754-5.118-5.754-8.019V312.83a6.79,6.79,0,0,1,.234-1.75h0c-.936,3.453.908,7.106,5.516,9.768A25.779,25.779,0,0,0,213.55,323.852Z" transform="translate(-172.306 -301.493)" opacity="0.1"/>
        <path id="Path_963" data-name="Path 963" d="M201.461,336.3a3.036,3.036,0,0,0-1.366-2.386.968.968,0,0,0-.968-.1h0l-6.592,3.785h0a.936.936,0,0,0-.4.884,3.041,3.041,0,0,0,1.338,2.391.964.964,0,0,0,.973.1h0l6.61-3.771h0A.973.973,0,0,0,201.461,336.3Z" transform="translate(-168.895 -313.546)" fill="#37474f"/>
        <path id="Path_964" data-name="Path 964" d="M201.711,338.953a.973.973,0,0,0,.407-.894,2.615,2.615,0,0,0-.229-1.029L193.36,341.9a2.657,2.657,0,0,0,.767.725.964.964,0,0,0,.973.1l6.61-3.771Z" transform="translate(-169.552 -315.303)" fill="#263238"/>
        <path id="Path_965" data-name="Path 965" d="M169,345.187a3.953,3.953,0,0,0-1.778-3.111,1.258,1.258,0,0,0-1.244-.136h0l-21.927,11.7,3.275,5.782,21.165-13.1A1.249,1.249,0,0,0,169,345.187Z" transform="translate(-143.311 -317.86)" fill="#76ba1b"/>
        <path id="Path_966" data-name="Path 966" d="M149.084,361.066l21.164-13.1a1.249,1.249,0,0,0,.529-1.155,3.714,3.714,0,0,0-.594-1.871L147.4,358.067Z" transform="translate(-145.094 -319.512)" opacity="0.1"/>
        <path id="Path_967" data-name="Path 967" d="M144.809,372.458a5.193,5.193,0,0,1-2.339-4.079c0-1.5,1.057-2.1,2.339-1.347a5.183,5.183,0,0,1,2.339,4.075C147.158,372.626,146.105,373.23,144.809,372.458Z" transform="translate(-142.47 -331.096)" fill="#76ba1b"/>
        <g id="Group_3501" data-name="Group 3501" transform="translate(0 35.611)" opacity="0.2">
          <path id="Path_968" data-name="Path 968" d="M144.809,372.458a5.193,5.193,0,0,1-2.339-4.079c0-1.5,1.057-2.1,2.339-1.347a5.183,5.183,0,0,1,2.339,4.075C147.158,372.626,146.105,373.23,144.809,372.458Z" transform="translate(-142.47 -366.707)"/>
        </g>
      </g>
    </g>
    <g id="freepik--Character--inject-324" transform="translate(181.026 130.523)">
      <g id="freepik--character--inject-324-2" data-name="freepik--character--inject-324">
        <path id="Path_969" data-name="Path 969" d="M417.03,254.159c.239-8.889-.468-11.027-2.84-12.659l-.936,5.146a60.528,60.528,0,0,1,.964,8.1,27.618,27.618,0,0,1-.692,5.441,1.09,1.09,0,0,1-.468.608,6.322,6.322,0,0,0-1.3,1.24c-.356.374-.66.468-.613.585a.585.585,0,0,0,.749.267,4,4,0,0,0,.856-.468,5.493,5.493,0,0,1-.875,1.506c-.847,1.034-.884,1.67.823,1.689,1.071,0,1.927-.65,2.732-3.008a20.178,20.178,0,0,0,.753-2.648,47.818,47.818,0,0,0,.847-5.8Z" transform="translate(-386.414 -228.421)" fill="#ffa8a7"/>
        <path id="Path_970" data-name="Path 970" d="M413.4,240a3.41,3.41,0,0,1,3.658,1.848c.992,1.773,1.235,4.828,1.347,7.864a4.817,4.817,0,0,1-4.337.842Z" transform="translate(-387.616 -227.594)" fill="#76ba1b"/>
        <path id="Path_971" data-name="Path 971" d="M414.643,341.036c.178.07.225.412.253,1.09,0,.515.126,1.4-.468,1.6a1.867,1.867,0,0,1-1.871-.4,20.552,20.552,0,0,0-1.5-1.871,5.181,5.181,0,0,1-1.483-2.138c-.22-.814-.037-1.165.515-1.4.763-.323,1.96.739,2.559.9C413.156,338.954,414.461,340.97,414.643,341.036Z" transform="translate(-385.533 -279.696)" fill="#263238"/>
        <path id="Path_972" data-name="Path 972" d="M417.86,342.974v.833a2.04,2.04,0,0,1-2.11.056c-.037-.08-.22-1.193-.22-1.193Z" transform="translate(-388.75 -282.261)" fill="#ffa8a7"/>
        <path id="Path_973" data-name="Path 973" d="M395.484,355a13.071,13.071,0,0,1,.37,1.361,3.658,3.658,0,0,1,.075,1.726c-.178.379-.865.627-1.937.618a6.256,6.256,0,0,0-2.508.875,6.611,6.611,0,0,1-3.158.5,3.035,3.035,0,0,1-2.091-1.053c-.154-.393.051-.8,2.292-1.759,0,0,3.116-1.015,4.21-2.213Z" transform="translate(-373.139 -288.822)" fill="#263238"/>
        <path id="Path_974" data-name="Path 974" d="M402.914,353v.973c0,.356-.412.884-1.5.842-.758-.028-1.291-.229-1.258-.856v-.9Z" transform="translate(-380.569 -287.758)" fill="#ffa8a7"/>
        <path id="Path_975" data-name="Path 975" d="M406.7,294.619a22.713,22.713,0,0,0-.987-4.351s.3-3.743.44-7.307c.154-3.841,0-8.674.066-9.633,0,0-12.4-2.508-12.631,1.937s.468,15.747.636,17.7.468,3.672.884,6.835,1.516,10.493,1.516,10.493a2.919,2.919,0,0,0,2.755-.056s.875-8.889.781-11.13a19.336,19.336,0,0,0-.851-4.917s.234-3.663.44-6.849.43-4.716.468-6.082l.267-.131s.271,5.5.421,7.448.468,3.822,1.02,7.443c.491,3.144,1.946,9.8,1.946,9.8a1.872,1.872,0,0,0,2.264-.1S407.078,297.346,406.7,294.619Z" transform="translate(-377.047 -244.984)" fill="#37474f"/>
        <path id="Path_976" data-name="Path 976" d="M407.86,287.807A26.48,26.48,0,0,0,412.375,285a10,10,0,0,1-3.233,2.84s-.655,6.83-.65,6.695l-.379-6.727Z" transform="translate(-384.668 -251.57)" fill="#263238"/>
        <path id="Path_977" data-name="Path 977" d="M402.14,236.135l.734,4.037,3.644-.267-.763-4.575Z" transform="translate(-381.624 -225.137)" fill="#ffa8a7"/>
        <path id="Path_978" data-name="Path 978" d="M405.845,242.125a3.076,3.076,0,0,0-3.148-2.035,41.478,41.478,0,0,0-6.086,1.525c-1.277.468-2.437,1.558-2.545,5.754,0,0-.426,9.787-.435,11.7a15.48,15.48,0,0,0,8.379.828c3.836-.837,4.3-2.428,4.3-2.428s.047-7.017-.066-10.077A32.184,32.184,0,0,0,405.845,242.125Z" transform="translate(-377.095 -227.651)" fill="#494848"/>
        <path id="Path_979" data-name="Path 979" d="M395.186,226.55s-.936,1.474-.809,1.614a2.5,2.5,0,0,0,.819.253Z" transform="translate(-377.486 -220.465)" fill="#ffa8a7"/>
        <path id="Path_980" data-name="Path 980" d="M398.647,217.568c-1.927.468-2.465,1.319-2.582,4.4-.117,3.223.234,4.21.669,4.65a4.456,4.456,0,0,0,2.671.065c1-.3,3.237-1.151,4.262-2.807,1.2-1.932,1.474-4.519.112-5.548A6.313,6.313,0,0,0,398.647,217.568Z" transform="translate(-378.379 -215.562)" fill="#ffa8a7"/>
        <path id="Path_981" data-name="Path 981" d="M395.705,216.353a3.934,3.934,0,0,0,1.8,1.432c.37.421.164,2.063.814,2.339,0,0,.281-1.2,1.287-1.071s1.174,1.4.557,2.208-1.216.51-1.216.51a5.255,5.255,0,0,0,.847,2.643,4.541,4.541,0,0,0,5.282-2.882c1.16-2.737,1.188-5.179-.561-5.871a2.58,2.58,0,0,0-2.339-2.016c-2.428-.5-3.991,1.015-5.857.88C395.242,214.435,395.041,215.216,395.705,216.353Z" transform="translate(-377.996 -213.542)" fill="#263238"/>
        <path id="Path_982" data-name="Path 982" d="M414.908,217.72l1.142-.711a.674.674,0,1,0-1.142.711Z" transform="translate(-388.353 -215.199)" fill="#263238"/>
        <path id="Path_983" data-name="Path 983" d="M362.363,250.639c.6.267,7.663,5.488,8.767,4.879s6.751-7.214,6.751-7.214a4.561,4.561,0,0,0,0-4.954,4.678,4.678,0,0,0-2.76,1.773c-.936,1.432-5.043,6.55-5.043,6.55-1.011-.505-2.021-1.02-3.022-1.539-.828-.43-1.661-.856-2.47-1.319a2.883,2.883,0,0,1-.636-.393c-.4-.393-.332-1.352-.323-1.871a6.221,6.221,0,0,1,.033-.725c.037-.3.094-1.025-.444-.8a.7.7,0,0,0-.253.215,1.185,1.185,0,0,0-.192.365c-.1.313-.07.66-.159.973a.262.262,0,0,1-.07.126.215.215,0,0,1-.168.051c-.777-.023-1.516-1.113-1.871-1.694a1.623,1.623,0,0,0-.589-.674,1.057,1.057,0,0,0-1.212.468,2.465,2.465,0,0,0-.388,1.717,3.415,3.415,0,0,0,1.015,2.152,10.436,10.436,0,0,0,3.036,1.909Z" transform="translate(-358.286 -229.405)" fill="#ffa8a7"/>
        <path id="Path_984" data-name="Path 984" d="M393.745,242.9a4.222,4.222,0,0,0-3.4,1.586,47.992,47.992,0,0,0-3.439,4.421,4.341,4.341,0,0,0,3.42,3.219,25.884,25.884,0,0,0,3.415-4.248C394.489,246.371,394.667,243.92,393.745,242.9Z" transform="translate(-373.519 -229.166)" fill="#76ba1b"/>
      </g>
    </g>
  </g>
</svg>
