<svg xmlns="http://www.w3.org/2000/svg" width="46.241" height="50" viewBox="0 0 46.241 50">
  <g id="jpg_1_" data-name="jpg (1)" opacity="0.78">
    <path id="Path_44" data-name="Path 44" d="M85.843,14.649a1.465,1.465,0,0,1-1.465-1.465V0H59.965A1.465,1.465,0,0,0,58.5,1.465V18.173H84.38a4.4,4.4,0,0,1,4.395,4.395V37.511a4.4,4.4,0,0,1-4.395,4.395H58.5v6.63A1.465,1.465,0,0,0,59.965,50h37.6a1.465,1.465,0,0,0,1.465-1.465V14.649Zm0,0" transform="translate(-52.787)" fill="#76ba1b"/>
    <path id="Path_45" data-name="Path 45" d="M353.488,8.785V19.647H364.35Zm0,0" transform="translate(-318.968 -7.927)" fill="#76ba1b"/>
    <path id="Path_46" data-name="Path 46" d="M158.189,276.8h-1.353v2.885h1.353c.766,0,1.231-.438,1.231-1.367v-.151C159.42,277.243,158.955,276.8,158.189,276.8Zm0,0" transform="translate(-141.52 -249.773)" fill="#76ba1b"/>
    <path id="Path_47" data-name="Path 47" d="M31.593,216.09H1.465A1.465,1.465,0,0,0,0,217.555V232.5a1.465,1.465,0,0,0,1.465,1.465H31.593a1.465,1.465,0,0,0,1.465-1.465V217.555A1.465,1.465,0,0,0,31.593,216.09ZM11.406,227.01a2.952,2.952,0,0,1-3.281,3.226c-1.955,0-3.432-1.039-3.432-2.857,0-.821.342-1.012,1.08-1.012.547,0,1.012.137,1.053.642.041.533.109,1.367,1.2,1.367.793,0,1.244-.438,1.244-1.367v-4.99H8.083c-.41,0-.642-.438-.642-.943,0-.437.191-.916.642-.916h2.393c.465,0,.93.219.93.656v6.194Zm8.627-3.637c0,2.3-1.477,3.172-3.363,3.172H15.316V229.5c0,.438-.533.656-1.067.656s-1.066-.219-1.066-.656v-8.7a.713.713,0,0,1,.793-.642h2.83c1.8,0,3.227.848,3.227,3.144Zm4.512,5c.766,0,1.23-.438,1.23-1.367v-.465h-.806c-.41,0-.643-.4-.643-.82,0-.4.233-.82.643-.82h2.3a.631.631,0,0,1,.643.67v1.435c0,2.351-1.477,3.226-3.363,3.226s-3.35-.875-3.35-3.226v-3.623a2.952,2.952,0,0,1,3.281-3.226c1.955,0,3.432.985,3.432,2.721,0,.821-.342,1.012-1.067,1.012-.574,0-1.053-.15-1.066-.642s-.055-1.231-1.217-1.231c-.779,0-1.231.438-1.231,1.367v3.623c0,.93.451,1.367,1.217,1.367Zm0,0" transform="translate(0 -194.987)" fill="#76ba1b"/>
  </g>
</svg>
