<svg xmlns="http://www.w3.org/2000/svg" xmlns:xlink="http://www.w3.org/1999/xlink" width="191.681" height="161.491" viewBox="0 0 191.681 161.491">
  <defs>
    <clipPath id="clip-path">
      <rect id="Rectangle_288" data-name="Rectangle 288" width="42.562" height="110.337" fill="none"/>
    </clipPath>
  </defs>
  <g id="Kids_Studying_from_Home-bro" data-name="Kids Studying from Home-bro" transform="translate(-25.689 -52.774)">
    <g id="freepik--background-simple--inject-302" transform="translate(25.689 52.774)">
      <path id="Path_717" data-name="Path 717" d="M210.723,131.428c.96-12.741-2.005-26.028-5.974-37.907-5.9-17.618-17.349-35.684-36.631-39.853-11.119-2.407-22.431.171-31.963,6.2-9.17,5.794-16.321,13.279-27.585,14.729-11.4,1.468-23.1.853-34.562.853-29.441,0-53.374,30.956-47.4,63.2s34.161,54.616,58.072,54.616c21.488,0,39.166-12.895,59.574-16.355,10.121-1.707,20.285.316,30.295-2.257,11.64-2.987,22.589-10.121,29.036-20.451A49.333,49.333,0,0,0,210.723,131.428Z" transform="translate(-25.689 -52.774)" fill="#76ba1b"/>
      <path id="Path_718" data-name="Path 718" d="M210.723,131.428c.96-12.741-2.005-26.028-5.974-37.907-5.9-17.618-17.349-35.684-36.631-39.853-11.119-2.407-22.431.171-31.963,6.2-9.17,5.794-16.321,13.279-27.585,14.729-11.4,1.468-23.1.853-34.562.853-29.441,0-53.374,30.956-47.4,63.2s34.161,54.616,58.072,54.616c21.488,0,39.166-12.895,59.574-16.355,10.121-1.707,20.285.316,30.295-2.257,11.64-2.987,22.589-10.121,29.036-20.451A49.333,49.333,0,0,0,210.723,131.428Z" transform="translate(-25.689 -52.774)" fill="#fff" opacity="0.7"/>
    </g>
    <g id="freepik--Pictures--inject-302" transform="translate(88.246 83.95)">
      <rect id="Rectangle_270" data-name="Rectangle 270" width="31.408" height="43.543" transform="translate(0 0)" fill="none" stroke="#263238" stroke-miterlimit="10" stroke-width="1.255"/>
      <rect id="Rectangle_271" data-name="Rectangle 271" width="23.685" height="32.838" transform="translate(3.862 5.355)" fill="none" stroke="#263238" stroke-miterlimit="10" stroke-width="1.255"/>
      <rect id="Rectangle_272" data-name="Rectangle 272" width="21.885" height="30.337" transform="translate(67.101 22.486)" fill="none" stroke="#263238" stroke-miterlimit="10" stroke-width="1.255"/>
      <rect id="Rectangle_273" data-name="Rectangle 273" width="16.504" height="22.879" transform="translate(69.793 26.216)" fill="none" stroke="#263238" stroke-miterlimit="10" stroke-width="1.255"/>
    </g>
    <g id="freepik--Plants--inject-302" transform="translate(180.205 152.889)">
      <path id="Path_719" data-name="Path 719" d="M442.414,305.4s.427-1.519.427-1.617c.162-1.152-.2-3.473-1.378-4.041a1.54,1.54,0,0,0-2.095.93,3.22,3.22,0,0,0,.555,2.654A11.012,11.012,0,0,0,442.414,305.4Z" transform="translate(-417.307 -294.4)" fill="#263238"/>
      <path id="Path_720" data-name="Path 720" d="M389.8,306.829a10.441,10.441,0,0,0,3.226.358s-.495-1.5-.538-1.587c-.5-1.05-2.087-2.782-3.379-2.607a1.536,1.536,0,0,0-1.233,1.929A3.211,3.211,0,0,0,389.8,306.829Z" transform="translate(-387.818 -296.336)" fill="#263238"/>
      <path id="Path_721" data-name="Path 721" d="M393.6,293.267h.021c-.051.367-.1.759-.149,1.195-.077.8-.158,1.707-.183,2.688a27.348,27.348,0,0,0,.077,3.2,20.219,20.219,0,0,0,.593,3.524v.038c-.2-.32-.811-1.2-.853-1.28-.764-.879-2.748-2.133-3.947-1.626a1.54,1.54,0,0,0-.683,2.193,3.194,3.194,0,0,0,2.36,1.327,9.988,9.988,0,0,0,3.175-.5,26.454,26.454,0,0,0,1.237,3.413c.277.649.58,1.28.9,1.937-.188-.273-.358-.512-.384-.546-.76-.879-2.748-2.133-3.947-1.621a1.54,1.54,0,0,0-.678,2.215,3.2,3.2,0,0,0,2.364,1.331,10.3,10.3,0,0,0,3.081-.474c.124.243.243.491.367.738.589,1.173,1.186,2.347,1.732,3.512.192.427.367.824.546,1.237-.167-.243-.307-.427-.333-.474-.76-.879-2.748-2.133-3.947-1.621a1.54,1.54,0,0,0-.683,2.189,3.181,3.181,0,0,0,2.364,1.327,9.449,9.449,0,0,0,2.987-.448c.166.427.337.853.482,1.28.09.29.2.563.273.853s.162.58.243.853c.132.559.277,1.131.393,1.677.085.38.158.742.23,1.109-.188-.427-.572-1.212-.61-1.28-.619-.981-2.394-2.522-3.657-2.2a1.545,1.545,0,0,0-1.007,2.061,3.241,3.241,0,0,0,2.133,1.673,10.842,10.842,0,0,0,3.192,0c.124.606.235,1.195.333,1.754.307,1.754.508,3.251.644,4.361h.875c-.158-1.131-.4-2.675-.76-4.5-.124-.614-.265-1.28-.427-1.941a16.887,16.887,0,0,0,1.779-.853,11.318,11.318,0,0,0,2.594,1.673c-.23.572-.461,1.126-.687,1.643-.7,1.621-1.357,2.966-1.856,3.964h1.007c.452-.973,1.011-2.21,1.6-3.661.239-.58.482-1.2.725-1.848a10.66,10.66,0,0,0,3.183.247,3.207,3.207,0,0,0,2.253-1.51,1.54,1.54,0,0,0-.853-2.133c-1.233-.427-3.119.99-3.81,1.924-.038.055-.427.7-.644,1.118.1-.264.2-.521.294-.794.2-.533.375-1.075.572-1.66.085-.282.175-.572.26-.853s.154-.6.23-.9c.171-.7.3-1.429.427-2.159a10.049,10.049,0,0,0,3.021.7,3.175,3.175,0,0,0,2.453-1.152,1.54,1.54,0,0,0-.516-2.232c-1.156-.6-3.234.5-4.058,1.323-.051.051-.576.7-.853,1.071.068-.427.141-.879.2-1.327.158-1.28.282-2.6.427-3.913.038-.4.081-.8.124-1.2a10.536,10.536,0,0,0,3.123.734,3.253,3.253,0,0,0,2.458-1.148,1.54,1.54,0,0,0-.521-2.236c-1.156-.6-3.23.5-4.058,1.323-.06.064-.815,1.007-.994,1.254.094-.879.192-1.754.329-2.616a26.545,26.545,0,0,1,.751-3.439,10.7,10.7,0,0,0,3.14.738,3.223,3.223,0,0,0,2.453-1.148,1.545,1.545,0,0,0-.516-2.236c-1.156-.6-3.234.5-4.058,1.327-.055.051-.627.768-.9,1.118l-.064-.034a19.98,19.98,0,0,1,1.365-3.264c.294-.58.61-1.118.93-1.634a10.322,10.322,0,0,0,2.987,1.045,3.138,3.138,0,0,0,2.56-.875,1.536,1.536,0,0,0-.269-2.274c-1.088-.721-3.268.145-4.182.853-.047.038-.508.495-.853.832.149-.23.294-.474.427-.691.542-.819,1.092-1.536,1.583-2.168.286-.358.546-.674.794-.969a10.46,10.46,0,0,0,3.106-.427,3.108,3.108,0,0,0,1.877-1.958,1.545,1.545,0,0,0-1.28-1.9c-1.28-.136-2.833,1.639-3.307,2.7-.043.09-.516,1.6-.491,1.6h.026c-.243.277-.5.58-.781.913-.508.623-1.075,1.331-1.638,2.133a27.172,27.172,0,0,0-1.707,2.705,20.242,20.242,0,0,0-1.451,3.268v.038c0-.38,0-1.446-.021-1.528-.149-1.156-1.114-3.294-2.394-3.533a1.54,1.54,0,0,0-1.779,1.451,3.205,3.205,0,0,0,1.237,2.411,10.947,10.947,0,0,0,2.918,1.336,27.3,27.3,0,0,0-.853,3.537c-.128.7-.23,1.4-.324,2.112v-.666c-.149-1.156-1.118-3.294-2.4-3.533a1.54,1.54,0,0,0-1.775,1.451,3.2,3.2,0,0,0,1.237,2.411,10.548,10.548,0,0,0,2.829,1.31l-.1.815c-.154,1.306-.307,2.611-.491,3.887-.068.448-.149.887-.226,1.331v-.58c-.149-1.152-1.118-3.294-2.4-3.529a1.536,1.536,0,0,0-1.775,1.451,3.219,3.219,0,0,0,1.237,2.411,9.519,9.519,0,0,0,2.748,1.28c-.094.448-.188.9-.3,1.331-.085.29-.145.576-.247.853s-.183.576-.273.853c-.2.538-.4,1.092-.6,1.613-.137.363-.277.7-.427,1.05.068-.427.188-1.323.188-1.4a5.973,5.973,0,0,0-.8-2.914,1.492,1.492,0,0,0-.021-.337,1.536,1.536,0,0,0-1.882-1.31c-1.259.337-2.057,2.56-2.133,3.708,0,.068.038.815.077,1.28-.064-.273-.124-.538-.192-.819-.132-.559-.277-1.109-.427-1.707-.085-.286-.175-.572-.26-.853s-.2-.585-.307-.879q-.371-1.024-.853-2.035a10.284,10.284,0,0,0,2.906-1.088,3.211,3.211,0,0,0,1.412-2.313,1.54,1.54,0,0,0-1.664-1.579c-1.28.141-2.419,2.2-2.654,3.341,0,.073-.09.909-.124,1.37-.188-.405-.367-.811-.568-1.216-.58-1.165-1.2-2.325-1.818-3.486l-.559-1.071a10.616,10.616,0,0,0,3.012-1.114,3.229,3.229,0,0,0,1.412-2.313,1.545,1.545,0,0,0-1.664-1.579c-1.28.141-2.419,2.206-2.654,3.345,0,.085-.128,1.28-.141,1.6-.405-.785-.806-1.57-1.169-2.364a27.773,27.773,0,0,1-1.28-3.281,10.292,10.292,0,0,0,3.029-1.118,3.211,3.211,0,0,0,1.412-2.313,1.54,1.54,0,0,0-1.664-1.579c-1.28.141-2.419,2.2-2.654,3.341,0,.077-.1.994-.128,1.429h-.073a19.443,19.443,0,0,1-.661-3.478c-.077-.649-.107-1.28-.128-1.877a10.17,10.17,0,0,0,3.059-.768,3.172,3.172,0,0,0,1.66-2.133,1.545,1.545,0,0,0-1.481-1.754c-1.306,0-2.645,1.924-2.987,3.034-.021.06-.154.691-.239,1.156V297.1c0-.986.064-1.886.124-2.684.038-.457.081-.853.128-1.246a10.416,10.416,0,0,0,2.347-2.082,3.2,3.2,0,0,0,.486-2.671,1.545,1.545,0,0,0-2.133-.853c-1.156.6-1.459,2.927-1.28,4.075C393.144,291.756,393.579,293.279,393.6,293.267Z" transform="translate(-388.07 -287.407)" fill="#263238"/>
    </g>
    <g id="freepik--Books--inject-302" transform="translate(94.651 193.199)">
      <path id="Path_722" data-name="Path 722" d="M218.684,388.22H200.469l-13.159,7.1h19.862Z" transform="translate(-187.31 -385.515)" fill="#fff" stroke="#263238" stroke-linecap="round" stroke-linejoin="round" stroke-width="1.255"/>
      <line id="Line_11" data-name="Line 11" x2="13.769" transform="translate(12.971 4.425)" fill="none" stroke="#263238" stroke-linecap="round" stroke-linejoin="round" stroke-width="1.255"/>
      <line id="Line_12" data-name="Line 12" x2="13.769" transform="translate(10.855 5.53)" fill="none" stroke="#263238" stroke-linecap="round" stroke-linejoin="round" stroke-width="1.255"/>
      <line id="Line_13" data-name="Line 13" x2="13.769" transform="translate(8.743 6.635)" fill="none" stroke="#263238" stroke-linecap="round" stroke-linejoin="round" stroke-width="1.255"/>
      <line id="Line_14" data-name="Line 14" x2="13.769" transform="translate(6.631 7.744)" fill="none" stroke="#263238" stroke-linecap="round" stroke-linejoin="round" stroke-width="1.255"/>
      <path id="Path_723" data-name="Path 723" d="M187.31,404.87v1.225h20.276l-.414-1.225Z" transform="translate(-187.31 -395.06)" fill="#fff" stroke="#263238" stroke-linecap="round" stroke-linejoin="round" stroke-width="1.255"/>
      <path id="Path_724" data-name="Path 724" d="M234.274,396.549l11.632-7.283-.533-1.045-11.512,7.1Z" transform="translate(-213.998 -385.515)" fill="#fff" stroke="#263238" stroke-linecap="round" stroke-linejoin="round" stroke-width="1.255"/>
      <path id="Path_725" data-name="Path 725" d="M188.017,401.6a1.538,1.538,0,0,1-.047-.376,1.412,1.412,0,0,1,2.411-1" transform="translate(-187.688 -392.16)" fill="none" stroke="#263238" stroke-linecap="round" stroke-linejoin="round" stroke-width="1.255"/>
      <path id="Path_726" data-name="Path 726" d="M192.347,399.6a1.527,1.527,0,0,1-.047-.371,1.412,1.412,0,0,1,2.411-1" transform="translate(-190.171 -391.019)" fill="none" stroke="#263238" stroke-linecap="round" stroke-linejoin="round" stroke-width="1.255"/>
      <path id="Path_727" data-name="Path 727" d="M196.331,397.606a1.528,1.528,0,0,1-.051-.371,1.417,1.417,0,0,1,2.415-1" transform="translate(-192.453 -389.875)" fill="none" stroke="#263238" stroke-linecap="round" stroke-linejoin="round" stroke-width="1.255"/>
      <path id="Path_728" data-name="Path 728" d="M200.151,395.516a1.344,1.344,0,0,1-.051-.371,1.417,1.417,0,0,1,2.415-1" transform="translate(-194.643 -388.677)" fill="none" stroke="#263238" stroke-linecap="round" stroke-linejoin="round" stroke-width="1.255"/>
      <path id="Path_729" data-name="Path 729" d="M204.4,393.054a1.528,1.528,0,0,1-.047-.371,1.412,1.412,0,0,1,2.411-1" transform="translate(-197.079 -387.264)" fill="none" stroke="#263238" stroke-linecap="round" stroke-linejoin="round" stroke-width="1.255"/>
      <path id="Path_730" data-name="Path 730" d="M208.931,390.5a1.342,1.342,0,0,1-.051-.371,1.412,1.412,0,0,1,2.411-1" transform="translate(-199.676 -385.802)" fill="none" stroke="#263238" stroke-linecap="round" stroke-linejoin="round" stroke-width="1.255"/>
      <path id="Path_731" data-name="Path 731" d="M211.371,388.968a1.345,1.345,0,0,1-.051-.371,1.412,1.412,0,0,1,2.411-1" transform="translate(-201.075 -384.919)" fill="none" stroke="#263238" stroke-linecap="round" stroke-linejoin="round" stroke-width="1.255"/>
      <path id="Path_732" data-name="Path 732" d="M265.333,398.17s1.387,3.055-.913,3.934l13.654,8.764s1.327.764,3.017-.755.282-4.851-.478-5.274S265.333,398.17,265.333,398.17Z" transform="translate(-231.518 -391.219)" fill="#fff" stroke="#263238" stroke-linecap="round" stroke-linejoin="round" stroke-width="1.255"/>
      <path id="Path_733" data-name="Path 733" d="M281.763,381.88,264.1,388.66l14.132,7.68a6,6,0,0,1,1.8,1.958,3.643,3.643,0,0,1,.192.61,2.04,2.04,0,0,1-3.042,2.18l-13.445-8.308s-1.25,0,.179,1.071c1.186.879,10.309,6.426,13.206,8.133a2.27,2.27,0,0,0,1.963.171l19.274-7.8a2.445,2.445,0,0,0,1.067-1.651,3.055,3.055,0,0,0-1.754-3.294Z" transform="translate(-230.838 -381.88)" fill="#263238" stroke="#263238" stroke-linecap="round" stroke-linejoin="round" stroke-width="1.255"/>
    </g>
    <g id="freepik--Bookshelf--inject-302" transform="translate(38.49 83.822)">
      <g id="Group_3499" data-name="Group 3499" clip-path="url(#clip-path)">
        <path id="Path_734" data-name="Path 734" d="M74.146,148.841l-2.616-7.471,2.616,3.175-2.057-11.2,3.179,8.03,1.118-15.689,1.869,14.943,2.057-2.991v3.738l2.428-5.043-1.31,8.781,2.244-1.493-3.55,4.856Z" transform="translate(-64.771 -125.62)" fill="#76ba1b"/>
        <path id="Path_735" data-name="Path 735" d="M83.871,175.59H74.16L75.905,195.2h6.221Z" transform="translate(-66.279 -154.234)" fill="#263238" stroke="#263238" stroke-linecap="round" stroke-linejoin="round" stroke-width="1.255"/>
        <rect id="Rectangle_274" data-name="Rectangle 274" width="33.09" height="70.092" transform="translate(2.718 40.74)" fill="#fff" stroke="#263238" stroke-linecap="round" stroke-linejoin="round" stroke-width="1.255"/>
        <rect id="Rectangle_275" data-name="Rectangle 275" width="18.36" height="70.092" transform="translate(19.265 40.74)" fill="#fff" stroke="#263238" stroke-linecap="round" stroke-linejoin="round" stroke-width="1.255"/>
        <rect id="Rectangle_276" data-name="Rectangle 276" width="16.291" height="70.092" transform="translate(19.265 40.74)" fill="#263238" stroke="#263238" stroke-linecap="round" stroke-linejoin="round" stroke-width="1.255"/>
        <rect id="Rectangle_277" data-name="Rectangle 277" width="14.46" height="14.354" transform="translate(19.265 94.541)" fill="#76ba1b" stroke="#263238" stroke-linecap="round" stroke-linejoin="round" stroke-width="1.255"/>
        <rect id="Rectangle_278" data-name="Rectangle 278" width="14.46" height="1.839" transform="translate(19.265 95.318)" fill="#fff" stroke="#263238" stroke-linecap="round" stroke-linejoin="round" stroke-width="1.255"/>
        <rect id="Rectangle_279" data-name="Rectangle 279" width="14.46" height="1.839" transform="translate(19.265 105.883)" fill="#fff" stroke="#263238" stroke-linecap="round" stroke-linejoin="round" stroke-width="1.255"/>
        <line id="Line_15" data-name="Line 15" y2="18.151" transform="translate(22.009 94.836)" fill="none" stroke="#263238" stroke-linecap="round" stroke-linejoin="round" stroke-width="1.255"/>
        <line id="Line_16" data-name="Line 16" y2="18.151" transform="translate(27.052 94.836)" fill="none" stroke="#263238" stroke-linecap="round" stroke-linejoin="round" stroke-width="1.255"/>
        <line id="Line_17" data-name="Line 17" y2="18.151" transform="translate(31.477 94.836)" fill="none" stroke="#263238" stroke-linecap="round" stroke-linejoin="round" stroke-width="1.255"/>
        <rect id="Rectangle_280" data-name="Rectangle 280" width="14.46" height="21.104" transform="translate(19.265 43.347)" fill="#76ba1b" stroke="#263238" stroke-linecap="round" stroke-linejoin="round" stroke-width="1.255"/>
        <rect id="Rectangle_281" data-name="Rectangle 281" width="14.46" height="2.091" transform="translate(19.265 44.23)" fill="#fff" stroke="#263238" stroke-linecap="round" stroke-linejoin="round" stroke-width="1.255"/>
        <rect id="Rectangle_282" data-name="Rectangle 282" width="14.46" height="2.091" transform="translate(19.265 57.756)" fill="#fff" stroke="#263238" stroke-linecap="round" stroke-linejoin="round" stroke-width="1.255"/>
        <line id="Line_18" data-name="Line 18" y2="20.622" transform="translate(22.009 43.684)" fill="none" stroke="#263238" stroke-linecap="round" stroke-linejoin="round" stroke-width="1.255"/>
        <line id="Line_19" data-name="Line 19" y2="20.622" transform="translate(27.052 43.684)" fill="none" stroke="#263238" stroke-linecap="round" stroke-linejoin="round" stroke-width="1.255"/>
        <line id="Line_20" data-name="Line 20" y2="20.622" transform="translate(31.477 43.684)" fill="none" stroke="#263238" stroke-linecap="round" stroke-linejoin="round" stroke-width="1.255"/>
        <rect id="Rectangle_283" data-name="Rectangle 283" width="14.46" height="21.104" transform="translate(19.265 68.782)" fill="#76ba1b" stroke="#263238" stroke-linecap="round" stroke-linejoin="round" stroke-width="1.255"/>
        <rect id="Rectangle_284" data-name="Rectangle 284" width="14.46" height="2.091" transform="translate(19.265 69.665)" fill="#fff" stroke="#263238" stroke-linecap="round" stroke-linejoin="round" stroke-width="1.255"/>
        <rect id="Rectangle_285" data-name="Rectangle 285" width="14.46" height="2.091" transform="translate(19.265 83.196)" fill="#fff" stroke="#263238" stroke-linecap="round" stroke-linejoin="round" stroke-width="1.255"/>
        <line id="Line_21" data-name="Line 21" y2="20.622" transform="translate(22.009 69.119)" fill="none" stroke="#263238" stroke-linecap="round" stroke-linejoin="round" stroke-width="1.255"/>
        <line id="Line_22" data-name="Line 22" y2="20.622" transform="translate(27.052 69.119)" fill="none" stroke="#263238" stroke-linecap="round" stroke-linejoin="round" stroke-width="1.255"/>
        <line id="Line_23" data-name="Line 23" y2="20.622" transform="translate(31.477 69.119)" fill="none" stroke="#263238" stroke-linecap="round" stroke-linejoin="round" stroke-width="1.255"/>
        <rect id="Rectangle_286" data-name="Rectangle 286" width="16.547" height="2.398" transform="translate(19.265 64.161)" fill="#fff" stroke="#263238" stroke-linecap="round" stroke-linejoin="round" stroke-width="1.255"/>
        <rect id="Rectangle_287" data-name="Rectangle 287" width="16.547" height="2.398" transform="translate(19.265 89.758)" fill="#fff" stroke="#263238" stroke-linecap="round" stroke-linejoin="round" stroke-width="1.255"/>
        <line id="Line_24" data-name="Line 24" y2="70.092" transform="translate(35.812 40.74)" fill="none" stroke="#263238" stroke-linecap="round" stroke-linejoin="round" stroke-width="1.255"/>
        <path id="Path_736" data-name="Path 736" d="M95.38,220.986v70.092h2.33V223.593h16.261V220.96Z" transform="translate(-78.445 -180.245)" fill="#fff" stroke="#263238" stroke-linecap="round" stroke-linejoin="round" stroke-width="1.255"/>
        <line id="Line_25" data-name="Line 25" y1="2.607" transform="translate(19.265 40.74)" fill="none" stroke="#263238" stroke-linecap="round" stroke-linejoin="round" stroke-width="1.255"/>
      </g>
    </g>
    <g id="freepik--Desk--inject-302" transform="translate(27.61 194.262)">
      <line id="Line_26" data-name="Line 26" x1="189.134" fill="none" stroke="#263238" stroke-linecap="round" stroke-linejoin="round" stroke-width="1.255"/>
    </g>
    <g id="freepik--character-1--inject-302" transform="translate(55.845 131.739)">
      <path id="Path_737" data-name="Path 737" d="M207.588,317.4H178.018c-3.67-.282-3.891,1.178-3.891,1.178l-5.547,27.389h36.507c.192-1.37,3.072-21.624,3.614-24.9C209.269,317.683,207.588,317.4,207.588,317.4Z" transform="translate(-137.766 -283.433)" fill="#fff" stroke="#263238" stroke-linecap="round" stroke-linejoin="round" stroke-width="1.255"/>
      <path id="Path_738" data-name="Path 738" d="M252.5,317.45h-.055c-.213,0-1.011.213-1.5,2.4s-3.264,20.959-4.032,26.169h3.1c.192-1.37,3.072-21.625,3.614-24.9C254.176,317.732,252.5,317.45,252.5,317.45Z" transform="translate(-182.674 -283.481)" fill="#263238" stroke="#263238" stroke-linecap="round" stroke-linejoin="round" stroke-width="1.255"/>
      <path id="Path_739" data-name="Path 739" d="M140.664,343.058h34.412c-.179-5.381-.853-24.782-1.365-27.188-.589-2.8-2.061-3.239-4.122-3.388s-3.593.384-7.715.384-8.107-.427-8.107-.427-1.617-.149-2.5-.149-1.472.589-2.65.589a53.643,53.643,0,0,1-6.332-.294c-2.21-.294-4.86.883-5.3,3.094-.384,1.92-1.28,22.3-1.506,27.551h5.176Z" transform="translate(-118.79 -280.523)" fill="#76ba1b" stroke="#263238" stroke-linecap="round" stroke-linejoin="round" stroke-width="1.255"/>
      <path id="Path_740" data-name="Path 740" d="M170.92,319.69s1.216,5.837,4.617,7.292" transform="translate(-139.108 -284.766)" fill="none" stroke="#263238" stroke-linecap="round" stroke-linejoin="round" stroke-width="1.255"/>
      <path id="Path_741" data-name="Path 741" d="M162.729,317.41s-1.707,3.648.73,8.995" transform="translate(-134.079 -283.458)" fill="none" stroke="#263238" stroke-linecap="round" stroke-linejoin="round" stroke-width="1.255"/>
      <path id="Path_742" data-name="Path 742" d="M194.14,335.08s-3.887,9.963-12.4,14.584" transform="translate(-145.311 -293.589)" fill="none" stroke="#263238" stroke-linecap="round" stroke-linejoin="round" stroke-width="1.255"/>
      <path id="Path_743" data-name="Path 743" d="M173.19,303.288s.294,4.122.734,6.477,2.944,3.84,5.743,2.944,3.972-2.795,4.122-4.122.145-6.328.145-6.328A13.356,13.356,0,0,1,173.19,303.288Z" transform="translate(-140.409 -274.773)" fill="#fff" stroke="#263238" stroke-linecap="round" stroke-linejoin="round" stroke-width="1.255"/>
      <path id="Path_744" data-name="Path 744" d="M177.819,242.9s.4-.533-.666-2.133a9.484,9.484,0,0,0-3.6-2.667l1.6,2.133s-4.531-2.4-6.4-2.4-6.545.666-6.545.666l2.266.533s-5.6,1.732-6.264,2.53-3.866,3.469-3.2,3.469,4-.533,4-.533-3.332,3.2-3.332,4.531,2.931,7.732,2.931,7.732,2,3.6,2.667,1.865-.4-5.863-.265-6.264,7.864-1.067,9.6-1.067,1.468,4.135,2.133,4.8a13.737,13.737,0,0,0,4.4,1.86c.521,0,1.468-.4,1.468-.93a10.168,10.168,0,0,1,.666-3.337,13.668,13.668,0,0,0,1.331-4.135,23.523,23.523,0,0,0-.8-5.2h1.2S179.82,242.371,177.819,242.9Z" transform="translate(-129.934 -237.84)" fill="#263238" stroke="#263238" stroke-linecap="round" stroke-linejoin="round" stroke-width="1.255"/>
      <path id="Path_745" data-name="Path 745" d="M162.424,278.113s-.67-2.53-1.869-.8c-.772,1.118,1.2,5.6,2.266,5.867S162.424,278.113,162.424,278.113Z" transform="translate(-133.065 -260.124)" fill="#fff" stroke="#263238" stroke-linecap="round" stroke-linejoin="round" stroke-width="1.255"/>
      <path id="Path_746" data-name="Path 746" d="M165.17,263.124s0,9.733.666,12.131,3.332,6,7.2,6a9.539,9.539,0,0,0,7.6-3.465,13.476,13.476,0,0,0,1.6-4.4s1.2.934,2.667-.8,1.677-4.817,1.067-5.2c-1.067-.666-2.266.132-2.8.666l-1.067,1.067s-1.732-1.2-1.732-2.8.269-4.531.269-4.531l-1.2.8.137-1.067s-.269.269-1.869.269-5.466.265-5.466.265l2-2.667s-3.866,1.737-5.2,2.535A13.771,13.771,0,0,1,165.17,263.124Z" transform="translate(-135.811 -250.195)" fill="#fff" stroke="#263238" stroke-linecap="round" stroke-linejoin="round" stroke-width="1.255"/>
      <path id="Path_747" data-name="Path 747" d="M175.19,280.07c0,.721-.286,1.31-.64,1.31s-.64-.589-.64-1.31.286-1.31.64-1.31S175.19,279.349,175.19,280.07Z" transform="translate(-140.822 -261.3)" fill="#263238"/>
      <path id="Path_748" data-name="Path 748" d="M189.65,280.49c0,.721-.286,1.306-.64,1.306s-.64-.585-.64-1.306.286-1.31.64-1.31S189.65,279.765,189.65,280.49Z" transform="translate(-149.112 -261.541)" fill="#263238"/>
      <path id="Path_749" data-name="Path 749" d="M179.41,289.08s0,1.873,2.321,1.425" transform="translate(-143.975 -267.217)" fill="none" stroke="#263238" stroke-linecap="round" stroke-linejoin="round" stroke-width="1.255"/>
      <path id="Path_750" data-name="Path 750" d="M177.74,296.88a4.816,4.816,0,0,0,4.463-.09" transform="translate(-143.018 -271.637)" fill="none" stroke="#263238" stroke-linecap="round" stroke-linejoin="round" stroke-width="1.255"/>
      <path id="Path_751" data-name="Path 751" d="M170,274.461a2.065,2.065,0,0,1,2.411-.981" transform="translate(-138.58 -258.221)" fill="none" stroke="#263238" stroke-linecap="round" stroke-linejoin="round" stroke-width="1.255"/>
      <path id="Path_752" data-name="Path 752" d="M186.94,273.418s2.133-.623,2.944.806" transform="translate(-148.292 -258.16)" fill="none" stroke="#263238" stroke-linecap="round" stroke-linejoin="round" stroke-width="1.255"/>
      <path id="Path_753" data-name="Path 753" d="M125.56,318.24l-5.914,16.287s-3.789,2.752-4.194,3.465c-1.02,1.779.307,4.305,1.532,5.624,1.929,2.069,5.85,2.364,8.2.828,1.54-1.007,2.445-3.055,3.025-4.74l.623-14.311" transform="translate(-107.099 -283.934)" fill="#76ba1b" stroke="#263238" stroke-linecap="round" stroke-linejoin="round" stroke-width="1.255"/>
      <path id="Path_754" data-name="Path 754" d="M119.77,358.4s3.034-2.5,8.03.358" transform="translate(-109.783 -306.381)" fill="none" stroke="#263238" stroke-linecap="round" stroke-linejoin="round" stroke-width="1.255"/>
      <path id="Path_755" data-name="Path 755" d="M115.272,361.117l4.007.853s3.84-1.566,4.177.175-2.261,2.266-2.961,2.266a18.721,18.721,0,0,0-3.132,0c-.7.175-1.566,1.041-3.132,1.216,0,0-4.352,1.741-6.093.7s-.35-4.694,1.916-5.918S115.272,361.117,115.272,361.117Z" transform="translate(-102.665 -307.875)" fill="#fff" stroke="#263238" stroke-linecap="round" stroke-linejoin="round" stroke-width="1.255"/>
      <path id="Path_756" data-name="Path 756" d="M100.049,365.131s-1.707-1.016-2.244.277-2.1,4.293-1.126,4.024S100.049,365.131,100.049,365.131Z" transform="translate(-96.364 -310.6)" fill="#fff" stroke="#263238" stroke-linecap="round" stroke-linejoin="round" stroke-width="1.255"/>
      <path id="Path_757" data-name="Path 757" d="M105.924,361.327s-2.808-.3-3.136.521c-.606,1.532-1.391,5.747-.171,6.093s1.566-2.261,2.261-3.84A23.807,23.807,0,0,0,105.924,361.327Z" transform="translate(-99.581 -308.605)" fill="#fff" stroke="#263238" stroke-linecap="round" stroke-linejoin="round" stroke-width="1.255"/>
      <path id="Path_758" data-name="Path 758" d="M110.119,357.311s-2.091-.175-2.786,1.22-1.1,6.972-.427,6.972.5.55,1.549-1.707a37.7,37.7,0,0,0,1.28-4.74Z" transform="translate(-102.21 -306.33)" fill="#fff" stroke="#263238" stroke-linecap="round" stroke-linejoin="round" stroke-width="1.255"/>
      <path id="Path_759" data-name="Path 759" d="M116.29,359.544s-2.773-2.364-3.5-2.769a1.444,1.444,0,0,0-2.04.162c-.815.734-.977,3.341-1.626,4.971s-1.306,3.337-.491,3.337a2.708,2.708,0,0,0,2.2-1.28,29.175,29.175,0,0,0,1.877-4.075" transform="translate(-103.179 -305.828)" fill="#fff" stroke="#263238" stroke-linecap="round" stroke-linejoin="round" stroke-width="1.255"/>
      <path id="Path_760" data-name="Path 760" d="M117.73,367.651a2.607,2.607,0,0,0,2.364-.491" transform="translate(-108.613 -311.981)" fill="#fff" stroke="#263238" stroke-linecap="round" stroke-linejoin="round" stroke-width="1.255"/>
      <path id="Path_761" data-name="Path 761" d="M213.82,312.3s3.332-.64,4.95.981,6.272,13.782,7.894,17.921,3.239,7.066,2.795,9.127-3.84,2.795-6.328,2.944c-2.829.166-4.694-1.621-4.694-2.21s-1.033-1.912.883-6.477l-1.327-9.716" transform="translate(-163.703 -280.459)" fill="#76ba1b" stroke="#263238" stroke-linecap="round" stroke-linejoin="round" stroke-width="1.255"/>
      <path id="Path_762" data-name="Path 762" d="M228.931,364.606a24.579,24.579,0,0,0-3.268-1.216,2.867,2.867,0,0,0-.653,1.681c0,.934.094,4.762.559,4.95s1.869-.653,2.8-1.958S229.49,364.883,228.931,364.606Z" transform="translate(-170.118 -309.819)" fill="#fff" stroke="#263238" stroke-linecap="round" stroke-linejoin="round" stroke-width="1.255"/>
      <path id="Path_763" data-name="Path 763" d="M227.257,353.05l-1.587,12.873.567,2.061.934-1.775,1.681-12.98a.8.8,0,0,0-.7-.879h0a.794.794,0,0,0-.9.7Z" transform="translate(-170.497 -303.486)" fill="#fff" stroke="#263238" stroke-linecap="round" stroke-linejoin="round" stroke-width="1.255"/>
      <path id="Path_764" data-name="Path 764" d="M227.163,384.462l-1.493-.282.559,2.057Z" transform="translate(-170.497 -321.739)" fill="#fff" stroke="#263238" stroke-linecap="round" stroke-linejoin="round" stroke-width="1.255"/>
      <path id="Path_765" data-name="Path 765" d="M230,352.352a.794.794,0,0,0-.888.7l-.2,1.664,1.557.311.235-1.8A.8.8,0,0,0,230,352.352Z" transform="translate(-172.354 -303.487)" fill="#fff" stroke="#263238" stroke-linecap="round" stroke-linejoin="round" stroke-width="1.255"/>
      <path id="Path_766" data-name="Path 766" d="M223.444,363.39c-.465,0-1.4,1.216-1.958,1.869s-.376,2.052.09,3.175.657,3.175,1.216,3.268,1.028-.465,1.028-1.493-.188-3.175-.188-3.175" transform="translate(-167.899 -309.819)" fill="#fff" stroke="#263238" stroke-linecap="round" stroke-linejoin="round" stroke-width="1.255"/>
      <path id="Path_767" data-name="Path 767" d="M236.108,378.93s.657,1.775-.09,2.709-3.179.559-3.644.188S234.431,380.8,236.108,378.93Z" transform="translate(-174.308 -318.729)" fill="#fff" stroke="#263238" stroke-linecap="round" stroke-linejoin="round" stroke-width="1.255"/>
      <path id="Path_768" data-name="Path 768" d="M234.063,375a1.976,1.976,0,0,1,.371,2.057,4.728,4.728,0,0,1-3.362,2.428c-1.229.188-2.24-.469-1.677-.853A33.242,33.242,0,0,0,234.063,375Z" transform="translate(-172.541 -316.476)" fill="#fff" stroke="#263238" stroke-linecap="round" stroke-linejoin="round" stroke-width="1.255"/>
      <path id="Path_769" data-name="Path 769" d="M231.759,370.09a3.5,3.5,0,0,1,1.122,2.052c0,1.028-2.709,3.456-4.015,3.921s-1.963,0-1.587-.853a56.191,56.191,0,0,1,4.109-5.039S231.2,369.9,231.759,370.09Z" transform="translate(-171.359 -313.623)" fill="#fff" stroke="#263238" stroke-linecap="round" stroke-linejoin="round" stroke-width="1.255"/>
      <path id="Path_770" data-name="Path 770" d="M227.28,367.284a35.414,35.414,0,0,0-2.334,4.668c-.282,1.122.747,1.122,1.4.653a24.407,24.407,0,0,0,4.109-5.321c.371-1.118-.277-2.334-1.493-2.133S227.28,367.284,227.28,367.284Z" transform="translate(-170.054 -310.816)" fill="#fff" stroke="#263238" stroke-linecap="round" stroke-linejoin="round" stroke-width="1.255"/>
    </g>
    <g id="freepik--character-2--inject-302" transform="translate(90.621 109.934)">
      <path id="Path_771" data-name="Path 771" d="M354.852,345.655c.606-4.421,3.034-22.137,3.529-25.094.563-3.388-1.131-3.67-1.131-3.67H327.693c-3.67-.282-3.891,1.178-3.891,1.178l-5.4,27.585Z" transform="translate(-258.436 -261.335)" fill="#fff" stroke="#263238" stroke-linecap="round" stroke-linejoin="round" stroke-width="1.255"/>
      <path id="Path_772" data-name="Path 772" d="M399.679,345.7c.606-4.42,3.034-22.137,3.529-25.093.563-3.388-1.131-3.67-1.131-3.67h-.055c-.213,0-1.011.213-1.493,2.4-.461,2.069-3.017,20.054-3.938,26.365Z" transform="translate(-303.263 -261.384)" fill="#263238" stroke="#263238" stroke-linecap="round" stroke-linejoin="round" stroke-width="1.255"/>
      <path id="Path_773" data-name="Path 773" d="M255.406,312.869c2.253-2.466,9.434-10.317,11.248-12.135,2.163-2.163,3.81-4.22,3.81-4.22l.619,16.355h34.272c-.038-.222-1.971-12.519-3.6-20.985-1.647-8.534-3.294-16.675-7-21.821s-14.721-10.394-14.721-10.394l-9.468,7.395a20.008,20.008,0,0,0-3.6,6.486c-.824,3.192-2.884,11.32-3.81,14.507-.853,2.923-11.367,21.676-13.125,24.795Z" transform="translate(-219.239 -228.55)" fill="#76ba1b" stroke="#263238" stroke-linecap="round" stroke-linejoin="round" stroke-width="1.255"/>
      <path id="Path_774" data-name="Path 774" d="M353.3,318.27c1.826,8.73,3.435,16.76,5.12,25.273" transform="translate(-278.445 -262.146)" fill="none" stroke="#263238" stroke-linecap="round" stroke-linejoin="round" stroke-width="1.255"/>
      <path id="Path_775" data-name="Path 775" d="M335.45,324.22c1.412,7.254,2.483,15.293,3.883,22.768" transform="translate(-268.211 -265.558)" fill="none" stroke="#263238" stroke-linecap="round" stroke-linejoin="round" stroke-width="1.255"/>
      <path id="Path_776" data-name="Path 776" d="M316,287.43c1.161,12.8,2.227,25.635,3.7,38.4" transform="translate(-257.06 -244.465)" fill="none" stroke="#263238" stroke-linecap="round" stroke-linejoin="round" stroke-width="1.255"/>
      <path id="Path_777" data-name="Path 777" d="M298.11,295.55c1.28,12,2.355,23.242,3.866,35.01" transform="translate(-246.804 -249.121)" fill="none" stroke="#263238" stroke-linecap="round" stroke-linejoin="round" stroke-width="1.255"/>
      <path id="Path_778" data-name="Path 778" d="M284.488,301.5s-3.46,15.467-5.308,19.628" transform="translate(-235.951 -252.532)" fill="none" stroke="#263238" stroke-linecap="round" stroke-linejoin="round" stroke-width="1.255"/>
      <path id="Path_779" data-name="Path 779" d="M288.821,329.09s-2.074,8.534-3.691,11.772" transform="translate(-239.362 -268.35)" fill="none" stroke="#263238" stroke-linecap="round" stroke-linejoin="round" stroke-width="1.255"/>
      <line id="Line_27" data-name="Line 27" x2="5.308" y2="3.691" transform="translate(61.005 35.579)" fill="none" stroke="#263238" stroke-linecap="round" stroke-linejoin="round" stroke-width="1.255"/>
      <line id="Line_28" data-name="Line 28" x1="1.749" y1="13.995" transform="translate(49.476 53.969)" fill="none" stroke="#263238" stroke-linecap="round" stroke-linejoin="round" stroke-width="1.255"/>
      <path id="Path_780" data-name="Path 780" d="M255.418,362.323c2.133-2.342,8.709-9.528,10.893-11.772-1.826-1.195-4.941-3.226-7.138-4.621-3.162,6.136-7.962,14.4-9.123,16.393Z" transform="translate(-219.25 -278.004)" fill="#fff" stroke="#263238" stroke-linecap="round" stroke-linejoin="round" stroke-width="1.255"/>
      <path id="Path_781" data-name="Path 781" d="M268,345.651s5.974,4.322,6.486,4.322,3.5-2.987,3.7-3.6-7.2-5.662-7.629-5.662S268,344.213,268,345.651Z" transform="translate(-229.541 -275.012)" fill="#fff" stroke="#263238" stroke-linecap="round" stroke-linejoin="round" stroke-width="1.255"/>
      <path id="Path_782" data-name="Path 782" d="M301.54,284.75l1.028,10.808,1.852-.41-.2-2.368" transform="translate(-248.77 -242.929)" fill="none" stroke="#263238" stroke-linecap="round" stroke-linejoin="round" stroke-width="1.255"/>
      <path id="Path_783" data-name="Path 783" d="M290.716,281.13l-.516,4.22,3.81-3.908Z" transform="translate(-242.269 -240.854)" fill="#fff" stroke="#263238" stroke-linecap="round" stroke-linejoin="round" stroke-width="1.255"/>
      <path id="Path_784" data-name="Path 784" d="M293.569,272.93l-2.159,3.5,5.867,2.266,1.643-4.322Z" transform="translate(-242.962 -236.152)" fill="#fff" stroke="#263238" stroke-linecap="round" stroke-linejoin="round" stroke-width="1.255"/>
      <path id="Path_785" data-name="Path 785" d="M255.082,199.842s-.824,5.253-.516,6.281,1.647,2.266,1.749,3.192-2.364,4.113-1.647,4.937a7.167,7.167,0,0,0,2.266,1.442s3.089,8.133,4.527,8.44,6.076-2.159,6.076-2.159,5.76,5.248,6.072,5.547,6.072-11.32,6.072-11.32-2.56-5.043-2.56-5.355,4.015-11.32,3.806-15.745-12.865-8.747-15.438-8.337-8.026,3.413-8.026,3.413,1.954-1.647.307-1.545-6.588,3.81-6.379,7S255.082,199.842,255.082,199.842Z" transform="translate(-220.016 -186.737)" fill="#fff" stroke="#263238" stroke-linecap="round" stroke-linejoin="round" stroke-width="1.255"/>
      <path id="Path_786" data-name="Path 786" d="M272.666,216.636c1.028-2.88-1.237-8.337-1.033-9.571s1.237-4.22,3.089-4.22,1.545,3.7,1.34,5.248a9.519,9.519,0,0,1-1.135,3.093s1.212-.218,2.172-.367c.235-.926,4-11.4,3.8-15.689-.2-4.425-12.865-8.747-15.438-8.337s-8.026,3.413-8.026,3.413,1.954-1.647.307-1.545-6.588,3.81-6.379,7,3.7,4.22,3.7,4.22,6.588-3.29,8.96-3.6-.717,2.266-.926,3.708,3.414,2.56,4.736,3.806,2.159,9.161,1.34,11.013-4.736.926-6.588.2-5.662.721-5.662.721,3.089,8.133,4.527,8.44c.789.171,2.53-.495,3.947-1.126l2.133-1.033S271.633,219.521,272.666,216.636Z" transform="translate(-219.998 -186.754)" fill="#263238" stroke="#263238" stroke-linecap="round" stroke-linejoin="round" stroke-width="1.255"/>
      <path id="Path_787" data-name="Path 787" d="M269.062,237.675c.162.661.094,1.246-.154,1.31s-.585-.427-.747-1.092-.094-1.246.154-1.31S268.9,237.009,269.062,237.675Z" transform="translate(-229.584 -215.311)" fill="#263238"/>
      <path id="Path_788" data-name="Path 788" d="M268,256.727a4.17,4.17,0,0,0,3.192-1.647" transform="translate(-229.541 -225.919)" fill="none" stroke="#7d7d7d" stroke-linecap="round" stroke-linejoin="round" stroke-width="1.255"/>
      <path id="Path_789" data-name="Path 789" d="M264.15,232.072s.307-1.438,2.88-.427" transform="translate(-227.334 -212.277)" fill="none" stroke="#263238" stroke-linecap="round" stroke-linejoin="round" stroke-width="2.509"/>
      <path id="Path_790" data-name="Path 790" d="M307.19,251.71l-7.1,13.893,3.806,4.736L310.382,255Z" transform="translate(-247.939 -223.987)" fill="#fff" stroke="#263238" stroke-linecap="round" stroke-linejoin="round" stroke-width="1.255"/>
      <path id="Path_791" data-name="Path 791" d="M320.229,280.761s-3.192-.427-4.425.516-7.514,15.745-7.514,15.745a10.172,10.172,0,0,1,4.839,3.089,25.95,25.95,0,0,1,3.414,6.588s8.337-10.189,9.878-12.455" transform="translate(-252.64 -240.587)" fill="#76ba1b" stroke="#263238" stroke-linecap="round" stroke-linejoin="round" stroke-width="1.255"/>
      <path id="Path_792" data-name="Path 792" d="M321.781,285.81s-2.769.23-3.7,1.848S310,304.047,310,304.047l2.987,2.539s6.234-13.159,8.081-15.467a9.5,9.5,0,0,1,4.617-2.987" transform="translate(-253.62 -243.537)" fill="none" stroke="#263238" stroke-linecap="round" stroke-linejoin="round" stroke-width="1.255"/>
      <line id="Line_29" data-name="Line 29" x1="10.159" y2="14.081" transform="translate(62.388 49.198)" fill="none" stroke="#263238" stroke-linecap="round" stroke-linejoin="round" stroke-width="1.255"/>
      <path id="Path_793" data-name="Path 793" d="M300.938,314.38s-2.778,1.749-2.778,3.7,2.471,6.4,5.146,8.534,5.043,1.545,6.4.619,4.63-1.442,4.834-5.146-4.834-9.059-7-9.78S300.938,314.38,300.938,314.38Z" transform="translate(-246.832 -258.661)" fill="#fff" stroke="#263238" stroke-linecap="round" stroke-linejoin="round" stroke-width="1.255"/>
      <path id="Path_794" data-name="Path 794" d="M193.183,345.729s-1.131,1.028-2.266,1.852-2.364,1.442-1.336,1.958,2.159.1,3.294-.107,2.471-.512,2.56-1.336S195.346,344.812,193.183,345.729Z" transform="translate(-184.362 -277.773)" fill="#fff" stroke="#263238" stroke-linecap="round" stroke-linejoin="round" stroke-width="1.255"/>
      <path id="Path_795" data-name="Path 795" d="M239.076,331.644a6.378,6.378,0,0,0,.1-5.765,7.959,7.959,0,0,0-6.4-4.22c-1.869,0-33.448,8.85-33.448,8.85s-9.571-2.675-10.706-2.261-7.924,4.113-9.468,4.834-1.545,1.647-.824,1.749a12.218,12.218,0,0,0,3.5-.823c.939-.312,4.015-1.438,4.015-1.438a16.7,16.7,0,0,0-.619,2.261c0,.427,2.884,1.958,3.414,1.958a10.334,10.334,0,0,0,3.5-.1c1.233-.41-.512-2.163-.512-2.163l2.159-.926a9.329,9.329,0,0,0,4.015,1.028,6.711,6.711,0,0,0,2.88-.721S234.135,332.98,239.076,331.644Z" transform="translate(-177.866 -264.09)" fill="#fff" stroke="#263238" stroke-linecap="round" stroke-linejoin="round" stroke-width="1.255"/>
      <path id="Path_796" data-name="Path 796" d="M199.557,345.06s-1.336,2.56-1.028,3.085a15.569,15.569,0,0,0,2.987,1.958" transform="translate(-189.686 -277.505)" fill="none" stroke="#263238" stroke-linecap="round" stroke-linejoin="round" stroke-width="1.255"/>
      <path id="Path_797" data-name="Path 797" d="M204.649,345.3s-1.34,2.56-.926,3.085a18.243,18.243,0,0,0,3.187,1.856" transform="translate(-192.645 -277.643)" fill="none" stroke="#263238" stroke-linecap="round" stroke-linejoin="round" stroke-width="1.255"/>
      <line id="Line_30" data-name="Line 30" y1="0.926" x2="0.205" transform="translate(7.998 67.555)" fill="none" stroke="#263238" stroke-linecap="round" stroke-linejoin="round" stroke-width="1.255"/>
    </g>
    <g id="freepik--Device--inject-302" transform="translate(42.126 176.268)">
      <path id="Path_798" data-name="Path 798" d="M127.254,383.67H92.769L79.61,390.779h36.128Z" transform="translate(-73.039 -365.975)" fill="#fff" stroke="#263238" stroke-linecap="round" stroke-linejoin="round" stroke-width="1.255"/>
      <line id="Line_31" data-name="Line 31" x2="25.46" transform="translate(21.987 19.555)" fill="none" stroke="#263238" stroke-linecap="round" stroke-linejoin="round" stroke-width="1.255"/>
      <line id="Line_32" data-name="Line 32" x2="25.46" transform="translate(20.131 20.878)" fill="none" stroke="#263238" stroke-linecap="round" stroke-linejoin="round" stroke-width="1.255"/>
      <line id="Line_33" data-name="Line 33" x2="25.465" transform="translate(18.271 22.205)" fill="none" stroke="#263238" stroke-linecap="round" stroke-linejoin="round" stroke-width="1.255"/>
      <line id="Line_34" data-name="Line 34" x1="7.292" y2="3.58" transform="translate(40.288 19.555)" fill="none" stroke="#263238" stroke-linecap="round" stroke-linejoin="round" stroke-width="1.255"/>
      <line id="Line_35" data-name="Line 35" x1="7.292" y2="3.58" transform="translate(36.311 19.555)" fill="none" stroke="#263238" stroke-linecap="round" stroke-linejoin="round" stroke-width="1.255"/>
      <path id="Path_799" data-name="Path 799" d="M65.15,342.2h36.132l6.166,24.8H71.32Z" transform="translate(-64.749 -342.2)" fill="#263238" stroke="#263238" stroke-linecap="round" stroke-linejoin="round" stroke-width="1.255"/>
      <rect id="Rectangle_289" data-name="Rectangle 289" width="36.132" height="1.762" transform="translate(42.699 26.566) rotate(180)" fill="#fff" stroke="#263238" stroke-linecap="round" stroke-linejoin="round" stroke-width="1.255"/>
      <path id="Path_800" data-name="Path 800" d="M64.21,342.2h36.132l6.17,24.8H70.38Z" transform="translate(-64.21 -342.2)" fill="#fff" stroke="#263238" stroke-linecap="round" stroke-linejoin="round" stroke-width="1.255"/>
      <path id="Path_801" data-name="Path 801" d="M164.28,390.779,175.8,383.67v1.459l-11.516,7.412Z" transform="translate(-121.581 -365.975)" fill="#263238" stroke="#263238" stroke-linecap="round" stroke-linejoin="round" stroke-width="1.255"/>
      <path id="Path_802" data-name="Path 802" d="M112.3,367.325a1.933,1.933,0,1,1-2.389-1.579A2.031,2.031,0,0,1,112.3,367.325Z" transform="translate(-89.574 -355.676)" fill="none" stroke="#263238" stroke-linecap="round" stroke-linejoin="round" stroke-width="1.255"/>
    </g>
  </g>
</svg>
