<svg id="link_1_" data-name="link (1)" xmlns="http://www.w3.org/2000/svg" width="37.238" height="37.238" viewBox="0 0 37.238 37.238">
  <g id="Group_3391" data-name="Group 3391" transform="translate(0)">
    <g id="Group_3390" data-name="Group 3390" transform="translate(0)">
      <path id="Path_36" data-name="Path 36" d="M18.62,0a18.619,18.619,0,1,0,18.62,18.619A18.619,18.619,0,0,0,18.62,0Zm9.355,15.305-4.554,4.554a2.615,2.615,0,0,1-3.7,0l-.178-.178-.485.485.178.178a2.618,2.618,0,0,1,0,3.7L14.685,28.6a2.615,2.615,0,0,1-3.7,0L9.265,26.874a2.618,2.618,0,0,1,0-3.7l4.554-4.554a2.616,2.616,0,0,1,3.7,0l.178.178.485-.485L18,18.138a2.618,2.618,0,0,1,0-3.7l4.554-4.554a2.615,2.615,0,0,1,3.7,0l1.721,1.722A2.618,2.618,0,0,1,27.975,15.305Z" transform="translate(-0.001)" fill="#76ba1b"/>
      <path id="Path_37" data-name="Path 37" d="M91.29,161.16l-.88.88-1.366-1.365.88-.88-.178-.178a.683.683,0,0,0-.966,0l-4.554,4.553a.684.684,0,0,0,0,.966l1.722,1.722a.7.7,0,0,0,.966,0l4.553-4.554a.684.684,0,0,0,0-.967Z" transform="translate(-73.597 -139.629)" fill="#76ba1b"/>
      <path id="Path_38" data-name="Path 38" d="M160.129,89.23a.684.684,0,0,0-.967,0l-4.554,4.554a.685.685,0,0,0,0,.966l.178.178,1.351-1.351,1.366,1.366-1.351,1.351.178.178a.7.7,0,0,0,.966,0l4.554-4.553a.685.685,0,0,0,0-.966Z" transform="translate(-135.243 -77.979)" fill="#76ba1b"/>
    </g>
  </g>
</svg>
