<svg xmlns="http://www.w3.org/2000/svg" width="29.259" height="37.238" viewBox="0 0 29.259 37.238">
  <g id="log-format" transform="translate(0)">
    <path id="Path_30" data-name="Path 30" d="M188.654,138.481a.673.673,0,0,1-.075-.055l-4.918-4.186a.665.665,0,0,1-.161-.81,3.978,3.978,0,0,0-.73-4.64,4.02,4.02,0,0,0-3.853-1.032l1.032,1.032a1.995,1.995,0,0,1-2.821,2.821L176.1,130.58a4.019,4.019,0,0,0,1.032,3.853,3.978,3.978,0,0,0,4.641.73.665.665,0,0,1,.81.161l4.186,4.918a.669.669,0,0,1,.055.075,1.33,1.33,0,1,0,1.835-1.835Z" transform="translate(-167.987 -119.677)" fill="#76ba1b"/>
    <path id="Path_31" data-name="Path 31" d="M101.279,35.325V32H83.325A3.329,3.329,0,0,0,80,35.325V58.6h29.259V39.98h-3.325A4.66,4.66,0,0,1,101.279,35.325Zm.557,18.483a2.659,2.659,0,0,1-4.1-.415L93.9,48.888A5.321,5.321,0,0,1,87.283,41.4a.665.665,0,0,1,1.055-.154l1.744,1.744a.665.665,0,1,0,.941-.94l-1.744-1.744a.665.665,0,0,1,.154-1.055,5.321,5.321,0,0,1,7.485,6.619l4.505,3.834a2.659,2.659,0,0,1,.415,4.1Z" transform="translate(-80 -32)" fill="#76ba1b"/>
    <path id="Path_32" data-name="Path 32" d="M80,373.985a3.329,3.329,0,0,0,3.325,3.325h22.609a3.329,3.329,0,0,0,3.325-3.325V368H80Zm20.614-4.655a2.21,2.21,0,0,1,.949.215.665.665,0,0,1-.567,1.2.886.886,0,0,0-.381-.088c-.721,0-1.33.913-1.33,1.995s.609,1.995,1.33,1.995c.566,0,1.064-.564,1.251-1.33h-.586a.665.665,0,1,1,0-1.33h1.33a.665.665,0,0,1,.665.665c0,1.833-1.193,3.325-2.66,3.325s-2.66-1.492-2.66-3.325,1.193-3.325,2.66-3.325Zm-6.65,0c1.467,0,2.66,1.492,2.66,3.325s-1.193,3.325-2.66,3.325-2.66-1.492-2.66-3.325S92.5,369.33,93.964,369.33Zm-7.98.665a.665.665,0,0,1,1.33,0v4.655H89.31a.665.665,0,0,1,0,1.33H86.65a.665.665,0,0,1-.665-.665Z" transform="translate(-80 -340.071)" fill="#76ba1b"/>
    <ellipse id="Ellipse_7" data-name="Ellipse 7" cx="1.5" cy="2" rx="1.5" ry="2" transform="translate(12.605 30.726)" fill="#76ba1b"/>
    <path id="Path_33" data-name="Path 33" d="M355.325,49.022h2.385L352,43.313V45.7A3.329,3.329,0,0,0,355.325,49.022Z" transform="translate(-329.391 -42.373)" fill="#76ba1b"/>
  </g>
</svg>
