<svg xmlns="http://www.w3.org/2000/svg" width="423.01" height="145.073" viewBox="0 0 423.01 145.073">
  <path id="logoR" d="M165.963,77.023C147.243,71.6,147.942,64,163.448,57.086c28.5-12.613,38.976-22.107,38.976-30.651,0-10.714-30.035-20.073-95.834-24.141h0Q99.256,1.887,91.5,1.48C52.527-.283,21.234-.148,0,.395v11.8c18.72,0,41.351.271,60.909,1.221,4.191.136,8.382.407,12.294.543h0c35.484,1.763,60.21,3.526,60.21,11.664,0,9.087-81.165,26.583-102.26,31.329-18.72,4.2-22.073,13.156-10.477,22.243,22.073,16.953,65.659,51,84.658,65.914H423.01C340.308,123.949,188.874,83.669,165.963,77.023Z" transform="translate(0 -0.034)" fill="#494848" opacity="0.32"/>
</svg>
