<svg id="manual" xmlns="http://www.w3.org/2000/svg" width="26.193" height="37.238" viewBox="0 0 26.193 37.238">
  <g id="Group_3393" data-name="Group 3393" transform="translate(9.548 9.68)">
    <g id="Group_3392" data-name="Group 3392" transform="translate(0)">
      <path id="Path_39" data-name="Path 39" d="M210.762,133.094a3.548,3.548,0,1,0,3.548,3.548A3.552,3.552,0,0,0,210.762,133.094Z" transform="translate(-207.214 -133.094)" fill="#76ba1b"/>
    </g>
  </g>
  <g id="Group_3395" data-name="Group 3395" transform="translate(0)">
    <g id="Group_3394" data-name="Group 3394" transform="translate(0)">
      <path id="Path_40" data-name="Path 40" d="M78.483,0a2.55,2.55,0,0,0-2.547,2.547V26.618a4.7,4.7,0,0,1,2.547-.748h23.645V0ZM96.308,14.319H94.657a5.7,5.7,0,0,1-.877,2.114L94.948,17.6l-1.543,1.543-1.168-1.168a5.7,5.7,0,0,1-2.114.877V20.5H87.941V18.853a5.7,5.7,0,0,1-2.114-.877l-1.168,1.168L83.116,17.6l1.168-1.168a5.7,5.7,0,0,1-.877-2.114H81.757V12.137h1.651a5.7,5.7,0,0,1,.877-2.114L83.116,8.855l1.543-1.543,1.168,1.168A5.7,5.7,0,0,1,87.941,7.6V5.953h2.182V7.6a5.7,5.7,0,0,1,2.114.877l1.168-1.168,1.543,1.543L93.78,10.023a5.7,5.7,0,0,1,.877,2.114h1.651Z" transform="translate(-75.936)" fill="#76ba1b"/>
    </g>
  </g>
  <g id="Group_3397" data-name="Group 3397" transform="translate(0 28.052)">
    <g id="Group_3396" data-name="Group 3396" transform="translate(0)">
      <path id="Path_41" data-name="Path 41" d="M78.483,385.7a2.547,2.547,0,1,0,0,5.095h2.181v-2.426h8.65v2.426h12.814V385.7Z" transform="translate(-75.936 -385.7)" fill="#76ba1b"/>
    </g>
  </g>
  <g id="Group_3399" data-name="Group 3399" transform="translate(6.91 32.904)">
    <g id="Group_3398" data-name="Group 3398" transform="translate(0)">
      <path id="Path_42" data-name="Path 42" d="M170.95,452.4v4.335l2.143-.965,2.143.965V452.4Z" transform="translate(-170.95 -452.399)" fill="#76ba1b"/>
    </g>
  </g>
</svg>
