<svg xmlns="http://www.w3.org/2000/svg" width="172.894" height="177.635" viewBox="0 0 172.894 177.635">
  <g id="Online_page-amico" data-name="Online page-amico" transform="translate(-24.33 -19.185)">
    <g id="freepik--Floor--inject-49" transform="translate(24.33 96.697)">
      <path id="Path_2268" data-name="Path 2268" d="M171.684,236.182c-33.867-19.536-88.6-19.536-122.244,0s-33.453,51.254.429,70.806,88.6,19.556,122.244,0S205.567,255.734,171.684,236.182Z" transform="translate(-24.33 -221.53)" fill="#494848"/>
    </g>
    <g id="freepik--Shadows--inject-49" transform="translate(30.379 98.895)">
      <path id="Path_2269" data-name="Path 2269" d="M112.41,428.429a10.36,10.36,0,0,1,9.485,0c2.613,1.532,2.6,3.976-.031,5.493a10.406,10.406,0,0,1-9.485,0C109.767,432.39,109.783,429.946,112.41,428.429Z" transform="translate(-83.496 -350.663)" fill="#e0e0e0"/>
      <path id="Path_2270" data-name="Path 2270" d="M157.675,331.707,188.1,314.14l24.3,13.993a15.959,15.959,0,0,1,4.336-3.528c8.665-5,22.674-5,31.285,0s8.565,13.12-.1,18.123a26.2,26.2,0,0,1-5.93,2.448l2.44,1.406a1.107,1.107,0,0,1,0,1.915L216.2,364.808a4.425,4.425,0,0,1-4.417,0l-54.1-31.186a1.1,1.1,0,0,1,0-1.915Z" transform="translate(-112.301 -280.863)" fill="#e0e0e0"/>
      <path id="Path_2271" data-name="Path 2271" d="M138.568,229.8,44.506,284.577l-4.386-2.532,94.062-54.775Z" transform="translate(-40.12 -227.27)" fill="#e0e0e0"/>
    </g>
    <g id="freepik--Plant--inject-49" transform="translate(49.425 140.792)">
      <path id="Path_2272" data-name="Path 2272" d="M111.246,407.5l6.363.184,6.363-.184c.272,4.294-.567,8.673-1.724,10.81h0a2.9,2.9,0,0,1-1.26,1.283,7.482,7.482,0,0,1-6.773,0,2.816,2.816,0,0,1-1.26-1.318C111.806,416.119,110.975,411.775,111.246,407.5Z" transform="translate(-103.014 -380.356)" fill="#fff"/>
      <path id="Path_2273" data-name="Path 2273" d="M113.215,398.963c-2.494,1.436-2.505,3.769-.031,5.21a9.9,9.9,0,0,0,8.994,0c2.482-1.44,2.505-3.773.031-5.21A9.913,9.913,0,0,0,113.215,398.963Z" transform="translate(-103.102 -374.423)" fill="#ebebeb"/>
      <path id="Path_2274" data-name="Path 2274" d="M116.45,400.834c-1.946,1.122-1.954,2.942-.023,4.064a7.734,7.734,0,0,0,7.018,0c1.946-1.122,1.954-2.942.023-4.064A7.734,7.734,0,0,0,116.45,400.834Z" transform="translate(-105.353 -375.724)" fill="#e0e0e0"/>
      <g id="Group_3576" data-name="Group 3576" transform="translate(9.632 24.268)" opacity="0.15">
        <path id="Path_2275" data-name="Path 2275" d="M116.45,400.834c-1.946,1.122-1.954,2.942-.023,4.064a7.734,7.734,0,0,0,7.018,0c1.946-1.122,1.954-2.942.023-4.064A7.734,7.734,0,0,0,116.45,400.834Z" transform="translate(-114.985 -399.992)"/>
      </g>
      <path id="Path_2276" data-name="Path 2276" d="M100.64,336.64c14.334,4.693,14.465,14.285,11.232,21.111-.816,1.383-3.279,2.126-5.428-6.367l3.766.483-4.386-2.226-1.149-3.405,3.658.272-4.643-1.954A69.023,69.023,0,0,0,100.64,336.64Z" transform="translate(-96.503 -336.64)" fill="#76ba1b"/>
      <path id="Path_2277" data-name="Path 2277" d="M100.64,336.64c14.334,4.693,14.465,14.285,11.232,21.111-.816,1.383-3.279,2.126-5.428-6.367l3.766.483-4.386-2.226-1.149-3.405,3.658.272-4.643-1.954A69.023,69.023,0,0,0,100.64,336.64Z" transform="translate(-96.503 -336.64)" opacity="0.2"/>
      <path id="Path_2278" data-name="Path 2278" d="M111.22,342.9c7.562,5.746,8.244,12.316,6.106,19.18C118.081,356.035,118.9,349.922,111.22,342.9Z" transform="translate(-103.03 -340.502)" fill="#fff"/>
      <path id="Path_2279" data-name="Path 2279" d="M140.5,362.07c-14.131,1.988-15.844,10.9-13.97,17.8.529,1.421,2.7,2.524,6.129-5.03l-3.585-.176,4.455-1.345,1.628-2.98-3.448-.356,4.639-1.042a64.651,64.651,0,0,1,4.152-6.868Z" transform="translate(-112.087 -352.329)" fill="#76ba1b"/>
      <path id="Path_2280" data-name="Path 2280" d="M140.5,362.07c-14.131,1.988-15.844,10.9-13.97,17.8.529,1.421,2.7,2.524,6.129-5.03l-3.585-.176,4.455-1.345,1.628-2.98-3.448-.356,4.639-1.042a64.651,64.651,0,0,1,4.152-6.868Z" transform="translate(-112.087 -352.329)" fill="#fff" opacity="0.2"/>
      <path id="Path_2281" data-name="Path 2281" d="M138.516,366.14c-7.991,4.087-9.722,10.1-8.872,16.855C129.943,377.234,130.2,371.4,138.516,366.14Z" transform="translate(-114.276 -354.84)" fill="#fff"/>
      <path id="Path_2282" data-name="Path 2282" d="M89.84,370.78c12.959.215,15.5,8.044,14.583,14.48-.318,1.341-2.153,2.578-6.072-3.85l3.21-.559-4.164-.712-1.8-2.505,3.065-.709-4.306-.421A59.172,59.172,0,0,0,89.84,370.78Z" transform="translate(-89.84 -357.702)" fill="#76ba1b"/>
      <path id="Path_2283" data-name="Path 2283" d="M100.12,373.23c7.661,2.793,9.891,8.018,9.883,14.2C109.088,382.27,108.207,377.045,100.12,373.23Z" transform="translate(-96.182 -359.214)" fill="#fff"/>
    </g>
    <g id="freepik--Screen--inject-49" transform="translate(30.486 19.185)">
      <path id="Path_2284" data-name="Path 2284" d="M43.062,175l-.015-5.079L40.4,168.41l.011,4.965h0v.111L43.062,175Z" transform="translate(-40.4 -111.247)" fill="#76ba1b"/>
      <path id="Path_2285" data-name="Path 2285" d="M43.249,241.974l-.169-58.831L40.43,181.61l.169,58.759a1.1,1.1,0,0,0,.433.973h0l2.613,1.6A1.115,1.115,0,0,1,43.249,241.974Z" transform="translate(-40.419 -119.39)" fill="#76ba1b"/>
      <path id="Path_2286" data-name="Path 2286" d="M43.249,241.974l-.169-58.831L40.43,181.61l.169,58.759a1.1,1.1,0,0,0,.433.973h0l2.613,1.6A1.115,1.115,0,0,1,43.249,241.974Z" transform="translate(-40.419 -119.39)" fill="#fff" opacity="0.2"/>
      <path id="Path_2287" data-name="Path 2287" d="M51.4,341.53a1.639,1.639,0,0,1-.3.142,1.768,1.768,0,0,0,.3-.142Z" transform="translate(-47.001 -218.05)" fill="#455a64"/>
      <path id="Path_2288" data-name="Path 2288" d="M50.435,342h0Z" transform="translate(-46.551 -218.34)" fill="#455a64"/>
      <path id="Path_2289" data-name="Path 2289" d="M49.12,341.88Z" transform="translate(-45.78 -218.266)" fill="#455a64"/>
      <path id="Path_2290" data-name="Path 2290" d="M43.058,77.85V74.923a3.448,3.448,0,0,1,1.563-2.712l88.642-51.182a1.107,1.107,0,0,1,1.1-.115l-2.616-1.609h0a1.088,1.088,0,0,0-1.149.1L41.963,70.583A3.448,3.448,0,0,0,40.4,73.3v2.927h0v.115l2.647,1.509Z" transform="translate(-40.4 -19.185)" fill="#76ba1b"/>
      <path id="Path_2291" data-name="Path 2291" d="M43.058,77.85V74.923a3.448,3.448,0,0,1,1.563-2.712l88.642-51.182a1.107,1.107,0,0,1,1.1-.115l-2.616-1.609h0a1.088,1.088,0,0,0-1.149.1L41.963,70.583A3.448,3.448,0,0,0,40.4,73.3v2.927h0v.115l2.647,1.509Z" transform="translate(-40.4 -19.185)" fill="#fff" opacity="0.3"/>
      <path id="Path_2292" data-name="Path 2292" d="M43.062,175l-.015-5.079L40.4,168.41l.011,4.965h0v.111L43.062,175Z" transform="translate(-40.4 -111.247)" opacity="0.2"/>
      <path id="Path_2293" data-name="Path 2293" d="M43.062,175l-.015-5.079L40.4,168.41l.011,4.965h0v.111L43.062,175Z" transform="translate(-40.4 -111.247)" fill="#fff" opacity="0.2"/>
      <path id="Path_2294" data-name="Path 2294" d="M137.545,23.656c.862-.5,1.571-.1,1.571.9l.031,2.93L47.34,80.476V77.55A3.448,3.448,0,0,1,48.9,74.838Z" transform="translate(-44.682 -21.812)" fill="#76ba1b"/>
      <path id="Path_2295" data-name="Path 2295" d="M265.955,36.454c.464-.268.843-.054.843.479a1.835,1.835,0,0,1-.835,1.448c-.464.268-.843.054-.843-.479A1.835,1.835,0,0,1,265.955,36.454Z" transform="translate(-179.037 -29.767)" fill="#fff"/>
      <path id="Path_2296" data-name="Path 2296" d="M272.643,32.594c.464-.268.839-.054.843.479a1.85,1.85,0,0,1-.843,1.448c-.464.268-.839.054-.843-.479A1.85,1.85,0,0,1,272.643,32.594Z" transform="translate(-183.158 -27.386)" fill="#fff"/>
      <path id="Path_2297" data-name="Path 2297" d="M279.319,28.734c.463-.268.839-.054.839.479a1.843,1.843,0,0,1-.835,1.467c-.464.268-.839.054-.843-.483a1.85,1.85,0,0,1,.839-1.463Z" transform="translate(-187.279 -25.005)" fill="#fff"/>
      <path id="Path_2298" data-name="Path 2298" d="M65.806,73.429c.345-.2.663-.165.827.092l.835,1.279c.165.257.483.295.827.1L139.121,34v5.087l-91.771,53V87l2.72-1.571a2.072,2.072,0,0,0,.831-1.05l.82-2.237a2.053,2.053,0,0,1,.827-1.046Z" transform="translate(-44.688 -28.325)" fill="#e0e0e0"/>
      <path id="Path_2299" data-name="Path 2299" d="M139.152,47.27l.165,58.831a3.448,3.448,0,0,1-1.563,2.708L49.089,159.991c-.866.5-1.571.1-1.571-.9l-.169-58.831Z" transform="translate(-44.688 -36.512)" fill="#76ba1b"/>
      <g id="Group_3577" data-name="Group 3577" transform="translate(2.662 10.758)" opacity="0.4">
        <path id="Path_2300" data-name="Path 2300" d="M139.152,47.27l.165,58.831a3.448,3.448,0,0,1-1.563,2.708L49.089,159.991c-.866.5-1.571.1-1.571-.9l-.169-58.831Z" transform="translate(-47.35 -47.27)" fill="#fff"/>
      </g>
      <path id="Path_2301" data-name="Path 2301" d="M150.558,41.922c.617-.356,1.115-.073,1.119.636a2.456,2.456,0,0,1-1.111,1.915L72.872,89.358c-.617.356-1.119.069-1.122-.64A2.459,2.459,0,0,1,72.865,86.8Z" transform="translate(-59.741 -33.118)" fill="#fff"/>
      <path id="Path_2302" data-name="Path 2302" d="M49.718,173.5a.107.107,0,0,1,.115,0c.061.038.054.157,0,.26l-.49.8,1.287-.743a.1.1,0,0,1,.157.088.333.333,0,0,1-.157.272l-1.283.743.49.234c.065.031.069.142,0,.249a.318.318,0,0,1-.119.126.122.122,0,0,1-.107,0l-.766-.383-.034-.031h0v-.146h0l.031-.065.766-1.287A.333.333,0,0,1,49.718,173.5Z" transform="translate(-45.588 -114.379)" fill="#e0e0e0"/>
      <path id="Path_2303" data-name="Path 2303" d="M56.741,169.318a.111.111,0,0,1,.107,0l.789.383.031.034h0v.161l-.027.061-.789,1.291a.287.287,0,0,1-.107.107.107.107,0,0,1-.111,0c-.061-.038-.057-.153,0-.26l.486-.8-1.287.743a.1.1,0,0,1-.153-.092.341.341,0,0,1,.153-.272l1.287-.739-.49-.234c-.065-.034-.069-.146,0-.253A.3.3,0,0,1,56.741,169.318Z" transform="translate(-49.827 -111.798)" fill="#e0e0e0"/>
      <path id="Path_2304" data-name="Path 2304" d="M63.943,164.8a.7.7,0,0,1,.532-.1l.119-.153a.279.279,0,0,1,.084-.08.138.138,0,0,1,.084,0c.054,0,.08.065.069.142l-.065.483a.326.326,0,0,1-.069.165.265.265,0,0,1-.084.077h-.038l-.383.1a.088.088,0,0,1-.115-.08.3.3,0,0,1,.069-.218l.038-.05a.525.525,0,0,0-.241.073,1.253,1.253,0,0,0-.563.977c0,.36.257.5.567.322a1.241,1.241,0,0,0,.5-.621.329.329,0,0,1,.134-.172.119.119,0,0,1,.077-.019c.077,0,.1.1.061.211a1.915,1.915,0,0,1-.766.965c-.483.276-.881.054-.881-.506A1.946,1.946,0,0,1,63.943,164.8Z" transform="translate(-54.386 -108.812)" fill="#e0e0e0"/>
      <g id="Group_3578" data-name="Group 3578" transform="translate(3.222 59.108)" opacity="0.3">
        <path id="Path_2305" data-name="Path 2305" d="M49.718,173.5a.107.107,0,0,1,.115,0c.061.038.054.157,0,.26l-.49.8,1.287-.743a.1.1,0,0,1,.157.088.333.333,0,0,1-.157.272l-1.283.743.49.234c.065.031.069.142,0,.249a.318.318,0,0,1-.119.126.122.122,0,0,1-.107,0l-.766-.383-.034-.031h0v-.146h0l.031-.065.766-1.287A.333.333,0,0,1,49.718,173.5Z" transform="translate(-48.81 -173.486)"/>
      </g>
      <g id="Group_3579" data-name="Group 3579" transform="translate(5.853 57.506)" opacity="0.3">
        <path id="Path_2306" data-name="Path 2306" d="M56.741,169.318a.111.111,0,0,1,.107,0l.789.383.031.034h0v.161l-.027.061-.789,1.291a.287.287,0,0,1-.107.107.107.107,0,0,1-.111,0c-.061-.038-.057-.153,0-.26l.486-.8-1.287.743a.1.1,0,0,1-.153-.092.341.341,0,0,1,.153-.272l1.287-.739-.49-.234c-.065-.034-.069-.146,0-.253A.3.3,0,0,1,56.741,169.318Z" transform="translate(-55.68 -169.304)"/>
      </g>
      <g id="Group_3580" data-name="Group 3580" transform="translate(8.684 55.651)" opacity="0.3">
        <path id="Path_2307" data-name="Path 2307" d="M63.943,164.8a.7.7,0,0,1,.532-.1l.119-.153a.279.279,0,0,1,.084-.08.138.138,0,0,1,.084,0c.054,0,.08.065.069.142l-.065.483a.326.326,0,0,1-.069.165.265.265,0,0,1-.084.077h-.038l-.383.1a.088.088,0,0,1-.115-.08.3.3,0,0,1,.069-.218l.038-.05a.525.525,0,0,0-.241.073,1.253,1.253,0,0,0-.563.977c0,.36.257.5.567.322a1.241,1.241,0,0,0,.5-.621.329.329,0,0,1,.134-.172.119.119,0,0,1,.077-.019c.077,0,.1.1.061.211a1.915,1.915,0,0,1-.766.965c-.483.276-.881.054-.881-.506A1.946,1.946,0,0,1,63.943,164.8Z" transform="translate(-63.07 -164.463)"/>
      </g>
      <path id="Path_2308" data-name="Path 2308" d="M145.175,171.5l.084,30L116.284,218.23l-.084-30.006Z" transform="translate(-87.164 -113.153)" fill="#76ba1b"/>
      <path id="Path_2309" data-name="Path 2309" d="M214.242,64.97l.046,16.909L175.12,104.491l-.05-16.9Z" transform="translate(-123.482 -47.431)" fill="#76ba1b"/>
      <g id="Group_3581" data-name="Group 3581" transform="translate(29.036 58.347)" opacity="0.5">
        <path id="Path_2310" data-name="Path 2310" d="M145.175,171.5l.084,30L116.284,218.23l-.084-30.006Z" transform="translate(-116.2 -171.5)" fill="#fff"/>
      </g>
      <g id="Group_3582" data-name="Group 3582" transform="translate(51.588 17.539)" opacity="0.5">
        <path id="Path_2311" data-name="Path 2311" d="M214.242,64.97l.046,16.909L175.12,104.491l-.05-16.9Z" transform="translate(-175.07 -64.97)" fill="#fff"/>
      </g>
      <path id="Path_2312" data-name="Path 2312" d="M79.232,219.42l.088,30.006L60.944,260.033l-.084-30Z" transform="translate(-53.022 -142.717)" fill="#76ba1b"/>
      <path id="Path_2313" data-name="Path 2313" d="M228.9,122.5l.088,30.006L199.3,169.64l-.084-30Z" transform="translate(-138.381 -82.923)" fill="#76ba1b"/>
      <g id="Group_3583" data-name="Group 3583" transform="translate(7.838 76.703)" opacity="0.3">
        <path id="Path_2314" data-name="Path 2314" d="M79.232,219.42l.088,30.006L60.944,260.033l-.084-30Z" transform="translate(-60.86 -219.42)" fill="#fff"/>
      </g>
      <g id="Group_3584" data-name="Group 3584" transform="translate(60.839 39.577)" opacity="0.3">
        <path id="Path_2315" data-name="Path 2315" d="M228.9,122.5l.088,30.006L199.3,169.64l-.084-30Z" transform="translate(-199.22 -122.5)" fill="#fff"/>
      </g>
      <path id="Path_2316" data-name="Path 2316" d="M69.662,173.886c4.888-2.819,8.86-.555,8.86,5.041s-3.93,12.45-8.811,15.269-8.857.555-8.872-5.056S64.778,176.706,69.662,173.886Z" transform="translate(-53.01 -113.877)" fill="#76ba1b"/>
      <path id="Path_2317" data-name="Path 2317" d="M83.454,179.54a2.367,2.367,0,0,0,.659-3.122,1.291,1.291,0,0,0,.624-.586.69.69,0,0,0-.893-.919.969.969,0,0,0-.383-1.126.908.908,0,0,0-1.149.207.617.617,0,0,0-.421-.605,1.233,1.233,0,0,0-.766.05c-.253.088-.49.211-.766.291a5.593,5.593,0,0,1-1.341.172,2.7,2.7,0,0,0-1.295.345,1.149,1.149,0,0,0-.506,1.314.766.766,0,0,0-.54-.287.72.72,0,0,0-.552.234c.283.176.555.383.839.54a.766.766,0,0,0-.862.341,1.7,1.7,0,0,0-.149.908,12.182,12.182,0,0,0,.621,3.474,2.846,2.846,0,0,0,1.2,1.578Z" transform="translate(-62.328 -114.294)" fill="#37474f"/>
      <path id="Path_2318" data-name="Path 2318" d="M93.15,201.09l1.337,1.149L95.2,206.3a22.154,22.154,0,0,0,1.532-2.724C96.119,202.021,95.632,201.09,93.15,201.09Z" transform="translate(-72.943 -131.408)" fill="#ebebeb"/>
      <path id="Path_2319" data-name="Path 2319" d="M77.214,211.743a17.762,17.762,0,0,0,5.953-6.091c-.13-2.2-.456-4.562-2.455-4.562l-5.938.042-1.214.13L73,212.95A7.8,7.8,0,0,0,77.214,211.743Z" transform="translate(-60.512 -131.408)" fill="#76ba1b"/>
      <g id="Group_3585" data-name="Group 3585" transform="translate(12.488 69.682)" opacity="0.4">
        <path id="Path_2320" data-name="Path 2320" d="M77.214,211.743a17.762,17.762,0,0,0,5.953-6.091c-.13-2.2-.456-4.562-2.455-4.562l-5.938.042-1.214.13L73,212.95A7.8,7.8,0,0,0,77.214,211.743Z" transform="translate(-73 -201.09)" fill="#fff"/>
      </g>
      <path id="Path_2321" data-name="Path 2321" d="M85.567,202.755a12.531,12.531,0,0,1,0,5.344c-1.406-1.915-2.724-3.877-3.137-4.635l1.961-.954Z" transform="translate(-66.33 -132.284)" fill="#ebebeb"/>
      <path id="Path_2322" data-name="Path 2322" d="M88.48,207.2l.483-.115a15.483,15.483,0,0,1,.59,1.881,18.386,18.386,0,0,1-.253,1.942c-.276-.383-.548-.766-.812-1.13A12.983,12.983,0,0,0,88.48,207.2Z" transform="translate(-70.062 -135.11)" fill="#455a64"/>
      <path id="Path_2323" data-name="Path 2323" d="M88.5,207.308v-.1l.483-.115a.164.164,0,0,0,.027.073.628.628,0,0,1-.272.146.664.664,0,0,1-.238,0Z" transform="translate(-70.074 -135.11)" opacity="0.2"/>
      <path id="Path_2324" data-name="Path 2324" d="M85.752,203.685l-.383-.245-.889.483a2.038,2.038,0,0,0,1.05.418Z" transform="translate(-67.594 -132.858)" fill="#455a64"/>
      <path id="Path_2325" data-name="Path 2325" d="M89.33,203.411l.119-.26.448.283a.816.816,0,0,1-.291.425Z" transform="translate(-70.587 -132.679)" fill="#455a64"/>
      <path id="Path_2326" data-name="Path 2326" d="M85.752,203.685l-.383-.245-.889.483a2.038,2.038,0,0,0,1.05.418Z" transform="translate(-67.594 -132.858)" opacity="0.2"/>
      <path id="Path_2327" data-name="Path 2327" d="M89.33,203.411l.119-.26.448.283a.816.816,0,0,1-.291.425Z" transform="translate(-70.587 -132.679)" opacity="0.2"/>
      <path id="Path_2328" data-name="Path 2328" d="M87.22,204.581a2.072,2.072,0,0,1,.222-.655l.586-.1a2.352,2.352,0,0,1,.276.448,2.153,2.153,0,0,1-.119.8,1,1,0,0,1-.483.115A1.249,1.249,0,0,1,87.22,204.581Z" transform="translate(-69.285 -133.099)" fill="#455a64"/>
      <path id="Path_2329" data-name="Path 2329" d="M81.745,199.678c-.935,0-1.505.728-2.356.981l-1.739-1.877.674-1a1.72,1.72,0,0,1,.513-.5h0v.364a.613.613,0,0,0,.306.521Z" transform="translate(-63.381 -129.058)" fill="#e0e0e0"/>
      <path id="Path_2330" data-name="Path 2330" d="M88.34,200.955c.517-.161,1.291.486,1.291.486-.272-1.5-1.088-2.092-1.291-2.092Z" transform="translate(-69.976 -130.335)" fill="#e0e0e0"/>
      <path id="Path_2331" data-name="Path 2331" d="M69.166,201.54l-.8.126a2.379,2.379,0,0,0-1.942,1.869,28.4,28.4,0,0,0-.525,6.838l3.677-1.7C69.959,205.8,70.714,203.429,69.166,201.54Z" transform="translate(-56.111 -131.686)" fill="#ebebeb"/>
      <path id="Path_2332" data-name="Path 2332" d="M68.982,221.215v-.322a.222.222,0,0,1,.073-.149.226.226,0,0,0,.073-.165v-.532a.257.257,0,0,0-.264-.257c-1.663.019-3.283.812-3.723,1.743a1.387,1.387,0,0,0,0,.9c-.287.383-.149.571,0,.843a5.231,5.231,0,0,0,.479.383A6.936,6.936,0,0,1,68.982,221.215Z" transform="translate(-55.559 -142.945)" fill="#e0e0e0"/>
      <path id="Path_2333" data-name="Path 2333" d="M67.5,222.54a5.658,5.658,0,0,0-2.107,1.59,1.788,1.788,0,0,1-.065-.3A3.7,3.7,0,0,1,67.5,222.54Z" transform="translate(-55.78 -144.641)" opacity="0.2"/>
      <path id="Path_2334" data-name="Path 2334" d="M70.679,222a.207.207,0,0,1-.061.1.222.222,0,0,0-.073.149v.027a5.528,5.528,0,0,0-3.065,1.555A5.623,5.623,0,0,1,70.679,222Z" transform="translate(-57.107 -144.308)" opacity="0.2"/>
      <path id="Path_2335" data-name="Path 2335" d="M73.339,223.8a15.6,15.6,0,0,0,3.785-3.164,24.483,24.483,0,0,0-7.056.8v.295a6.832,6.832,0,0,0-3.348,2.455C68.337,225.375,70.708,225.329,73.339,223.8Z" transform="translate(-56.638 -143.469)" fill="#ffa8a7"/>
      <path id="Path_2336" data-name="Path 2336" d="M72.6,222.944l.038-.364-.184.061v.295a7.621,7.621,0,0,0-1.532.72,2.244,2.244,0,0,0-.349.678,2.816,2.816,0,0,1,1.881-1.126,22.477,22.477,0,0,1,3.892,1.406q.222-.142.437-.3A39.367,39.367,0,0,0,72.6,222.944Z" transform="translate(-59.013 -144.666)" opacity="0.2"/>
      <path id="Path_2337" data-name="Path 2337" d="M81.786,194.645h-.027a1.532,1.532,0,0,1-.766-1c-.05-.215-.092-.429-.126-.647s-.176,0-.176,0,0,.479.023,1.046c0,.3,0,.624.023.919a.609.609,0,0,0,.306.521l2.593,1.513V195.15a4.738,4.738,0,0,1-1.85-.506Z" transform="translate(-65.256 -126.353)" fill="#ffa8a7"/>
      <path id="Path_2338" data-name="Path 2338" d="M81.9,196.594v0l0,0Z" transform="translate(-66.003 -128.632)" fill="#ffa8a7"/>
      <path id="Path_2339" data-name="Path 2339" d="M82.068,196.287a1.789,1.789,0,0,1-.318-.667,1.532,1.532,0,0,0,.663.689h.027a4.738,4.738,0,0,0,1.835.486v.5a4.548,4.548,0,0,1-1.088-.23A2.471,2.471,0,0,1,82.068,196.287Z" transform="translate(-65.91 -128.034)" opacity="0.2"/>
      <path id="Path_2340" data-name="Path 2340" d="M82.786,181.7a12.385,12.385,0,0,1-.31,4.8,3.727,3.727,0,0,1-.383.988,1.593,1.593,0,0,1-.766.693,2.54,2.54,0,0,1-1.291,0,6.623,6.623,0,0,1-2.268-.7,2.206,2.206,0,0,1-1.149-1.95,1.352,1.352,0,0,1-1.3.069,1.375,1.375,0,0,1-.716-1.1.85.85,0,0,1,1.421-.8,2.715,2.715,0,0,1,.529.617.939.939,0,0,0,.264.283.322.322,0,0,0,.383,0,.479.479,0,0,0,.1-.383l-.1-1.007a.406.406,0,0,1,.222-.383.969.969,0,0,0,.452-.517,2.03,2.03,0,0,0,.126-.605.249.249,0,0,1,.341-.211,7.428,7.428,0,0,0,4.436.207Z" transform="translate(-61.487 -119.306)" fill="#ffa8a7"/>
      <path id="Path_2341" data-name="Path 2341" d="M89.912,188.43l.908,1.521-1.08.2Z" transform="translate(-70.839 -123.598)" fill="#f28f8f"/>
      <path id="Path_2342" data-name="Path 2342" d="M86.96,194.3l.82.383a.536.536,0,0,1-.621.176.483.483,0,0,1-.2-.559Z" transform="translate(-69.109 -127.219)" fill="#f28f8f"/>
      <path id="Path_2343" data-name="Path 2343" d="M86.96,194.3l.82.383a.536.536,0,0,1-.621.176.483.483,0,0,1-.2-.559Z" transform="translate(-69.109 -127.219)" opacity="0.3"/>
      <path id="Path_2344" data-name="Path 2344" d="M87.471,195.13a.471.471,0,0,1-.283-.027.44.44,0,0,1-.222-.433.506.506,0,0,1,.326.115A.517.517,0,0,1,87.471,195.13Z" transform="translate(-69.126 -127.447)" fill="#f28f8f"/>
      <path id="Path_2345" data-name="Path 2345" d="M86.117,188.134a.31.31,0,1,0,.337-.276A.31.31,0,0,0,86.117,188.134Z" transform="translate(-68.603 -123.244)" fill="#263238"/>
      <path id="Path_2346" data-name="Path 2346" d="M92.9,188.554a.31.31,0,1,0,.337-.276A.31.31,0,0,0,92.9,188.554Z" transform="translate(-72.786 -123.503)" fill="#263238"/>
      <path id="Path_2347" data-name="Path 2347" d="M94,185.786l.636.54a.433.433,0,0,0-.084-.494.521.521,0,0,0-.552-.046Z" transform="translate(-73.468 -121.931)" fill="#263238"/>
      <path id="Path_2348" data-name="Path 2348" d="M85.93,184.886l-.732.383a.433.433,0,0,1,.18-.467A.529.529,0,0,1,85.93,184.886Z" transform="translate(-68.029 -121.333)" fill="#263238"/>
      <g id="Group_3586" data-name="Group 3586" transform="translate(28.906 48.92)" opacity="0.5">
        <path id="Path_2349" data-name="Path 2349" d="M126.709,169.79l0,.858-10.8,6.206V176Z" transform="translate(-115.891 -161.018)" fill="#fff"/>
        <path id="Path_2350" data-name="Path 2350" d="M128.756,180.5l0,.858-12.81,7.366v-.858Z" transform="translate(-115.916 -167.625)" fill="#fff"/>
        <path id="Path_2351" data-name="Path 2351" d="M130.655,173.05l0,.854-14.725,8.473,0-.858Z" transform="translate(-115.903 -163.029)" fill="#fff"/>
        <path id="Path_2352" data-name="Path 2352" d="M133.657,154.73l0,.854-17.767,10.228,0-.854Z" transform="translate(-115.879 -151.727)" fill="#fff"/>
        <path id="Path_2353" data-name="Path 2353" d="M135.788,146.89l0,.858-19.908,11.465,0-.858Z" transform="translate(-115.872 -146.89)" fill="#fff"/>
        <path id="Path_2354" data-name="Path 2354" d="M126.119,152.87l.008,1.716-10.262,5.926,0-1.72Z" transform="translate(-115.86 -150.579)" fill="#fff"/>
      </g>
      <path id="Path_2355" data-name="Path 2355" d="M193.947,110.51l.008,2-11.1,6.424-.008-2Z" transform="translate(-128.282 -75.526)" fill="#76ba1b"/>
      <path id="Path_2356" data-name="Path 2356" d="M215.341,86.95l0,1.222-32.461,18.675,0-1.222Z" transform="translate(-128.301 -60.991)" fill="#76ba1b"/>
      <g id="Group_3587" data-name="Group 3587" transform="translate(54.568 25.959)" opacity="0.3">
        <path id="Path_2357" data-name="Path 2357" d="M193.947,110.51l.008,2-11.1,6.424-.008-2Z" transform="translate(-182.85 -101.485)" fill="#fff"/>
        <path id="Path_2358" data-name="Path 2358" d="M215.341,86.95l0,1.222-32.461,18.675,0-1.222Z" transform="translate(-182.869 -86.95)" fill="#fff"/>
        <path id="Path_2359" data-name="Path 2359" d="M212.989,109.48l0,1.226-30.059,17.384,0-1.222Z" transform="translate(-182.899 -100.849)" fill="#fff"/>
        <path id="Path_2360" data-name="Path 2360" d="M215.375,99.73l0,1.226L182.914,119.63l0-1.226Z" transform="translate(-182.887 -94.834)" fill="#fff"/>
        <path id="Path_2361" data-name="Path 2361" d="M207.995,104.38l0,1.222-25.1,14.445v-1.222Z" transform="translate(-182.881 -97.703)" fill="#fff"/>
      </g>
      <g id="Group_3589" data-name="Group 3589" transform="translate(9.979 83.756)" opacity="0.5">
        <path id="Path_2362" data-name="Path 2362" d="M73.529,240.79l0,1.831-7.079,4.087,0-1.831Z" transform="translate(-66.45 -239.656)" fill="#fff"/>
        <path id="Path_2363" data-name="Path 2363" d="M80.59,237.83l0,.862L66.47,246.844v-.862Z" transform="translate(-66.462 -237.83)" fill="#fff"/>
        <path id="Path_2364" data-name="Path 2364" d="M80.6,242.33l0,.862-14.12,8.152,0-.862Z" transform="translate(-66.468 -240.606)" fill="#fff"/>
        <g id="Group_3588" data-name="Group 3588" transform="translate(0.031 8.78)">
          <path id="Path_2365" data-name="Path 2365" d="M80.73,288.16l0,.862-14.12,8.152,0-.862Z" transform="translate(-66.579 -277.66)" fill="#fff"/>
          <path id="Path_2366" data-name="Path 2366" d="M80.72,283.66l0,.862L66.6,292.674l0-.862Z" transform="translate(-66.573 -274.884)" fill="#fff"/>
          <path id="Path_2367" data-name="Path 2367" d="M72.713,288.05l.008,1.827-6.137,3.543,0-1.831Z" transform="translate(-66.561 -277.592)" fill="#fff"/>
          <path id="Path_2368" data-name="Path 2368" d="M78.167,273.52l0,.862-11.607,6.7,0-.862Z" transform="translate(-66.549 -268.628)" fill="#fff"/>
          <path id="Path_2369" data-name="Path 2369" d="M80.67,265.24v.862l-14.12,8.152v-.862Z" transform="translate(-66.542 -263.52)" fill="#fff"/>
          <path id="Path_2370" data-name="Path 2370" d="M80.65,260.75l0,.862-14.12,8.152,0-.862Z" transform="translate(-66.53 -260.75)" fill="#fff"/>
        </g>
        <path id="Path_2371" data-name="Path 2371" d="M76.527,259.28l0,1.831L66.518,266.9l-.008-1.835Z" transform="translate(-66.487 -251.063)" fill="#fff"/>
        <path id="Path_2372" data-name="Path 2372" d="M73.55,257.47l0,.862-7.06,4.076,0-.862Z" transform="translate(-66.475 -249.947)" fill="#fff"/>
        <path id="Path_2373" data-name="Path 2373" d="M70.432,308.19l0,.862-3.812,2.2,0-.858Z" transform="translate(-66.555 -281.237)" fill="#fff"/>
      </g>
      <path id="Path_2374" data-name="Path 2374" d="M143.771,211.02l-5.757,10.933-1.628,3.1,1.122-3.486-3.172-2.463-3.536,7.018.015,4.287,18.54-10.7-.012-4.29Z" transform="translate(-96.171 -137.534)" fill="#76ba1b"/>
      <path id="Path_2375" data-name="Path 2375" d="M146.226,219.935A3.486,3.486,0,0,0,147.8,217.2c0-1-.712-1.406-1.586-.9a3.486,3.486,0,0,0-1.578,2.731C144.644,220.031,145.356,220.437,146.226,219.935Z" transform="translate(-104.709 -140.654)" fill="#76ba1b"/>
      <g id="Group_3590" data-name="Group 3590" transform="translate(34.629 73.486)" opacity="0.3">
        <path id="Path_2376" data-name="Path 2376" d="M143.771,211.02l-5.757,10.933-1.628,3.1,1.122-3.486-3.172-2.463-3.536,7.018.015,4.287,18.54-10.7-.012-4.29Z" transform="translate(-130.8 -211.02)" fill="#fff"/>
        <path id="Path_2377" data-name="Path 2377" d="M146.226,219.935A3.486,3.486,0,0,0,147.8,217.2c0-1-.712-1.406-1.586-.9a3.486,3.486,0,0,0-1.578,2.731C144.644,220.031,145.356,220.437,146.226,219.935Z" transform="translate(-139.338 -214.139)" fill="#fff"/>
      </g>
      <path id="Path_2378" data-name="Path 2378" d="M229.437,162.5l-5.754,10.929-1.628,3.1,1.122-3.486L220,170.575l-3.532,7.018.011,4.29,18.544-10.707-.015-4.287Z" transform="translate(-149.023 -107.601)" fill="#76ba1b"/>
      <path id="Path_2379" data-name="Path 2379" d="M231.9,171.421a3.471,3.471,0,0,0,1.574-2.727c0-1-.712-1.41-1.586-.9a3.448,3.448,0,0,0-1.574,2.727C230.31,171.521,231.023,171.927,231.9,171.421Z" transform="translate(-157.562 -110.73)" fill="#76ba1b"/>
      <g id="Group_3591" data-name="Group 3591" transform="translate(67.447 54.899)" opacity="0.5">
        <path id="Path_2380" data-name="Path 2380" d="M229.437,162.5l-5.754,10.929-1.628,3.1,1.122-3.486L220,170.575l-3.532,7.018.011,4.29,18.544-10.707-.015-4.287Z" transform="translate(-216.47 -162.5)" fill="#fff"/>
        <path id="Path_2381" data-name="Path 2381" d="M231.9,171.421a3.471,3.471,0,0,0,1.574-2.727c0-1-.712-1.41-1.586-.9a3.448,3.448,0,0,0-1.574,2.727C230.31,171.521,231.023,171.927,231.9,171.421Z" transform="translate(-225.008 -165.629)" fill="#fff"/>
      </g>
      <path id="Path_2382" data-name="Path 2382" d="M212.989,109.48l0,1.226-30.059,17.384,0-1.222Z" transform="translate(-128.331 -74.891)" fill="#76ba1b"/>
      <path id="Path_2383" data-name="Path 2383" d="M215.375,99.73l0,1.226L182.914,119.63l0-1.226Z" transform="translate(-128.319 -68.876)" fill="#76ba1b"/>
      <path id="Path_2384" data-name="Path 2384" d="M207.995,104.38l0,1.222-25.1,14.445v-1.222Z" transform="translate(-128.313 -71.745)" fill="#76ba1b"/>
    </g>
    <g id="freepik--Character--inject-49" transform="translate(77.258 72.628)">
      <path id="Path_2385" data-name="Path 2385" d="M328.292,339.125h0l1,.64h.023a1.149,1.149,0,0,0,1.13-.119,3.536,3.536,0,0,0,1.6-2.773,1.122,1.122,0,0,0-.452-1.015h0l-.295-.188,9.611-3.9a.709.709,0,0,0,.364.559l-.866,7.558v1.027a3.574,3.574,0,0,0-1.325,2.578,1.1,1.1,0,0,0,.5,1.042h0l1.007.64h.019a1.149,1.149,0,0,0,1.13-.115,3.524,3.524,0,0,0,1.6-2.773,1.149,1.149,0,0,0-.448-1.015h0l-1.019-.644h0a.858.858,0,0,0-.532-.119l1.046-7.891h0a2.356,2.356,0,0,0,.7-.115h0l9.1,4.919-.521.329h0a1.122,1.122,0,0,0-.452,1.015,3.536,3.536,0,0,0,1.6,2.773,1.149,1.149,0,0,0,1.149.119H354l1-.64h0a1.092,1.092,0,0,0,.5-1.042,3.566,3.566,0,0,0-1.3-2.563v-1.586l-8.477-5.037,4.47-1.126a3.23,3.23,0,0,0-.475,1.59,1.092,1.092,0,0,0,.5,1.042h0l1,.64h.019a1.126,1.126,0,0,0,1.149-.119,3.532,3.532,0,0,0,1.6-2.77,1.149,1.149,0,0,0-.452-1.015h0l-1.107-.628h0a.939.939,0,0,0-.766-.073v-.257l-.544-.184-7.278.383v-1.283a2.042,2.042,0,0,0,.226-.107,1.226,1.226,0,0,0,.72-1V317.47h-4.85v8.4a1.207,1.207,0,0,0,.709,1,2.275,2.275,0,0,0,.237.115v1.076l-5.248-1.149-.249.1v.965h0l-1.019.647h0a1.149,1.149,0,0,0-.448,1.015,3.471,3.471,0,0,0,.789,2.046l-5.068,2.3v1.2a1.785,1.785,0,0,0-.211.1,3.528,3.528,0,0,0-1.6,2.77A1.092,1.092,0,0,0,328.292,339.125Zm3.042-5.432,3.674-1.636h0l-4.98,2.21Zm6.512-4.129.743.383-.513.23a4,4,0,0,0-.264-.628Zm3.065-.134-2.766,1.23h0Z" transform="translate(-264.488 -256.65)" fill="#e0e0e0"/>
      <path id="Path_2386" data-name="Path 2386" d="M387.873,347.839l.8-1.375-1.042-.647h0a1.119,1.119,0,0,0-1.149.1,3.516,3.516,0,0,0-1.6,2.77,1.092,1.092,0,0,0,.5,1.042h0l1.027.651.847-1.452A3.8,3.8,0,0,0,387.873,347.839Z" transform="translate(-299.695 -274.067)" fill="#37474f"/>
      <path id="Path_2387" data-name="Path 2387" d="M389.181,347.644c.885-.513,1.609-.1,1.613.916a3.532,3.532,0,0,1-1.6,2.77c-.885.513-1.609.1-1.613-.916A3.532,3.532,0,0,1,389.181,347.644Z" transform="translate(-301.359 -275.128)" fill="#455a64"/>
      <path id="Path_2388" data-name="Path 2388" d="M345.624,346.784l-.8-1.379,1.046-.663h0a1.111,1.111,0,0,1,1.149.1,3.543,3.543,0,0,1,1.6,2.77,1.107,1.107,0,0,1-.5,1.046h0l-1.027.655-.847-1.452A3.892,3.892,0,0,1,345.624,346.784Z" transform="translate(-274.979 -273.403)" fill="#37474f"/>
      <path id="Path_2389" data-name="Path 2389" d="M345.259,346.566c-.885-.509-1.609-.1-1.609.915a3.532,3.532,0,0,0,1.6,2.773c.889.509,1.609.1,1.613-.919A3.528,3.528,0,0,0,345.259,346.566Z" transform="translate(-274.257 -274.465)" fill="#455a64"/>
      <path id="Path_2390" data-name="Path 2390" d="M361.93,341.35h2.98v5.133h0a.766.766,0,0,1-.441.609,2.321,2.321,0,0,1-2.107,0,.766.766,0,0,1-.433-.609h0Z" transform="translate(-285.535 -271.382)" fill="#ebebeb"/>
      <path id="Path_2391" data-name="Path 2391" d="M377.513,345.1v1.226l-7.8,1.965V345.7Z" transform="translate(-290.335 -273.696)" fill="#e0e0e0"/>
      <path id="Path_2392" data-name="Path 2392" d="M377.513,344.8l-.544-.184L369.71,345v.4Z" transform="translate(-290.335 -273.4)" fill="#494848"/>
      <path id="Path_2393" data-name="Path 2393" d="M390.834,370.582l-.8-1.379,1.042-.663h0a1.1,1.1,0,0,1,1.149.1,3.516,3.516,0,0,1,1.6,2.77,1.092,1.092,0,0,1-.5,1.042h0l-1,.663-.847-1.452A3.8,3.8,0,0,1,390.834,370.582Z" transform="translate(-302.871 -288.084)" fill="#37474f"/>
      <path id="Path_2394" data-name="Path 2394" d="M390.463,370.364c-.889-.513-1.609-.1-1.613.916a3.535,3.535,0,0,0,1.6,2.773c.885.509,1.609.1,1.609-.919a3.524,3.524,0,0,0-1.6-2.77Z" transform="translate(-302.143 -289.145)" fill="#455a64"/>
      <path id="Path_2395" data-name="Path 2395" d="M360.172,379.714l.8-1.379-1.046-.663h0a1.111,1.111,0,0,0-1.149.1,3.524,3.524,0,0,0-1.6,2.77,1.1,1.1,0,0,0,.5,1.042h0l1.027.655.847-1.452A3.807,3.807,0,0,0,360.172,379.714Z" transform="translate(-282.601 -293.718)" fill="#37474f"/>
      <path id="Path_2396" data-name="Path 2396" d="M361.491,379.494c.885-.513,1.605-.1,1.609.916a3.524,3.524,0,0,1-1.6,2.773c-.885.509-1.605.1-1.609-.919A3.512,3.512,0,0,1,361.491,379.494Z" transform="translate(-284.276 -294.778)" fill="#455a64"/>
      <path id="Path_2397" data-name="Path 2397" d="M330.782,365.6l.8-1.379-1.027-.663h0a1.1,1.1,0,0,0-1.149.1,3.528,3.528,0,0,0-1.6,2.77,1.092,1.092,0,0,0,.5,1.042h0l1.027.655.847-1.452A3.8,3.8,0,0,0,330.782,365.6Z" transform="translate(-264.481 -285.011)" fill="#37474f"/>
      <path id="Path_2398" data-name="Path 2398" d="M332.077,365.383c.889-.513,1.609-.1,1.613.916a3.535,3.535,0,0,1-1.6,2.773c-.885.509-1.609.1-1.609-.919A3.517,3.517,0,0,1,332.077,365.383Z" transform="translate(-266.132 -286.073)" fill="#455a64"/>
      <path id="Path_2399" data-name="Path 2399" d="M378.15,355.967v1.984l-10.45-5.646V349.57Z" transform="translate(-289.095 -276.453)" fill="#e0e0e0"/>
      <path id="Path_2400" data-name="Path 2400" d="M378.755,355.383,368.3,349.17l-.6.153,10.45,6.4Z" transform="translate(-289.095 -276.207)" fill="#494848"/>
      <path id="Path_2401" data-name="Path 2401" d="M395.585,367.37l-.605.341v-1.984l.605-.337Z" transform="translate(-305.925 -286.213)" fill="#f0f0f0"/>
      <path id="Path_2402" data-name="Path 2402" d="M363.816,349.57l-1.276,10.1v1.808l1.276-9.063Z" transform="translate(-285.911 -276.453)" fill="#e0e0e0"/>
      <rect id="Rectangle_380" data-name="Rectangle 380" width="0.735" height="1.804" transform="translate(75.893 83.218)" fill="#f0f0f0"/>
      <path id="Path_2403" data-name="Path 2403" d="M360.62,359.671l1.157-10.1h.854l-1.276,10.1Z" transform="translate(-284.727 -276.453)" fill="#494848"/>
      <path id="Path_2404" data-name="Path 2404" d="M333.57,353.528v1.9l10.868-4.413V348.69Z" transform="translate(-268.039 -275.911)" fill="#e0e0e0"/>
      <path id="Path_2405" data-name="Path 2405" d="M332.48,362.5l.418.28v-1.9l-.418-.272Z" transform="translate(-267.366 -283.264)" fill="#f0f0f0"/>
      <path id="Path_2406" data-name="Path 2406" d="M334.192,352.121l-1.295.575-.418-.272,11.285-5.083v.517Z" transform="translate(-267.366 -275.078)" fill="#494848"/>
      <path id="Path_2407" data-name="Path 2407" d="M347.58,342.41v1.241l3.168,1.7,2.333-1.05v-.509Z" transform="translate(-276.682 -272.036)" fill="#e0e0e0"/>
      <path id="Path_2408" data-name="Path 2408" d="M347.58,342.243l.249-.1,5.252,1.134v.349Z" transform="translate(-276.682 -271.87)" fill="#494848"/>
      <path id="Path_2409" data-name="Path 2409" d="M359.454,317.47h4.873v8.4h0a1.226,1.226,0,0,1-.72,1,3.789,3.789,0,0,1-3.448,0,1.207,1.207,0,0,1-.709-1h0Z" transform="translate(-284.005 -256.65)" fill="#e0e0e0"/>
      <path id="Path_2410" data-name="Path 2410" d="M308.263,242.45a3.2,3.2,0,0,0,1.053,1l19.854,10.546a4.65,4.65,0,0,0,4.279.042l13.909-7.045a7.045,7.045,0,0,0,3.616-4.444l6.715-24.8c.111.034.222.073.337.1a2.715,2.715,0,0,0,.873.134h.042l-7.968,29.423a7.045,7.045,0,0,1-3.616,4.444L333.45,258.9a4.65,4.65,0,0,1-4.279-.042l-19.854-10.546C307.336,247.177,307.148,244.143,308.263,242.45Z" transform="translate(-252.006 -195.129)" fill="#76ba1b"/>
      <path id="Path_2411" data-name="Path 2411" d="M308.263,242.45a3.2,3.2,0,0,0,1.053,1l19.854,10.546a4.65,4.65,0,0,0,4.279.042l13.909-7.045a7.045,7.045,0,0,0,3.616-4.444l6.715-24.8c.111.034.222.073.337.1a2.715,2.715,0,0,0,.873.134h.042l-7.968,29.423a7.045,7.045,0,0,1-3.616,4.444L333.45,258.9a4.65,4.65,0,0,1-4.279-.042l-19.854-10.546C307.336,247.177,307.148,244.143,308.263,242.45Z" transform="translate(-252.006 -195.129)" opacity="0.3"/>
      <path id="Path_2412" data-name="Path 2412" d="M310.287,268l14.388-7.382,18.947,9.749c-.617.149-1.245.272-1.866.383a14.042,14.042,0,0,0-4.7,1.559,5.028,5.028,0,0,0-2.57,4.022l.506,3.907h0l-.441.226a4.65,4.65,0,0,1-4.279-.042l-19.854-10.546a3.2,3.2,0,0,1-1.053-1A2.682,2.682,0,0,1,310.287,268Z" transform="translate(-253.103 -221.577)" fill="#76ba1b"/>
      <path id="Path_2413" data-name="Path 2413" d="M310.287,268l14.388-7.382,18.947,9.749c-.617.149-1.245.272-1.866.383a14.042,14.042,0,0,0-4.7,1.559,5.028,5.028,0,0,0-2.57,4.022l.506,3.907h0l-.441.226a4.65,4.65,0,0,1-4.279-.042l-19.854-10.546a3.2,3.2,0,0,1-1.053-1A2.682,2.682,0,0,1,310.287,268Z" transform="translate(-253.103 -221.577)" opacity="0.2"/>
      <path id="Path_2414" data-name="Path 2414" d="M317.24,206.831s11.549,3.4,14.606.383c3.8-3.731,2.21-13.135,1.754-16.813s0-6.229,1.019-7.305,2.494-2.658,7.278-.678c-4.838,2.49-5.463,14.327-3.934,19.081-3.792,3.9-3.532,9.96-3.6,12.76,0,0-9.868,2.409-15.02,5.24Z" transform="translate(-257.964 -172.749)" fill="#76ba1b"/>
      <path id="Path_2415" data-name="Path 2415" d="M317.24,206.831s11.549,3.4,14.606.383c3.8-3.731,2.21-13.135,1.754-16.813s0-6.229,1.019-7.305,2.494-2.658,7.278-.678c-4.838,2.49-5.463,14.327-3.934,19.081-3.792,3.9-3.532,9.96-3.6,12.76,0,0-9.868,2.409-15.02,5.24Z" transform="translate(-257.964 -172.749)" fill="#fff" opacity="0.1"/>
      <path id="Path_2416" data-name="Path 2416" d="M313.542,259.757l-2.363-1.276c0-6.512-.962-5.857-2.75-8.4s.954-4.133,3.019-3S314.346,251.613,313.542,259.757Z" transform="translate(-252.171 -212.992)" fill="#76ba1b"/>
      <path id="Path_2417" data-name="Path 2417" d="M313.542,259.757l-2.363-1.276c0-6.512-.962-5.857-2.75-8.4s.954-4.133,3.019-3S314.346,251.613,313.542,259.757Z" transform="translate(-252.171 -212.992)" fill="#fff" opacity="0.2"/>
      <path id="Path_2418" data-name="Path 2418" d="M378.608,184s12.936,5.6,19.238,8.719l-.46,2.3-20.636-9.366A5.5,5.5,0,0,1,378.608,184Z" transform="translate(-294.678 -174.308)" fill="#76ba1b"/>
      <path id="Path_2419" data-name="Path 2419" d="M378.608,184s12.936,5.6,19.238,8.719l-.46,2.3-20.636-9.366A5.5,5.5,0,0,1,378.608,184Z" transform="translate(-294.678 -174.308)" fill="#fff" opacity="0.1"/>
      <path id="Path_2420" data-name="Path 2420" d="M365.525,205.713c-1.3-4.057-1.038-13.273,2.076-17.433l20.636,9.366-4.716,23.639-7.474,4.455-14.128-7.278C361.993,215.665,361.732,209.624,365.525,205.713Z" transform="translate(-285.529 -176.948)" fill="#76ba1b"/>
      <path id="Path_2421" data-name="Path 2421" d="M365.525,205.713c-1.3-4.057-1.038-13.273,2.076-17.433l20.636,9.366-4.716,23.639-7.474,4.455-14.128-7.278C361.993,215.665,361.732,209.624,365.525,205.713Z" transform="translate(-285.529 -176.948)" opacity="0.1"/>
      <path id="Path_2422" data-name="Path 2422" d="M403.646,246.023c-.349-.2-.636-.038-.636.383a1.39,1.39,0,0,0,.632,1.092c.349.2.636.042.636-.36A1.4,1.4,0,0,0,403.646,246.023Z" transform="translate(-310.879 -212.52)" fill="#76ba1b"/>
      <path id="Path_2423" data-name="Path 2423" d="M395.31,241.123c-.352-.2-.636-.038-.64.383a1.4,1.4,0,0,0,.632,1.1c.352.2.636.038.636-.364A1.391,1.391,0,0,0,395.31,241.123Z" transform="translate(-305.733 -209.497)" fill="#76ba1b"/>
      <path id="Path_2424" data-name="Path 2424" d="M386.976,236.229c-.349-.2-.636-.042-.636.36a1.4,1.4,0,0,0,.632,1.1c.349.2.636.038.636-.364a1.39,1.39,0,0,0-.632-1.092Z" transform="translate(-300.594 -206.475)" fill="#76ba1b"/>
      <path id="Path_2425" data-name="Path 2425" d="M378.636,231.329c-.349-.2-.632-.042-.636.36a1.4,1.4,0,0,0,.632,1.1c.352.2.636.038.636-.383a1.375,1.375,0,0,0-.632-1.073Z" transform="translate(-295.449 -203.452)" fill="#76ba1b"/>
      <g id="Group_3592" data-name="Group 3592" transform="translate(82.551 27.789)" opacity="0.2">
        <path id="Path_2426" data-name="Path 2426" d="M403.646,246.023c-.349-.2-.636-.038-.636.383a1.39,1.39,0,0,0,.632,1.092c.349.2.636.042.636-.36A1.4,1.4,0,0,0,403.646,246.023Z" transform="translate(-393.43 -240.308)" fill="#fff"/>
        <path id="Path_2427" data-name="Path 2427" d="M395.31,241.123c-.352-.2-.636-.038-.64.383a1.4,1.4,0,0,0,.632,1.1c.352.2.636.038.636-.364A1.391,1.391,0,0,0,395.31,241.123Z" transform="translate(-388.284 -237.285)" fill="#fff"/>
        <path id="Path_2428" data-name="Path 2428" d="M386.976,236.229c-.349-.2-.636-.042-.636.36a1.4,1.4,0,0,0,.632,1.1c.349.2.636.038.636-.364a1.39,1.39,0,0,0-.632-1.092Z" transform="translate(-383.145 -234.264)" fill="#fff"/>
        <path id="Path_2429" data-name="Path 2429" d="M378.636,231.329c-.349-.2-.632-.042-.636.36a1.4,1.4,0,0,0,.632,1.1c.352.2.636.038.636-.383a1.375,1.375,0,0,0-.632-1.073Z" transform="translate(-378 -231.241)" fill="#fff"/>
      </g>
      <path id="Path_2430" data-name="Path 2430" d="M377.535,242.379a13.961,13.961,0,0,1,4.7-1.559c.621-.126,1.249-.249,1.866-.383a11.567,11.567,0,0,0,2.884-1.053,10.074,10.074,0,0,0,4.547-6.129,22.4,22.4,0,0,0,.6-7.761,77.181,77.181,0,0,1-.383-7.807,6.451,6.451,0,0,1,1.3-4.256,5.015,5.015,0,0,1,4.313-1.3,8.6,8.6,0,0,1,1.5.349l.686.8-.26.969-6.715,24.8a7.037,7.037,0,0,1-3.084,4.137c-.172.107-.349.211-.532.306l-13.469,6.819-.506-3.907A5.034,5.034,0,0,1,377.535,242.379Z" transform="translate(-293.586 -191.63)" fill="#76ba1b"/>
      <path id="Path_2431" data-name="Path 2431" d="M377.535,242.379a13.961,13.961,0,0,1,4.7-1.559c.621-.126,1.249-.249,1.866-.383a11.567,11.567,0,0,0,2.884-1.053,10.074,10.074,0,0,0,4.547-6.129,22.4,22.4,0,0,0,.6-7.761,77.181,77.181,0,0,1-.383-7.807,6.451,6.451,0,0,1,1.3-4.256,5.015,5.015,0,0,1,4.313-1.3,8.6,8.6,0,0,1,1.5.349l.686.8-.26.969-6.715,24.8a7.037,7.037,0,0,1-3.084,4.137c-.172.107-.349.211-.532.306l-13.469,6.819-.506-3.907A5.034,5.034,0,0,1,377.535,242.379Z" transform="translate(-293.586 -191.63)" opacity="0.3"/>
      <path id="Path_2432" data-name="Path 2432" d="M381.6,236.073c4.926-1.4,9.768-1.586,11.549-5.125s1.915-8.427,1.019-16.912a13.022,13.022,0,0,1,.08-3.287c.525-3.179,2.436-4.535,4.635-4.57a8.581,8.581,0,0,1,5.892,2.229,2.683,2.683,0,0,1,.732.961,1.149,1.149,0,0,1-.146,1.149,1.126,1.126,0,0,1-.766.341h-.042a2.717,2.717,0,0,1-.873-.134c-.115-.031-.226-.069-.337-.1-.605-.188-1.2-.414-1.812-.567a3.957,3.957,0,0,0-2.214,0,2.356,2.356,0,0,0-1.425,1.59c-2.076,6.784.556,14.074-1.781,19.678-1.915,5.095-8.516,7.209-13.174,8.722h0a2.858,2.858,0,0,0,1.149-.847,1.961,1.961,0,0,0-.184-2.364A2.574,2.574,0,0,0,381.6,236.073Z" transform="translate(-297.67 -187.99)" fill="#76ba1b"/>
      <path id="Path_2433" data-name="Path 2433" d="M381.6,236.073c4.926-1.4,9.768-1.586,11.549-5.125s1.915-8.427,1.019-16.912a13.022,13.022,0,0,1,.08-3.287c.525-3.179,2.436-4.535,4.635-4.57a8.581,8.581,0,0,1,5.892,2.229,2.683,2.683,0,0,1,.732.961,1.149,1.149,0,0,1-.146,1.149,1.126,1.126,0,0,1-.766.341h-.042a2.717,2.717,0,0,1-.873-.134c-.115-.031-.226-.069-.337-.1-.605-.188-1.2-.414-1.812-.567a3.957,3.957,0,0,0-2.214,0,2.356,2.356,0,0,0-1.425,1.59c-2.076,6.784.556,14.074-1.781,19.678-1.915,5.095-8.516,7.209-13.174,8.722h0a2.858,2.858,0,0,0,1.149-.847,1.961,1.961,0,0,0-.184-2.364A2.574,2.574,0,0,0,381.6,236.073Z" transform="translate(-297.67 -187.99)" fill="#fff" opacity="0.1"/>
      <path id="Path_2434" data-name="Path 2434" d="M371.177,287.64a7.339,7.339,0,0,1,1.26-2.206,3.788,3.788,0,0,1,2.157-1.279,2.574,2.574,0,0,1,2.329.766,1.961,1.961,0,0,1,.184,2.363,2.858,2.858,0,0,1-1.149.847,10.944,10.944,0,0,0-1.084.533,4.6,4.6,0,0,0-1.862,2.632,13.855,13.855,0,0,0-.429,3.256l-.019.211-2.3-1.279A14.173,14.173,0,0,1,371.177,287.64Z" transform="translate(-290.664 -236.071)" fill="#76ba1b"/>
      <path id="Path_2435" data-name="Path 2435" d="M371.177,287.64a7.339,7.339,0,0,1,1.26-2.206,3.788,3.788,0,0,1,2.157-1.279,2.574,2.574,0,0,1,2.329.766,1.961,1.961,0,0,1,.184,2.363,2.858,2.858,0,0,1-1.149.847,10.944,10.944,0,0,0-1.084.533,4.6,4.6,0,0,0-1.862,2.632,13.855,13.855,0,0,0-.429,3.256l-.019.211-2.3-1.279A14.173,14.173,0,0,1,371.177,287.64Z" transform="translate(-290.664 -236.071)" fill="#fff" opacity="0.2"/>
      <path id="Path_2436" data-name="Path 2436" d="M359.833,194.156a2.681,2.681,0,0,0-.728-.946,8.493,8.493,0,0,0-3.972-2.019c-6.313-3.13-19.2-8.707-19.2-8.707a4.013,4.013,0,0,0-.487.295,4.013,4.013,0,0,1,.487-.295c-4.781-1.98-6.255-.383-7.278.678s-1.471,3.624-1.019,7.305,2.046,13.082-1.754,16.813c-3.065,3-14.606-.383-14.606-.383h0c-2.065-1.13-4.811.456-3.019,3s2.75,1.915,2.75,8.4l-1.823.935a2.682,2.682,0,0,0-.927.9c-1.115,1.693-.927,4.727,1.053,5.857l19.854,10.546a4.65,4.65,0,0,0,4.279.042l13.909-7.045a7.045,7.045,0,0,0,3.616-4.444l7.968-29.423a1.126,1.126,0,0,0,.766-.341,1.149,1.149,0,0,0,.134-1.172Zm-9.366,27.359c-.05.1-.107.2-.161.291.057-.1.115-.192.165-.291Zm-.337.594c-.069.107-.142.211-.215.314.077-.1.149-.207.218-.314Zm-15.246-38.885c-.126.115-.249.238-.383.364C334.635,183.461,334.757,183.339,334.884,183.224Zm.448-.383c-.123.092-.241.184-.36.287.119-.092.238-.184.345-.26Zm-1.26,1.272c-.092.123-.184.257-.272.383a6.754,6.754,0,0,1,.667-.87c-.134.169-.268.329-.395.5Zm-1.82,3.923a23.973,23.973,0,0,0-.728,3.551A23.973,23.973,0,0,1,332.252,188.035Zm1.532-3.5c-.088.138-.172.276-.257.421C333.608,184.813,333.692,184.675,333.784,184.537Zm-.26.425a13.833,13.833,0,0,0-1.268,3.065,13.756,13.756,0,0,1,1.264-3.065Zm-2.011,6.692c-.023.184-.042.364-.065.544.038-.18.038-.36.061-.544Zm-.077.663c-.019.172-.034.349-.05.525.012-.176.027-.352.046-.525Zm-.061.644c0,.18-.031.36-.042.536.008-.176.023-.356.038-.536Zm-.042.567c-.038.559-.061,1.115-.065,1.663,0-.548.023-1.1.061-1.663Zm-.069,1.869Zm.605,5.727a.746.746,0,0,0-.038-.153A.746.746,0,0,1,331.869,201.124Zm-.115-.471a1.232,1.232,0,0,0-.042-.192C331.724,200.527,331.739,200.592,331.754,200.653Zm-.107-.5a1.439,1.439,0,0,0-.038-.211C331.62,200.013,331.632,200.082,331.647,200.151Zm-.1-.536-.034-.218Zm-.08-.575a.513.513,0,0,0-.031-.211,1.238,1.238,0,0,0,.046.211Zm-.088-.732a1.127,1.127,0,0,0-.019-.253C331.371,198.14,331.375,198.224,331.383,198.309Zm-.054-.647v-.3A1.556,1.556,0,0,0,331.329,197.661Zm-.034-.613v-.337a1.89,1.89,0,0,0,0,.329Zm-.023-.628v-.36C331.264,196.183,331.268,196.3,331.272,196.42Zm8.178,23.6h0l-11.059-5.708h0Zm8.891,4c-.149.111-.306.222-.467.322A4.72,4.72,0,0,0,348.341,224.024Zm.107-.077c.134-.1.26-.211.383-.322a2.521,2.521,0,0,1-.372.322Zm.533-.452c.111-.107.218-.215.322-.326a3.5,3.5,0,0,1-.31.326Zm.766-.835c-.088.111-.176.218-.268.326C349.571,222.879,349.659,222.771,349.747,222.66Zm.9-1.532c.034-.08.073-.161.1-.241-.031.073-.069.153-.111.234Z" transform="translate(-252 -172.792)" opacity="0.1"/>
      <path id="Path_2437" data-name="Path 2437" d="M326.838,284.086a11.166,11.166,0,0,0,5.363-4.942,9.409,9.409,0,0,0,1.306-6.547l-17.836-7.018c-.555,5.309-5.432,8.784-5.432,8.784Z" transform="translate(-253.646 -224.637)" fill="#37474f"/>
      <path id="Path_2438" data-name="Path 2438" d="M302.77,368.54c0,1.437.05,3.54.05,3.54l.958.054a2.321,2.321,0,0,1,2.061,1.532l.023.061a.912.912,0,0,0,1.122.559h0a.912.912,0,0,0,.548-.475l.46-4.712Z" transform="translate(-249.037 -288.157)" fill="#ffa8a7"/>
      <path id="Path_2439" data-name="Path 2439" d="M286.375,397.566c-2.521,1.076-6.374,1.287-7.975-1.283v.693c1.6,2.57,5.455,2.36,7.975,1.287s1.965-2.835,4.214-3.777a6.129,6.129,0,0,0,2.2-1.391c0-.2.042-.463.077-.766a7.592,7.592,0,0,1-2.279,1.452C288.341,394.728,288.892,396.482,286.375,397.566Z" transform="translate(-234.003 -302.833)" fill="#fafafa"/>
      <path id="Path_2440" data-name="Path 2440" d="M292.851,381.037a3.623,3.623,0,0,1,0-1.486.8.8,0,0,0-.115-.659l-.2-.2-.077.766a.9.9,0,0,1-1.67-.084l-.023-.061a2.321,2.321,0,0,0-2.061-1.532l-.977-.054a.694.694,0,0,0-.686.429,15.981,15.981,0,0,1-5.478,6.347c-1.433-.031-3.2,1.149-3.2,2.6v.146c1.6,2.57,5.455,2.36,7.975,1.283s1.965-2.831,4.214-3.777a7.593,7.593,0,0,0,2.279-1.452A8.046,8.046,0,0,0,292.851,381.037Z" transform="translate(-233.978 -293.824)" fill="#76ba1b"/>
      <path id="Path_2441" data-name="Path 2441" d="M292.851,381.037a3.623,3.623,0,0,1,0-1.486.8.8,0,0,0-.115-.659l-.2-.2-.077.766a.9.9,0,0,1-1.67-.084l-.023-.061a2.321,2.321,0,0,0-2.061-1.532l-.977-.054a.694.694,0,0,0-.686.429,15.981,15.981,0,0,1-5.478,6.347c-1.433-.031-3.2,1.149-3.2,2.6v.146c1.6,2.57,5.455,2.36,7.975,1.283s1.965-2.831,4.214-3.777a7.593,7.593,0,0,0,2.279-1.452A8.046,8.046,0,0,0,292.851,381.037Z" transform="translate(-233.978 -293.824)" opacity="0.2"/>
      <path id="Path_2442" data-name="Path 2442" d="M292.851,381.037a3.623,3.623,0,0,1,0-1.486.8.8,0,0,0-.115-.659l-.2-.2-.077.766a.9.9,0,0,1-1.67-.084l-.023-.061a2.321,2.321,0,0,0-2.061-1.532l-.977-.054a.694.694,0,0,0-.686.429,15.981,15.981,0,0,1-5.478,6.347c-1.433-.031-3.2,1.149-3.2,2.6v.146c1.6,2.57,5.455,2.36,7.975,1.283s1.965-2.831,4.214-3.777a7.593,7.593,0,0,0,2.279-1.452A8.046,8.046,0,0,0,292.851,381.037Z" transform="translate(-233.978 -293.824)" fill="#fff" opacity="0.25"/>
      <path id="Path_2443" data-name="Path 2443" d="M298.312,388.557a.322.322,0,0,0,.5-.4,3.647,3.647,0,0,0-3.287-1.444c-.138.169-.272.333-.414.494A3.513,3.513,0,0,1,298.312,388.557Z" transform="translate(-244.311 -299.355)" fill="#fff"/>
      <path id="Path_2444" data-name="Path 2444" d="M300.723,385.6a.322.322,0,0,0,.5-.4,3.831,3.831,0,0,0-3.428-1.479c-.123.18-.249.356-.383.536A3.544,3.544,0,0,1,300.723,385.6Z" transform="translate(-245.73 -297.508)" fill="#fff"/>
      <path id="Path_2445" data-name="Path 2445" d="M295.629,391.393a.31.31,0,0,0,.444.042.314.314,0,0,0,.054-.441,3.651,3.651,0,0,0-3.2-1.452c-.165.172-.329.337-.494.5A3.536,3.536,0,0,1,295.629,391.393Z" transform="translate(-242.658 -301.107)" fill="#fff"/>
      <path id="Path_2446" data-name="Path 2446" d="M281.6,395.469c-1.433-.031-3.2,1.149-3.2,2.6v.146c1.578,2.532,5.34,2.364,7.857,1.329C286.065,396.082,282.744,395.458,281.6,395.469Z" transform="translate(-234.003 -304.77)" fill="#fff"/>
      <path id="Path_2447" data-name="Path 2447" d="M292.67,394.126a.318.318,0,0,0,.5-.383,3.635,3.635,0,0,0-3.206-1.452c-.2.18-.4.349-.6.506A3.528,3.528,0,0,1,292.67,394.126Z" transform="translate(-240.764 -302.802)" fill="#fff"/>
      <path id="Path_2448" data-name="Path 2448" d="M309.574,345.65c-.2,3.183-1.011,5.489-1.636,9.826,0,0-3.808,1.149-6.183-.521l-.1-6.681Z" transform="translate(-248.352 -274.035)" fill="#37474f"/>
      <path id="Path_2449" data-name="Path 2449" d="M265.984,355.85c-.318,1.391-.954,3.245-.954,3.245l.961.054a2.329,2.329,0,0,1,2.061,1.532l.019.061a.9.9,0,0,0,1.122.555h0a.889.889,0,0,0,.548-.475l1.448-3.8Z" transform="translate(-225.754 -280.328)" fill="#ffa8a7"/>
      <path id="Path_2450" data-name="Path 2450" d="M248.505,384.1c-2.521,1.073-6.374,1.283-7.975-1.287v.7c1.6,2.57,5.455,2.36,7.975,1.283s1.965-2.831,4.214-3.777a6.083,6.083,0,0,0,2.2-1.39c0-.2.042-.46.077-.766a7.661,7.661,0,0,1-2.279,1.456C250.471,381.262,251.022,383.02,248.505,384.1Z" transform="translate(-210.639 -294.523)" fill="#fafafa"/>
      <path id="Path_2451" data-name="Path 2451" d="M254.991,367.609a3.562,3.562,0,0,1,0-1.482.8.8,0,0,0-.115-.659l-.038-.054-.241.632a.888.888,0,0,1-.548.475.9.9,0,0,1-1.122-.555l-.019-.061a2.329,2.329,0,0,0-2.061-1.532l-.977-.054a.7.7,0,0,0-.69.433A16,16,0,0,1,243.7,371.1c-1.429-.034-3.2,1.149-3.2,2.6v.142c1.6,2.57,5.455,2.36,7.975,1.287s1.965-2.835,4.214-3.777a7.661,7.661,0,0,0,2.279-1.456A8.169,8.169,0,0,0,254.991,367.609Z" transform="translate(-210.621 -285.551)" fill="#76ba1b"/>
      <path id="Path_2452" data-name="Path 2452" d="M254.991,367.609a3.562,3.562,0,0,1,0-1.482.8.8,0,0,0-.115-.659l-.038-.054-.241.632a.888.888,0,0,1-.548.475.9.9,0,0,1-1.122-.555l-.019-.061a2.329,2.329,0,0,0-2.061-1.532l-.977-.054a.7.7,0,0,0-.69.433A16,16,0,0,1,243.7,371.1c-1.429-.034-3.2,1.149-3.2,2.6v.142c1.6,2.57,5.455,2.36,7.975,1.287s1.965-2.835,4.214-3.777a7.661,7.661,0,0,0,2.279-1.456A8.169,8.169,0,0,0,254.991,367.609Z" transform="translate(-210.621 -285.551)" opacity="0.2"/>
      <path id="Path_2453" data-name="Path 2453" d="M254.991,367.609a3.562,3.562,0,0,1,0-1.482.8.8,0,0,0-.115-.659l-.038-.054-.241.632a.888.888,0,0,1-.548.475.9.9,0,0,1-1.122-.555l-.019-.061a2.329,2.329,0,0,0-2.061-1.532l-.977-.054a.7.7,0,0,0-.69.433A16,16,0,0,1,243.7,371.1c-1.429-.034-3.2,1.149-3.2,2.6v.142c1.6,2.57,5.455,2.36,7.975,1.287s1.965-2.835,4.214-3.777a7.661,7.661,0,0,0,2.279-1.456A8.169,8.169,0,0,0,254.991,367.609Z" transform="translate(-210.621 -285.551)" fill="#fff" opacity="0.25"/>
      <path id="Path_2454" data-name="Path 2454" d="M260.442,375.127a.318.318,0,0,0,.5-.383,3.647,3.647,0,0,0-3.287-1.444c-.134.165-.272.329-.414.49a3.52,3.52,0,0,1,3.2,1.337Z" transform="translate(-220.948 -291.082)" fill="#fff"/>
      <path id="Path_2455" data-name="Path 2455" d="M262.854,372.139a.326.326,0,0,0,.448.042.314.314,0,0,0,.05-.44,3.831,3.831,0,0,0-3.428-1.482c-.123.18-.249.36-.383.536A3.552,3.552,0,0,1,262.854,372.139Z" transform="translate(-222.367 -289.205)" fill="#fff"/>
      <path id="Path_2456" data-name="Path 2456" d="M257.765,377.941a.322.322,0,0,0,.5-.4,3.635,3.635,0,0,0-3.2-1.448c-.161.169-.326.337-.49.5a3.513,3.513,0,0,1,3.195,1.352Z" transform="translate(-219.301 -292.808)" fill="#fff"/>
      <path id="Path_2457" data-name="Path 2457" d="M243.732,382c-1.429-.034-3.2,1.149-3.2,2.6v.142c1.578,2.532,5.34,2.363,7.861,1.329C248.2,382.616,244.874,382,243.732,382Z" transform="translate(-210.639 -296.459)" fill="#fff"/>
      <path id="Path_2458" data-name="Path 2458" d="M254.8,380.651a.314.314,0,0,0,.444.038.31.31,0,0,0,.05-.441,3.632,3.632,0,0,0-3.206-1.448c-.2.176-.4.345-.6.506A3.55,3.55,0,0,1,254.8,380.651Z" transform="translate(-217.401 -294.479)" fill="#fff"/>
      <path id="Path_2459" data-name="Path 2459" d="M275.568,331.419c-.735,3.1-1.915,5.237-3.271,9.4,0,0-3.949.475-6.007-1.559l1.774-10.894Z" transform="translate(-226.531 -263.374)" fill="#37474f"/>
      <path id="Path_2460" data-name="Path 2460" d="M165.54,276.764v32.859l1.161-.674V276.09Z" transform="translate(-164.375 -231.121)" fill="#455a64"/>
      <path id="Path_2461" data-name="Path 2461" d="M163.671,276.764v32.859l-1.161-.674V276.09Z" transform="translate(-162.506 -231.121)" fill="#37474f"/>
      <path id="Path_2462" data-name="Path 2462" d="M168.57,273.421l27.2-15.7V256.47l-27.2,15.7Z" transform="translate(-166.245 -219.017)" fill="#455a64"/>
      <path id="Path_2463" data-name="Path 2463" d="M168.57,269.775,194.6,254.72l1.165.67-27.2,15.7Z" transform="translate(-166.245 -217.937)" fill="#37474f"/>
      <path id="Path_2464" data-name="Path 2464" d="M379.81,315.08v32.86l1.164-.67V314.41Z" transform="translate(-296.566 -254.762)" fill="#455a64"/>
      <path id="Path_2465" data-name="Path 2465" d="M377.941,315.08v32.86l-1.161-.67V314.41Z" transform="translate(-294.696 -254.762)" fill="#37474f"/>
      <path id="Path_2466" data-name="Path 2466" d="M305.79,357.834v32.859l1.161-.674V357.16Z" transform="translate(-250.9 -281.136)" fill="#455a64"/>
      <path id="Path_2467" data-name="Path 2467" d="M303.915,357.834v32.859l-1.165-.674V357.16Z" transform="translate(-249.025 -281.136)" fill="#37474f"/>
      <path id="Path_2468" data-name="Path 2468" d="M308.82,354.5l27.194-15.7V337.55l-27.194,15.7Z" transform="translate(-252.77 -269.038)" fill="#455a64"/>
      <path id="Path_2469" data-name="Path 2469" d="M308.82,350.844l26.033-15.055,1.161.674-27.194,15.7Z" transform="translate(-252.77 -267.952)" fill="#37474f"/>
      <g id="Group_3593" data-name="Group 3593" transform="translate(53.725 59.648)" opacity="0.2">
        <path id="Path_2470" data-name="Path 2470" d="M379.81,315.08v32.86l1.164-.67V314.41Z" transform="translate(-350.291 -314.41)" fill="#fff"/>
        <path id="Path_2471" data-name="Path 2471" d="M377.941,315.08v32.86l-1.161-.67V314.41Z" transform="translate(-348.422 -314.41)" fill="#fff"/>
        <path id="Path_2472" data-name="Path 2472" d="M305.79,357.834v32.859l1.161-.674V357.16Z" transform="translate(-304.625 -340.784)" fill="#fff"/>
        <path id="Path_2473" data-name="Path 2473" d="M303.915,357.834v32.859l-1.165-.674V357.16Z" transform="translate(-302.75 -340.784)" fill="#fff"/>
        <path id="Path_2474" data-name="Path 2474" d="M308.82,354.5l27.194-15.7V337.55l-27.194,15.7Z" transform="translate(-306.495 -328.686)" fill="#fff"/>
        <path id="Path_2475" data-name="Path 2475" d="M308.82,350.844l26.033-15.055,1.161.674-27.194,15.7Z" transform="translate(-306.495 -327.6)" fill="#fff"/>
      </g>
      <g id="Group_3594" data-name="Group 3594" transform="translate(0.004 36.783)" opacity="0.2">
        <path id="Path_2476" data-name="Path 2476" d="M165.54,276.764v32.859l1.161-.674V276.09Z" transform="translate(-164.379 -267.904)" fill="#fff"/>
        <path id="Path_2477" data-name="Path 2477" d="M163.671,276.764v32.859l-1.161-.674V276.09Z" transform="translate(-162.51 -267.904)" fill="#fff"/>
        <path id="Path_2478" data-name="Path 2478" d="M168.57,273.421l27.2-15.7V256.47l-27.2,15.7Z" transform="translate(-166.249 -255.8)" fill="#fff"/>
        <path id="Path_2479" data-name="Path 2479" d="M168.57,269.775,194.6,254.72l1.165.67-27.2,15.7Z" transform="translate(-166.249 -254.72)" fill="#fff"/>
      </g>
      <path id="Path_2480" data-name="Path 2480" d="M217.39,272.224,162.5,240.59l29.519-17.05,54.89,31.638Z" transform="translate(-162.5 -198.701)" fill="#455a64"/>
      <path id="Path_2481" data-name="Path 2481" d="M217.39,302.859,162.5,271.13v-3.08l54.89,31.634Z" transform="translate(-162.5 -226.161)" fill="#455a64"/>
      <path id="Path_2482" data-name="Path 2482" d="M305.79,323.17l29.519-17.05V309.3l-29.519,17.05Z" transform="translate(-250.9 -249.648)" fill="#455a64"/>
      <path id="Path_2483" data-name="Path 2483" d="M217.39,272.224,162.5,240.59l29.519-17.05,54.89,31.638Z" transform="translate(-162.5 -198.701)" fill="#fff" opacity="0.3"/>
      <path id="Path_2484" data-name="Path 2484" d="M305.79,323.17l29.519-17.05V309.3l-29.519,17.05Z" transform="translate(-250.9 -249.648)" fill="#fff" opacity="0.1"/>
      <path id="Path_2485" data-name="Path 2485" d="M217.39,302.859,162.5,271.13v-3.08l54.89,31.634Z" transform="translate(-162.5 -226.161)" fill="#fff" opacity="0.2"/>
      <path id="Path_2486" data-name="Path 2486" d="M221.16,240.331l-4.4,9.623-11.488-1.781,4.4-9.623Z" transform="translate(-188.886 -207.962)" fill="#e6e6e6"/>
      <path id="Path_2487" data-name="Path 2487" d="M226.374,241.625l-9.948,8.113-9.7-4,9.944-8.113Z" transform="translate(-189.787 -207.394)" fill="#f0f0f0"/>
      <path id="Path_2488" data-name="Path 2488" d="M239.356,240.99l5.957,5.964-14.878,4.972-5.964-5.968Z" transform="translate(-200.731 -209.467)" fill="#fff"/>
      <path id="Path_2489" data-name="Path 2489" d="M239.414,271.666l12.044-7a2.735,2.735,0,0,1,2.475,0l19.885,11.473a.889.889,0,0,1,.509.682h0v.766h0a.766.766,0,0,1,0,.161h0a.863.863,0,0,1-.084.169h0a.858.858,0,0,1-.149.169h0a1.44,1.44,0,0,1-.222.161l-12.1,7.052a1.99,1.99,0,0,1-.345.149l-.134.042-.176.042-.215.038h-.724a1.409,1.409,0,0,1-.283-.046h-.05a2.216,2.216,0,0,1-.241-.077h-.046a2.4,2.4,0,0,1-.264-.126L239.422,273.8a1.315,1.315,0,0,1-.226-.161.833.833,0,0,1-.057-.061.939.939,0,0,1-.1-.115.333.333,0,0,1-.038-.073.846.846,0,0,1-.061-.115.581.581,0,0,1,0-.08.6.6,0,0,1,0-.115v-.7A.866.866,0,0,1,239.414,271.666Z" transform="translate(-209.654 -223.889)" fill="#e0e0e0"/>
      <path id="Path_2490" data-name="Path 2490" d="M274.349,289.714a.606.606,0,0,1-.019.218h0a.866.866,0,0,1-.084.169v.019a.97.97,0,0,1-.149.165h0a1.437,1.437,0,0,1-.222.161l-12.044,7a1.993,1.993,0,0,1-.345.149l-.134.042-.176.042a1.924,1.924,0,0,1-.214.038h-.724a1.417,1.417,0,0,1-.283-.05h-.05a2.223,2.223,0,0,1-.241-.077h-.046a2.417,2.417,0,0,1-.264-.126l-19.87-11.473a1.317,1.317,0,0,1-.226-.161.439.439,0,0,1-.057-.061.721.721,0,0,1-.1-.115.332.332,0,0,1-.038-.073.848.848,0,0,1-.061-.115.581.581,0,0,1,0-.081.6.6,0,0,1,0-.115v.7a.6.6,0,0,0,0,.115.581.581,0,0,0,0,.08.843.843,0,0,0,.061.115.334.334,0,0,0,.038.073.933.933,0,0,0,.1.115.839.839,0,0,0,.057.061,1.312,1.312,0,0,0,.226.161l19.847,11.5a2.411,2.411,0,0,0,.264.126h.046a2.218,2.218,0,0,0,.241.077h.05a2.565,2.565,0,0,1,.283.046h.724l.215-.038.176-.042.134-.042a1.991,1.991,0,0,0,.345-.149l12.048-6.995a1.442,1.442,0,0,0,.222-.161h0a.857.857,0,0,0,.149-.169h0a.867.867,0,0,0,.084-.168h0a.758.758,0,0,0,0-.161h0v-.766Z" transform="translate(-209.691 -236.785)" opacity="0.3"/>
      <path id="Path_2491" data-name="Path 2491" d="M243.26,278.876l19.307,11.147a.384.384,0,0,0,.077.034h.042a.9.9,0,0,0,.149.046l.107.019h.26a1.331,1.331,0,0,0,.2,0l.126-.019.157-.042a.829.829,0,0,0,.134-.057l6.225-3.574L250.1,274.9Z" transform="translate(-212.323 -230.387)" fill="#e0e0e0"/>
      <path id="Path_2492" data-name="Path 2492" d="M295.38,314.73Z" transform="translate(-244.478 -254.959)" fill="#263238"/>
      <path id="Path_2493" data-name="Path 2493" d="M285.087,277.15l-3.635,2.138a.383.383,0,0,0,0,.632l5.432,3.137a.6.6,0,0,0,.605,0l3.632-2.134a.383.383,0,0,0,0-.636l-5.432-3.137A.6.6,0,0,0,285.087,277.15Z" transform="translate(-235.782 -231.726)" fill="#e0e0e0"/>
      <path id="Path_2494" data-name="Path 2494" d="M243.26,278.876l19.307,11.147a.384.384,0,0,0,.077.034h.042a.9.9,0,0,0,.149.046l.107.019h.26a1.331,1.331,0,0,0,.2,0l.126-.019.157-.042a.829.829,0,0,0,.134-.057l6.225-3.574L250.1,274.9Z" transform="translate(-212.323 -230.387)" opacity="0.2"/>
      <path id="Path_2495" data-name="Path 2495" d="M285.087,277.15l-3.635,2.138a.383.383,0,0,0,0,.632l5.432,3.137a.6.6,0,0,0,.605,0l3.632-2.134a.383.383,0,0,0,0-.636l-5.432-3.137A.6.6,0,0,0,285.087,277.15Z" transform="translate(-235.782 -231.726)" opacity="0.2"/>
      <path id="Path_2496" data-name="Path 2496" d="M279.7,233.37l-2.429,6.129-9.577,3.949a3.961,3.961,0,0,1-1.835.283l-3.689-.3a2.091,2.091,0,0,0-1.237.291L258.827,245a2.269,2.269,0,0,0-.563.483l-1.034,1.226a.766.766,0,0,0,.142,1.13l.651.467a2.3,2.3,0,0,0,2.387.184l1.632-.824,3.375.383v.885l-.919.766a.969.969,0,0,0,.023,1.494h0s2.256-.667,4.3-3.942l11.994-2.532a4.018,4.018,0,0,0,2.957-2.593l2.3-6.512Z" transform="translate(-220.826 -204.766)" fill="#ffa8a7"/>
      <path id="Path_2497" data-name="Path 2497" d="M320.811,206.14c-1.632-.184-2.62-.115-4.168,2.486a52.825,52.825,0,0,0-3.674,9.194,24.138,24.138,0,0,0,7.841,2.049C321.727,217.563,320.811,206.14,320.811,206.14Z" transform="translate(-255.33 -187.929)" fill="#76ba1b"/>
      <g id="Group_3595" data-name="Group 3595" transform="translate(57.64 18.15)" opacity="0.3">
        <path id="Path_2498" data-name="Path 2498" d="M320.811,206.14c-1.632-.184-2.62-.115-4.168,2.486a52.825,52.825,0,0,0-3.674,9.194,24.138,24.138,0,0,0,7.841,2.049C321.727,217.563,320.811,206.14,320.811,206.14Z" transform="translate(-312.97 -206.079)" fill="#fff"/>
      </g>
      <path id="Path_2499" data-name="Path 2499" d="M338.773,209.105c-5.129-2.406-8.971-2.681-13.162-2.865-6.275,4.038-3.926,7.4-3.831,12.794.092,4.543.939,7.573-1.03,11.764l12.159,7.01a16.25,16.25,0,0,0,7.508-1.605C342.029,221.279,341.558,210.255,338.773,209.105Z" transform="translate(-260.13 -188.028)" fill="#76ba1b"/>
      <path id="Path_2500" data-name="Path 2500" d="M338.773,209.105c-5.129-2.406-8.971-2.681-13.162-2.865-6.275,4.038-3.926,7.4-3.831,12.794.092,4.543.939,7.573-1.03,11.764l12.159,7.01a16.25,16.25,0,0,0,7.508-1.605C342.029,221.279,341.558,210.255,338.773,209.105Z" transform="translate(-260.13 -188.028)" fill="#fff" opacity="0.5"/>
      <path id="Path_2501" data-name="Path 2501" d="M316.168,250.38l-1.532,6.78-10.553,4.352a4.383,4.383,0,0,1-2.019.314L298,261.493a2.268,2.268,0,0,0-1.364.318l-2.329,1.41a2.5,2.5,0,0,0-.621.532l-1.149,1.348a.854.854,0,0,0,.157,1.245l.716.513a2.54,2.54,0,0,0,2.628.2l1.8-.908,2.953.536a5.911,5.911,0,0,0,3.9-.644l.621-.345,12.879-2.72a4.417,4.417,0,0,0,3.394-3.34l1.735-7.493Z" transform="translate(-242.6 -215.26)" fill="#ffa8a7"/>
      <path id="Path_2502" data-name="Path 2502" d="M358.941,213.718c6.129,2.3,4.742,7.753,2.475,16.4-3.651,1.011-7.975-2.168-7.975-2.168C354.639,221.1,355.095,213.611,358.941,213.718Z" transform="translate(-280.297 -192.641)" fill="#76ba1b"/>
      <path id="Path_2503" data-name="Path 2503" d="M358.941,213.718c6.129,2.3,4.742,7.753,2.475,16.4-3.651,1.011-7.975-2.168-7.975-2.168C354.639,221.1,355.095,213.611,358.941,213.718Z" transform="translate(-280.297 -192.641)" fill="#fff" opacity="0.3"/>
      <path id="Path_2504" data-name="Path 2504" d="M231.228,246.332h0l.475-.237h0a.6.6,0,0,1,.532.034l20.008,11.634a2.41,2.41,0,0,1,1.172,1.712l2.053,13.082a.594.594,0,0,1-.337.632h0l-.464.226h0a.594.594,0,0,1-.517-.042l-19.992-11.638a2.413,2.413,0,0,1-1.172-1.712l-2.057-13.082a.594.594,0,0,1,.3-.609Z" transform="translate(-204.712 -212.587)" fill="#e0e0e0"/>
      <path id="Path_2505" data-name="Path 2505" d="M257.747,277.6a4.416,4.416,0,0,1,1.984,2.858c.13,1.023-.544,1.4-1.513.843a4.439,4.439,0,0,1-1.984-2.862C256.1,277.435,256.782,277.056,257.747,277.6Z" transform="translate(-220.318 -231.899)" fill="#fff"/>
      <path id="Path_2506" data-name="Path 2506" d="M255.608,272.756l-2.057-13.078a2.417,2.417,0,0,0-1.172-1.716l-20.008-11.63a.594.594,0,0,0-.6,0h0l.475-.237h0a.6.6,0,0,1,.532.034l20.008,11.634a2.41,2.41,0,0,1,1.172,1.712l2.034,13.082a.594.594,0,0,1-.337.632h0l-.464.226h0A.6.6,0,0,0,255.608,272.756Z" transform="translate(-205.235 -212.587)" opacity="0.3"/>
      <path id="Path_2507" data-name="Path 2507" d="M319.9,170.463a4.49,4.49,0,0,1-1.249-5.926,2.444,2.444,0,0,1-1.184-1.115,1.306,1.306,0,0,1,1.7-1.739,1.839,1.839,0,0,1,.736-2.141,1.724,1.724,0,0,1,2.149.383,1.184,1.184,0,0,1,.8-1.149,2.387,2.387,0,0,1,1.494.1c.479.165.931.383,1.413.555a11.07,11.07,0,0,0,2.544.326,5.118,5.118,0,0,1,2.455.651,2.209,2.209,0,0,1,.965,2.49,1.418,1.418,0,0,1,1.019-.54,1.368,1.368,0,0,1,1.046.444c-.536.333-1.053.69-1.586,1.019a1.448,1.448,0,0,1,1.632.651,3.292,3.292,0,0,1,.287,1.724,22.985,22.985,0,0,1-1.2,6.6,4.478,4.478,0,0,1-1.915,2.773Z" transform="translate(-258.033 -158.699)" fill="#37474f"/>
      <path id="Path_2508" data-name="Path 2508" d="M338.664,196.919l.237,2.628a1,1,0,0,1-.149.578,1.5,1.5,0,0,0,.23,1.72,1.957,1.957,0,0,0,1.176.383,5.673,5.673,0,0,0,4.329-1.662,1.241,1.241,0,0,0,.345-.9L344.659,193Z" transform="translate(-271.129 -179.86)" fill="#ffa8a7"/>
      <path id="Path_2509" data-name="Path 2509" d="M344.282,193.9l-5.482,3.574.211,2.329a8.635,8.635,0,0,0,3.563-1.486A4.88,4.88,0,0,0,344.282,193.9Z" transform="translate(-271.265 -180.415)" opacity="0.3"/>
      <path id="Path_2510" data-name="Path 2510" d="M322.886,174.532a23.527,23.527,0,0,0,.59,9.117,7.092,7.092,0,0,0,.724,1.873,3,3,0,0,0,1.479,1.31,4.6,4.6,0,0,0,2.444,0,12.177,12.177,0,0,0,4.306-1.322,4.182,4.182,0,0,0,2.191-3.7,2.582,2.582,0,0,0,2.471.138,2.632,2.632,0,0,0,1.356-2.1,1.618,1.618,0,0,0-2.7-1.528,5.362,5.362,0,0,0-1,1.172,1.771,1.771,0,0,1-.5.536.605.605,0,0,1-.689,0,.9.9,0,0,1-.2-.766l.084-1.915a.766.766,0,0,0-.421-.709,1.866,1.866,0,0,1-.854-.984,3.774,3.774,0,0,1-.241-1.149.471.471,0,0,0-.644-.4A14.007,14.007,0,0,1,322.886,174.532Z" transform="translate(-261.324 -168.184)" fill="#ffa8a7"/>
      <path id="Path_2511" data-name="Path 2511" d="M331.406,187.35l-1.716,2.888,2.046.383Z" transform="translate(-265.645 -176.375)" fill="#f28f8f"/>
      <path id="Path_2512" data-name="Path 2512" d="M337.675,198.49l-1.555.766a1.019,1.019,0,0,0,1.18.337.927.927,0,0,0,.375-1.1Z" transform="translate(-269.612 -183.247)" fill="#f28f8f"/>
      <path id="Path_2513" data-name="Path 2513" d="M337.675,198.49l-1.555.766a1.019,1.019,0,0,0,1.18.337.927.927,0,0,0,.375-1.1Z" transform="translate(-269.612 -183.247)" opacity="0.3"/>
      <path id="Path_2514" data-name="Path 2514" d="M337.79,200.069a.919.919,0,0,0,.54-.05.831.831,0,0,0,.414-.82A.935.935,0,0,0,337.79,200.069Z" transform="translate(-270.642 -183.685)" fill="#f28f8f"/>
      <path id="Path_2515" data-name="Path 2515" d="M340.016,186.794a.586.586,0,1,1-.644-.529A.586.586,0,0,1,340.016,186.794Z" transform="translate(-271.294 -175.704)" fill="#263238"/>
      <path id="Path_2516" data-name="Path 2516" d="M327.117,187.59a.586.586,0,1,1-.213-.4A.586.586,0,0,1,327.117,187.59Z" transform="translate(-263.336 -176.197)" fill="#263238"/>
      <path id="Path_2517" data-name="Path 2517" d="M324.87,182.343l-1.207,1.027a.839.839,0,0,1,.161-.942,1,1,0,0,1,1.046-.084Z" transform="translate(-261.878 -173.218)" fill="#263238"/>
      <path id="Path_2518" data-name="Path 2518" d="M340,180.648l1.387.766a.839.839,0,0,0-.345-.893A1,1,0,0,0,340,180.648Z" transform="translate(-272.006 -172.105)" fill="#263238"/>
    </g>
  </g>
</svg>
