<svg xmlns="http://www.w3.org/2000/svg" width="27.155" height="35" viewBox="0 0 27.155 35">
  <g id="pdf" transform="translate(-6.5)">
    <path id="Path_13" data-name="Path 13" d="M38.477,25.016a.955.955,0,0,0,.139-.25c-.074-.039-.173-.119-.709-.119a8.687,8.687,0,0,0-1.093.065c.492.378.612.57.934.57A.906.906,0,0,0,38.477,25.016Z" transform="translate(-12.021 -9.774)" fill="#fff"/>
    <path id="Path_14" data-name="Path 14" d="M20.364,31.271c.09-.028.615-.268,1.593-2.073-1.29.725-1.815,1.32-1.853,1.656C20.1,30.909,20.081,31.055,20.364,31.271Z" transform="translate(-5.394 -11.579)" fill="#fff"/>
    <path id="Path_15" data-name="Path 15" d="M33.655,23.534V8.435a1.394,1.394,0,0,0-.332-1.081L26.3.332A1.141,1.141,0,0,0,25.5,0H7.986A1.565,1.565,0,0,0,6.5,1.766V23.534ZM25.207,2.046a.31.31,0,0,1,.529-.219l6.092,6.092a.31.31,0,0,1-.219.529h-6.4ZM13.7,19.162c.11-.982,1.325-2.011,3.612-3.058A40.507,40.507,0,0,0,19.6,9.617c-.6-1.311-1.188-3.011-.761-4.009a1.158,1.158,0,0,1,.684-.733,2.963,2.963,0,0,1,.613-.1c.3,0,.571.392.761.633s.582.708-.225,4.1a19.283,19.283,0,0,0,3.07,4.563,11.74,11.74,0,0,1,2.026-.216c.945,0,1.518.22,1.751.674a1.222,1.222,0,0,1-.235,1.3,1.6,1.6,0,0,1-1.34.719A4.012,4.012,0,0,1,23.4,15.174a28.9,28.9,0,0,0-5.327,1.7,17.122,17.122,0,0,1-1.438,2.565c-.617.868-1.151,1.271-1.679,1.271h0a.969.969,0,0,1-.584-.2A1.448,1.448,0,0,1,13.7,19.162Z" fill="#fff"/>
    <path id="Path_16" data-name="Path 16" d="M20.1,45.584a1,1,0,0,0-.359-.3,1.334,1.334,0,0,0-.611-.119h-.742v2.409h.908a1.078,1.078,0,0,0,.359-.062.9.9,0,0,0,.326-.2.988.988,0,0,0,.239-.392,1.855,1.855,0,0,0,.091-.623,1.685,1.685,0,0,0-.041-.342A1,1,0,0,0,20.1,45.584Z" transform="translate(-4.713 -17.911)" fill="#fff"/>
    <path id="Path_17" data-name="Path 17" d="M28.283,18.174a43.156,43.156,0,0,1-1.614,4.564,30.151,30.151,0,0,1,3.92-1.219A20.656,20.656,0,0,1,28.283,18.174Z" transform="translate(-7.998 -7.207)" fill="#fff"/>
    <path id="Path_18" data-name="Path 18" d="M6.5,41v9.052a1.464,1.464,0,0,0,1.486,1.207H32.169a1.464,1.464,0,0,0,1.486-1.207V41Zm9.894,4.483a1.75,1.75,0,0,1-.438.631,1.971,1.971,0,0,1-.676.4,2.6,2.6,0,0,1-.874.14h-.734v2.195h-.99v-6.08H14.43a2.454,2.454,0,0,1,.767.124,2.086,2.086,0,0,1,.681.371,1.938,1.938,0,0,1,.487.6,1.657,1.657,0,0,1,.186.788A2.145,2.145,0,0,1,16.394,45.483Zm6.068,1.436a3.189,3.189,0,0,1-.409.891,2.1,2.1,0,0,1-.557.565,2.794,2.794,0,0,1-.6.31,2.471,2.471,0,0,1-.528.132,3.518,3.518,0,0,1-.355.028h-2.3v-6.08h1.831a3.48,3.48,0,0,1,1.349.243,2.8,2.8,0,0,1,.966.648,2.658,2.658,0,0,1,.573.92,3.053,3.053,0,0,1,.189,1.06A4.449,4.449,0,0,1,22.462,46.919Zm5.4-3.4h-2.8v1.914h2.541v.676H25.065v2.739H24.059v-6.08h3.8Z" transform="translate(0 -16.259)" fill="#fff"/>
    <path id="Path_19" data-name="Path 19" d="M29.163,45.84a1.85,1.85,0,0,0-.705-.487,3.038,3.038,0,0,0-1.155-.186h-.578v4.6h.982a1.639,1.639,0,0,0,1.452-.643,3.266,3.266,0,0,0,.445-1.865,3.158,3.158,0,0,0-.091-.751A1.606,1.606,0,0,0,29.163,45.84Z" transform="translate(-8.02 -17.911)" fill="#fff"/>
    <path id="Path_20" data-name="Path 20" d="M28.5,9.712a1.447,1.447,0,0,0,.058,1.941C29.134,10.376,28.529,9.7,28.5,9.712Z" transform="translate(-8.585 -3.851)" fill="#fff"/>
  </g>
</svg>
