<svg id="Podcast_audience-rafiki_1_" data-name="Podcast audience-rafiki (1)" xmlns="http://www.w3.org/2000/svg" xmlns:xlink="http://www.w3.org/1999/xlink" width="179.577" height="162.37" viewBox="0 0 179.577 162.37">
  <defs>
    <clipPath id="clip-path">
      <ellipse id="Ellipse_83" data-name="Ellipse 83" cx="31.144" cy="31.144" rx="31.144" ry="31.144" fill="none"/>
    </clipPath>
  </defs>
  <g id="freepik--background-complete--inject-106" transform="translate(0 94.798)">
    <rect id="Rectangle_381" data-name="Rectangle 381" width="18.026" height="0.109" transform="translate(161.551 45.535)" fill="#e6e6e6"/>
    <rect id="Rectangle_382" data-name="Rectangle 382" width="18.078" height="0.109" transform="translate(124.808 44.66)" fill="#e6e6e6"/>
    <rect id="Rectangle_383" data-name="Rectangle 383" width="4.374" height="0.109" transform="translate(101.284 44.66)" fill="#e6e6e6"/>
    <rect id="Rectangle_384" data-name="Rectangle 384" width="20.23" height="0.109" transform="translate(145.003 48.396)" fill="#e6e6e6"/>
    <rect id="Rectangle_385" data-name="Rectangle 385" width="9.448" height="0.109" transform="translate(75.03 45.478)" fill="#e6e6e6"/>
    <rect id="Rectangle_386" data-name="Rectangle 386" width="12.217" height="0.109" transform="translate(58.92 45.478)" fill="#e6e6e6"/>
    <rect id="Rectangle_387" data-name="Rectangle 387" width="27.312" height="0.109" transform="translate(0 47.328)" fill="#e6e6e6"/>
    <rect id="Rectangle_394" data-name="Rectangle 394" width="5.253" height="0.695" transform="translate(147.877)" fill="#e6e6e6"/>
    <path id="Path_2532" data-name="Path 2532" d="M112.57,308.553a1.164,1.164,0,1,0,1.164-1.164A1.163,1.163,0,0,0,112.57,308.553Z" transform="translate(38.968 -298.957)" fill="#e6e6e6"/>
    <path id="Path_2533" data-name="Path 2533" d="M122.66,308.553a1.168,1.168,0,1,0,1.168-1.164A1.168,1.168,0,0,0,122.66,308.553Z" transform="translate(24.456 -298.957)" fill="#e6e6e6"/>
  </g>
  <g id="freepik--Shadows--inject-106" transform="translate(8.941 152.467)">
    <g id="freepik--Shadow--inject-214--inject-106" transform="translate(0 0)">
      <ellipse id="freepik--path--inject-214--inject-106" cx="84.81" cy="4.952" rx="84.81" ry="4.952" fill="#494848"/>
    </g>
  </g>
  <g id="freepik--character-1--inject-106" transform="translate(122.914 33.031)">
    <path id="Path_2542" data-name="Path 2542" d="M136.879,254.95s-3.32,23.183-8.827,34.376c-5.73,11.622-17.287,30.431-17.287,30.431l-2.966-1.382a140.612,140.612,0,0,1,13.061-31.651c3.744-13.56,5.638-36.1,5.638-36.1Z" transform="translate(-103.841 -205.252)" fill="#ffb573"/>
    <path id="Path_2543" data-name="Path 2543" d="M136.879,254.95s-3.32,23.183-8.827,34.376c-5.73,11.622-17.287,30.431-17.287,30.431l-2.966-1.382a140.612,140.612,0,0,1,13.061-31.651c3.744-13.56,5.638-36.1,5.638-36.1Z" transform="translate(-103.841 -205.252)" fill="#263238" opacity="0.8"/>
    <path id="Path_2544" data-name="Path 2544" d="M110.171,252.53s5.275,22.426,5.008,34.884c-.28,12.956-2.8,34.888-2.8,34.888h-3.272a140.694,140.694,0,0,1-1.544-34.206,128.768,128.768,0,0,1-11.246-34.118Z" transform="translate(-77.128 -206.326)" fill="#ffb573"/>
    <path id="Path_2545" data-name="Path 2545" d="M110.171,252.53s5.275,22.426,5.008,34.884c-.28,12.956-2.8,34.888-2.8,34.888h-3.272a140.694,140.694,0,0,1-1.544-34.206,128.768,128.768,0,0,1-11.246-34.118Z" transform="translate(-77.128 -206.326)" fill="#263238" opacity="0.8"/>
    <path id="Path_2546" data-name="Path 2546" d="M77.415,216.338a16.548,16.548,0,0,0,4.2,3.285q1.662,1.024,3.307,2.051a7.107,7.107,0,0,0,3.683,1.413c1.334-.017,2.52-2.467,2.187-2.957-1.872-2.848-6.29-5.826-7.782-7.992a10.085,10.085,0,0,1-.674-1.671c0-.919-.1-4.418-.1-4.418.324-5.35-1.273-11.132-2.48-12.121-1.75-1.43-2.69-2.41-3.937-.98-.818.954.468,10.31.411,15.121h0c0,.14-.319,2.345-.363,2.922C75.648,213.915,76.277,214.964,77.415,216.338Z" transform="translate(-43.699 -172.413)" fill="#76ba1b"/>
    <path id="Path_2547" data-name="Path 2547" d="M77.415,216.338a16.548,16.548,0,0,0,4.2,3.285q1.662,1.024,3.307,2.051a7.107,7.107,0,0,0,3.683,1.413c1.334-.017,2.52-2.467,2.187-2.957-1.872-2.848-6.29-5.826-7.782-7.992a10.085,10.085,0,0,1-.674-1.671c0-.919-.1-4.418-.1-4.418.324-5.35-1.273-11.132-2.48-12.121-1.75-1.43-2.69-2.41-3.937-.98-.818.954.468,10.31.411,15.121h0c0,.14-.319,2.345-.363,2.922C75.648,213.915,76.277,214.964,77.415,216.338Z" transform="translate(-43.699 -172.413)" opacity="0.2"/>
    <path id="Path_2548" data-name="Path 2548" d="M69.235,258.86l3.3.149-1.842,3.412a5.614,5.614,0,0,1-2.4-2.362Z" transform="translate(-22.213 -209.888)" fill="#ffb573"/>
    <path id="Path_2549" data-name="Path 2549" d="M67.695,260.833l-1.251,2.782L63.99,262.6l1.846-3.394Z" transform="translate(-15.494 -210.084)" fill="#ffb573"/>
    <path id="Path_2550" data-name="Path 2550" d="M77.346,253.157l-2.384,4.755-2.572-.258,3.4-6.4Z" transform="translate(-28.819 -205.606)" fill="#76ba1b"/>
    <path id="Path_2551" data-name="Path 2551" d="M77.346,253.157l-2.384,4.755-2.572-.258,3.4-6.4Z" transform="translate(-28.819 -205.606)" fill="#fff" opacity="0.4"/>
    <path id="Path_2552" data-name="Path 2552" d="M87.678,410.808a2.817,2.817,0,0,0-.276,1.334c.031,1.68.214,6.124.214,6.124h.394s.087-2.187.28-3.294.437-.179,1.115.971,2.428,2.261,4.982,2.323c3,.07,4.208-.061,3.337-.787a8.975,8.975,0,0,0-2.856-1.194s-2.874-4-2.913-6.828c-.039-3.027-3.552.044-4.3-.332C87.4,409.176,87.8,410.554,87.678,410.808Z" transform="translate(-56.039 -293.852)" fill="#263238"/>
    <path id="Path_2553" data-name="Path 2553" d="M164.583,405.212a2.874,2.874,0,0,0-.814,1.094c-.682,1.535-2.393,5.643-2.393,5.643l.359.166s1-1.946,1.645-2.869.472.022.6,1.352,1.247,3.062,3.534,4.212c2.686,1.312,3.841,1.723,3.359.7a8.9,8.9,0,0,0-2.086-2.288s-.914-4.842.245-7.436c1.247-2.76-3.237-1.461-3.753-2.121C165.047,403.62,164.823,405.037,164.583,405.212Z" transform="translate(-161.377 -291.349)" fill="#263238"/>
    <path id="Path_2554" data-name="Path 2554" d="M90.38,230.508l3.766,13.582a4.138,4.138,0,0,1,.061,2.983c-.722,1.378-2.624,1.474-4.177,1.378l-7.209-.437c-1.255-.074-2.712-.267-3.364-1.343a3.842,3.842,0,0,1-.337-2.187q.289-6.478,1.159-12.908c.337-2.489,1.08-5.476,4.037-5.485C87.441,226.077,89.553,227.542,90.38,230.508Z" transform="translate(-48.878 -191.452)" fill="#263238"/>
    <path id="Path_2555" data-name="Path 2555" d="M90.38,230.508l3.766,13.582a4.138,4.138,0,0,1,.061,2.983c-.722,1.378-2.624,1.474-4.177,1.378l-7.209-.437c-1.255-.074-2.712-.267-3.364-1.343a3.842,3.842,0,0,1-.337-2.187q.289-6.478,1.159-12.908c.337-2.489,1.08-5.476,4.037-5.485C87.441,226.077,89.553,227.542,90.38,230.508Z" transform="translate(-48.878 -191.452)" fill="#fafafa" opacity="0.1"/>
    <path id="Path_2556" data-name="Path 2556" d="M97.379,280.92c1.964.276,3.775,1.522,8.884,1.68h.975c1.369,0,9.133-.875,10.529-1.78-2.073-12.436-4.589-26.2-5.008-28.712h0l-.341-2.038.175-.7v-.179l-6.968.254-7.843.289S91.846,259.526,97.379,280.92Z" transform="translate(-79.139 -204.447)" fill="#263238"/>
    <path id="Path_2557" data-name="Path 2557" d="M119.9,190.34c-1.312-.354-3.561-.923-5.616-1.29a52.838,52.838,0,0,0-7.292-.665c-1.548-.066-3.062,0-4.274.053A2.025,2.025,0,0,0,100.9,191c3.294,11.771,3.81,17.011,3.937,23.087l14.413-.437a.7.7,0,0,0,.665-.6c.7-5.144,2.1-9.348,2.222-12.366a35.164,35.164,0,0,0-.779-8.7A2.017,2.017,0,0,0,119.9,190.34Z" transform="translate(-86.075 -170.224)" fill="#76ba1b"/>
    <path id="Path_2558" data-name="Path 2558" d="M119.9,190.34c-1.312-.354-3.561-.923-5.616-1.29a52.838,52.838,0,0,0-7.292-.665c-1.548-.066-3.062,0-4.274.053A2.025,2.025,0,0,0,100.9,191c3.294,11.771,3.81,17.011,3.937,23.087l14.365-.437a.748.748,0,0,0,.717-.652c.709-5.118,2.1-9.308,2.218-12.318a35.164,35.164,0,0,0-.779-8.7A2.017,2.017,0,0,0,119.9,190.34Z" transform="translate(-86.075 -170.224)" opacity="0.1"/>
    <path id="Path_2559" data-name="Path 2559" d="M98.343,210.181l.822-.3a66.437,66.437,0,0,1-2.865-10.76c-.814-4.16-1.264-6.452-4.374-7.069l-.166.875c2.537.5,2.9,2.34,3.683,6.378a67.982,67.982,0,0,0,2.9,10.879Z" transform="translate(-59.111 -172.301)" fill="#263238"/>
    <path id="Path_2560" data-name="Path 2560" d="M98.343,210.181l.822-.3a66.437,66.437,0,0,1-2.865-10.76c-.814-4.16-1.264-6.452-4.374-7.069l-.166.875c2.537.5,2.9,2.34,3.683,6.378a67.982,67.982,0,0,0,2.9,10.879Z" transform="translate(-59.111 -172.301)" fill="#fafafa" opacity="0.1"/>
    <path id="Path_2561" data-name="Path 2561" d="M142.478,189.656a2.957,2.957,0,0,1,4.781,1.448c.481,1.487-3.062,14.942-3.062,14.947,0,1.75-5.21,4.374-5.21,4.374C137.282,208.168,141.52,190.465,142.478,189.656Z" transform="translate(-127.733 -170.551)" fill="#76ba1b"/>
    <path id="Path_2562" data-name="Path 2562" d="M133.982,204.458c.486-1.312,1.562-4.374,2.944-4.422.835-.031,2.533.118,2.931.875s-.07,3.425-.993,7.76a18.624,18.624,0,0,1-3.578,7.69c-1.728,2.051-3.832,3.5-6.461,2.957a3.753,3.753,0,0,1-2.839-2.156c-1.312-3.587,1.553-5.5,3.53-7C131.918,208.329,132.972,207.187,133.982,204.458Z" transform="translate(-114.771 -176.792)" fill="#76ba1b"/>
    <path id="Path_2563" data-name="Path 2563" d="M109.758,188.354l.542.827c2.091,3.2,6.671,7.178,8.372,7.484a6.124,6.124,0,0,1,1.592-2.419,3.639,3.639,0,0,1,2.016,2.047,9.293,9.293,0,0,0,.5-6.723h0c-.875-.2-1.78-.394-2.655-.547a52.959,52.959,0,0,0-7.292-.66A24.988,24.988,0,0,0,109.758,188.354Z" transform="translate(-91.006 -170.198)" fill="#76ba1b"/>
    <path id="Path_2564" data-name="Path 2564" d="M109.758,188.354l.542.827c2.091,3.2,6.671,7.178,8.372,7.484a6.124,6.124,0,0,1,1.592-2.419,3.639,3.639,0,0,1,2.016,2.047,9.293,9.293,0,0,0,.5-6.723h0c-.875-.2-1.78-.394-2.655-.547a52.959,52.959,0,0,0-7.292-.66A24.988,24.988,0,0,0,109.758,188.354Z" transform="translate(-91.006 -170.198)" fill="#fff" opacity="0.2"/>
    <path id="Path_2565" data-name="Path 2565" d="M110.128,152.675a11.939,11.939,0,0,0,2.24,8.066c2.887,4.282-3.438,7-7.646,6.692-3.736-.271-12.025-3.972-13.455-7.025s2.393-3.062,3.574-8.573,5.332-4.733,8.722-4.737C108.212,146.07,110.614,149.25,110.128,152.675Z" transform="translate(-72.69 -146.901)" fill="#263238"/>
    <path id="Path_2566" data-name="Path 2566" d="M122.1,176.678c-.993,1.343-1.723,2.931-.162,4.707a2.143,2.143,0,0,1,.56,1.343c0,.8-.437,1.575-3.062.039-3.771-2.218-3.456-4.724-3.456-4.724,1.981-.6,3.167-4.763,3.626-7.143Z" transform="translate(-93.03 -160.403)" fill="#ffb573"/>
    <path id="Path_2567" data-name="Path 2567" d="M116.938,177.506c-.289,1.015.787,2.625,1.6,3.272a6.945,6.945,0,0,1,.665-1.072l-1.465-3.416A3.653,3.653,0,0,0,116.938,177.506Z" transform="translate(-90.142 -163.435)" opacity="0.2"/>
    <path id="Path_2568" data-name="Path 2568" d="M102.342,153.327a5.3,5.3,0,0,1,7.23-1.885c3.556,2.06,3.289,7.825,1.981,11.158-1.43,3.7-6.264,4.177-8.748.809-1.68-2.244-1.47-3.88-1.172-7.747A5.358,5.358,0,0,1,102.342,153.327Z" transform="translate(-76.622 -149.05)" fill="#ffb573"/>
    <path id="Path_2569" data-name="Path 2569" d="M112.266,166.409a.328.328,0,0,1,.3.039.315.315,0,0,1,.07.289l.324.044a.582.582,0,0,0-.765-.687,1.894,1.894,0,0,0-1.041.709l.276.166a1.623,1.623,0,0,1,.84-.56Z" transform="translate(-81.402 -157.679)" fill="#263238"/>
    <path id="Path_2570" data-name="Path 2570" d="M102.571,167.7a.346.346,0,0,1,.166-.223.385.385,0,0,1,.28,0,.512.512,0,0,1,.324.486l.324-.022a.822.822,0,0,0-.534-.765.5.5,0,0,0-.114-.039.626.626,0,0,0-.757.437Z" transform="translate(-68.203 -158.273)" fill="#263238"/>
    <path id="Path_2571" data-name="Path 2571" d="M105.49,171.159a1.369,1.369,0,0,0,1.142-.057,8.42,8.42,0,0,1-.835-2.152Z" transform="translate(-72.583 -159.306)" fill="#ed893e"/>
    <path id="Path_2572" data-name="Path 2572" d="M110.028,173.491a.092.092,0,0,1,.044-.122.1.1,0,0,1,.127.044,2.463,2.463,0,0,0,1.881,1.247.1.1,0,0,1,.074.1h0a.088.088,0,0,1-.1.074,2.545,2.545,0,0,1-.437-.088A2.624,2.624,0,0,1,110.028,173.491Z" transform="translate(-80.087 -161.786)" fill="#263238"/>
    <path id="Path_2573" data-name="Path 2573" d="M101.708,151.615c1.312,1.684-.94,3.666-1.264,2.625-.521-1.728-2-2.135-1.995-3.582C98.467,148.374,100.387,149.936,101.708,151.615Z" transform="translate(-64.987 -148.37)" fill="#263238"/>
    <path id="Path_2574" data-name="Path 2574" d="M108.876,161.031h0a.184.184,0,0,1,.039-.258,2.542,2.542,0,0,1,2.091-.249.184.184,0,1,1-.114.35,2.155,2.155,0,0,0-1.75.188.179.179,0,0,1-.214,0Z" transform="translate(-78.55 -154.497)" fill="#263238"/>
    <path id="Path_2575" data-name="Path 2575" d="M101.569,163.267a1.439,1.439,0,0,0-1.159-.665h0a.188.188,0,0,1-.192-.184.184.184,0,0,1,.184-.188,1.846,1.846,0,0,1,1.478.827h0a.179.179,0,0,1-.052.254.175.175,0,0,1-.179,0,.214.214,0,0,1-.079-.044Z" transform="translate(-65.557 -155.525)" fill="#263238"/>
    <path id="Path_2576" data-name="Path 2576" d="M111.914,151.41a4,4,0,0,0-2.778,2.016,7.117,7.117,0,0,1-.809,1.465c-.363.407-1.579,2.073-2.012,2.4s-.28-.962-.691-1.212a7.876,7.876,0,0,1-1.26-.709,2.117,2.117,0,0,1-.639-1.8,3.937,3.937,0,0,1,.739-1.824,7.025,7.025,0,0,1,9.881-1.75c.49.35,1.877,1.828.634,2.008-.376.052-1.032-.437-1.417-.547A3.937,3.937,0,0,0,111.914,151.41Z" transform="translate(-80.657 -147.907)" fill="#263238"/>
    <path id="Path_2577" data-name="Path 2577" d="M104.364,158.287c1.15-1.382,2.747-1.548,4.164-1.7a5.249,5.249,0,0,0,1.964-.437c1.36-.77,2.021-2.891,2.108-3.578a1.693,1.693,0,0,1,1.072-1.242,1.474,1.474,0,0,1,1.247.4,1.626,1.626,0,0,1,.087,1.588l.206.066a1.8,1.8,0,0,0-.127-1.8,1.723,1.723,0,0,0-1.448-.472,1.881,1.881,0,0,0-1.251,1.43c-.083.63-.73,2.694-2,3.412a5.158,5.158,0,0,1-1.877.407c-1.387.144-3.106.324-4.313,1.772Z" transform="translate(-80.766 -149.264)" fill="#263238"/>
    <path id="Path_2578" data-name="Path 2578" d="M104.364,158.287c1.15-1.382,2.747-1.548,4.164-1.7a5.249,5.249,0,0,0,1.964-.437c1.36-.77,2.021-2.891,2.108-3.578a1.693,1.693,0,0,1,1.072-1.242,1.474,1.474,0,0,1,1.247.4,1.626,1.626,0,0,1,.087,1.588l.206.066a1.8,1.8,0,0,0-.127-1.8,1.723,1.723,0,0,0-1.448-.472,1.881,1.881,0,0,0-1.251,1.43c-.083.63-.73,2.694-2,3.412a5.158,5.158,0,0,1-1.877.407c-1.387.144-3.106.324-4.313,1.772Z" transform="translate(-80.766 -149.264)" fill="#fff" opacity="0.1"/>
    <path id="Path_2579" data-name="Path 2579" d="M123.21,166.14a1.277,1.277,0,0,1,1.43-1.094c.962.144,1.4,1.439,1.4,2.288,0,.936-.7,1.627-1.544,1.1a2.856,2.856,0,0,1-1.247-1.776A1.312,1.312,0,0,1,123.21,166.14Z" transform="translate(-99.738 -157.103)" fill="#ffb573"/>
    <path id="Path_2580" data-name="Path 2580" d="M124.7,168.513a.875.875,0,1,0,.595-1.124.9.9,0,0,0-.595,1.124Z" transform="translate(-100.734 -158.409)" fill="#fff"/>
    <rect id="Rectangle_398" data-name="Rectangle 398" width="0.706" height="1.891" transform="translate(25.35 12.371) rotate(163.191)" fill="#fff"/>
    <path id="Path_2581" data-name="Path 2581" d="M126.829,168.556a.167.167,0,1,0,.109-.206A.166.166,0,0,0,126.829,168.556Z" transform="translate(-102.439 -158.964)" fill="#263238"/>
    <rect id="Rectangle_399" data-name="Rectangle 399" width="9.614" height="4.855" rx="1.34" transform="translate(26.419 22.875) rotate(-138.72)" fill="#76ba1b"/>
    <path id="Path_2582" data-name="Path 2582" d="M124.952,193.7l-1.072-3.123,3.849.481a5.668,5.668,0,0,1-1.312,3.106Z" transform="translate(-101.725 -171.474)" fill="#ffb573"/>
    <path id="Path_2583" data-name="Path 2583" d="M124.908,183.58l2.782.879-.044,2.655-3.836-.472Z" transform="translate(-101.655 -167.536)" fill="#ffb573"/>
    <path id="Path_2584" data-name="Path 2584" d="M123.995,196.67l5.293,1.037-.131,2.41-6.176-1.365Z" transform="translate(-102.89 -174.9)" fill="#76ba1b"/>
    <path id="Path_2585" data-name="Path 2585" d="M123.995,196.67l5.293,1.037-.131,2.41-6.176-1.365Z" transform="translate(-102.89 -174.9)" fill="#fff" opacity="0.4"/>
    <path id="Path_2586" data-name="Path 2586" d="M106.977,247.991l7.265-.293.608-.026,1.57-.066h.6l4.265-.175c.131-.022.245-.079.245-.162l.079-1.347c0-.092-.114-.166-.262-.162l-4.239.1H116.6l-2.086.061h-.494l-7,.2a.28.28,0,0,0-.245.122l-.061,1.527C106.675,247.894,106.806,247.995,106.977,247.991Z" transform="translate(-88.098 -202.517)" fill="#76ba1b"/>
    <path id="Path_2587" data-name="Path 2587" d="M106.977,247.991l7.265-.293.608-.026,1.57-.066h.6l4.265-.175c.131-.022.245-.079.245-.162l.079-1.347c0-.092-.114-.166-.262-.162l-4.239.1H116.6l-2.086.061h-.494l-7,.2a.28.28,0,0,0-.245.122l-.061,1.527C106.675,247.894,106.806,247.995,106.977,247.991Z" transform="translate(-88.098 -202.517)" fill="#fff" opacity="0.2"/>
    <path id="Path_2588" data-name="Path 2588" d="M111.924,247.352h-.468a.131.131,0,0,1-.166-.1l.131-1.907c0-.057.083-.114.179-.118l.468-.022c.1,0,.166.044.166.1l-.131,1.916a.193.193,0,0,1-.179.136Z" transform="translate(-80.723 -202.203)" fill="#263238"/>
    <path id="Path_2589" data-name="Path 2589" d="M130.411,248.361h-.437a.122.122,0,0,1-.153-.1l.122-1.916c0-.052.083-.109.171-.109h.437c.087,0,.157.035.157.1l-.127,1.907C130.572,248.322,130.5,248.353,130.411,248.361Z" transform="translate(-107.302 -202.788)" fill="#263238"/>
    <ellipse id="Ellipse_77" data-name="Ellipse 77" cx="0.569" cy="0.569" rx="0.569" ry="0.569" transform="translate(28.834 26.612)" fill="#fff" opacity="0.4"/>
    <path id="Path_2590" data-name="Path 2590" d="M115.59,222.589a.569.569,0,1,0,.569-.569A.569.569,0,0,0,115.59,222.589Z" transform="translate(-87.097 -189.162)" fill="#fff" opacity="0.4"/>
  </g>
  <g id="freepik--character-2--inject-106" transform="translate(6.832 54.487)">
    <path id="Path_2591" data-name="Path 2591" d="M336,233.136s-.223,2.489-4.623,4.059-2.979-1.29-2.979-1.29c2.021-1.378,1.92-2.883,1.19-4.335a9.364,9.364,0,0,0-.6-1.059l1.925-3.359,1.413-2.463C332.681,227.371,333.714,232.1,336,233.136Z" transform="translate(-283.28 -212.12)" fill="#7f3e3b"/>
    <path id="Path_2592" data-name="Path 2592" d="M358.991,222.372c-.184.044-.284.315-.227.595s.254.477.437.437.28-.315.227-.6S359.174,222.328,358.991,222.372Z" transform="translate(-320.091 -210.813)" fill="#263238"/>
    <path id="Path_2593" data-name="Path 2593" d="M358.372,219.383a.175.175,0,0,0,0-.245,1.75,1.75,0,0,0-1.474-.56h0a.171.171,0,1,0,.057.337,1.43,1.43,0,0,1,1.168.437.166.166,0,0,0,.153.052A.206.206,0,0,0,358.372,219.383Z" transform="translate(-318.2 -208.676)" fill="#263238"/>
    <path id="Path_2594" data-name="Path 2594" d="M358.7,226.023a1.413,1.413,0,0,1-1.185.14,9.184,9.184,0,0,0,.56-2.393Z" transform="translate(-318.803 -211.603)" fill="#630f0f"/>
    <path id="Path_2595" data-name="Path 2595" d="M345.306,208.281a4.7,4.7,0,0,0-6.587-.875c-3.062,2.218-2.48,7.506-1.089,10.459a4.65,4.65,0,0,0,8.219.5c1.378-2.187.9-4.256.385-7.79A4.719,4.719,0,0,0,345.306,208.281Z" transform="translate(-297.667 -201.853)" fill="#7f3e3b"/>
    <path id="Path_2596" data-name="Path 2596" d="M350.828,220.407c-.849.477-.914,2.187-.717,3.193.227,1.124,1.032,1.75,1.667.849a4.2,4.2,0,0,0,.687-2.515C352.416,220.788,351.677,219.93,350.828,220.407Z" transform="translate(-309.3 -209.635)" fill="#7f3e3b"/>
    <path id="Path_2597" data-name="Path 2597" d="M355.6,231.657a.717.717,0,0,0,.7-.849v-.048l-.214.044v.048a.494.494,0,0,1-.573.577l-.035.219Z" transform="translate(-315.538 -215.535)"/>
    <path id="Path_2598" data-name="Path 2598" d="M326.672,203.524a4.811,4.811,0,0,0,1.43,1.487,2.185,2.185,0,0,0,.359.2,1.979,1.979,0,0,0,2.231-.127,2.463,2.463,0,0,0,.118,1.562,4.949,4.949,0,0,0,1.142,1.71,2.4,2.4,0,0,1-.079-1.347,1.348,1.348,0,0,1,.5-.7,1.229,1.229,0,0,1,1.776.315,2.284,2.284,0,0,1,.109,1.75,4.519,4.519,0,0,0-.254,1.75c.092.591.6,1.172,1.19,1.076a1.5,1.5,0,0,0,.975.809,1.71,1.71,0,0,0,1.5-.241,1.214,1.214,0,0,0,.227-.223,1.636,1.636,0,0,0,.954.5,1.614,1.614,0,0,0,1.89-1.518,1.667,1.667,0,0,0,1-3.128,1.92,1.92,0,0,0-.267-3.631,1.986,1.986,0,0,0-.8-2.708,1.057,1.057,0,0,0-.223-.083.827.827,0,0,0-.411,0h-.066a.746.746,0,0,0-.2.1.083.083,0,0,1-.048,0,5.747,5.747,0,0,1-.538-.722l-.074-.1a.9.9,0,0,1-.083-.109c-.337-.437-.661-.875-.669-.656a3.333,3.333,0,0,0-5.686-2.546,2.222,2.222,0,0,0-3.884.9,2.56,2.56,0,0,0-3.005,1.912A4.847,4.847,0,0,0,326.672,203.524Z" transform="translate(-289.116 -195.954)" fill="#263238"/>
    <g id="freepik--group--inject-106" transform="translate(1.418 19.08)">
      <path id="Path_2599" data-name="Path 2599" d="M392.617,399.859l-3.145-1.089-1.072,7.782,3.145,1.085Z" transform="translate(-367.654 -329.135)" fill="#7f3e3b"/>
      <path id="Path_2600" data-name="Path 2600" d="M391.533,404.422l-3.193-.735.6-4.357,3.145,1.085Z" transform="translate(-367.095 -329.45)" opacity="0.2"/>
      <path id="Path_2601" data-name="Path 2601" d="M396.315,415c-1.063.538-2.83.8-5.538.722-.625,0-.989,1.312.367,1.645s4.05.954,5.039,1.155a24.238,24.238,0,0,1,2.572.665,1.369,1.369,0,0,0,1.71-.923,1.191,1.191,0,0,0,.035-.332,20.6,20.6,0,0,0-.359-2.725l-2.773-1.146C397.173,414.033,396.936,414.816,396.315,415Z" transform="translate(-376.335 -337.736)" fill="#7f3e3b"/>
      <path id="Path_2602" data-name="Path 2602" d="M351.828,313.272a24.821,24.821,0,0,1-1.837,8.748c-2.288,5.485-16.4,4.348-22.579,4.085.437,7.559-6.474,28.078-6.474,28.078l-5.608-1.492s2.655-19.2,2.524-29.644c-.136-9.536,21.871-10.459,21.871-10.459Z" transform="translate(-294.903 -280.652)" fill="#76ba1b"/>
      <path id="Path_2603" data-name="Path 2603" d="M351.828,313.25A24.821,24.821,0,0,1,349.991,322c-2.288,5.485-16.4,4.348-22.579,4.085.437,7.559-6.4,27.837-6.4,27.837l-5.686-1.64s2.655-18.809,2.506-29.272c-.136-9.536,21.871-10.459,21.871-10.459Z" transform="translate(-294.903 -280.629)" fill="#fff" opacity="0.3"/>
      <path id="Path_2604" data-name="Path 2604" d="M390.152,398.768l-7.388-1.968-.254,3.18,6.885,2.191Z" transform="translate(-362.612 -328.027)" fill="#76ba1b"/>
      <path id="Path_2605" data-name="Path 2605" d="M423.309,403.632l-2.979-1.492-2.41,7.392,2.974,1.492Z" transform="translate(-411.259 -331.031)" fill="#7f3e3b"/>
      <path id="Path_2606" data-name="Path 2606" d="M428.793,416.728c-1.063.538-2.83.8-5.538.722-.625,0-.989,1.312.367,1.645s4.05.954,5.039,1.155c1.61.324,3.749,1.028,3.845-.389a22.431,22.431,0,0,0,.114-2.926l-2.769-1.146C429.65,415.753,429.462,416.282,428.793,416.728Z" transform="translate(-422.696 -338.708)" fill="#7f3e3b"/>
      <path id="Path_2607" data-name="Path 2607" d="M420.6,406.406l-2.979-1.492,1.242-3.814,2.979,1.492Z" transform="translate(-409.66 -330.446)" opacity="0.2"/>
      <path id="Path_2608" data-name="Path 2608" d="M374.251,312.431s.652,6.124-1.22,10.6c-2.292,5.481-19.531,1.509-26.328,3.154-.324,10.682-9.623,28.677-9.623,28.677l-5.551-2.515s3.18-16.39,6.2-30.619c.779-10.634,24.906-9.785,25.051-9.759Z" transform="translate(-324.522 -280.287)" fill="#76ba1b"/>
      <path id="Path_2609" data-name="Path 2609" d="M374.251,312.084s.652,6.124-1.22,10.6c-2.292,5.481-19.531,1.509-26.328,3.154-.324,10.682-9.623,28.677-9.623,28.677L331.529,352s3.18-16.39,6.2-30.619c.814-11.342,28.589-10.008,28.734-10Z" transform="translate(-324.522 -279.94)" fill="#fff" opacity="0.5"/>
      <path id="Path_2610" data-name="Path 2610" d="M421.069,401.08l-7.191-2.83-.678,2.813,6.789,3.4Z" transform="translate(-406.954 -328.843)" fill="#76ba1b"/>
      <g id="freepik--monitor-screen--inject-106" transform="translate(13.768 11.579)">
        <g id="freepik--PC--inject-106">
          <path id="Path_2611" data-name="Path 2611" d="M349.541,286.684l25.724-1.649-2.471-16.215-25.724,1.645Z" transform="translate(-345.993 -267.607)" fill="#76ba1b"/>
          <path id="Path_2612" data-name="Path 2612" d="M348.3,286.375l25.37-1.623a1.177,1.177,0,0,0,1.107-1.378l-2.467-16.114a1.452,1.452,0,0,0-1.5-1.212l-25.37,1.623a1.172,1.172,0,0,0-1.107,1.378l2.454,16.114A1.452,1.452,0,0,0,348.3,286.375Z" transform="translate(-344.32 -266.047)" fill="#76ba1b"/>
          <path id="Path_2613" data-name="Path 2613" d="M349.541,286.684l25.724-1.649-2.471-16.215-25.724,1.645Z" transform="translate(-345.993 -267.607)" fill="#76ba1b"/>
          <path id="Path_2614" data-name="Path 2614" d="M349.541,286.684l25.724-1.649-2.471-16.215-25.724,1.645Z" transform="translate(-345.993 -267.607)" fill="#fff" opacity="0.9"/>
          <path id="Path_2615" data-name="Path 2615" d="M393.362,279.164l4.724-.3-.4-2.642-4.724.3Z" transform="translate(-388.887 -271.77)" fill="#76ba1b"/>
          <path id="Path_2616" data-name="Path 2616" d="M391.552,291.074l4.724-.3-.4-2.642-4.724.3Z" transform="translate(-386.285 -278.471)" fill="#76ba1b"/>
          <path id="Path_2617" data-name="Path 2617" d="M389.732,302.994l4.724-.3-.4-2.642-4.724.3Z" transform="translate(-383.669 -285.176)" fill="#76ba1b"/>
          <path id="Path_2618" data-name="Path 2618" d="M386.232,268.89l6.229,18.476-1.688.1L384.6,268.995Z" transform="translate(-379.604 -267.646)" fill="#fff" opacity="0.1"/>
          <path id="Path_2619" data-name="Path 2619" d="M393.858,269.27l6.229,18.476-3.355.214-6.172-18.476Z" transform="translate(-389.837 -267.86)" fill="#fff" opacity="0.1"/>
          <path id="Path_2620" data-name="Path 2620" d="M367.634,299.16l.026.149-13.634.875L354,300.03Z" transform="translate(-341.419 -284.676)" fill="#76ba1b"/>
          <path id="Path_2621" data-name="Path 2621" d="M356.126,284.062l13.612-.87-1.422-9.352-13.617.87Z" transform="translate(-343.803 -270.431)" fill="#76ba1b"/>
          <path id="Path_2622" data-name="Path 2622" d="M354.438,301.965h0a.63.63,0,0,0,.591-.739h0a.77.77,0,0,0-.8-.647h0a.626.626,0,0,0-.591.735h0A.774.774,0,0,0,354.438,301.965Z" transform="translate(-328.634 -285.473)" fill="#76ba1b"/>
          <path id="Path_2623" data-name="Path 2623" d="M354.392,297.512l6.806-.433-.087-.6-6.811.437Z" transform="translate(-335.088 -283.168)" fill="#76ba1b"/>
          <path id="Path_2624" data-name="Path 2624" d="M378.742,303.75l2.629-.171-.088-.6-2.633.171Z" transform="translate(-365.912 -286.825)" fill="#76ba1b"/>
          <path id="Path_2625" data-name="Path 2625" d="M384.137,299.019l.6-.039-.092-.6-.6.039Z" transform="translate(-371.644 -284.237)" fill="#76ba1b"/>
          <path id="Path_2626" data-name="Path 2626" d="M381.807,298.869l.6-.039-.092-.6-.6.039Z" transform="translate(-368.295 -284.153)" fill="#76ba1b"/>
          <path id="Path_2627" data-name="Path 2627" d="M379.478,298.719l.6-.039-.092-.6-.6.039Z" transform="translate(-364.946 -284.068)" fill="#76ba1b"/>
          <path id="Path_2628" data-name="Path 2628" d="M354.392,297.512l6.806-.433-.087-.6-6.811.437Z" transform="translate(-335.088 -283.168)" fill="#fff" opacity="0.2"/>
          <path id="Path_2629" data-name="Path 2629" d="M354,300.03l13.634-.87.026.149-13.634.875Z" transform="translate(-341.419 -284.676)" opacity="0.2"/>
        </g>
      </g>
      <path id="Path_2630" data-name="Path 2630" d="M365.65,310.065l-8.547.661c-.044,1.006.437,1.334.962,1.29l2.734-.219,1.824-.153,2.839-.219,13.057-.875V309.3Z" transform="translate(-339.865 -278.801)" fill="#76ba1b"/>
      <path id="Path_2631" data-name="Path 2631" d="M365.65,310.065l-8.547.661c-.044,1.006.437,1.334.962,1.29l2.734-.219,1.824-.153,2.839-.219,13.057-.875V309.3Z" transform="translate(-339.865 -278.801)" opacity="0.4"/>
      <path id="Path_2632" data-name="Path 2632" d="M363.689,282.7v-.022h.022l.464-.026-.022-.245h-.035v-.2h.035l-.031-1.1h.022a1.094,1.094,0,0,1,.989-.057h.026l.1,1.1h.031v.2h-.035v.245l.464-.031h.022v.022h0a3.574,3.574,0,0,1-.022.5,4.583,4.583,0,0,1,.573-.227,2.462,2.462,0,0,1,.341-.092.547.547,0,0,0,.144-.437,1.506,1.506,0,0,0-.1-.3h.022a1.373,1.373,0,0,1-1.01-.919.5.5,0,0,1-.171-.184c-.175,0-.337-.319-.359-.722s.087-.7.249-.748a1.089,1.089,0,0,1,.061-.923,1.715,1.715,0,0,1,1.352-.625c.875-.087,1.448.07,1.75.464a1.312,1.312,0,0,1,.227,1.032,1.19,1.19,0,0,1,.166.577c.022.4-.1.735-.276.761-.066.144-.153.236-.258.241a.245.245,0,0,1-.188-.083,1.548,1.548,0,0,1-.372.735,1.592,1.592,0,0,0,.359,1.059,2.708,2.708,0,0,1,.875.249,4.43,4.43,0,0,1,1.054.621,4.73,4.73,0,0,1,.232,2.161l-6.08.389.044-1.583a2.155,2.155,0,0,1,.157-.372c-.529-.087-.827-.573-.875-1.448Zm4.623-3.722a.088.088,0,0,0,.031.079.123.123,0,0,1,.057,0,.28.28,0,0,1,.219.118.932.932,0,0,0-.184-.617,1.665,1.665,0,0,0-1.513-.359,1.465,1.465,0,0,0-1.142.49.722.722,0,0,0-.07.538h.079a1.439,1.439,0,0,1,.761-.9,1.338,1.338,0,0,1,1.772.652Zm-2.625,4.155a2.91,2.91,0,0,0,.026-.494l-.407.022.022.691a2.352,2.352,0,0,1,.354-.219Zm-1.037.927a3,3,0,0,1,.569-.6,1.1,1.1,0,0,1-.91.022h-.022l-.066-.73-.407.022C363.89,283.557,364.162,283.981,364.652,284.06Z" transform="translate(-334.615 -261.128)" fill="#76ba1b"/>
      <path id="Path_2633" data-name="Path 2633" d="M363.689,282.7v-.022h.022l.464-.026-.022-.245h-.035v-.2h.035l-.031-1.1h.022a1.094,1.094,0,0,1,.989-.057h.026l.1,1.1h.031v.2h-.035v.245l.464-.031h.022v.022h0a3.574,3.574,0,0,1-.022.5,4.583,4.583,0,0,1,.573-.227,2.462,2.462,0,0,1,.341-.092.547.547,0,0,0,.144-.437,1.506,1.506,0,0,0-.1-.3h.022a1.373,1.373,0,0,1-1.01-.919.5.5,0,0,1-.171-.184c-.175,0-.337-.319-.359-.722s.087-.7.249-.748a1.089,1.089,0,0,1,.061-.923,1.715,1.715,0,0,1,1.352-.625c.875-.087,1.448.07,1.75.464a1.312,1.312,0,0,1,.227,1.032,1.19,1.19,0,0,1,.166.577c.022.4-.1.735-.276.761-.066.144-.153.236-.258.241a.245.245,0,0,1-.188-.083,1.548,1.548,0,0,1-.372.735,1.592,1.592,0,0,0,.359,1.059,2.708,2.708,0,0,1,.875.249,4.43,4.43,0,0,1,1.054.621,4.73,4.73,0,0,1,.232,2.161l-6.08.389.044-1.583a2.155,2.155,0,0,1,.157-.372c-.529-.087-.827-.573-.875-1.448Zm4.623-3.722a.088.088,0,0,0,.031.079.123.123,0,0,1,.057,0,.28.28,0,0,1,.219.118.932.932,0,0,0-.184-.617,1.665,1.665,0,0,0-1.513-.359,1.465,1.465,0,0,0-1.142.49.722.722,0,0,0-.07.538h.079a1.439,1.439,0,0,1,.761-.9,1.338,1.338,0,0,1,1.772.652Zm-2.625,4.155a2.91,2.91,0,0,0,.026-.494l-.407.022.022.691a2.352,2.352,0,0,1,.354-.219Zm-1.037.927a3,3,0,0,1,.569-.6,1.1,1.1,0,0,1-.91.022h-.022l-.066-.73-.407.022C363.89,283.557,364.162,283.981,364.652,284.06Z" transform="translate(-334.615 -261.128)" opacity="0.2"/>
      <path id="Path_2634" data-name="Path 2634" d="M386,311.71v.35a.91.91,0,0,0,.98.94l2.734-.219,5.061-.354-.227-1.378Z" transform="translate(-368.763 -279.785)" opacity="0.2"/>
      <path id="Path_2635" data-name="Path 2635" d="M335.041,241.073l-8.311,1.063a4.526,4.526,0,0,1,3.806-2.5A5.345,5.345,0,0,1,335.041,241.073Z" transform="translate(-283.103 -239.574)" fill="#76ba1b"/>
      <path id="Path_2636" data-name="Path 2636" d="M333.323,256.932c-.332,6.561-.192,13.267-.989,16.884l-2,.534a21.7,21.7,0,0,1-10.708.122l-5.936-1.443c.035-6.229-.5-18.371-.792-24.408a4.689,4.689,0,0,1,3.324-4.715c.573-.175,1.085-.319,1.4-.389a66.168,66.168,0,0,1,7.48-.936,34.89,34.89,0,0,1,3.757-.083l.621.026a3.6,3.6,0,0,1,2.721,1.868C333.4,248.044,333.52,252.982,333.323,256.932Z" transform="translate(-275.41 -241.209)" fill="#76ba1b"/>
      <path id="Path_2637" data-name="Path 2637" d="M333.323,256.932c-.332,6.561-.192,13.267-.989,16.884l-2,.534a21.7,21.7,0,0,1-10.708.122l-5.936-1.443c.035-6.229-.5-18.371-.792-24.408a4.689,4.689,0,0,1,3.324-4.715c.573-.175,1.085-.319,1.4-.389a66.168,66.168,0,0,1,7.48-.936,34.89,34.89,0,0,1,3.757-.083l.621.026a3.6,3.6,0,0,1,2.721,1.868C333.4,248.044,333.52,252.982,333.323,256.932Z" transform="translate(-275.41 -241.209)" fill="#263238"/>
      <path id="Path_2638" data-name="Path 2638" d="M358.684,248.23c-.192,2.826-.437,5.713-.7,8.547-.14,1.422-.293,2.839-.477,4.239s-.385,2.8-.656,4.134c-.136.669-.28,1.312-.437,1.942-.088.311-.179.6-.271.875-.052.127-.1.284-.149.385l-.07.166a.538.538,0,0,0-.022.066.73.73,0,0,1,.079-.122c.088-.109.122-.087.1-.079a1.142,1.142,0,0,1-.193.162,4.639,4.639,0,0,1-.682.367,18.567,18.567,0,0,1-1.807.665c-2.6.8-5.743,2.248-8.525,2.865l.2,2.493a37.649,37.649,0,0,0,11.648-1.977,8.442,8.442,0,0,0,1.312-.521,6.427,6.427,0,0,0,.739-.437,3.692,3.692,0,0,0,1.1-1.194l.092-.179.162-.328c.118-.223.188-.407.28-.617.166-.407.315-.8.437-1.185.249-.765.437-1.518.647-2.275a77.162,77.162,0,0,0,1.513-8.88c.166-1.47.306-2.926.437-4.4s.236-2.931.3-4.431Z" transform="translate(-319.737 -244.444)" fill="#7f3e3b"/>
      <path id="Path_2639" data-name="Path 2639" d="M388.98,305.222c-.38,1.072-4.05.875-4.05.875l.332-3.447,3.289.591Z" transform="translate(-362.5 -275.06)" fill="#7f3e3b"/>
      <path id="Path_2640" data-name="Path 2640" d="M395.993,302.61l-.332,3.447-2.231.337.556-2.419Z" transform="translate(-373.231 -275.037)" fill="#7f3e3b"/>
      <path id="Path_2641" data-name="Path 2641" d="M350.343,248.206c.63,2.135-.026,8.56-1.15,11.57l-7.655-.809s-.91-8.709.827-11.237C345.155,243.692,349.407,244.926,350.343,248.206Z" transform="translate(-305.023 -242.732)" fill="#263238"/>
    </g>
    <path id="Path_2642" data-name="Path 2642" d="M430.279,415.677l3.114,1.2a.3.3,0,0,1,.188.346l-.731,4.641a.6.6,0,0,1-.739.437l-.066-.022c-1.347-.538-1.973-.875-3.692-1.509-1.054-.394-4.457-1.115-5.783-1.933s-.586-2.187.039-1.951a7.9,7.9,0,0,0,6.474-.949A2.884,2.884,0,0,1,430.279,415.677Z" transform="translate(-421.833 -319.556)" fill="#263238"/>
    <path id="Path_2643" data-name="Path 2643" d="M432.533,417.523l-.031.039a.529.529,0,0,1-.516,0,.319.319,0,0,1-.184-.258c-.057-.494,1.054-1.4,1.164-1.487a.088.088,0,0,1,.1,0,.1.1,0,0,1,.048.087C433.057,416.395,432.917,417.27,432.533,417.523Zm.367-1.435c-.437.367-.958.914-.923,1.181a.127.127,0,0,0,.088.109.341.341,0,0,0,.341,0c.219-.127.411-.595.49-1.29Z" transform="translate(-425.722 -319.636)" fill="#76ba1b"/>
    <path id="Path_2644" data-name="Path 2644" d="M433.583,415.82c-.4.276-1.269.586-1.623.394a.328.328,0,0,1-.149-.376.438.438,0,0,1,.254-.324c.49-.289,1.562.061,1.605.074a.092.092,0,0,1,.074.057.1.1,0,0,1-.031.087Zm-1.457-.149a.28.28,0,0,0-.127.192c-.026.118,0,.157.052.179a2,2,0,0,0,1.382-.346,2.084,2.084,0,0,0-1.282-.039h-.026Z" transform="translate(-426.348 -319.411)" fill="#76ba1b"/>
    <path id="Path_2645" data-name="Path 2645" d="M397.353,413.45l3.184.954a.293.293,0,0,1,.223.311l-.131,4.427a.547.547,0,0,1-.669.437h-.066c-1.378-.437-2.025-.7-3.779-1.212-1.072-.315-4.479-.8-5.87-1.5s-.84-2.016-.206-1.846a7.633,7.633,0,0,0,6.181-1.269A3.062,3.062,0,0,1,397.353,413.45Z" transform="translate(-374.809 -318.314)" fill="#263238"/>
    <path id="Path_2646" data-name="Path 2646" d="M400.4,415.723l-.039.031a.533.533,0,0,1-.5-.118.319.319,0,0,1-.127-.293c.048-.494,1.312-1.137,1.457-1.2a.088.088,0,0,1,.1,0,.1.1,0,0,1,.031.1C401.154,414.734,400.83,415.557,400.4,415.723Zm.669-1.312c-.5.267-1.137.687-1.159.954a.136.136,0,0,0,.066.127.367.367,0,0,0,.332.088c.236-.079.525-.494.748-1.159Z" transform="translate(-379.904 -318.693)" fill="#76ba1b"/>
    <path id="Path_2647" data-name="Path 2647" d="M401.5,413.833a2.177,2.177,0,0,1-1.671.039.332.332,0,0,1-.061-.4.472.472,0,0,1,.315-.262c.542-.175,1.513.4,1.553.437a.088.088,0,0,1,.061.074.119.119,0,0,1-.048.079Zm-1.391-.437a.288.288,0,0,0-.166.162.221.221,0,0,0,0,.184,2,2,0,0,0,1.422-.039c-.332-.171-.914-.437-1.247-.315H400.1Z" transform="translate(-380.276 -318.159)" fill="#76ba1b"/>
    <path id="Path_2648" data-name="Path 2648" d="M341.491,217.8h0a2.9,2.9,0,1,0,3.18,4.838,2.748,2.748,0,0,0,.507-3.547C344.3,217.753,342.821,216.922,341.491,217.8Z" transform="translate(-298.108 -208.04)" fill="#76ba1b"/>
    <path id="Path_2649" data-name="Path 2649" d="M335.708,206.041a6.75,6.75,0,0,1,3.062-2.051s.949,1.273,1.059,1.338a9.361,9.361,0,0,0-2.887,1.776,14.25,14.25,0,0,0-2.178,3.889l-1.347-.818a10.28,10.28,0,0,1,2.292-4.134Z" transform="translate(-289.399 -200.475)" fill="#76ba1b"/>
    <g id="Group_3596" data-name="Group 3596" transform="translate(44.017 3.515)" opacity="0.3">
      <path id="Path_2650" data-name="Path 2650" d="M335.708,206.041a6.75,6.75,0,0,1,3.062-2.051s.949,1.273,1.059,1.338a9.361,9.361,0,0,0-2.887,1.776,14.25,14.25,0,0,0-2.178,3.889l-1.347-.818a10.28,10.28,0,0,1,2.292-4.134Z" transform="translate(-333.416 -203.99)"/>
    </g>
    <path id="Path_2651" data-name="Path 2651" d="M344.14,220.223a2.077,2.077,0,0,0-.2,2.839,2.031,2.031,0,0,0,2.668.923c.8-.525.647-1.824-.031-2.856S344.932,219.681,344.14,220.223Z" transform="translate(-301.121 -209.473)" opacity="0.3"/>
    <path id="Path_2652" data-name="Path 2652" d="M347.719,224.768l-2.69-2.148-.079.5,2.34,1.925Z" transform="translate(-302.333 -210.956)" fill="#263238"/>
  </g>
  <g id="freepik--Chair--inject-106" transform="translate(30.698 84.28)">
    <path id="Path_2653" data-name="Path 2653" d="M332.007,373.73l3.289,24.246h-1.181L329.85,373.73Z" transform="translate(-307.17 -325.76)" fill="#263238"/>
    <path id="Path_2654" data-name="Path 2654" d="M303.545,265.116c2.45-1.518,6.666-1.242,9.326-.136a17.442,17.442,0,0,1,6.649,5.385c6.517,8.1,8.656,22.151,6.78,32.369a19.03,19.03,0,0,1-11.657,15.708,36.306,36.306,0,0,1-16.093,3.937,27.872,27.872,0,0,1-15.747-4.763,19.086,19.086,0,0,1-7.37-9.334,12.732,12.732,0,0,1,1.443-11.425c2.108-2.939,5.625-4.435,9.1-5.433.367-.1.739-.2,1.115-.276,6.049-1.312,10.555-9.413,11.408-15.546C298.489,275.57,300.169,267.211,303.545,265.116Z" transform="translate(-274.707 -264.063)" fill="#76ba1b"/>
    <path id="Path_2655" data-name="Path 2655" d="M296.636,383.8l4.212,21.521h-1.513L293.88,383.8Z" transform="translate(-256.989 -331.425)" fill="#263238"/>
    <path id="Path_2656" data-name="Path 2656" d="M359.672,383.8l-4.212,21.521h1.509l5.459-21.521Z" transform="translate(-345.505 -331.425)" fill="#263238"/>
  </g>
  <g id="freepik--Podcaster--inject-106" transform="translate(52.902)">
    <path id="Path_2657" data-name="Path 2657" d="M177.068,120.23h.07a.223.223,0,0,0,.14-.276,27.99,27.99,0,0,0-1.841-4.4.219.219,0,1,0-.385.206,27.768,27.768,0,0,1,1.811,4.33A.214.214,0,0,0,177.068,120.23Z" transform="translate(-103.639 -96.162)" fill="#76ba1b"/>
    <path id="Path_2658" data-name="Path 2658" d="M171.82,153.049a.223.223,0,0,0,.188-.114,30.325,30.325,0,0,0,2.76-21.044.228.228,0,0,0-.262-.166.219.219,0,0,0-.166.262,29.876,29.876,0,0,1-2.712,20.733.214.214,0,0,0,.083.3.2.2,0,0,0,.109.031Z" transform="translate(-100.377 -105.33)" fill="#76ba1b"/>
    <path id="Path_2659" data-name="Path 2659" d="M166.474,138.442a.219.219,0,0,0,.214-.166,26.538,26.538,0,0,0-2.187-18.035.219.219,0,0,0-.293-.092.214.214,0,0,0-.092.293,26.114,26.114,0,0,1,2.13,17.733.219.219,0,0,0,.166.262Z" transform="translate(-88.952 -98.806)" fill="#76ba1b"/>
    <path id="Path_2660" data-name="Path 2660" d="M167.855,171.133a.219.219,0,0,0,.192-.109,22.05,22.05,0,0,0,1.43-3.123.219.219,0,1,0-.407-.153,21.7,21.7,0,0,1-1.409,3.062.219.219,0,0,0,.192.324Z" transform="translate(-92.624 -125.505)" fill="#76ba1b"/>
    <path id="Path_2661" data-name="Path 2661" d="M159.939,129.858h.052a.223.223,0,0,0,.162-.267,20.3,20.3,0,0,0-1.754-4.772.219.219,0,1,0-.385.2,20.094,20.094,0,0,1,1.7,4.667A.219.219,0,0,0,159.939,129.858Z" transform="translate(-79.057 -101.368)" fill="#76ba1b"/>
    <path id="Path_2662" data-name="Path 2662" d="M156.812,154.752a.219.219,0,0,0,.188-.109,21.136,21.136,0,0,0,2.371-12.27.22.22,0,1,0-.437.039,20.7,20.7,0,0,1-2.314,12.016.219.219,0,0,0,.083.3A.236.236,0,0,0,156.812,154.752Z" transform="translate(-77.79 -111.21)" fill="#76ba1b"/>
    <path id="Path_2663" data-name="Path 2663" d="M321.137,137.971h.057a.214.214,0,0,0,.153-.267,30.409,30.409,0,0,1,2.222-21.928.218.218,0,1,0-.385-.206,30.842,30.842,0,0,0-2.257,22.247A.219.219,0,0,0,321.137,137.971Z" transform="translate(-313.281 -96.179)" fill="#76ba1b"/>
    <path id="Path_2664" data-name="Path 2664" d="M321.188,175.679a.2.2,0,0,0,.109-.031.214.214,0,0,0,.083-.3,25.6,25.6,0,0,1-1.527-3.263.214.214,0,0,0-.28-.127.219.219,0,0,0-.127.284,25.892,25.892,0,0,0,1.553,3.32A.223.223,0,0,0,321.188,175.679Z" transform="translate(-310.931 -127.96)" fill="#76ba1b"/>
    <path id="Path_2665" data-name="Path 2665" d="M328.761,133.935h0a.223.223,0,0,0,.206-.232,25.624,25.624,0,0,1,2.756-13.284.219.219,0,0,0-.385-.2,26.03,26.03,0,0,0-2.808,13.512A.223.223,0,0,0,328.761,133.935Z" transform="translate(-325.215 -98.805)" fill="#76ba1b"/>
    <path id="Path_2666" data-name="Path 2666" d="M330.923,165.418a.219.219,0,0,0,.192-.324,23.092,23.092,0,0,1-2.576-7.484.222.222,0,0,0-.437.07,23.485,23.485,0,0,0,2.625,7.628A.219.219,0,0,0,330.923,165.418Z" transform="translate(-324.454 -119.79)" fill="#76ba1b"/>
    <path id="Path_2667" data-name="Path 2667" d="M337.272,128.623a.214.214,0,0,0,.206-.157,19.687,19.687,0,0,1,1.4-3.434.221.221,0,1,0-.4-.192,19.377,19.377,0,0,0-1.426,3.5.223.223,0,0,0,.144.276Z" transform="translate(-336.118 -101.388)" fill="#76ba1b"/>
    <path id="Path_2668" data-name="Path 2668" d="M339.442,153.02a.236.236,0,0,0,.109-.026.219.219,0,0,0,.083-.3,20.749,20.749,0,0,1-2.143-13.346.227.227,0,0,0-.184-.254.223.223,0,0,0-.249.184,21.23,21.23,0,0,0,2.187,13.63A.219.219,0,0,0,339.442,153.02Z" transform="translate(-336.766 -109.479)" fill="#76ba1b"/>
    <path id="Path_2669" data-name="Path 2669" d="M245.041,72.967a.221.221,0,0,0,.057-.437,31.376,31.376,0,0,0-15.266-.381.219.219,0,0,0-.166.262.214.214,0,0,0,.258.166,31,31,0,0,1,15.047.372Z" transform="translate(-195.544 -71.387)" fill="#76ba1b"/>
    <path id="Path_2670" data-name="Path 2670" d="M220.132,77.832a.219.219,0,0,0,.1-.407,25.964,25.964,0,0,0-3.307-1.553.219.219,0,0,0-.28.127.214.214,0,0,0,.122.28,25.369,25.369,0,0,1,3.25,1.527.236.236,0,0,0,.109.026Z" transform="translate(-164.9 -73.903)" fill="#76ba1b"/>
    <ellipse id="Ellipse_78" data-name="Ellipse 78" cx="31.144" cy="31.144" rx="31.144" ry="31.144" transform="translate(9.719 2.25)" fill="#76ba1b"/>
    <ellipse id="Ellipse_79" data-name="Ellipse 79" cx="31.144" cy="31.144" rx="31.144" ry="31.144" transform="translate(9.719 2.25)" fill="#fff" opacity="0.9"/>
    <path id="Path_2671" data-name="Path 2671" d="M209.521,139.123a31.581,31.581,0,1,0-31.581-31.581A31.581,31.581,0,0,0,209.521,139.123Zm0-62.288a30.7,30.7,0,1,0,0,.017Z" transform="translate(-168.733 -73.96)" fill="#76ba1b"/>
    <g id="Group_3598" data-name="Group 3598" transform="translate(9.719 2.25)" clip-path="url(#clip-path)">
      <path id="Path_2672" data-name="Path 2672" d="M237.581,104.218c.092-.227,2.187-5.616-.787-9.767-2.266-3.18-6.754-4.641-13.35-4.348-5.288.236-8.88,1.645-10.669,4.186-2.152,3.062-1.032,6.675-.608,8.035l.048.162,2.091-.639-.052-.171c-.367-1.181-1.22-3.937.311-6.124,1.378-1.96,4.4-3.062,8.98-3.263,5.8-.258,9.663.875,11.465,3.434,2.279,3.193.556,7.65.538,7.694Z" transform="translate(-190.411 -84.145)" fill="#263238"/>
      <path id="Path_2673" data-name="Path 2673" d="M270.7,121.417c0,3.154-1.133,5.713-2.528,5.713s-2.533-2.559-2.533-5.713,1.133-5.717,2.533-5.717S270.7,118.259,270.7,121.417Z" transform="translate(-246.411 -98.566)" fill="#263238"/>
      <path id="Path_2674" data-name="Path 2674" d="M270.7,121.417c0,3.154-1.133,5.713-2.528,5.713s-2.533-2.559-2.533-5.713,1.133-5.717,2.533-5.717S270.7,118.259,270.7,121.417Z" transform="translate(-246.411 -98.566)" fill="#fff" opacity="0.2"/>
      <ellipse id="Ellipse_80" data-name="Ellipse 80" cx="3.302" cy="7.458" rx="3.302" ry="7.458" transform="translate(20.475 15.393)" fill="#263238"/>
      <path id="Path_2675" data-name="Path 2675" d="M209.937,76.53a31.14,31.14,0,0,1,23.852,51.178l.083-.354c0-1.6-5.389-4.374-6.78-5.17a23.213,23.213,0,0,0-10.546-2.817,36.465,36.465,0,0,0-10.97.91c-6,1.592-8.678,3.648-8.678,3.648-2.235,2.13-4.812,2.988-6.784,7.786a31.144,31.144,0,0,1,19.824-55.18Z" transform="translate(-178.806 -76.53)" fill="none"/>
      <path id="Path_2676" data-name="Path 2676" d="M202.034,178.909s2.677-2.056,8.678-3.648a36.359,36.359,0,0,1,10.97-.91,23.253,23.253,0,0,1,10.546,2.817c1.391.8,6.78,3.574,6.78,5.17l-.083.354a31.144,31.144,0,0,1-43.676,4C197.227,181.9,199.8,181.039,202.034,178.909Z" transform="translate(-183.93 -131.528)" fill="#76ba1b"/>
      <path id="Path_2677" data-name="Path 2677" d="M228.446,150.612c1.264,3.3,1.623,6.876-4.5,8.372,0,0-2.966,4.553,6.684,5.249,10.3.713,10.546-6.2,10.546-6.2-4.046-2.681-3.381-10.695-2.55-15.065Z" transform="translate(-198.466 -113.908)" fill="#ff8b7b"/>
      <path id="Path_2678" data-name="Path 2678" d="M242.6,155.965c-.153,1.916-3.254,5.017-6.942,3.3a11.714,11.714,0,0,0-.665-2.41l6.032-4.523C241.244,152.772,242.652,154.919,242.6,155.965Z" transform="translate(-204.912 -119.174)" opacity="0.2"/>
      <path id="Path_2679" data-name="Path 2679" d="M242.116,106.655c-.722,7.489-.752,11.915-4.685,15.646-5.883,5.625-15.06,1.85-16.622-5.686-1.378-6.815,0-17.934,7.48-20.677A10.284,10.284,0,0,1,242.1,106.673Z" transform="translate(-198.055 -87.085)" fill="#ff8b7b"/>
      <path id="Path_2680" data-name="Path 2680" d="M222.4,127.54a7.126,7.126,0,0,1-3.254,4.422c-2.156,1.282-3.889-.49-3.836-2.865.044-2.148,1.238-5.371,3.679-5.686S222.942,125.292,222.4,127.54Z" transform="translate(-176.205 -102.888)" fill="#ff8b7b"/>
      <path id="Path_2681" data-name="Path 2681" d="M248.112,123.677c0,.612-.363,1.1-.752,1.076s-.709-.512-.691-1.129.363-1.1.722-1.115S248.169,123.087,248.112,123.677Z" transform="translate(-215.529 -102.397)" fill="#263238"/>
      <path id="Path_2682" data-name="Path 2682" d="M263.865,123.236c0,.617-.354,1.1-.717,1.107s-.709-.516-.687-1.133.363-1.1.765-1.08S263.873,122.615,263.865,123.236Z" transform="translate(-238.184 -102.183)" fill="#263238"/>
      <path id="Path_2683" data-name="Path 2683" d="M260.571,125.51a22.221,22.221,0,0,1-3.1,5.131,3.521,3.521,0,0,0,2.931.665Z" transform="translate(-232.708 -104.085)" fill="#ff5652"/>
      <path id="Path_2684" data-name="Path 2684" d="M259.989,116.375a.359.359,0,0,1-.035-.5.333.333,0,0,1,.219-.118,3.561,3.561,0,0,1,3.128,1,.363.363,0,0,1-.022.507h0a.363.363,0,0,1-.507-.039,2.843,2.843,0,0,0-2.489-.8.346.346,0,0,1-.293-.044Z" transform="translate(-236.579 -98.568)" fill="#263238"/>
      <path id="Path_2685" data-name="Path 2685" d="M244.478,117.372a.354.354,0,0,1-.262-.437.372.372,0,0,1,.136-.206,3.565,3.565,0,0,1,3.237-.556.354.354,0,0,1,.214.437h0a.367.367,0,0,1-.472.206,2.83,2.83,0,0,0-2.576.437A.337.337,0,0,1,244.478,117.372Z" transform="translate(-214.152 -98.738)" fill="#263238"/>
      <path id="Path_2686" data-name="Path 2686" d="M242.5,142.894s2.314-.761,8.665-1.054c-.945,2.406-2.493,4.374-5.748,4.532S242.5,142.894,242.5,142.894Z" transform="translate(-216.749 -113.272)" fill="#263238"/>
      <path id="Path_2687" data-name="Path 2687" d="M251.009,147.745a5.687,5.687,0,0,0-3.639,1.286,2.625,2.625,0,0,0,1.955.612,5.608,5.608,0,0,0,3.626-1.286A2.625,2.625,0,0,0,251.009,147.745Z" transform="translate(-220.67 -116.588)" fill="#ff5652"/>
      <path id="Path_2688" data-name="Path 2688" d="M243.13,142.794a1.251,1.251,0,0,0,.9,1.129,29.5,29.5,0,0,0,5.665-.875,2.187,2.187,0,0,0,1.531-1.238A43.766,43.766,0,0,0,243.13,142.794Z" transform="translate(-217.086 -113.256)" fill="#fff"/>
      <path id="Path_2689" data-name="Path 2689" d="M244.632,196.1l3.005-4.374a.494.494,0,0,1,.669-.136l5.131,3.259.516-2.323a.341.341,0,0,1,.332-.262h.91a.333.333,0,0,1,.328.328l.118,8.075h0l2.764,2.721c-.783.057-1.57.1-2.366.1s-1.688-.039-2.52-.109-1.78-.179-2.651-.324a14.812,14.812,0,0,1-2.922-2.288v-.031l-3.272-4.064A.486.486,0,0,1,244.632,196.1Z" transform="translate(-224.896 -141.219)" fill="#ff8b7b"/>
      <ellipse id="Ellipse_81" data-name="Ellipse 81" cx="3.302" cy="7.458" rx="3.302" ry="7.458" transform="translate(40.815 15.393)" fill="#263238"/>
      <path id="Path_2690" data-name="Path 2690" d="M209.91,121.417c0,3.154,1.133,5.713,2.533,5.713s2.528-2.559,2.528-5.713-1.133-5.717-2.528-5.717S209.91,118.259,209.91,121.417Z" transform="translate(-166.304 -98.566)" fill="#263238"/>
      <path id="Path_2691" data-name="Path 2691" d="M209.91,121.417c0,3.154,1.133,5.713,2.533,5.713s2.528-2.559,2.528-5.713-1.133-5.717-2.528-5.717S209.91,118.259,209.91,121.417Z" transform="translate(-166.304 -98.566)" fill="#fff" opacity="0.2"/>
      <path id="Path_2692" data-name="Path 2692" d="M277.558,182.332c5.249,0,8.057-4.059,8.193-11.745a.437.437,0,1,0-.875,0c-.127,7.222-2.59,10.883-7.318,10.883-4.812,0-7.2-3.561-7.314-10.883a.437.437,0,0,0-.437-.437h0a.437.437,0,0,0-.437.437C269.488,178.4,272.244,182.332,277.558,182.332Z" transform="translate(-263.093 -129.199)" fill="#263238"/>
      <path id="Path_2693" data-name="Path 2693" d="M269.807,171.035h15.506a.437.437,0,1,0,0-.875H269.807a.437.437,0,0,0,0,.875Z" transform="translate(-263.093 -129.205)" fill="#263238"/>
      <path id="Path_2694" data-name="Path 2694" d="M278.36,150.864h8.516l-.262-9.212-.175-.083a8.407,8.407,0,0,0-7.642,0l-.179.083Z" transform="translate(-268.151 -112.603)" fill="#263238"/>
      <g id="Group_3597" data-name="Group 3597" transform="translate(10.209 28.047)" opacity="0.1">
        <path id="Path_2695" data-name="Path 2695" d="M278.36,150.864h8.516l-.262-9.212-.175-.083a8.407,8.407,0,0,0-7.642,0l-.179.083Z" transform="translate(-278.36 -140.65)" fill="#fafafa"/>
      </g>
      <path id="Path_2696" data-name="Path 2696" d="M286.876,164H278.36l.258,9.186.179.092a8.433,8.433,0,0,0,7.642,0l.157-.092Z" transform="translate(-268.151 -125.739)" fill="#263238"/>
      <rect id="Rectangle_400" data-name="Rectangle 400" width="9.002" height="1.548" transform="translate(9.951 37.521)" fill="#263238"/>
      <rect id="Rectangle_401" data-name="Rectangle 401" width="9.002" height="1.548" transform="translate(9.951 37.521)" fill="#fff" opacity="0.12"/>
      <path id="Path_2697" data-name="Path 2697" d="M285.373,171.058a1.338,1.338,0,1,0,.206-1.885A1.339,1.339,0,0,0,285.373,171.058Z" transform="translate(-271.966 -128.484)" fill="#263238"/>
      <ellipse id="Ellipse_82" data-name="Ellipse 82" cx="1.338" cy="1.338" rx="1.338" ry="1.338" transform="translate(13.114 40.395)" fill="#fff" opacity="0.2"/>
      <path id="Path_2698" data-name="Path 2698" d="M288.13,170.129a.284.284,0,0,0,.284.284.289.289,0,0,0,.289-.284.293.293,0,0,0-.289-.289A.289.289,0,0,0,288.13,170.129Z" transform="translate(-274.251 -129.025)" fill="#76ba1b"/>
      <path id="Path_2699" data-name="Path 2699" d="M287.538,208.322a.437.437,0,0,0,.437-.437V196.437a.437.437,0,1,0-.875,0v11.438a.437.437,0,0,0,.437.446Z" transform="translate(-273.072 -143.742)" fill="#263238"/>
    </g>
  </g>
</svg>
