<svg xmlns="http://www.w3.org/2000/svg" width="181.763" height="165.959" viewBox="0 0 181.763 165.959">
  <g id="Resume-bro" transform="translate(-35.247 -60.389)">
    <g id="freepik--background-simple--inject-321" transform="translate(41.464 60.389)">
      <path id="Path_985" data-name="Path 985" d="M217.236,163.843a99.515,99.515,0,0,0-3.823-17.146c-1.9-6.188-4.106-12.425-3.876-18.878.164-4.548,1.538-8.96,2.21-13.464A52.919,52.919,0,0,0,210.27,92.7a39.225,39.225,0,0,0-6.63-14.144,35.9,35.9,0,0,0-10.776-8.92c-10.794-6.1-23.427-8.027-35.8-8.84-11.881-.8-24.006-.65-35.441,2.652A54.094,54.094,0,0,0,88.407,90.778c-7.351,14.392-11.6,30.565-21.9,43.317-5.437,6.732-12.527,12.456-15.638,20.527-4.451,11.541,1.079,25.447,11.165,32.607,6.361,4.517,14.065,6.674,20.978,10.295,6.378,3.337,12.045,7.9,18.326,11.417,23.073,12.92,51.711,10.4,77.184,3.434,12.739-3.47,26.079-8.61,33.39-19.608C217.515,184.321,218.465,174.089,217.236,163.843Z" transform="translate(-49.312 -60.389)" fill="#76ba1b"/>
      <path id="Path_986" data-name="Path 986" d="M217.236,163.843a99.515,99.515,0,0,0-3.823-17.146c-1.9-6.188-4.106-12.425-3.876-18.878.164-4.548,1.538-8.96,2.21-13.464A52.919,52.919,0,0,0,210.27,92.7a39.225,39.225,0,0,0-6.63-14.144,35.9,35.9,0,0,0-10.776-8.92c-10.794-6.1-23.427-8.027-35.8-8.84-11.881-.8-24.006-.65-35.441,2.652A54.094,54.094,0,0,0,88.407,90.778c-7.351,14.392-11.6,30.565-21.9,43.317-5.437,6.732-12.527,12.456-15.638,20.527-4.451,11.541,1.079,25.447,11.165,32.607,6.361,4.517,14.065,6.674,20.978,10.295,6.378,3.337,12.045,7.9,18.326,11.417,23.073,12.92,51.711,10.4,77.184,3.434,12.739-3.47,26.079-8.61,33.39-19.608C217.515,184.321,218.465,174.089,217.236,163.843Z" transform="translate(-49.312 -60.389)" fill="#fff" opacity="0.8"/>
    </g>
    <g id="freepik--Shadow--inject-321" transform="translate(58.339 216.076)">
      <ellipse id="Ellipse_63" data-name="Ellipse 63" cx="74.608" cy="5.136" rx="74.608" ry="5.136" fill="#263238"/>
    </g>
    <g id="freepik--Plants--inject-321" transform="translate(35.247 126.541)">
      <path id="Path_987" data-name="Path 987" d="M142.689,266.026c-.309-1.494-.72-3.638-1.1-6.228-.111-.747-.217-1.538-.314-2.356a13.858,13.858,0,0,0,4.044-1.326,4.263,4.263,0,0,0,2-3.006,2.051,2.051,0,0,0-2.135-2.21c-1.733.119-3.333,2.807-3.708,4.314-.022.1-.177,1.264-.243,1.865-.057-.5-.115-.986-.168-1.5-.08-.743-.141-1.525-.2-2.285,0-.4-.04-.8-.057-1.2s0-.8,0-1.2c0-.592.044-1.207.075-1.817a12.908,12.908,0,0,0,3.978-.685,4.389,4.389,0,0,0,2.436-2.652,2.06,2.06,0,0,0-1.768-2.489c-1.728-.141-3.722,2.272-4.314,3.7-.022.044-.115.362-.225.738.053-.6.1-1.193.177-1.795.2-1.7.469-3.434.725-5.172.053-.362.1-.72.155-1.083a13.677,13.677,0,0,0,4.1-.69,4.308,4.308,0,0,0,2.436-2.652,2.055,2.055,0,0,0-1.768-2.489c-1.733-.141-3.722,2.272-4.318,3.7,0,.049-.133.442-.256.849.128-.941.239-1.887.323-2.824a35.889,35.889,0,0,0,.137-4.862,14.041,14.041,0,0,0,4.221-.694,4.3,4.3,0,0,0,2.435-2.652,2.051,2.051,0,0,0-1.768-2.484c-1.733-.146-3.722,2.272-4.318,3.7-.044.1-.442,1.472-.561,1.963a.251.251,0,0,1,0-.057,26.963,26.963,0,0,0-.725-4.707,36.844,36.844,0,0,0-1.238-4.075c-.442-1.238-.924-2.347-1.357-3.324-.239-.53-.469-1.008-.685-1.45h.035c.031,0-.053-2.1-.071-2.21-.239-1.529-1.6-4.349-3.311-4.623a2.051,2.051,0,0,0-2.321,1.989,4.3,4.3,0,0,0,1.724,3.174,13.884,13.884,0,0,0,3.841,1.653c.217.469.442.968.685,1.525.411.986.884,2.1,1.277,3.346.111.332.217.694.327,1.039-.3-.548-.734-1.3-.787-1.361-.915-1.251-3.421-3.129-5.065-2.581a2.051,2.051,0,0,0-1.145,2.833,4.263,4.263,0,0,0,3,2.02,14.653,14.653,0,0,0,4.19-.3c.23.774.442,1.574.628,2.422a26.394,26.394,0,0,1,.592,4.637v.278c-.106-.3-.8-1.887-.853-1.993-.774-1.326-3.059-3.487-4.756-3.125a2.055,2.055,0,0,0-1.45,2.7A4.3,4.3,0,0,0,138,230.652a14.476,14.476,0,0,0,4.3.15,35.925,35.925,0,0,1-.234,4.685c-.128,1.154-.3,2.316-.5,3.479-.146-.385-.782-1.861-.844-1.963-.769-1.326-3.054-3.483-4.752-3.121a2.055,2.055,0,0,0-1.45,2.692,4.3,4.3,0,0,0,2.758,2.338,13.855,13.855,0,0,0,4.274.15c-.088.526-.172,1.056-.261,1.587-.3,1.724-.6,3.457-.84,5.172-.088.6-.15,1.185-.212,1.768-.234-.57-.681-1.6-.729-1.68-.774-1.326-3.059-3.487-4.756-3.121a2.055,2.055,0,0,0-1.45,2.692,4.3,4.3,0,0,0,2.758,2.338,13.53,13.53,0,0,0,4.128.164c-.1.981-.177,1.958-.208,2.922,0,.415-.04.844,0,1.242s0,.8.027,1.2c.053.818.093,1.578.159,2.338.031.385.066.747.1,1.118-.15-.61-.407-1.578-.442-1.662-.561-1.445-2.493-3.907-4.23-3.806a2.06,2.06,0,0,0-1.839,2.444,4.246,4.246,0,0,0,2.369,2.727,14.274,14.274,0,0,0,4.181.8c.088.911.186,1.8.287,2.626.327,2.626.694,4.8.972,6.316s.477,2.382.477,2.382h0a.61.61,0,1,0,1.18-.292S143,267.525,142.689,266.026Z" transform="translate(-89.809 -210.05)" fill="#76ba1b"/>
      <path id="Path_988" data-name="Path 988" d="M151.5,230.732a14.475,14.475,0,0,0,3.929-1.8,4.129,4.129,0,0,0,1.64-3.218,2.051,2.051,0,0,0-2.369-1.927c-1.706.318-2.992,3.174-3.187,4.712C151.5,228.633,151.471,230.741,151.5,230.732Z" transform="translate(-100.108 -217.701)" fill="#76ba1b"/>
      <path id="Path_989" data-name="Path 989" d="M104.61,287.194a.61.61,0,1,1-.822.884h0s-.645-.619-1.711-1.728-2.577-2.723-4.3-4.73c-.544-.637-1.109-1.326-1.688-2.033a14.2,14.2,0,0,1-3.925,1.64,4.3,4.3,0,0,1-3.483-.968,2.055,2.055,0,0,1,.186-3.05c1.392-1.043,4.363-.053,5.627.844.075.053.822.716,1.282,1.14-.234-.292-.442-.57-.7-.884-.473-.6-.928-1.207-1.419-1.865l-.685-.981c-.239-.323-.442-.694-.672-1.043-.508-.822-.981-1.68-1.437-2.555A13.639,13.639,0,0,1,87.327,274a4.236,4.236,0,0,1-3.589-.442,2.055,2.055,0,0,1-.278-3.046c1.22-1.238,4.305-.712,5.689,0,.088.044,1.025.654,1.534,1-.27-.53-.544-1.056-.8-1.6-.743-1.565-1.445-3.174-2.153-4.778-.217-.491-.442-.977-.659-1.467a14.225,14.225,0,0,1-3.647,2.232,4.238,4.238,0,0,1-3.589-.442,2.055,2.055,0,0,1-.278-3.046c1.216-1.238,4.3-.712,5.689,0,.106.053,1.454.933,1.768,1.171-.486-1.074-.977-2.139-1.507-3.174a36.522,36.522,0,0,0-2.387-4.04,14.443,14.443,0,0,1-3.669,2.25,4.254,4.254,0,0,1-3.589-.442,2.051,2.051,0,0,1-.274-3.045c1.216-1.238,4.3-.712,5.684,0,.111.053,1.56,1,1.812,1.189-.053-.075-.1-.155-.15-.23a26.761,26.761,0,0,0-3.094-3.536c-.619-.61-1.242-1.158-1.861-1.68a14.12,14.12,0,0,1-3.328,2.568,4.224,4.224,0,0,1-3.616-.035,2.051,2.051,0,0,1-.61-2.992c1.074-1.366,4.2-1.185,5.653-.645.08.031.849.415,1.406.7-.283-.23-.57-.473-.844-.685-1.034-.813-2.029-1.494-2.913-2.086-.508-.332-.972-.623-1.41-.884a13.62,13.62,0,0,1-4.115.738,4.282,4.282,0,0,1-3.2-1.7,2.06,2.06,0,0,1,.84-2.939c1.582-.716,4.27.884,5.3,2.033.088.1,1.326,1.812,1.291,1.821h-.035c.442.248.884.522,1.37.831.884.575,1.914,1.233,2.97,2.024a37.81,37.81,0,0,1,3.28,2.714,27.542,27.542,0,0,1,3.2,3.536.181.181,0,0,0,.031.049c-.168-.477-.592-1.839-.614-1.945-.292-1.521.04-4.637,1.56-5.472a2.055,2.055,0,0,1,2.855,1.092,4.376,4.376,0,0,1-.557,3.571,14.33,14.33,0,0,1-3.138,2.908,36.926,36.926,0,0,1,2.559,4.12c.442.831.884,1.68,1.291,2.537-.133-.42-.248-.8-.256-.849-.292-1.521.035-4.637,1.56-5.472a2.055,2.055,0,0,1,2.855,1.1,4.368,4.368,0,0,1-.557,3.567,13.348,13.348,0,0,1-3.041,2.838c.155.332.314.659.469.99.747,1.587,1.481,3.178,2.25,4.716.27.539.557,1.061.84,1.587-.115-.371-.208-.685-.221-.738-.292-1.521.04-4.632,1.56-5.468a2.055,2.055,0,0,1,2.855,1.092,4.3,4.3,0,0,1-.557,3.572,12.787,12.787,0,0,1-2.948,2.767c.309.526.614,1.056.937,1.556.23.336.442.676.672,1l.707.968c.473.6.955,1.22,1.432,1.79.327.4.645.778.968,1.158-.278-.535-.8-1.6-.827-1.689-.522-1.463-.667-4.588.712-5.645a2.055,2.055,0,0,1,2.988.645,4.356,4.356,0,0,1,0,3.616,13.423,13.423,0,0,1-2.652,3.333c.535.628,1.056,1.229,1.565,1.795,1.742,1.949,3.266,3.51,4.349,4.588S104.61,287.194,104.61,287.194ZM77.944,250.537a14.81,14.81,0,0,0,2.285-3.669,4.3,4.3,0,0,0-.4-3.589,2.055,2.055,0,0,0-3.045-.3c-1.246,1.207-.743,4.3-.057,5.689C76.763,248.787,77.921,250.56,77.944,250.537Z" transform="translate(-51.678 -228.123)" fill="#76ba1b"/>
      <path id="Path_990" data-name="Path 990" d="M104.61,287.194a.61.61,0,1,1-.822.884h0s-.645-.619-1.711-1.728-2.577-2.723-4.3-4.73c-.544-.637-1.109-1.326-1.688-2.033a14.2,14.2,0,0,1-3.925,1.64,4.3,4.3,0,0,1-3.483-.968,2.055,2.055,0,0,1,.186-3.05c1.392-1.043,4.363-.053,5.627.844.075.053.822.716,1.282,1.14-.234-.292-.442-.57-.7-.884-.473-.6-.928-1.207-1.419-1.865l-.685-.981c-.239-.323-.442-.694-.672-1.043-.508-.822-.981-1.68-1.437-2.555A13.639,13.639,0,0,1,87.327,274a4.236,4.236,0,0,1-3.589-.442,2.055,2.055,0,0,1-.278-3.046c1.22-1.238,4.305-.712,5.689,0,.088.044,1.025.654,1.534,1-.27-.53-.544-1.056-.8-1.6-.743-1.565-1.445-3.174-2.153-4.778-.217-.491-.442-.977-.659-1.467a14.225,14.225,0,0,1-3.647,2.232,4.238,4.238,0,0,1-3.589-.442,2.055,2.055,0,0,1-.278-3.046c1.216-1.238,4.3-.712,5.689,0,.106.053,1.454.933,1.768,1.171-.486-1.074-.977-2.139-1.507-3.174a36.522,36.522,0,0,0-2.387-4.04,14.443,14.443,0,0,1-3.669,2.25,4.254,4.254,0,0,1-3.589-.442,2.051,2.051,0,0,1-.274-3.045c1.216-1.238,4.3-.712,5.684,0,.111.053,1.56,1,1.812,1.189-.053-.075-.1-.155-.15-.23a26.761,26.761,0,0,0-3.094-3.536c-.619-.61-1.242-1.158-1.861-1.68a14.12,14.12,0,0,1-3.328,2.568,4.224,4.224,0,0,1-3.616-.035,2.051,2.051,0,0,1-.61-2.992c1.074-1.366,4.2-1.185,5.653-.645.08.031.849.415,1.406.7-.283-.23-.57-.473-.844-.685-1.034-.813-2.029-1.494-2.913-2.086-.508-.332-.972-.623-1.41-.884a13.62,13.62,0,0,1-4.115.738,4.282,4.282,0,0,1-3.2-1.7,2.06,2.06,0,0,1,.84-2.939c1.582-.716,4.27.884,5.3,2.033.088.1,1.326,1.812,1.291,1.821h-.035c.442.248.884.522,1.37.831.884.575,1.914,1.233,2.97,2.024a37.81,37.81,0,0,1,3.28,2.714,27.542,27.542,0,0,1,3.2,3.536.181.181,0,0,0,.031.049c-.168-.477-.592-1.839-.614-1.945-.292-1.521.04-4.637,1.56-5.472a2.055,2.055,0,0,1,2.855,1.092,4.376,4.376,0,0,1-.557,3.571,14.33,14.33,0,0,1-3.138,2.908,36.926,36.926,0,0,1,2.559,4.12c.442.831.884,1.68,1.291,2.537-.133-.42-.248-.8-.256-.849-.292-1.521.035-4.637,1.56-5.472a2.055,2.055,0,0,1,2.855,1.1,4.368,4.368,0,0,1-.557,3.567,13.348,13.348,0,0,1-3.041,2.838c.155.332.314.659.469.99.747,1.587,1.481,3.178,2.25,4.716.27.539.557,1.061.84,1.587-.115-.371-.208-.685-.221-.738-.292-1.521.04-4.632,1.56-5.468a2.055,2.055,0,0,1,2.855,1.092,4.3,4.3,0,0,1-.557,3.572,12.787,12.787,0,0,1-2.948,2.767c.309.526.614,1.056.937,1.556.23.336.442.676.672,1l.707.968c.473.6.955,1.22,1.432,1.79.327.4.645.778.968,1.158-.278-.535-.8-1.6-.827-1.689-.522-1.463-.667-4.588.712-5.645a2.055,2.055,0,0,1,2.988.645,4.356,4.356,0,0,1,0,3.616,13.423,13.423,0,0,1-2.652,3.333c.535.628,1.056,1.229,1.565,1.795,1.742,1.949,3.266,3.51,4.349,4.588S104.61,287.194,104.61,287.194ZM77.944,250.537a14.81,14.81,0,0,0,2.285-3.669,4.3,4.3,0,0,0-.4-3.589,2.055,2.055,0,0,0-3.045-.3c-1.246,1.207-.743,4.3-.057,5.689C76.763,248.787,77.921,250.56,77.944,250.537Z" transform="translate(-51.678 -228.123)" opacity="0.1"/>
      <path id="Path_991" data-name="Path 991" d="M114.147,339.387c-.376-1.481-.884-3.6-1.37-6.188-.141-.738-.283-1.529-.415-2.338a14.1,14.1,0,0,0,3.978-1.5,4.31,4.31,0,0,0,1.87-3.094,2.051,2.051,0,0,0-2.21-2.091c-1.728.194-3.209,2.953-3.536,4.473,0,.1-.124,1.273-.159,1.874-.084-.491-.164-.977-.239-1.49-.111-.734-.208-1.516-.3-2.272l-.106-1.193c-.049-.407-.04-.8-.062-1.2v-1.817a13.066,13.066,0,0,0,3.952-.862,4.335,4.335,0,0,0,2.312-2.771,2.051,2.051,0,0,0-1.887-2.4c-1.733-.071-3.616,2.431-4.151,3.89,0,.044-.1.362-.186.743,0-.6.049-1.189.093-1.795.133-1.715.318-3.452.5-5.2.035-.367.066-.729.106-1.092a13.334,13.334,0,0,0,4.062-.884,4.308,4.308,0,0,0,2.316-2.776,2.055,2.055,0,0,0-1.887-2.4c-1.733-.066-3.62,2.436-4.151,3.89,0,.053-.115.442-.217.862.084-.95.155-1.9.2-2.838a36.1,36.1,0,0,0-.08-4.862,13.745,13.745,0,0,0,4.19-.884,4.287,4.287,0,0,0,2.312-2.776,2.051,2.051,0,0,0-1.887-2.4c-1.733-.066-3.616,2.435-4.151,3.89-.035.1-.371,1.485-.473,1.985V303.8a26.657,26.657,0,0,0-.928-4.672,37.062,37.062,0,0,0-1.419-4.013c-.5-1.22-1.025-2.307-1.5-3.266-.261-.517-.508-.981-.747-1.419H108c.031,0-.141-2.091-.168-2.21-.3-1.521-1.768-4.279-3.536-4.478a2.051,2.051,0,0,0-2.21,2.091,4.347,4.347,0,0,0,1.865,3.094,14.456,14.456,0,0,0,3.907,1.485c.239.442.486.946.751,1.49.442.968.955,2.06,1.423,3.289.128.327.248.681.371,1.025-.327-.535-.791-1.264-.844-1.326-.968-1.207-3.536-2.97-5.176-2.352a2.055,2.055,0,0,0-1.017,2.882,4.292,4.292,0,0,0,3.094,1.887,14.121,14.121,0,0,0,4.173-.491c.265.765.517,1.556.734,2.4a26.017,26.017,0,0,1,.818,4.632v.274c-.115-.292-.884-1.852-.937-1.954-.831-1.326-3.209-3.346-4.889-2.908a2.051,2.051,0,0,0-1.326,2.754,4.354,4.354,0,0,0,2.855,2.21,14.554,14.554,0,0,0,4.3-.04,36.984,36.984,0,0,1-.031,4.69c-.08,1.158-.2,2.325-.34,3.5-.159-.376-.884-1.826-.928-1.923-.831-1.326-3.209-3.346-4.889-2.908a2.051,2.051,0,0,0-1.326,2.754,4.367,4.367,0,0,0,2.855,2.21,14.151,14.151,0,0,0,4.279-.04c-.066.53-.124,1.065-.19,1.6-.217,1.737-.442,3.483-.614,5.207-.057.6-.093,1.189-.133,1.768-.261-.557-.751-1.565-.8-1.644-.831-1.326-3.2-3.346-4.862-2.908a2.055,2.055,0,0,0-1.326,2.754,4.367,4.367,0,0,0,2.855,2.21,13.488,13.488,0,0,0,4.133-.022c-.057.986-.093,1.967-.08,2.931,0,.42,0,.844.04,1.242l.08,1.2c.088.813.164,1.569.261,2.329.049.38.1.738.155,1.109-.181-.6-.477-1.556-.513-1.64-.628-1.419-2.652-3.792-4.394-3.616a2.055,2.055,0,0,0-1.728,2.519,4.28,4.28,0,0,0,2.489,2.621,14.081,14.081,0,0,0,4.212.61c.128.911.261,1.79.4,2.617.442,2.6.884,4.76,1.246,6.263s.583,2.36.583,2.36h0a.61.61,0,0,0,1.167-.345S114.523,340.872,114.147,339.387Z" transform="translate(-72.544 -251.165)" fill="#76ba1b"/>
      <path id="Path_992" data-name="Path 992" d="M121.612,303.734a14.654,14.654,0,0,0,3.846-1.967,4.311,4.311,0,0,0,1.5-3.289,2.055,2.055,0,0,0-2.458-1.821c-1.688.393-2.847,3.3-2.975,4.862C121.515,301.648,121.581,303.747,121.612,303.734Z" transform="translate(-83.389 -258.352)" fill="#76ba1b"/>
      <path id="Path_993" data-name="Path 993" d="M75.193,359.079c-1.127-1.025-2.718-2.519-4.548-4.394-.526-.539-1.079-1.118-1.635-1.719a14.262,14.262,0,0,0,2.493-3.448,4.3,4.3,0,0,0-.15-3.611,2.051,2.051,0,0,0-3.01-.513c-1.326,1.114-1.048,4.234-.464,5.667.035.093.6,1.132.884,1.653-.34-.362-.676-.725-1.021-1.114-.5-.548-1.008-1.149-1.507-1.724l-.751-.937c-.261-.314-.469-.645-.712-.968-.345-.482-.676-1-1.008-1.516a13.079,13.079,0,0,0,2.824-2.9,4.324,4.324,0,0,0,.4-3.589,2.051,2.051,0,0,0-2.9-.964c-1.485.884-1.675,4.022-1.326,5.53,0,.053.124.362.256.729-.309-.513-.619-1.021-.915-1.551-.835-1.5-1.64-3.054-2.453-4.61-.168-.323-.34-.645-.513-.968a13.7,13.7,0,0,0,2.913-2.97,4.263,4.263,0,0,0,.4-3.589,2.051,2.051,0,0,0-2.9-.964c-1.485.884-1.675,4.022-1.326,5.53a8.362,8.362,0,0,0,.3.84c-.442-.84-.919-1.666-1.4-2.48a36.864,36.864,0,0,0-2.745-4,14.308,14.308,0,0,0,3.01-3.045,4.272,4.272,0,0,0,.4-3.589,2.051,2.051,0,0,0-2.9-.968c-1.485.884-1.675,4.027-1.326,5.534.027.106.513,1.445.7,1.918l-.031-.049a27.279,27.279,0,0,0-3.355-3.381,37.1,37.1,0,0,0-3.35-2.568c-1.087-.743-2.131-1.357-3.054-1.892-.5-.287-.972-.539-1.406-.769h.031c.031,0-1.273-1.666-1.37-1.768-1.092-1.1-3.846-2.581-5.393-1.795a2.051,2.051,0,0,0-.712,2.97,4.29,4.29,0,0,0,3.266,1.556,14.017,14.017,0,0,0,4.075-.919c.442.248.928.517,1.45.831.911.552,1.936,1.189,3,1.954.287.2.583.442.884.65-.566-.265-1.357-.614-1.437-.641-1.476-.473-4.606-.522-5.618.884a2.06,2.06,0,0,0,.743,2.966,4.3,4.3,0,0,0,3.611-.128,14.51,14.51,0,0,0,3.213-2.71c.641.491,1.286,1.012,1.932,1.591a26.278,26.278,0,0,1,3.236,3.412c.057.071.106.15.164.225-.261-.181-1.768-1.061-1.865-1.109-1.414-.632-4.522-1.025-5.68.27A2.055,2.055,0,0,0,47,332.96a4.3,4.3,0,0,0,3.6.27,14.618,14.618,0,0,0,3.567-2.4,36.01,36.01,0,0,1,2.564,3.93c.575,1.008,1.114,2.051,1.644,3.094-.34-.225-1.728-1.043-1.834-1.092-1.414-.632-4.522-1.021-5.684.27a2.051,2.051,0,0,0,.415,3.028,4.294,4.294,0,0,0,3.6.274,14.168,14.168,0,0,0,3.536-2.391c.243.477.486.955.725,1.432.778,1.574,1.547,3.147,2.36,4.681.278.53.575,1.048.884,1.56-.526-.323-1.49-.884-1.578-.928-1.414-.632-4.522-1.021-5.68.27a2.055,2.055,0,0,0,.411,3.028,4.294,4.294,0,0,0,3.6.274,13.5,13.5,0,0,0,3.439-2.3c.5.853,1,1.693,1.547,2.489.243.34.469.7.716,1.017l.729.95c.522.632,1,1.224,1.5,1.8l.738.844c-.482-.407-1.255-1.034-1.326-1.083-1.326-.84-4.314-1.7-5.658-.6a2.055,2.055,0,0,0-.053,3.059,4.336,4.336,0,0,0,3.536.813,14.156,14.156,0,0,0,3.85-1.817c.606.685,1.207,1.326,1.768,1.958,1.8,1.932,3.381,3.474,4.5,4.535s1.768,1.653,1.768,1.653h0a.61.61,0,0,0,.782-.933S76.325,360.109,75.193,359.079Z" transform="translate(-35.247 -270.234)" fill="#76ba1b"/>
      <path id="Path_994" data-name="Path 994" d="M63.058,324.213a14.761,14.761,0,0,0,2.122-3.766,4.3,4.3,0,0,0-.561-3.571,2.06,2.06,0,0,0-3.054-.164c-1.193,1.26-.553,4.327.19,5.684C61.829,322.516,63.036,324.235,63.058,324.213Z" transform="translate(-49.562 -269.231)" fill="#76ba1b"/>
      <g id="Group_3503" data-name="Group 3503" transform="translate(0 32.57)" opacity="0.1">
        <path id="Path_995" data-name="Path 995" d="M114.147,339.387c-.376-1.481-.884-3.6-1.37-6.188-.141-.738-.283-1.529-.415-2.338a14.1,14.1,0,0,0,3.978-1.5,4.31,4.31,0,0,0,1.87-3.094,2.051,2.051,0,0,0-2.21-2.091c-1.728.194-3.209,2.953-3.536,4.473,0,.1-.124,1.273-.159,1.874-.084-.491-.164-.977-.239-1.49-.111-.734-.208-1.516-.3-2.272l-.106-1.193c-.049-.407-.04-.8-.062-1.2v-1.817a13.066,13.066,0,0,0,3.952-.862,4.335,4.335,0,0,0,2.312-2.771,2.051,2.051,0,0,0-1.887-2.4c-1.733-.071-3.616,2.431-4.151,3.89,0,.044-.1.362-.186.743,0-.6.049-1.189.093-1.795.133-1.715.318-3.452.5-5.2.035-.367.066-.729.106-1.092a13.334,13.334,0,0,0,4.062-.884,4.308,4.308,0,0,0,2.316-2.776,2.055,2.055,0,0,0-1.887-2.4c-1.733-.066-3.62,2.436-4.151,3.89,0,.053-.115.442-.217.862.084-.95.155-1.9.2-2.838a36.1,36.1,0,0,0-.08-4.862,13.745,13.745,0,0,0,4.19-.884,4.287,4.287,0,0,0,2.312-2.776,2.051,2.051,0,0,0-1.887-2.4c-1.733-.066-3.616,2.435-4.151,3.89-.035.1-.371,1.485-.473,1.985V303.8a26.657,26.657,0,0,0-.928-4.672,37.062,37.062,0,0,0-1.419-4.013c-.5-1.22-1.025-2.307-1.5-3.266-.261-.517-.508-.981-.747-1.419H108c.031,0-.141-2.091-.168-2.21-.3-1.521-1.768-4.279-3.536-4.478a2.051,2.051,0,0,0-2.21,2.091,4.347,4.347,0,0,0,1.865,3.094,14.456,14.456,0,0,0,3.907,1.485c.239.442.486.946.751,1.49.442.968.955,2.06,1.423,3.289.128.327.248.681.371,1.025-.327-.535-.791-1.264-.844-1.326-.968-1.207-3.536-2.97-5.176-2.352a2.055,2.055,0,0,0-1.017,2.882,4.292,4.292,0,0,0,3.094,1.887,14.121,14.121,0,0,0,4.173-.491c.265.765.517,1.556.734,2.4a26.017,26.017,0,0,1,.818,4.632v.274c-.115-.292-.884-1.852-.937-1.954-.831-1.326-3.209-3.346-4.889-2.908a2.051,2.051,0,0,0-1.326,2.754,4.354,4.354,0,0,0,2.855,2.21,14.554,14.554,0,0,0,4.3-.04,36.984,36.984,0,0,1-.031,4.69c-.08,1.158-.2,2.325-.34,3.5-.159-.376-.884-1.826-.928-1.923-.831-1.326-3.209-3.346-4.889-2.908a2.051,2.051,0,0,0-1.326,2.754,4.367,4.367,0,0,0,2.855,2.21,14.151,14.151,0,0,0,4.279-.04c-.066.53-.124,1.065-.19,1.6-.217,1.737-.442,3.483-.614,5.207-.057.6-.093,1.189-.133,1.768-.261-.557-.751-1.565-.8-1.644-.831-1.326-3.2-3.346-4.862-2.908a2.055,2.055,0,0,0-1.326,2.754,4.367,4.367,0,0,0,2.855,2.21,13.488,13.488,0,0,0,4.133-.022c-.057.986-.093,1.967-.08,2.931,0,.42,0,.844.04,1.242l.08,1.2c.088.813.164,1.569.261,2.329.049.38.1.738.155,1.109-.181-.6-.477-1.556-.513-1.64-.628-1.419-2.652-3.792-4.394-3.616a2.055,2.055,0,0,0-1.728,2.519,4.28,4.28,0,0,0,2.489,2.621,14.081,14.081,0,0,0,4.212.61c.128.911.261,1.79.4,2.617.442,2.6.884,4.76,1.246,6.263s.583,2.36.583,2.36h0a.61.61,0,0,0,1.167-.345S114.523,340.872,114.147,339.387Z" transform="translate(-72.544 -283.736)"/>
        <path id="Path_996" data-name="Path 996" d="M121.612,303.734a14.654,14.654,0,0,0,3.846-1.967,4.311,4.311,0,0,0,1.5-3.289,2.055,2.055,0,0,0-2.458-1.821c-1.688.393-2.847,3.3-2.975,4.862C121.515,301.648,121.581,303.747,121.612,303.734Z" transform="translate(-83.389 -290.923)"/>
        <path id="Path_997" data-name="Path 997" d="M75.193,359.079c-1.127-1.025-2.718-2.519-4.548-4.394-.526-.539-1.079-1.118-1.635-1.719a14.262,14.262,0,0,0,2.493-3.448,4.3,4.3,0,0,0-.15-3.611,2.051,2.051,0,0,0-3.01-.513c-1.326,1.114-1.048,4.234-.464,5.667.035.093.6,1.132.884,1.653-.34-.362-.676-.725-1.021-1.114-.5-.548-1.008-1.149-1.507-1.724l-.751-.937c-.261-.314-.469-.645-.712-.968-.345-.482-.676-1-1.008-1.516a13.079,13.079,0,0,0,2.824-2.9,4.324,4.324,0,0,0,.4-3.589,2.051,2.051,0,0,0-2.9-.964c-1.485.884-1.675,4.022-1.326,5.53,0,.053.124.362.256.729-.309-.513-.619-1.021-.915-1.551-.835-1.5-1.64-3.054-2.453-4.61-.168-.323-.34-.645-.513-.968a13.7,13.7,0,0,0,2.913-2.97,4.263,4.263,0,0,0,.4-3.589,2.051,2.051,0,0,0-2.9-.964c-1.485.884-1.675,4.022-1.326,5.53a8.362,8.362,0,0,0,.3.84c-.442-.84-.919-1.666-1.4-2.48a36.864,36.864,0,0,0-2.745-4,14.308,14.308,0,0,0,3.01-3.045,4.272,4.272,0,0,0,.4-3.589,2.051,2.051,0,0,0-2.9-.968c-1.485.884-1.675,4.027-1.326,5.534.027.106.513,1.445.7,1.918l-.031-.049a27.279,27.279,0,0,0-3.355-3.381,37.1,37.1,0,0,0-3.35-2.568c-1.087-.743-2.131-1.357-3.054-1.892-.5-.287-.972-.539-1.406-.769h.031c.031,0-1.273-1.666-1.37-1.768-1.092-1.1-3.846-2.581-5.393-1.795a2.051,2.051,0,0,0-.712,2.97,4.29,4.29,0,0,0,3.266,1.556,14.017,14.017,0,0,0,4.075-.919c.442.248.928.517,1.45.831.911.552,1.936,1.189,3,1.954.287.2.583.442.884.65-.566-.265-1.357-.614-1.437-.641-1.476-.473-4.606-.522-5.618.884a2.06,2.06,0,0,0,.743,2.966,4.3,4.3,0,0,0,3.611-.128,14.51,14.51,0,0,0,3.213-2.71c.641.491,1.286,1.012,1.932,1.591a26.278,26.278,0,0,1,3.236,3.412c.057.071.106.15.164.225-.261-.181-1.768-1.061-1.865-1.109-1.414-.632-4.522-1.025-5.68.27A2.055,2.055,0,0,0,47,332.96a4.3,4.3,0,0,0,3.6.27,14.618,14.618,0,0,0,3.567-2.4,36.01,36.01,0,0,1,2.564,3.93c.575,1.008,1.114,2.051,1.644,3.094-.34-.225-1.728-1.043-1.834-1.092-1.414-.632-4.522-1.021-5.684.27a2.051,2.051,0,0,0,.415,3.028,4.294,4.294,0,0,0,3.6.274,14.168,14.168,0,0,0,3.536-2.391c.243.477.486.955.725,1.432.778,1.574,1.547,3.147,2.36,4.681.278.53.575,1.048.884,1.56-.526-.323-1.49-.884-1.578-.928-1.414-.632-4.522-1.021-5.68.27a2.055,2.055,0,0,0,.411,3.028,4.294,4.294,0,0,0,3.6.274,13.5,13.5,0,0,0,3.439-2.3c.5.853,1,1.693,1.547,2.489.243.34.469.7.716,1.017l.729.95c.522.632,1,1.224,1.5,1.8l.738.844c-.482-.407-1.255-1.034-1.326-1.083-1.326-.84-4.314-1.7-5.658-.6a2.055,2.055,0,0,0-.053,3.059,4.336,4.336,0,0,0,3.536.813,14.156,14.156,0,0,0,3.85-1.817c.606.685,1.207,1.326,1.768,1.958,1.8,1.932,3.381,3.474,4.5,4.535s1.768,1.653,1.768,1.653h0a.61.61,0,0,0,.782-.933S76.325,360.109,75.193,359.079Z" transform="translate(-35.247 -302.804)"/>
        <path id="Path_998" data-name="Path 998" d="M63.058,324.213a14.761,14.761,0,0,0,2.122-3.766,4.3,4.3,0,0,0-.561-3.571,2.06,2.06,0,0,0-3.054-.164c-1.193,1.26-.553,4.327.19,5.684C61.829,322.516,63.036,324.235,63.058,324.213Z" transform="translate(-49.562 -301.801)"/>
      </g>
      <g id="Group_3504" data-name="Group 3504" transform="translate(43.222)" opacity="0.1">
        <path id="Path_999" data-name="Path 999" d="M142.689,266.026c-.309-1.494-.72-3.638-1.1-6.228-.111-.747-.217-1.538-.314-2.356a13.858,13.858,0,0,0,4.044-1.326,4.263,4.263,0,0,0,2-3.006,2.051,2.051,0,0,0-2.135-2.21c-1.733.119-3.333,2.807-3.708,4.314-.022.1-.177,1.264-.243,1.865-.057-.5-.115-.986-.168-1.5-.08-.743-.141-1.525-.2-2.285,0-.4-.04-.8-.057-1.2s0-.8,0-1.2c0-.592.044-1.207.075-1.817a12.908,12.908,0,0,0,3.978-.685,4.389,4.389,0,0,0,2.436-2.652,2.06,2.06,0,0,0-1.768-2.489c-1.728-.141-3.722,2.272-4.314,3.7-.022.044-.115.362-.225.738.053-.6.1-1.193.177-1.795.2-1.7.469-3.434.725-5.172.053-.362.1-.72.155-1.083a13.677,13.677,0,0,0,4.1-.69,4.308,4.308,0,0,0,2.436-2.652,2.055,2.055,0,0,0-1.768-2.489c-1.733-.141-3.722,2.272-4.318,3.7,0,.049-.133.442-.256.849.128-.941.239-1.887.323-2.824a35.889,35.889,0,0,0,.137-4.862,14.041,14.041,0,0,0,4.221-.694,4.3,4.3,0,0,0,2.435-2.652,2.051,2.051,0,0,0-1.768-2.484c-1.733-.146-3.722,2.272-4.318,3.7-.044.1-.442,1.472-.561,1.963a.251.251,0,0,1,0-.057,26.963,26.963,0,0,0-.725-4.707,36.844,36.844,0,0,0-1.238-4.075c-.442-1.238-.924-2.347-1.357-3.324-.239-.53-.469-1.008-.685-1.45h.035c.031,0-.053-2.1-.071-2.21-.239-1.529-1.6-4.349-3.311-4.623a2.051,2.051,0,0,0-2.321,1.989,4.3,4.3,0,0,0,1.724,3.174,13.884,13.884,0,0,0,3.841,1.653c.217.469.442.968.685,1.525.411.986.884,2.1,1.277,3.346.111.332.217.694.327,1.039-.3-.548-.734-1.3-.787-1.361-.915-1.251-3.421-3.129-5.065-2.581a2.051,2.051,0,0,0-1.145,2.833,4.263,4.263,0,0,0,3,2.02,14.653,14.653,0,0,0,4.19-.3c.23.774.442,1.574.628,2.422a26.394,26.394,0,0,1,.592,4.637v.278c-.106-.3-.8-1.887-.853-1.993-.774-1.326-3.059-3.487-4.756-3.125a2.055,2.055,0,0,0-1.45,2.7A4.3,4.3,0,0,0,138,230.652a14.476,14.476,0,0,0,4.3.15,35.925,35.925,0,0,1-.234,4.685c-.128,1.154-.3,2.316-.5,3.479-.146-.385-.782-1.861-.844-1.963-.769-1.326-3.054-3.483-4.752-3.121a2.055,2.055,0,0,0-1.45,2.692,4.3,4.3,0,0,0,2.758,2.338,13.855,13.855,0,0,0,4.274.15c-.088.526-.172,1.056-.261,1.587-.3,1.724-.6,3.457-.84,5.172-.088.6-.15,1.185-.212,1.768-.234-.57-.681-1.6-.729-1.68-.774-1.326-3.059-3.487-4.756-3.121a2.055,2.055,0,0,0-1.45,2.692,4.3,4.3,0,0,0,2.758,2.338,13.53,13.53,0,0,0,4.128.164c-.1.981-.177,1.958-.208,2.922,0,.415-.04.844,0,1.242s0,.8.027,1.2c.053.818.093,1.578.159,2.338.031.385.066.747.1,1.118-.15-.61-.407-1.578-.442-1.662-.561-1.445-2.493-3.907-4.23-3.806a2.06,2.06,0,0,0-1.839,2.444,4.246,4.246,0,0,0,2.369,2.727,14.274,14.274,0,0,0,4.181.8c.088.911.186,1.8.287,2.626.327,2.626.694,4.8.972,6.316s.477,2.382.477,2.382h0a.61.61,0,1,0,1.18-.292S143,267.525,142.689,266.026Z" transform="translate(-133.031 -210.05)"/>
        <path id="Path_1000" data-name="Path 1000" d="M151.5,230.732a14.475,14.475,0,0,0,3.929-1.8,4.129,4.129,0,0,0,1.64-3.218,2.051,2.051,0,0,0-2.369-1.927c-1.706.318-2.992,3.174-3.187,4.712C151.5,228.633,151.471,230.741,151.5,230.732Z" transform="translate(-143.33 -217.701)"/>
      </g>
      <path id="Path_1001" data-name="Path 1001" d="M366.37,329.924c.057,13.848,11.077,25.031,11.077,25.031s10.927-11.276,10.865-25.124S377.256,304.8,377.256,304.8,366.308,316.076,366.37,329.924Z" transform="translate(-220.009 -262.919)" fill="#76ba1b"/>
      <line id="Line_36" data-name="Line 36" x1="0.212" y1="50.155" transform="translate(157.226 41.881)" fill="#a3cd39" stroke="#fff" stroke-miterlimit="10" stroke-width="0.91"/>
      <line id="Line_37" data-name="Line 37" x1="6.166" y1="5.335" transform="translate(151.135 54.372)" fill="#a3cd39" stroke="#fff" stroke-miterlimit="10" stroke-width="0.91"/>
      <line id="Line_38" data-name="Line 38" y1="11.05" x2="7.558" transform="translate(157.434 56.945)" fill="#a3cd39" stroke="#fff" stroke-miterlimit="10" stroke-width="0.91"/>
      <line id="Line_39" data-name="Line 39" x1="9.105" y1="8.053" transform="translate(148.253 64.72)" fill="#a3cd39" stroke="#fff" stroke-miterlimit="10" stroke-width="0.91"/>
      <line id="Line_40" data-name="Line 40" y1="8.036" x2="8.938" transform="translate(157.482 71.173)" fill="#a3cd39" stroke="#fff" stroke-miterlimit="10" stroke-width="0.91"/>
      <line id="Line_41" data-name="Line 41" x1="7.041" y1="5.525" transform="translate(150.463 79.24)" fill="#a3cd39" stroke="#fff" stroke-miterlimit="10" stroke-width="0.91"/>
      <path id="Path_1002" data-name="Path 1002" d="M343.1,391.012c5.353,6,14.418,6.63,14.418,6.63s.4-9.092-4.951-15.077-14.436-6.595-14.436-6.595S337.748,385.045,343.1,391.012Z" transform="translate(-204.249 -302.631)" fill="#76ba1b"/>
      <line id="Line_42" data-name="Line 42" x1="19.387" y1="21.672" transform="translate(133.901 73.321)" fill="#a3cd39" stroke="#fff" stroke-miterlimit="10" stroke-width="0.91"/>
      <line id="Line_43" data-name="Line 43" x1="4.73" y2="0.057" transform="translate(136.062 81.021)" fill="#a3cd39" stroke="#fff" stroke-miterlimit="10" stroke-width="0.91"/>
      <line id="Line_44" data-name="Line 44" x1="0.972" y1="7.7" transform="translate(143.064 76.866)" fill="#a3cd39" stroke="#fff" stroke-miterlimit="10" stroke-width="0.91"/>
      <line id="Line_45" data-name="Line 45" x1="7.046" y2="0.009" transform="translate(138.794 86.67)" fill="#a3cd39" stroke="#fff" stroke-miterlimit="10" stroke-width="0.91"/>
      <line id="Line_46" data-name="Line 46" y1="6.922" x2="0.787" transform="translate(148.372 82.489)" fill="#a3cd39" stroke="#fff" stroke-miterlimit="10" stroke-width="0.91"/>
      <line id="Line_47" data-name="Line 47" x1="5.18" y2="0.309" transform="translate(145.34 91.815)" fill="#a3cd39" stroke="#fff" stroke-miterlimit="10" stroke-width="0.91"/>
      <path id="Path_1003" data-name="Path 1003" d="M405.6,382.534c-5.569,5.786-5.5,14.887-5.5,14.887s9.1-.278,14.666-6.064,5.5-14.887,5.5-14.887S411.168,376.748,405.6,382.534Z" transform="translate(-238.83 -302.91)" fill="#76ba1b"/>
      <line id="Line_48" data-name="Line 48" y1="20.951" x2="20.165" transform="translate(161.27 73.56)" fill="#a3cd39" stroke="#fff" stroke-miterlimit="10" stroke-width="0.91"/>
      <line id="Line_49" data-name="Line 49" x1="0.411" y1="4.712" transform="translate(173.859 76.296)" fill="#a3cd39" stroke="#fff" stroke-miterlimit="10" stroke-width="0.91"/>
      <line id="Line_50" data-name="Line 50" y1="1.543" x2="7.607" transform="translate(170.977 82.966)" fill="#a3cd39" stroke="#fff" stroke-miterlimit="10" stroke-width="0.91"/>
      <line id="Line_51" data-name="Line 51" x1="0.535" y1="7.028" transform="translate(168.479 79.439)" fill="#a3cd39" stroke="#fff" stroke-miterlimit="10" stroke-width="0.91"/>
      <line id="Line_52" data-name="Line 52" x2="6.962" y2="0.265" transform="translate(166.468 89.194)" fill="#a3cd39" stroke="#fff" stroke-miterlimit="10" stroke-width="0.91"/>
      <line id="Line_53" data-name="Line 53" x1="0.698" y1="5.145" transform="translate(163.533 86.37)" fill="#a3cd39" stroke="#fff" stroke-miterlimit="10" stroke-width="0.91"/>
      <g id="Group_3505" data-name="Group 3505" transform="translate(133.877 41.881)" opacity="0.1">
        <path id="Path_1004" data-name="Path 1004" d="M366.37,329.924c.057,13.848,11.077,25.031,11.077,25.031s10.927-11.276,10.865-25.124S377.256,304.8,377.256,304.8,366.308,316.076,366.37,329.924Z" transform="translate(-353.886 -304.8)"/>
        <line id="Line_54" data-name="Line 54" x1="0.212" y1="50.155" transform="translate(23.349)"/>
        <line id="Line_55" data-name="Line 55" x1="6.166" y1="5.335" transform="translate(17.258 12.491)"/>
        <line id="Line_56" data-name="Line 56" y1="11.05" x2="7.558" transform="translate(23.557 15.064)"/>
        <line id="Line_57" data-name="Line 57" x1="9.105" y1="8.053" transform="translate(14.376 22.839)"/>
        <line id="Line_58" data-name="Line 58" y1="8.036" x2="8.938" transform="translate(23.605 29.292)"/>
        <line id="Line_59" data-name="Line 59" x1="7.041" y1="5.525" transform="translate(16.586 37.359)"/>
        <path id="Path_1005" data-name="Path 1005" d="M343.1,391.012c5.353,6,14.418,6.63,14.418,6.63s.4-9.092-4.951-15.077-14.436-6.595-14.436-6.595S337.748,385.045,343.1,391.012Z" transform="translate(-338.126 -344.512)"/>
        <line id="Line_60" data-name="Line 60" x1="19.387" y1="21.672" transform="translate(0.024 31.44)"/>
        <line id="Line_61" data-name="Line 61" x1="4.73" y2="0.057" transform="translate(2.185 39.14)"/>
        <line id="Line_62" data-name="Line 62" x1="0.972" y1="7.7" transform="translate(9.187 34.985)"/>
        <line id="Line_63" data-name="Line 63" x1="7.046" y2="0.009" transform="translate(4.917 44.789)"/>
        <line id="Line_64" data-name="Line 64" y1="6.922" x2="0.787" transform="translate(14.495 40.608)"/>
        <line id="Line_65" data-name="Line 65" x1="5.18" y2="0.309" transform="translate(11.463 49.934)"/>
        <path id="Path_1006" data-name="Path 1006" d="M405.6,382.534c-5.569,5.786-5.5,14.887-5.5,14.887s9.1-.278,14.666-6.064,5.5-14.887,5.5-14.887S411.168,376.748,405.6,382.534Z" transform="translate(-372.707 -344.791)"/>
        <line id="Line_66" data-name="Line 66" y1="20.951" x2="20.165" transform="translate(27.393 31.679)"/>
        <line id="Line_67" data-name="Line 67" x1="0.411" y1="4.712" transform="translate(39.982 34.415)"/>
        <line id="Line_68" data-name="Line 68" y1="1.543" x2="7.607" transform="translate(37.1 41.085)"/>
        <line id="Line_69" data-name="Line 69" x1="0.535" y1="7.028" transform="translate(34.603 37.558)"/>
        <line id="Line_70" data-name="Line 70" x2="6.962" y2="0.265" transform="translate(32.591 47.313)"/>
        <line id="Line_71" data-name="Line 71" x1="0.698" y1="5.145" transform="translate(29.656 44.489)"/>
      </g>
    </g>
    <g id="freepik--Resume--inject-321" transform="translate(75.71 80.453)">
      <rect id="Rectangle_290" data-name="Rectangle 290" width="109.036" height="140.344" fill="#fff" stroke="#263238" stroke-linecap="round" stroke-linejoin="round" stroke-width="0.987"/>
      <rect id="Rectangle_291" data-name="Rectangle 291" width="17.393" height="140.344" fill="#76ba1b"/>
      <rect id="Rectangle_292" data-name="Rectangle 292" width="33.438" height="3.934" transform="translate(51.371 20.735)" fill="#76ba1b" stroke="#263238" stroke-linecap="round" stroke-linejoin="round" stroke-width="0.987"/>
      <rect id="Rectangle_293" data-name="Rectangle 293" width="91.66" height="3.934" transform="translate(13.72 54.253)" fill="#76ba1b"/>
      <rect id="Rectangle_294" data-name="Rectangle 294" width="91.66" height="3.934" transform="translate(13.72 108.32)" fill="#76ba1b"/>
      <rect id="Rectangle_295" data-name="Rectangle 295" width="21.075" height="3.934" transform="translate(51.371 27.511)" fill="#76ba1b" stroke="#263238" stroke-linecap="round" stroke-linejoin="round" stroke-width="0.987"/>
      <rect id="Rectangle_296" data-name="Rectangle 296" width="21.075" height="3.934" transform="translate(51.371 34.146)" fill="#76ba1b" stroke="#263238" stroke-linecap="round" stroke-linejoin="round" stroke-width="0.987"/>
      <rect id="Rectangle_297" data-name="Rectangle 297" width="2.17" height="2.17" transform="translate(46.301 62.518)" fill="#76ba1b" stroke="#263238" stroke-linecap="round" stroke-linejoin="round" stroke-width="0.987"/>
      <rect id="Rectangle_298" data-name="Rectangle 298" width="2.17" height="2.17" transform="translate(46.301 90.432)" fill="#76ba1b" stroke="#263238" stroke-linecap="round" stroke-linejoin="round" stroke-width="0.987"/>
      <rect id="Rectangle_299" data-name="Rectangle 299" width="2.17" height="2.17" transform="translate(76.928 62.518)" fill="#76ba1b" stroke="#263238" stroke-linecap="round" stroke-linejoin="round" stroke-width="0.987"/>
      <rect id="Rectangle_300" data-name="Rectangle 300" width="2.17" height="2.17" transform="translate(76.928 90.432)" fill="#76ba1b" stroke="#263238" stroke-linecap="round" stroke-linejoin="round" stroke-width="0.987"/>
      <rect id="Rectangle_301" data-name="Rectangle 301" width="109.036" height="7.139" fill="#263238" stroke="#263238" stroke-linecap="round" stroke-linejoin="round" stroke-width="0.987"/>
      <path id="Path_1007" data-name="Path 1007" d="M262.821,249.068H243.629a.619.619,0,0,1-.619-.619h0a.619.619,0,0,1,.619-.619h19.192a.619.619,0,0,1,.619.619h0A.619.619,0,0,1,262.821,249.068Z" transform="translate(-191.639 -185.042)" fill="#263238"/>
      <path id="Path_1008" data-name="Path 1008" d="M262.821,256.072H243.629a.623.623,0,0,1-.619-.623h0a.619.619,0,0,1,.619-.619h19.192a.619.619,0,0,1,.619.619h0a.623.623,0,0,1-.619.623Z" transform="translate(-191.639 -188.948)" fill="#263238"/>
      <path id="Path_1009" data-name="Path 1009" d="M262.821,263.078H243.629a.619.619,0,0,1-.619-.619h0a.619.619,0,0,1,.619-.619h19.192a.619.619,0,0,1,.619.619h0A.619.619,0,0,1,262.821,263.078Z" transform="translate(-191.639 -192.859)" fill="#263238"/>
      <path id="Path_1010" data-name="Path 1010" d="M262.821,270.078H243.629a.619.619,0,0,1-.619-.619h0a.619.619,0,0,1,.619-.619h19.192a.619.619,0,0,1,.619.619h0A.619.619,0,0,1,262.821,270.078Z" transform="translate(-191.639 -196.765)" fill="#263238"/>
      <path id="Path_1011" data-name="Path 1011" d="M262.821,277.078H243.629a.619.619,0,0,1-.619-.619h0a.619.619,0,0,1,.619-.619h19.192a.619.619,0,0,1,.619.619h0A.619.619,0,0,1,262.821,277.078Z" transform="translate(-191.639 -200.671)" fill="#263238"/>
      <path id="Path_1012" data-name="Path 1012" d="M328.5,249.068H309.309a.619.619,0,0,1-.619-.619h0a.619.619,0,0,1,.619-.619H328.5a.619.619,0,0,1,.619.619h0A.619.619,0,0,1,328.5,249.068Z" transform="translate(-228.288 -185.042)" fill="#263238"/>
      <path id="Path_1013" data-name="Path 1013" d="M328.5,256.072H309.309a.623.623,0,0,1-.619-.623h0a.619.619,0,0,1,.619-.619H328.5a.619.619,0,0,1,.619.619h0a.623.623,0,0,1-.619.623Z" transform="translate(-228.288 -188.948)" fill="#263238"/>
      <path id="Path_1014" data-name="Path 1014" d="M328.5,263.078H309.309a.619.619,0,0,1-.619-.619h0a.619.619,0,0,1,.619-.619H328.5a.619.619,0,0,1,.619.619h0A.619.619,0,0,1,328.5,263.078Z" transform="translate(-228.288 -192.859)" fill="#263238"/>
      <path id="Path_1015" data-name="Path 1015" d="M328.5,270.078H309.309a.619.619,0,0,1-.619-.619h0a.619.619,0,0,1,.619-.619H328.5a.619.619,0,0,1,.619.619h0A.619.619,0,0,1,328.5,270.078Z" transform="translate(-228.288 -196.765)" fill="#263238"/>
      <path id="Path_1016" data-name="Path 1016" d="M328.5,277.078H309.309a.619.619,0,0,1-.619-.619h0a.619.619,0,0,1,.619-.619H328.5a.619.619,0,0,1,.619.619h0A.619.619,0,0,1,328.5,277.078Z" transform="translate(-228.288 -200.671)" fill="#263238"/>
      <path id="Path_1017" data-name="Path 1017" d="M262.821,311.162H243.629a.623.623,0,0,1-.619-.623h0a.619.619,0,0,1,.619-.619h19.192a.619.619,0,0,1,.619.619h0A.623.623,0,0,1,262.821,311.162Z" transform="translate(-191.639 -219.687)" fill="#263238"/>
      <path id="Path_1018" data-name="Path 1018" d="M262.821,318.168H243.629a.619.619,0,0,1-.619-.619h0a.619.619,0,0,1,.619-.619h19.192a.619.619,0,0,1,.619.619h0A.619.619,0,0,1,262.821,318.168Z" transform="translate(-191.639 -223.599)" fill="#263238"/>
      <path id="Path_1019" data-name="Path 1019" d="M262.821,325.168H243.629a.619.619,0,0,1-.619-.619h0a.619.619,0,0,1,.619-.619h19.192a.619.619,0,0,1,.619.619h0A.619.619,0,0,1,262.821,325.168Z" transform="translate(-191.639 -227.505)" fill="#263238"/>
      <path id="Path_1020" data-name="Path 1020" d="M262.821,332.168H243.629a.619.619,0,0,1-.619-.619h0a.619.619,0,0,1,.619-.619h19.192a.619.619,0,0,1,.619.619h0A.619.619,0,0,1,262.821,332.168Z" transform="translate(-191.639 -231.411)" fill="#263238"/>
      <path id="Path_1021" data-name="Path 1021" d="M262.821,339.178H243.629a.619.619,0,0,1-.619-.619h0a.619.619,0,0,1,.619-.619h19.192a.619.619,0,0,1,.619.619h0A.619.619,0,0,1,262.821,339.178Z" transform="translate(-191.639 -235.322)" fill="#263238"/>
      <path id="Path_1022" data-name="Path 1022" d="M328.5,311.162H309.309a.623.623,0,0,1-.619-.623h0a.619.619,0,0,1,.619-.619H328.5a.619.619,0,0,1,.619.619h0a.623.623,0,0,1-.619.623Z" transform="translate(-228.288 -219.687)" fill="#263238"/>
      <path id="Path_1023" data-name="Path 1023" d="M328.5,318.168H309.309a.619.619,0,0,1-.619-.619h0a.619.619,0,0,1,.619-.619H328.5a.619.619,0,0,1,.619.619h0A.619.619,0,0,1,328.5,318.168Z" transform="translate(-228.288 -223.599)" fill="#263238"/>
      <path id="Path_1024" data-name="Path 1024" d="M328.5,325.168H309.309a.619.619,0,0,1-.619-.619h0a.619.619,0,0,1,.619-.619H328.5a.619.619,0,0,1,.619.619h0A.619.619,0,0,1,328.5,325.168Z" transform="translate(-228.288 -227.505)" fill="#263238"/>
      <path id="Path_1025" data-name="Path 1025" d="M328.5,332.168H309.309a.619.619,0,0,1-.619-.619h0a.619.619,0,0,1,.619-.619H328.5a.619.619,0,0,1,.619.619h0A.619.619,0,0,1,328.5,332.168Z" transform="translate(-228.288 -231.411)" fill="#263238"/>
      <path id="Path_1026" data-name="Path 1026" d="M328.5,339.178H309.309a.619.619,0,0,1-.619-.619h0a.619.619,0,0,1,.619-.619H328.5a.619.619,0,0,1,.619.619h0A.619.619,0,0,1,328.5,339.178Z" transform="translate(-228.288 -235.322)" fill="#263238"/>
      <path id="Path_1027" data-name="Path 1027" d="M328.5,371.138H309.309a.619.619,0,0,1-.619-.619h0a.619.619,0,0,1,.619-.619H328.5a.619.619,0,0,1,.619.619h0A.619.619,0,0,1,328.5,371.138Z" transform="translate(-228.288 -253.155)" fill="#263238"/>
      <path id="Path_1028" data-name="Path 1028" d="M328.5,378.138H309.309a.619.619,0,0,1-.619-.619h0a.619.619,0,0,1,.619-.619H328.5a.619.619,0,0,1,.619.619h0A.619.619,0,0,1,328.5,378.138Z" transform="translate(-228.288 -257.061)" fill="#263238"/>
      <path id="Path_1029" data-name="Path 1029" d="M328.5,385.148H309.309a.619.619,0,0,1-.619-.619h0a.619.619,0,0,1,.619-.619H328.5a.619.619,0,0,1,.619.619h0A.619.619,0,0,1,328.5,385.148Z" transform="translate(-228.288 -260.973)" fill="#263238"/>
      <rect id="Rectangle_302" data-name="Rectangle 302" width="20.43" height="1.238" rx="0.619" transform="translate(80.402 126.031)" fill="#263238"/>
      <path id="Path_1030" data-name="Path 1030" d="M328.5,399.148H309.309a.619.619,0,0,1-.619-.619h0a.619.619,0,0,1,.619-.619H328.5a.619.619,0,0,1,.619.619h0A.619.619,0,0,1,328.5,399.148Z" transform="translate(-228.288 -268.784)" fill="#263238"/>
      <path id="Path_1031" data-name="Path 1031" d="M286.837,291.25a2.475,2.475,0,0,0-2.44,2.064h-2.962a2.475,2.475,0,0,0-4.862,0h-2.961a2.475,2.475,0,0,0-4.862,0h-3a2.471,2.471,0,0,0-4.862,0h-2.966a2.471,2.471,0,0,0-4.862,0h-2.966a2.471,2.471,0,0,0-4.862,0h-2.966a2.475,2.475,0,1,0,0,.827h2.966a2.471,2.471,0,0,0,4.862,0h2.966a2.471,2.471,0,0,0,4.862,0h2.966a2.471,2.471,0,0,0,4.862,0h2.966a2.475,2.475,0,0,0,4.862,0h2.961a2.475,2.475,0,0,0,4.862,0h2.962a2.475,2.475,0,1,0,2.44-2.891Z" transform="translate(-188.48 -209.27)" fill="#263238"/>
      <path id="Path_1032" data-name="Path 1032" d="M213.417,370.42a4.168,4.168,0,1,0,2.949,1.222,4.173,4.173,0,0,0-2.949-1.222Zm0,6.25a2.082,2.082,0,1,1,2.077-2.077,2.082,2.082,0,0,1-2.077,2.077Z" transform="translate(-172.796 -253.445)" fill="#76ba1b" stroke="#263238" stroke-linecap="round" stroke-linejoin="round" stroke-width="0.987"/>
      <path id="Path_1033" data-name="Path 1033" d="M219.949,376.25l1.989.968a4.168,4.168,0,0,0-3.218-6.8v2.091a2.077,2.077,0,0,1,1.224,3.739Z" transform="translate(-178.086 -253.445)" fill="#263238" stroke="#263238" stroke-linecap="round" stroke-linejoin="round" stroke-width="0.987"/>
      <path id="Path_1034" data-name="Path 1034" d="M216.953,398.495h-3.978a.99.99,0,0,1-.995-.99h0a1,1,0,0,1,.995-.995h3.978a1,1,0,0,1,.995.995h0a.99.99,0,0,1-.995.99Z" transform="translate(-174.325 -268.003)" fill="#76ba1b" stroke="#263238" stroke-linecap="round" stroke-linejoin="round" stroke-width="0.987"/>
      <path id="Path_1035" data-name="Path 1035" d="M241.553,370.42a4.168,4.168,0,1,0,2.952,1.221,4.173,4.173,0,0,0-2.952-1.221Zm0,6.25a2.078,2.078,0,1,1,1.472-.607,2.082,2.082,0,0,1-1.472.607Z" transform="translate(-188.498 -253.445)" fill="#76ba1b" stroke="#263238" stroke-linecap="round" stroke-linejoin="round" stroke-width="0.987"/>
      <path id="Path_1036" data-name="Path 1036" d="M251,374.155a4.181,4.181,0,0,0-4.128-3.735v2.091a2.082,2.082,0,0,1,2.06,2.082,2.205,2.205,0,0,1-.027.239Z" transform="translate(-193.793 -253.445)" fill="#263238" stroke="#263238" stroke-linecap="round" stroke-linejoin="round" stroke-width="0.987"/>
      <path id="Path_1037" data-name="Path 1037" d="M245.043,398.495h-3.978a.99.99,0,0,1-.995-.99h0a1,1,0,0,1,.995-.995h3.978a1,1,0,0,1,.995.995h0a.99.99,0,0,1-.995.99Z" transform="translate(-189.999 -268.003)" fill="#76ba1b" stroke="#263238" stroke-linecap="round" stroke-linejoin="round" stroke-width="0.987"/>
      <path id="Path_1038" data-name="Path 1038" d="M269.853,370.42a4.168,4.168,0,1,0,2.952,1.221,4.173,4.173,0,0,0-2.952-1.221Zm0,6.25a2.078,2.078,0,1,1,1.472-.607,2.082,2.082,0,0,1-1.472.607Z" transform="translate(-204.289 -253.445)" fill="#76ba1b" stroke="#263238" stroke-linecap="round" stroke-linejoin="round" stroke-width="0.987"/>
      <path id="Path_1039" data-name="Path 1039" d="M271.058,370.42v2.091a2.082,2.082,0,1,1-1.6,3.412l-1.653,1.291a4.168,4.168,0,1,0,3.258-6.794Z" transform="translate(-205.472 -253.445)" fill="#263238" stroke="#263238" stroke-linecap="round" stroke-linejoin="round" stroke-width="0.987"/>
      <path id="Path_1040" data-name="Path 1040" d="M273.343,398.495h-3.978a.99.99,0,0,1-.995-.99h0a.99.99,0,0,1,.995-.995h3.978a1,1,0,0,1,.995.995h0a.99.99,0,0,1-.995.99Z" transform="translate(-205.79 -268.003)" fill="#76ba1b" stroke="#263238" stroke-linecap="round" stroke-linejoin="round" stroke-width="0.987"/>
    </g>
    <g id="freepik--Character--inject-321" transform="translate(74.037 95.773)">
      <circle id="Ellipse_64" data-name="Ellipse 64" cx="18.671" cy="18.671" r="18.671" transform="translate(5.727)" fill="#fff"/>
      <path id="Path_1041" data-name="Path 1041" d="M184.611,416.406s2.7,4.053,2.325,5.658-2.74,1.109-3.863-.619-3.978-4.31-3.461-5.419S183.6,415.42,184.611,416.406Z" transform="translate(-154.556 -293.862)" fill="#fff" stroke="#263238" stroke-linecap="round" stroke-linejoin="round" stroke-width="1.023"/>
      <path id="Path_1042" data-name="Path 1042" d="M161.265,416.706s-3.258,4.836-2.736,6.157,2.21.928,3.5-.265a54.019,54.019,0,0,0,3.868-4.544S163.731,415.385,161.265,416.706Z" transform="translate(-142.795 -294.388)" fill="#fff" stroke="#263238" stroke-linecap="round" stroke-linejoin="round" stroke-width="1.023"/>
      <path id="Path_1043" data-name="Path 1043" d="M158.6,425.241a4.018,4.018,0,0,0,2.555-.5c1.485-.751,4.075-4.142,4.075-4.142" transform="translate(-142.866 -296.765)" fill="none" stroke="#263238" stroke-linecap="round" stroke-linejoin="round" stroke-width="0.767"/>
      <path id="Path_1044" data-name="Path 1044" d="M181.74,418.65a19.424,19.424,0,0,0,3,4.155c1.587,1.5,2.365,1.932,3.408,1.074" transform="translate(-155.778 -295.677)" fill="none" stroke="#263238" stroke-linecap="round" stroke-linejoin="round" stroke-width="0.767"/>
      <path id="Path_1045" data-name="Path 1045" d="M151,280.65s-2.851,5.817-2.723,8.195.65,14.41,1.428,18.375,1.543,13.839,2.073,17.787S155.7,338.2,155.7,338.2s-.522,2.117-.133,2.776,4.5,1.746,4.632,1.348a10.485,10.485,0,0,0,.884-2.776c.106-1.189-1.812-13.879-1.034-16.655s.928-21.438,1.034-23.36-.031-5.3-.031-5.3a1.216,1.216,0,0,0,1.3-.393c.517-.663,2.232,17.3,2.754,21.535s-.65,5.419-1.039,8.062-1.3,11.232-1.3,12.292-1.167,4.491-.65,5.154,1.618.553,2.069.676a4.739,4.739,0,0,0,2.926-.345c.517-.133.955-2.047.955-2.047s4.164-11.766,4.942-16.659,2.073-13.972,1.817-19.524-1.817-16.8-1.817-16.8l-.389-3.306Z" transform="translate(-137.102 -218.675)" fill="#263238" stroke="#263238" stroke-linecap="round" stroke-linejoin="round" stroke-width="1.023"/>
      <path id="Path_1046" data-name="Path 1046" d="M150.308,295.87a7.544,7.544,0,0,0,1.883,5.393" transform="translate(-138.234 -227.168)" fill="none" stroke="#fff" stroke-linecap="round" stroke-linejoin="round" stroke-width="0.507"/>
      <path id="Path_1047" data-name="Path 1047" d="M150.6,306.37s1.255,2.135,2.763,2.382" transform="translate(-138.402 -233.027)" fill="none" stroke="#fff" stroke-linecap="round" stroke-linejoin="round" stroke-width="0.507"/>
      <path id="Path_1048" data-name="Path 1048" d="M170.744,387.13a32.463,32.463,0,0,0-2.007,6.52c-.239,2.3,2.007,1.406,2.511,2.939s-3.01,1.41-2.382,1.79a10.093,10.093,0,0,0,2.506.641" transform="translate(-148.513 -278.09)" fill="none" stroke="#fff" stroke-linecap="round" stroke-linejoin="round" stroke-width="0.512"/>
      <path id="Path_1049" data-name="Path 1049" d="M181,372.684c.376-.128,4.641-.884,4.137-3.2s-3.01-2.431-2.652-5.114,4.261-8.571,4.261-10.233-2.758-7.855-3.01-11.691" transform="translate(-155.365 -253.159)" fill="none" stroke="#fff" stroke-linecap="round" stroke-linejoin="round" stroke-width="0.512"/>
      <path id="Path_1050" data-name="Path 1050" d="M190.719,295.31s-2.886,4.137-3.262,4.765,3.386-2.758,3.386-2.758" transform="translate(-158.953 -226.855)" fill="none" stroke="#fff" stroke-linecap="round" stroke-linejoin="round" stroke-width="0.507"/>
      <path id="Path_1051" data-name="Path 1051" d="M177.79,292s.314,3.023.314,3.647v3.443" transform="translate(-153.574 -225.008)" fill="none" stroke="#fff" stroke-linecap="round" stroke-linejoin="round" stroke-width="0.507"/>
      <path id="Path_1052" data-name="Path 1052" d="M178.5,298.27s1.357-.208,1.666-1.251a12.935,12.935,0,0,0,.212-3.129" transform="translate(-153.97 -226.063)" fill="none" stroke="#fff" stroke-linecap="round" stroke-linejoin="round" stroke-width="0.507"/>
      <path id="Path_1053" data-name="Path 1053" d="M173.723,199.15a33.906,33.906,0,0,1-1.945-8.3c-.128-1.3-1.556-.911-1.556-.911s-3.094,1.817-3.094,2.21,1.428,9.985,1.684,11.669a21.655,21.655,0,0,1,.261,2.984s-5.446-5.835-6.873-7.262a17.139,17.139,0,0,0-2.873-2.581,8.943,8.943,0,0,0-2.7-1.048c-2.334-.778-4.8-2.595-7.651-2.466a16.973,16.973,0,0,0-5.446,1.3s-4.146,1.945-7,3.24a5.091,5.091,0,0,0-.941.548c-.469-.057-1.445.194-2.559,2.692-1.551,3.5-8.553,12.708-9.724,15.948s1.3,6.484,4.018,9.075a77.84,77.84,0,0,1,5.574,6.1l3.094-3.81a17.974,17.974,0,0,0,.442,2.515c.389,1.3,1.684,2.723,6.873,3.094s16.845,1.087,16.465-1.556c-.535-3.757-.261-15.82-.517-19.06a54.638,54.638,0,0,1,.128-6.232,15.626,15.626,0,0,0,2.586,2.71c1.167.778,6.1,4.42,8.045,5.207s4.668-.517,5.835-3.094S175.279,203.689,173.723,199.15Zm-42.265,21.522c-.522-2.073-.778-2.851-.778-2.851s3.324-3.58,4.924-5.49c.217,5.123.354,10.728.2,11.55a19.231,19.231,0,0,0,.093,4.137C135.034,226.829,131.9,222.457,131.458,220.671Z" transform="translate(-123.004 -168.032)" fill="#76ba1b" stroke="#263238" stroke-linecap="round" stroke-linejoin="round" stroke-width="1.013"/>
      <path id="Path_1054" data-name="Path 1054" d="M173.723,199.15a33.906,33.906,0,0,1-1.945-8.3c-.128-1.3-1.556-.911-1.556-.911s-3.094,1.817-3.094,2.21,1.428,9.985,1.684,11.669a21.655,21.655,0,0,1,.261,2.984s-5.446-5.835-6.873-7.262a17.139,17.139,0,0,0-2.873-2.581,8.943,8.943,0,0,0-2.7-1.048c-2.334-.778-4.8-2.595-7.651-2.466a16.973,16.973,0,0,0-5.446,1.3s-4.146,1.945-7,3.24a5.091,5.091,0,0,0-.941.548c-.469-.057-1.445.194-2.559,2.692-1.551,3.5-8.553,12.708-9.724,15.948s1.3,6.484,4.018,9.075a77.84,77.84,0,0,1,5.574,6.1l3.094-3.81a17.974,17.974,0,0,0,.442,2.515c.389,1.3,1.684,2.723,6.873,3.094s16.845,1.087,16.465-1.556c-.535-3.757-.261-15.82-.517-19.06a54.638,54.638,0,0,1,.128-6.232,15.626,15.626,0,0,0,2.586,2.71c1.167.778,6.1,4.42,8.045,5.207s4.668-.517,5.835-3.094S175.279,203.689,173.723,199.15Zm-42.265,21.522c-.522-2.073-.778-2.851-.778-2.851s3.324-3.58,4.924-5.49c.217,5.123.354,10.728.2,11.55a19.231,19.231,0,0,0,.093,4.137C135.034,226.829,131.9,222.457,131.458,220.671Z" transform="translate(-123.004 -168.032)" opacity="0.1"/>
      <path id="Path_1055" data-name="Path 1055" d="M155.14,234.5a26.036,26.036,0,0,0,2.135-3.885" transform="translate(-140.935 -190.754)" fill="none" stroke="#263238" stroke-linecap="round" stroke-linejoin="round" stroke-width="0.76"/>
      <path id="Path_1056" data-name="Path 1056" d="M160.935,231.46a4.972,4.972,0,0,1-1.255,1.631" transform="translate(-143.469 -191.228)" fill="none" stroke="#263238" stroke-linecap="round" stroke-linejoin="round" stroke-width="0.76"/>
      <path id="Path_1057" data-name="Path 1057" d="M227.19,228.15a5.658,5.658,0,0,0,1.768,3.978" transform="translate(-181.138 -189.381)" fill="none" stroke="#263238" stroke-linecap="round" stroke-linejoin="round" stroke-width="1.013"/>
      <path id="Path_1058" data-name="Path 1058" d="M228.321,232.88a5.706,5.706,0,0,0,.756,3.386" transform="translate(-181.757 -192.02)" fill="none" stroke="#263238" stroke-linecap="round" stroke-linejoin="round" stroke-width="1.013"/>
      <path id="Path_1059" data-name="Path 1059" d="M136.191,252.308s-.955-.906-3.311-.513" transform="translate(-128.515 -202.519)" fill="none" stroke="#263238" stroke-linecap="round" stroke-linejoin="round" stroke-width="0.76"/>
      <path id="Path_1060" data-name="Path 1060" d="M129.93,250.039s.654-1.048,3.134-.265" transform="translate(-126.869 -201.285)" fill="none" stroke="#263238" stroke-linecap="round" stroke-linejoin="round" stroke-width="0.76"/>
      <path id="Path_1061" data-name="Path 1061" d="M208.075,220.28c-.522.128-2.745,3.921-2.745,3.921l5.362-1.437" transform="translate(-168.941 -184.99)" fill="none" stroke="#263238" stroke-linecap="round" stroke-linejoin="round" stroke-width="0.76"/>
      <path id="Path_1062" data-name="Path 1062" d="M176.283,208.9a2.946,2.946,0,0,0,3.262.756,3.873,3.873,0,0,0,2.652-4.517C181.839,203.634,174.276,204.889,176.283,208.9Z" transform="translate(-152.544 -176.198)" fill="#fff" stroke="#263238" stroke-linecap="round" stroke-linejoin="round" stroke-width="1.013"/>
      <path id="Path_1063" data-name="Path 1063" d="M169.628,194.217s-1.516,1.008-1.715,1.918a13.823,13.823,0,0,0,.7,4.84c.4,1.008,1.719,3.328,1.719,3.328s4.539-2.621,4.862-2.824,3.536,1.613,4.239,1.326-1.715-6.458-2.824-7.766S171.241,193,169.628,194.217Z" transform="translate(-148.037 -170.101)" fill="#fff" stroke="#263238" stroke-linecap="round" stroke-linejoin="round" stroke-width="1.013"/>
      <path id="Path_1064" data-name="Path 1064" d="M170,187.46s.1,1.613.3,4.036a7.785,7.785,0,0,0,2.347,5.446c1.326,1.109,3.227,1.715,3.731,1.109a8.44,8.44,0,0,0,.884-4.641c-.225-1.516-.5-4.738-.5-4.738Z" transform="translate(-149.227 -166.676)" fill="#fff" stroke="#263238" stroke-linecap="round" stroke-linejoin="round" stroke-width="1.013"/>
      <path id="Path_1065" data-name="Path 1065" d="M177.072,191.522c-.15-1.41-.287-2.851-.287-2.851L170,187.46s.1,1.613.3,4.036a10.374,10.374,0,0,0,.765,3.258Z" transform="translate(-149.227 -166.676)" fill="#76ba1b" opacity="0.5"/>
      <path id="Path_1066" data-name="Path 1066" d="M162.647,181.07s-1.512-1.512-1.817-.2.911,3.333,2.626,2.824v-1.207Z" transform="translate(-144.085 -162.7)" fill="#fff" stroke="#263238" stroke-linecap="round" stroke-linejoin="round" stroke-width="1.013"/>
      <path id="Path_1067" data-name="Path 1067" d="M162.647,181.07s-1.512-1.512-1.817-.2.911,3.333,2.626,2.824v-1.207Z" transform="translate(-144.085 -162.7)" fill="#76ba1b" stroke="#263238" stroke-linecap="round" stroke-linejoin="round" stroke-width="1.013" opacity="0.5"/>
      <path id="Path_1068" data-name="Path 1068" d="M160.886,163.687s2.524,6.758,4.743,8.071,6.657,2.519,7.868-2.21-2.016-11.6-3.125-13.623-5.247-2.621-7.868-.606S159.286,159.245,160.886,163.687Z" transform="translate(-143.649 -148.049)" fill="#fff" stroke="#263238" stroke-linecap="round" stroke-linejoin="round" stroke-width="1.013"/>
      <path id="Path_1069" data-name="Path 1069" d="M163.692,157.955a8.641,8.641,0,0,1,3.412-.8l2.515-2.117a6.244,6.244,0,0,0-7.094.261c-2.626,2.02-3.231,3.934-1.618,8.376,0,0,2.524,6.758,4.743,8.071a9.075,9.075,0,0,0,2.528,1.012,35.592,35.592,0,0,1-3.236-4.69c-.8-1.706-1.136-5.229-2.161-7.276S162.1,158.751,163.692,157.955Z" transform="translate(-143.657 -148.041)" fill="#76ba1b" opacity="0.5"/>
      <path id="Path_1070" data-name="Path 1070" d="M179.782,171.25s1.008,1.817.606,2.21a1.048,1.048,0,0,1-1.008.2" transform="translate(-154.461 -157.632)" fill="none" stroke="#263238" stroke-linecap="round" stroke-linejoin="round" stroke-width="1.013"/>
      <path id="Path_1071" data-name="Path 1071" d="M169.79,169.041a1.59,1.59,0,0,1,1.715-1.211" transform="translate(-149.11 -155.723)" fill="none" stroke="#263238" stroke-linecap="round" stroke-linejoin="round" stroke-width="2.027"/>
      <path id="Path_1072" data-name="Path 1072" d="M171.85,172.546a1.079,1.079,0,0,0,1.512-.606" transform="translate(-150.259 -158.017)" fill="none" stroke="#263238" stroke-linecap="round" stroke-linejoin="round" stroke-width="1.013"/>
      <path id="Path_1073" data-name="Path 1073" d="M182.8,170.716a1.084,1.084,0,0,0,1.516-.606" transform="translate(-156.369 -156.995)" fill="none" stroke="#263238" stroke-linecap="round" stroke-linejoin="round" stroke-width="1.013"/>
      <path id="Path_1074" data-name="Path 1074" d="M180.72,165.668a1.512,1.512,0,0,1,2.069-.084" transform="translate(-155.209 -154.264)" fill="none" stroke="#263238" stroke-linecap="round" stroke-linejoin="round" stroke-width="2.027"/>
      <path id="Path_1075" data-name="Path 1075" d="M173.722,162.01c-1.176-.513-3.978-1.644-4.915-1.171-1.211.606-4.341,2.727-4.341,4.341,0,0-2.016-2.723-2.016-3.735s.8-1.326.1-2.621-1.719-1.414-1.414-2.926c.278-1.4,3.068-2.886,4.42-3.094a4.562,4.562,0,0,0,3.028,1.079c2.21,0,4.036-1.419,4.036-3.178s-1.808-3.174-4.036-3.174a4.9,4.9,0,0,0-1.463.217c-2.113-.155-2.515,1.41-3.978,2.268s-2.382,3.386-2.382,3.386h.062c-1.07,1.565-1.065,3.452.1,6.63,0,0,2.524,6.758,4.743,8.071s6.657,2.519,7.868-2.21A10.949,10.949,0,0,0,173.722,162.01Z" transform="translate(-143.667 -144.396)" fill="#263238" stroke="#263238" stroke-linecap="round" stroke-linejoin="round" stroke-width="1.013"/>
      <path id="Path_1076" data-name="Path 1076" d="M181.477,180.06s-1.512,2.117-3.227.707" transform="translate(-153.83 -162.547)" fill="none" stroke="#fff" stroke-linecap="round" stroke-linejoin="round" stroke-width="1.013"/>
      <path id="Path_1077" data-name="Path 1077" d="M148.59,276.84a5.954,5.954,0,0,1,1.556,1.423,25.927,25.927,0,0,0,1.689,2.077s1.423.128,1.3.778-.389,1.034-1.039,1.034-2.073-1.3-2.073-1.3l-2.073,3.24a8.293,8.293,0,0,1-2.595-3.24Z" transform="translate(-135.473 -216.549)" fill="#fff" stroke="#263238" stroke-linecap="round" stroke-linejoin="round" stroke-width="1.013"/>
      <circle id="Ellipse_65" data-name="Ellipse 65" cx="18.671" cy="18.671" r="18.671" transform="translate(5.727)" fill="none" stroke="#263238" stroke-linecap="round" stroke-linejoin="round" stroke-width="2.027"/>
      <path id="Path_1078" data-name="Path 1078" d="M213.556,174.459s-1.3-.133-1.556.645a9.309,9.309,0,0,0-.65,2.077c0,.522.128.906.778,1.034s1.039-.778,1.039-.778Z" transform="translate(-172.3 -159.417)" fill="#fff" stroke="#263238" stroke-linecap="round" stroke-linejoin="round" stroke-width="1.013"/>
      <path id="Path_1079" data-name="Path 1079" d="M216.105,172.229s-.645,3.5-.645,4.539a3.925,3.925,0,0,0,.778,2.21,1.613,1.613,0,0,0,.906.517l.65-.778a1.9,1.9,0,0,0,.256,2.334c1.034,1.3,1.817,1.167,2.723.778s1.167-.906.778-2.334-.645-3.762-.906-5.185-1.167-1.945-1.684-1.945S217.025,171.84,216.105,172.229Z" transform="translate(-174.593 -158.098)" fill="#fff" stroke="#263238" stroke-linecap="round" stroke-linejoin="round" stroke-width="1.013"/>
      <path id="Path_1080" data-name="Path 1080" d="M215.82,182.807s-.23-.8.747-.919,2.59-.287,2.59-.287" transform="translate(-174.781 -163.407)" fill="none" stroke="#263238" stroke-linecap="round" stroke-linejoin="round" stroke-width="0.507"/>
      <path id="Path_1081" data-name="Path 1081" d="M216.11,179.045a13.042,13.042,0,0,1,3.05-.464" transform="translate(-174.956 -161.714)" fill="none" stroke="#263238" stroke-linecap="round" stroke-linejoin="round" stroke-width="0.507"/>
      <path id="Path_1082" data-name="Path 1082" d="M216.5,175.71a14.917,14.917,0,0,1,2.533-.23" transform="translate(-175.173 -159.992)" fill="none" stroke="#263238" stroke-linecap="round" stroke-linejoin="round" stroke-width="0.507"/>
      <path id="Path_1083" data-name="Path 1083" d="M218.19,185.76a1.5,1.5,0,0,0,1.326.349" transform="translate(-176.116 -165.728)" fill="none" stroke="#263238" stroke-linecap="round" stroke-linejoin="round" stroke-width="0.507"/>
    </g>
  </g>
</svg>
