<svg xmlns="http://www.w3.org/2000/svg" width="23.371" height="24" viewBox="0 0 23.371 24">
  <g id="settings" transform="translate(-6.71)">
    <g id="Group_3424" data-name="Group 3424" transform="translate(6.71)">
      <path id="Path_48" data-name="Path 48" d="M29.677,14.63l-2.206-1.725A8.685,8.685,0,0,0,27.523,12a8.423,8.423,0,0,0-.052-.906l2.208-1.726a1.082,1.082,0,0,0,.261-1.378L27.646,4.02a1.063,1.063,0,0,0-1.327-.477l-2.6,1.045a8.924,8.924,0,0,0-1.563-.907L21.757.92A1.062,1.062,0,0,0,20.7,0H16.1a1.059,1.059,0,0,0-1.058.912l-.4,2.771a9.2,9.2,0,0,0-1.56.907l-2.61-1.048a1.085,1.085,0,0,0-1.317.469l-2.3,3.974a1.075,1.075,0,0,0,.26,1.385L9.324,11.1a7.913,7.913,0,0,0,0,1.811L7.116,14.632a1.082,1.082,0,0,0-.26,1.378L9.15,19.979a1.061,1.061,0,0,0,1.327.477l2.6-1.045a9,9,0,0,0,1.562.907l.4,2.76A1.061,1.061,0,0,0,16.1,24h4.6a1.06,1.06,0,0,0,1.059-.912l.4-2.77a9.243,9.243,0,0,0,1.56-.908l2.61,1.048a1.075,1.075,0,0,0,.392.074,1.056,1.056,0,0,0,.925-.542l2.3-3.99A1.079,1.079,0,0,0,29.677,14.63ZM18.4,16a4,4,0,1,1,4-4A4,4,0,0,1,18.4,16Z" transform="translate(-6.71)" fill="#fff"/>
    </g>
  </g>
</svg>
