<svg xmlns="http://www.w3.org/2000/svg" width="30" height="25" viewBox="0 0 30 25">
  <g id="suitcase" transform="translate(0 -2)">
    <path id="Path_2700" data-name="Path 2700" d="M16.75,7.625a1.25,1.25,0,0,1-1.25-1.25V4.5h-5V6.375a1.25,1.25,0,0,1-2.5,0V4.5A2.5,2.5,0,0,1,10.5,2h5A2.5,2.5,0,0,1,18,4.5V6.375A1.25,1.25,0,0,1,16.75,7.625Z" transform="translate(2)" fill="#76ba1b"/>
    <path id="Path_2701" data-name="Path 2701" d="M15.887,16.32a2.575,2.575,0,0,1-.887.15,2.739,2.739,0,0,1-.963-.175L0,11.62v9.537a3.436,3.436,0,0,0,3.438,3.438H26.563A3.436,3.436,0,0,0,30,21.157V11.62Z" transform="translate(0 2.405)" fill="#76ba1b"/>
    <path id="Path_2702" data-name="Path 2702" d="M30,8.438V11.3L15.3,16.2a.925.925,0,0,1-.6,0L0,11.3V8.438A3.436,3.436,0,0,1,3.438,5H26.563A3.436,3.436,0,0,1,30,8.438Z" transform="translate(0 0.75)" fill="#76ba1b"/>
  </g>
</svg>
