<svg xmlns="http://www.w3.org/2000/svg" width="21.094" height="24" viewBox="0 0 21.094 24">
  <g id="user" transform="translate(-31)">
    <g id="Group_3426" data-name="Group 3426" transform="translate(35.219)">
      <g id="Group_3425" data-name="Group 3425">
        <path id="Path_49" data-name="Path 49" d="M127.328,0a6.328,6.328,0,1,0,6.328,6.328A6.335,6.335,0,0,0,127.328,0Z" transform="translate(-121)" fill="#fff"/>
      </g>
    </g>
    <g id="Group_3428" data-name="Group 3428" transform="translate(31 14.063)">
      <g id="Group_3427" data-name="Group 3427">
        <path id="Path_50" data-name="Path 50" d="M49.42,302.728A9.021,9.021,0,0,0,42.953,300H40.141a9.021,9.021,0,0,0-6.467,2.728A9.222,9.222,0,0,0,31,309.234a.7.7,0,0,0,.7.7H51.391a.7.7,0,0,0,.7-.7A9.222,9.222,0,0,0,49.42,302.728Z" transform="translate(-31 -300)" fill="#fff"/>
      </g>
    </g>
  </g>
</svg>
