<svg xmlns="http://www.w3.org/2000/svg" width="40.277" height="35" viewBox="0 0 40.277 35">
  <g id="video-camera" transform="translate(0 -21.802)">
    <g id="Group_3337" data-name="Group 3337" transform="translate(0 21.802)">
      <g id="Group_3336" data-name="Group 3336" transform="translate(0 0)">
        <path id="Path_9" data-name="Path 9" d="M264,165.064a1.644,1.644,0,0,0-2.275-.581l-5.519,3.2-1.4.823v7.649l1.307.775c.048,0,.048.048.1.048l5.422,3.147a1.49,1.49,0,0,0,.92.29,1.632,1.632,0,0,0,1.646-1.646v-6.487l.048-6.39A1.267,1.267,0,0,0,264,165.064Z" transform="translate(-223.967 -147.007)" fill="#fff"/>
        <path id="Path_10" data-name="Path 10" d="M7.794,37.39A7.794,7.794,0,1,0,0,29.6,7.789,7.789,0,0,0,7.794,37.39Zm0-10.989a3.2,3.2,0,1,1-3.2,3.2A3.132,3.132,0,0,1,7.794,26.4Z" transform="translate(0 -21.802)" fill="#fff"/>
        <path id="Path_11" data-name="Path 11" d="M40.206,150.686a9.278,9.278,0,0,1-4.163,1.017,9.052,9.052,0,0,1-5.035-1.5H25.49a9.052,9.052,0,0,1-5.035,1.5,8.686,8.686,0,0,1-4.163-1.017A3.785,3.785,0,0,0,14.4,153.93v11.812a3.936,3.936,0,0,0,3.921,3.921h19.9a3.936,3.936,0,0,0,3.921-3.921V153.93A3.937,3.937,0,0,0,40.206,150.686Z" transform="translate(-12.661 -134.663)" fill="#fff"/>
        <path id="Path_12" data-name="Path 12" d="M136.6,37.39A7.794,7.794,0,1,0,128.8,29.6,7.789,7.789,0,0,0,136.6,37.39Zm0-10.989a3.2,3.2,0,1,1-3.2,3.2A3.192,3.192,0,0,1,136.6,26.4Z" transform="translate(-113.216 -21.802)" fill="#fff"/>
      </g>
    </g>
  </g>
</svg>
