<svg xmlns="http://www.w3.org/2000/svg" width="218.305" height="162.663" viewBox="0 0 218.305 162.663">
  <g id="Visual_data-rafiki" data-name="Visual data-rafiki" transform="translate(0 -55)">
    <g id="freepik--background-complete--inject-205" transform="translate(0 55)">
      <rect id="Rectangle_142" data-name="Rectangle 142" width="218.305" height="0.109" transform="translate(0 142.946)" fill="#ebebeb"/>
      <rect id="Rectangle_143" data-name="Rectangle 143" width="14.461" height="0.109" transform="translate(181.97 149.971)" fill="#ebebeb"/>
      <rect id="Rectangle_144" data-name="Rectangle 144" width="3.794" height="0.109" transform="translate(140.82 151.159)" fill="#ebebeb"/>
      <rect id="Rectangle_145" data-name="Rectangle 145" width="8.379" height="0.109" transform="translate(173.155 145.919)" fill="#ebebeb"/>
      <rect id="Rectangle_146" data-name="Rectangle 146" width="18.857" height="0.109" transform="translate(22.905 146.653)" fill="#ebebeb"/>
      <rect id="Rectangle_147" data-name="Rectangle 147" width="2.764" height="0.109" transform="translate(45.652 146.653)" fill="#ebebeb"/>
      <rect id="Rectangle_148" data-name="Rectangle 148" width="40.902" height="0.109" transform="translate(57.401 148.495)" fill="#ebebeb"/>
      <path id="Path_660" data-name="Path 660" d="M125,178.473H40.7a2.493,2.493,0,0,1-2.489-2.493V57.471A2.493,2.493,0,0,1,40.7,55H125a2.493,2.493,0,0,1,2.493,2.493V175.98A2.493,2.493,0,0,1,125,178.473ZM40.7,55.087a2.384,2.384,0,0,0-2.38,2.384V175.98a2.384,2.384,0,0,0,2.38,2.384H125a2.388,2.388,0,0,0,2.384-2.384V57.471A2.388,2.388,0,0,0,125,55.087Z" transform="translate(-21.527 -55)" fill="#ebebeb"/>
      <path id="Path_661" data-name="Path 661" d="M341.3,178.473H256.993a2.5,2.5,0,0,1-2.493-2.493V57.471A2.5,2.5,0,0,1,256.993,55H341.3a2.493,2.493,0,0,1,2.484,2.471V175.98A2.493,2.493,0,0,1,341.3,178.473ZM256.993,55.087a2.388,2.388,0,0,0-2.384,2.384V175.98a2.388,2.388,0,0,0,2.384,2.384H341.3a2.388,2.388,0,0,0,2.384-2.384V57.471a2.388,2.388,0,0,0-2.384-2.384Z" transform="translate(-143.383 -55)" fill="#ebebeb"/>
      <rect id="Rectangle_149" data-name="Rectangle 149" width="63.339" height="40.29" transform="translate(62.178 91.326)" fill="#ebebeb"/>
      <rect id="Rectangle_150" data-name="Rectangle 150" width="63.339" height="2.729" transform="translate(62.178 91.326)" fill="#e0e0e0"/>
      <circle id="Ellipse_59" data-name="Ellipse 59" cx="0.821" cy="0.821" r="0.821" transform="translate(122.932 91.871)" fill="#fafafa"/>
      <circle id="Ellipse_60" data-name="Ellipse 60" cx="0.821" cy="0.821" r="0.821" transform="translate(120.199 91.871)" fill="#fafafa"/>
      <circle id="Ellipse_61" data-name="Ellipse 61" cx="0.821" cy="0.821" r="0.821" transform="translate(117.466 91.871)" fill="#fafafa"/>
      <rect id="Rectangle_151" data-name="Rectangle 151" width="63.339" height="40.29" transform="translate(97.556 102.586)" fill="#494848"/>
      <rect id="Rectangle_152" data-name="Rectangle 152" width="63.339" height="2.729" transform="translate(97.556 102.586)" fill="#e0e0e0"/>
      <path id="Path_662" data-name="Path 662" d="M364.232,292.021a.821.821,0,1,1-.821-.821A.821.821,0,0,1,364.232,292.021Z" transform="translate(-204.28 -188.073)" fill="#fafafa"/>
      <path id="Path_663" data-name="Path 663" d="M357.972,292.021a.821.821,0,1,1-.821-.821A.821.821,0,0,1,357.972,292.021Z" transform="translate(-200.753 -188.073)" fill="#fafafa"/>
      <path id="Path_664" data-name="Path 664" d="M351.712,292.02a.821.821,0,1,1-.8-.821.821.821,0,0,1,.8.821Z" transform="translate(-197.226 -188.072)" fill="#fafafa"/>
      <path id="Path_665" data-name="Path 665" d="M235.131,74.228h-.157a6.467,6.467,0,0,0,.109-1.14,6.287,6.287,0,0,0-6.287-6.283h-.048a4.8,4.8,0,0,0-8.4.179,5.261,5.261,0,0,0-6.619,4.907,4.8,4.8,0,0,0,2.855,8.637,4.729,4.729,0,0,0,1.148-.144h16.46a3.2,3.2,0,0,0,.943.144,3.152,3.152,0,0,0,0-6.3Z" transform="translate(-119.334 -60.304)" fill="#ebebeb"/>
      <path id="Path_666" data-name="Path 666" d="M357.632,105.575h-.122a4.734,4.734,0,0,0,.083-.873,4.8,4.8,0,0,0-4.8-4.8h-.035a3.672,3.672,0,0,0-6.436.135,4.021,4.021,0,0,0-5.069,3.759,3.663,3.663,0,0,0,2.183,6.61,3.712,3.712,0,0,0,1.013-.144H356.82a2.414,2.414,0,1,0,.816-4.685Z" transform="translate(-191.419 -79.261)" fill="#ebebeb"/>
      <path id="Path_667" data-name="Path 667" d="M129.632,113.575h-.122a4.729,4.729,0,0,0,.083-.873,4.8,4.8,0,0,0-4.8-4.8h-.035a3.672,3.672,0,0,0-6.436.135,4.021,4.021,0,0,0-5.069,3.759,3.663,3.663,0,0,0,2.183,6.61,3.71,3.71,0,0,0,1.013-.144H128.82a2.414,2.414,0,1,0,.816-4.685Z" transform="translate(-62.966 -83.768)" fill="#ebebeb"/>
      <path id="Path_668" data-name="Path 668" d="M65.114,345.214l-.55-.777a1.056,1.056,0,0,0-.873-.437H59.84a.93.93,0,0,0-.8.437l-.437.764a.934.934,0,0,1-.8.437H55.465a.934.934,0,0,0-.939,1l.747,12.919a1.078,1.078,0,0,0,1.057,1h18.3a.934.934,0,0,0,.939-1l-.751-12.893a1.07,1.07,0,0,0-1.052-1H65.97A1.07,1.07,0,0,1,65.114,345.214Z" transform="translate(-30.718 -217.82)" fill="#e0e0e0"/>
      <path id="Path_669" data-name="Path 669" d="M78.062,350.629H61.3a1.4,1.4,0,0,0-1.375,1.253l-1.009,11.19a1.135,1.135,0,0,0,1.153,1.253H76.848a1.41,1.41,0,0,0,1.38-1.253l1.009-11.19a1.131,1.131,0,0,0-1.174-1.253Z" transform="translate(-33.187 -221.554)" fill="#f0f0f0"/>
      <path id="Path_670" data-name="Path 670" d="M404.022,345.65l-.546-.764a1.065,1.065,0,0,0-.873-.437h-3.868a.922.922,0,0,0-.8.437l-.463.764a.93.93,0,0,1-.8.437h-2.31a.934.934,0,0,0-.939,1l.751,12.919a1.07,1.07,0,0,0,1.052,1h18.316a.934.934,0,0,0,.939-1l-.747-12.919a1.078,1.078,0,0,0-1.057-1h-7.793A1.07,1.07,0,0,1,404.022,345.65Z" transform="translate(-221.646 -218.073)" fill="#e0e0e0"/>
      <path id="Path_671" data-name="Path 671" d="M416.992,351.05H400.23a1.406,1.406,0,0,0-1.38,1.253l-1.009,11.19a1.135,1.135,0,0,0,1.153,1.253h16.761a1.41,1.41,0,0,0,1.38-1.253l1.009-11.19a1.131,1.131,0,0,0-1.153-1.253Z" transform="translate(-224.137 -221.791)" fill="#f0f0f0"/>
      <path id="Path_672" data-name="Path 672" d="M283.318,321.74l-.55-.764a1.057,1.057,0,0,0-.873-.437h-3.868a.93.93,0,0,0-.8.437l-.454.764a.934.934,0,0,1-.8.437h-2.31a.934.934,0,0,0-.939,1l.747,12.919a1.078,1.078,0,0,0,1.057,1h18.294a.93.93,0,0,0,.939-1l-.747-12.919a1.07,1.07,0,0,0-1.052-1H284.16A1.07,1.07,0,0,1,283.318,321.74Z" transform="translate(-153.644 -204.602)" fill="#e0e0e0"/>
      <path id="Path_673" data-name="Path 673" d="M296.281,327.14H279.515a1.406,1.406,0,0,0-1.375,1.253l-1.009,11.19a1.131,1.131,0,0,0,1.153,1.253h16.762a1.41,1.41,0,0,0,1.38-1.253l.991-11.195a1.126,1.126,0,0,0-1.135-1.249Z" transform="translate(-156.129 -208.321)" fill="#f0f0f0"/>
    </g>
    <g id="freepik--Shadow--inject-205" transform="translate(24.498 207.779)">
      <ellipse id="freepik--path--inject-205" cx="84.654" cy="4.942" rx="84.654" ry="4.942" fill="#494848"/>
    </g>
    <g id="freepik--Script--inject-205" transform="translate(26.013 86.44)">
      <rect id="Rectangle_153" data-name="Rectangle 153" width="45.591" height="78.11" rx="2.37" fill="#76ba1b"/>
      <rect id="Rectangle_154" data-name="Rectangle 154" width="45.591" height="78.11" rx="2.37" fill="#fff" opacity="0.7"/>
      <rect id="Rectangle_155" data-name="Rectangle 155" width="8.588" height="1.166" transform="translate(3.096 9.898)" fill="#76ba1b"/>
      <rect id="Rectangle_156" data-name="Rectangle 156" width="8.588" height="1.166" transform="translate(3.096 12.518)" fill="#76ba1b"/>
      <rect id="Rectangle_157" data-name="Rectangle 157" width="8.588" height="1.166" transform="translate(33.676 9.898)" fill="#76ba1b"/>
      <rect id="Rectangle_158" data-name="Rectangle 158" width="8.588" height="1.166" transform="translate(17.665 4.506)" fill="#76ba1b"/>
      <rect id="Rectangle_159" data-name="Rectangle 159" width="39.168" height="1.166" transform="translate(3.096 2.471)" fill="#76ba1b"/>
      <rect id="Rectangle_160" data-name="Rectangle 160" width="34.798" height="1.166" transform="translate(7.462 16.15)" fill="#76ba1b"/>
      <rect id="Rectangle_161" data-name="Rectangle 161" width="39.168" height="1.166" transform="translate(3.096 18.477)" fill="#76ba1b"/>
      <rect id="Rectangle_162" data-name="Rectangle 162" width="39.168" height="1.166" transform="translate(3.096 20.809)" fill="#76ba1b"/>
      <rect id="Rectangle_163" data-name="Rectangle 163" width="39.168" height="1.166" transform="translate(3.096 23.136)" fill="#76ba1b"/>
      <rect id="Rectangle_164" data-name="Rectangle 164" width="34.798" height="1.166" transform="translate(3.096 25.463)" fill="#76ba1b"/>
      <rect id="Rectangle_165" data-name="Rectangle 165" width="34.798" height="1.166" transform="translate(7.462 29.694)" fill="#76ba1b"/>
      <rect id="Rectangle_166" data-name="Rectangle 166" width="39.168" height="1.166" transform="translate(3.096 32.021)" fill="#76ba1b"/>
      <rect id="Rectangle_167" data-name="Rectangle 167" width="39.168" height="1.166" transform="translate(3.096 34.352)" fill="#76ba1b"/>
      <rect id="Rectangle_168" data-name="Rectangle 168" width="39.168" height="1.166" transform="translate(3.096 36.68)" fill="#76ba1b"/>
      <rect id="Rectangle_169" data-name="Rectangle 169" width="34.798" height="1.166" transform="translate(3.096 39.007)" fill="#76ba1b"/>
      <rect id="Rectangle_170" data-name="Rectangle 170" width="34.798" height="1.166" transform="translate(7.462 43.237)" fill="#76ba1b"/>
      <rect id="Rectangle_171" data-name="Rectangle 171" width="39.168" height="1.166" transform="translate(3.096 45.565)" fill="#76ba1b"/>
      <rect id="Rectangle_172" data-name="Rectangle 172" width="39.168" height="1.166" transform="translate(3.096 47.896)" fill="#76ba1b"/>
      <rect id="Rectangle_173" data-name="Rectangle 173" width="39.168" height="1.166" transform="translate(3.096 50.223)" fill="#76ba1b"/>
      <rect id="Rectangle_174" data-name="Rectangle 174" width="34.798" height="1.166" transform="translate(3.096 52.55)" fill="#76ba1b"/>
      <rect id="Rectangle_175" data-name="Rectangle 175" width="34.798" height="1.166" transform="translate(7.462 57.218)" fill="#76ba1b"/>
      <rect id="Rectangle_176" data-name="Rectangle 176" width="39.168" height="1.166" transform="translate(3.096 59.545)" fill="#76ba1b"/>
      <rect id="Rectangle_177" data-name="Rectangle 177" width="39.168" height="1.166" transform="translate(3.096 61.876)" fill="#76ba1b"/>
      <rect id="Rectangle_178" data-name="Rectangle 178" width="39.168" height="1.166" transform="translate(3.096 64.204)" fill="#76ba1b"/>
      <rect id="Rectangle_179" data-name="Rectangle 179" width="34.798" height="1.166" transform="translate(3.096 66.531)" fill="#76ba1b"/>
      <rect id="Rectangle_180" data-name="Rectangle 180" width="8.588" height="1.166" transform="translate(33.676 73.246)" fill="#76ba1b"/>
      <g id="Group_3494" data-name="Group 3494" transform="translate(3.096 2.471)" opacity="0.2">
        <rect id="Rectangle_181" data-name="Rectangle 181" width="8.588" height="1.166" transform="translate(0 7.427)" fill="#fff"/>
        <rect id="Rectangle_182" data-name="Rectangle 182" width="8.588" height="1.166" transform="translate(0 10.046)" fill="#fff"/>
        <rect id="Rectangle_183" data-name="Rectangle 183" width="8.588" height="1.166" transform="translate(30.58 7.427)" fill="#fff"/>
        <rect id="Rectangle_184" data-name="Rectangle 184" width="8.588" height="1.166" transform="translate(14.57 2.035)" fill="#fff"/>
        <rect id="Rectangle_185" data-name="Rectangle 185" width="39.168" height="1.166" fill="#fff"/>
        <rect id="Rectangle_186" data-name="Rectangle 186" width="34.798" height="1.166" transform="translate(4.366 13.679)" fill="#fff"/>
        <rect id="Rectangle_187" data-name="Rectangle 187" width="39.168" height="1.166" transform="translate(0 16.006)" fill="#fff"/>
        <rect id="Rectangle_188" data-name="Rectangle 188" width="39.168" height="1.166" transform="translate(0 18.338)" fill="#fff"/>
        <rect id="Rectangle_189" data-name="Rectangle 189" width="39.168" height="1.166" transform="translate(0 20.665)" fill="#fff"/>
        <rect id="Rectangle_190" data-name="Rectangle 190" width="34.798" height="1.166" transform="translate(0 22.992)" fill="#fff"/>
        <rect id="Rectangle_191" data-name="Rectangle 191" width="34.798" height="1.166" transform="translate(4.366 27.223)" fill="#fff"/>
        <rect id="Rectangle_192" data-name="Rectangle 192" width="39.168" height="1.166" transform="translate(0 29.55)" fill="#fff"/>
        <rect id="Rectangle_193" data-name="Rectangle 193" width="39.168" height="1.166" transform="translate(0 31.881)" fill="#fff"/>
        <rect id="Rectangle_194" data-name="Rectangle 194" width="39.168" height="1.166" transform="translate(0 34.208)" fill="#fff"/>
        <rect id="Rectangle_195" data-name="Rectangle 195" width="34.798" height="1.166" transform="translate(0 36.536)" fill="#fff"/>
        <rect id="Rectangle_196" data-name="Rectangle 196" width="34.798" height="1.166" transform="translate(4.366 40.766)" fill="#fff"/>
        <rect id="Rectangle_197" data-name="Rectangle 197" width="39.168" height="1.166" transform="translate(0 43.093)" fill="#fff"/>
        <rect id="Rectangle_198" data-name="Rectangle 198" width="39.168" height="1.166" transform="translate(0 45.425)" fill="#fff"/>
        <rect id="Rectangle_199" data-name="Rectangle 199" width="39.168" height="1.166" transform="translate(0 47.752)" fill="#fff"/>
        <rect id="Rectangle_200" data-name="Rectangle 200" width="34.798" height="1.166" transform="translate(0 50.079)" fill="#fff"/>
        <rect id="Rectangle_201" data-name="Rectangle 201" width="34.798" height="1.166" transform="translate(4.366 54.747)" fill="#fff"/>
        <rect id="Rectangle_202" data-name="Rectangle 202" width="39.168" height="1.166" transform="translate(0 57.074)" fill="#fff"/>
        <rect id="Rectangle_203" data-name="Rectangle 203" width="39.168" height="1.166" transform="translate(0 59.405)" fill="#fff"/>
        <rect id="Rectangle_204" data-name="Rectangle 204" width="39.168" height="1.166" transform="translate(0 61.732)" fill="#fff"/>
        <rect id="Rectangle_205" data-name="Rectangle 205" width="34.798" height="1.166" transform="translate(0 64.059)" fill="#fff"/>
        <rect id="Rectangle_206" data-name="Rectangle 206" width="8.588" height="1.166" transform="translate(30.58 70.774)" fill="#fff"/>
      </g>
    </g>
    <g id="freepik--data-2--inject-205" transform="translate(47.442 84.462)">
      <rect id="Rectangle_207" data-name="Rectangle 207" width="26.345" height="21.887" rx="2.37" transform="translate(0 62.357)" opacity="0.1"/>
      <rect id="Rectangle_208" data-name="Rectangle 208" width="26.345" height="21.887" rx="2.37" transform="translate(3.248 66.5)" fill="#76ba1b"/>
      <rect id="Rectangle_209" data-name="Rectangle 209" width="26.345" height="21.887" rx="2.37" transform="translate(3.248 66.5)" fill="#fff" opacity="0.3"/>
      <rect id="Rectangle_210" data-name="Rectangle 210" width="5.239" height="2.62" transform="translate(5.824 79.253)" fill="#76ba1b"/>
      <rect id="Rectangle_211" data-name="Rectangle 211" width="14.845" height="2.62" transform="translate(11.5 79.253)" fill="#76ba1b"/>
      <rect id="Rectangle_212" data-name="Rectangle 212" width="5.239" height="3.056" transform="translate(5.824 75.761)" fill="#76ba1b"/>
      <rect id="Rectangle_213" data-name="Rectangle 213" width="5.239" height="2.62" transform="translate(5.824 72.704)" fill="#76ba1b"/>
      <rect id="Rectangle_214" data-name="Rectangle 214" width="14.845" height="3.056" transform="translate(11.5 75.761)" fill="#76ba1b"/>
      <rect id="Rectangle_215" data-name="Rectangle 215" width="14.845" height="3.056" transform="translate(11.5 82.31)" fill="#76ba1b"/>
      <rect id="Rectangle_216" data-name="Rectangle 216" width="14.845" height="2.62" transform="translate(11.5 72.704)" fill="#76ba1b"/>
      <rect id="Rectangle_217" data-name="Rectangle 217" width="5.239" height="3.056" transform="translate(5.824 82.31)" fill="#76ba1b"/>
      <rect id="Rectangle_218" data-name="Rectangle 218" width="5.239" height="3.056" transform="translate(5.824 69.211)" fill="#76ba1b"/>
      <rect id="Rectangle_219" data-name="Rectangle 219" width="14.845" height="3.056" transform="translate(11.5 69.211)" fill="#76ba1b"/>
      <rect id="Rectangle_220" data-name="Rectangle 220" width="26.345" height="21.887" rx="2.37" transform="translate(7.54 24.511)" opacity="0.1"/>
      <rect id="Rectangle_221" data-name="Rectangle 221" width="26.345" height="21.887" rx="2.37" transform="translate(12.417 23.477)" fill="#76ba1b"/>
      <rect id="Rectangle_222" data-name="Rectangle 222" width="26.345" height="21.887" rx="2.37" transform="translate(12.417 23.477)" fill="#fff" opacity="0.3"/>
      <rect id="Rectangle_223" data-name="Rectangle 223" width="6.549" height="3.056" transform="translate(29.401 26.424)" fill="#76ba1b"/>
      <rect id="Rectangle_224" data-name="Rectangle 224" width="6.549" height="3.056" transform="translate(22.416 26.424)" fill="#76ba1b"/>
      <rect id="Rectangle_225" data-name="Rectangle 225" width="6.549" height="13.098" transform="translate(22.416 29.48)" fill="#76ba1b"/>
      <rect id="Rectangle_226" data-name="Rectangle 226" width="6.549" height="13.098" transform="translate(29.401 29.48)" fill="#76ba1b"/>
      <rect id="Rectangle_227" data-name="Rectangle 227" width="6.549" height="3.056" transform="translate(15.43 26.424)" fill="#76ba1b"/>
      <rect id="Rectangle_228" data-name="Rectangle 228" width="6.549" height="13.098" transform="translate(15.43 29.48)" fill="#76ba1b"/>
      <rect id="Rectangle_229" data-name="Rectangle 229" width="26.345" height="21.887" rx="2.37" transform="translate(15.792 47.481)" opacity="0.1"/>
      <rect id="Rectangle_230" data-name="Rectangle 230" width="26.345" height="21.887" rx="2.37" transform="translate(24.642 46.08)" fill="#76ba1b"/>
      <rect id="Rectangle_231" data-name="Rectangle 231" width="26.345" height="21.887" rx="2.37" transform="translate(24.642 46.08)" fill="#fff" opacity="0.3"/>
      <rect id="Rectangle_232" data-name="Rectangle 232" width="10.042" height="7.422" transform="translate(38.134 49.127)" fill="#76ba1b"/>
      <rect id="Rectangle_233" data-name="Rectangle 233" width="10.042" height="7.422" transform="translate(27.655 49.127)" fill="#76ba1b"/>
      <rect id="Rectangle_234" data-name="Rectangle 234" width="10.042" height="8.296" transform="translate(27.655 56.986)" fill="#76ba1b"/>
      <rect id="Rectangle_235" data-name="Rectangle 235" width="10.042" height="8.296" transform="translate(38.134 56.986)" fill="#76ba1b"/>
      <path id="Path_674" data-name="Path 674" d="M210.909,229.044v14.674h-9.051a1.812,1.812,0,0,1-1.864-1.947V228h10.073C210.638,228,210.909,228.472,210.909,229.044Z" transform="translate(-160.113 -181.929)" opacity="0.2"/>
      <rect id="Rectangle_236" data-name="Rectangle 236" width="26.345" height="21.887" rx="2.37" transform="translate(16.342 3.934)" opacity="0.1"/>
      <rect id="Rectangle_237" data-name="Rectangle 237" width="26.345" height="21.887" rx="2.37" transform="translate(20.713)" fill="#76ba1b"/>
      <rect id="Rectangle_238" data-name="Rectangle 238" width="26.345" height="21.887" rx="2.37" transform="translate(20.713)" fill="#fff" opacity="0.3"/>
      <rect id="Rectangle_239" data-name="Rectangle 239" width="8.296" height="2.183" transform="translate(31.148 2.847)" fill="#76ba1b"/>
      <rect id="Rectangle_240" data-name="Rectangle 240" width="3.929" height="13.535" transform="translate(31.148 5.466)" fill="#76ba1b"/>
      <rect id="Rectangle_241" data-name="Rectangle 241" width="4.366" height="2.183" transform="translate(39.88 2.847)" fill="#76ba1b"/>
      <rect id="Rectangle_242" data-name="Rectangle 242" width="4.366" height="13.535" transform="translate(39.88 5.466)" fill="#76ba1b"/>
      <rect id="Rectangle_243" data-name="Rectangle 243" width="3.929" height="13.535" transform="translate(35.514 5.466)" fill="#76ba1b"/>
      <rect id="Rectangle_244" data-name="Rectangle 244" width="6.986" height="13.535" transform="translate(23.725 5.466)" fill="#76ba1b"/>
      <rect id="Rectangle_245" data-name="Rectangle 245" width="6.986" height="2.183" transform="translate(23.725 2.847)" fill="#76ba1b"/>
    </g>
    <g id="freepik--data-1--inject-205" transform="translate(92.959 68.989)">
      <rect id="Rectangle_246" data-name="Rectangle 246" width="33.837" height="33.837" rx="4.71" transform="translate(41.212 66.649)" fill="#76ba1b"/>
      <rect id="Rectangle_247" data-name="Rectangle 247" width="25.14" height="24.996" transform="translate(45.63 71.071)" fill="#fff" opacity="0.25"/>
      <path id="Path_675" data-name="Path 675" d="M317.42,291.974l6.4-5.261,2.091,1.685,6.628-5.6,3.257,3.2,6.763-5.676v11.644Z" transform="translate(-271.79 -195.938)" fill="#fff" opacity="0.25"/>
      <path id="Path_676" data-name="Path 676" d="M317.42,283.433l5.418-10.164,6.331.987,4.733-6.182,4.873.878,3.785-3.781v18.263Z" transform="translate(-271.79 -187.397)" fill="#fff" opacity="0.25"/>
      <path id="Path_677" data-name="Path 677" d="M317.42,300.239l12.5-1.546,4.052-2.026,4.366.437,4.222-2.1v5.239Z" transform="translate(-271.79 -204.203)" fill="#fff" opacity="0.25"/>
      <path id="Path_678" data-name="Path 678" d="M337.563,240v3.493a2.279,2.279,0,0,1-2.183,2.183h-24.45v10.252a2.083,2.083,0,0,1-2.183,1.973H307v-15.98A2.059,2.059,0,0,1,309.183,240Z" transform="translate(-265.919 -173.216)" opacity="0.2"/>
      <rect id="Rectangle_248" data-name="Rectangle 248" width="33.837" height="33.837" rx="4.71" transform="translate(0 37.915)" fill="#76ba1b"/>
      <rect id="Rectangle_249" data-name="Rectangle 249" width="9.496" height="5.689" rx="0.87" transform="translate(12.103 41.447)" fill="#fff" opacity="0.8"/>
      <rect id="Rectangle_250" data-name="Rectangle 250" width="7.68" height="4.344" rx="0.87" transform="translate(7.252 53.686)" fill="#fff" opacity="0.6"/>
      <rect id="Rectangle_251" data-name="Rectangle 251" width="7.68" height="4.344" rx="0.87" transform="translate(18.905 53.686)" fill="#fff" opacity="0.6"/>
      <rect id="Rectangle_252" data-name="Rectangle 252" width="4.03" height="3.711" rx="0.87" transform="translate(15.391 62.876)" fill="#fff" opacity="0.4"/>
      <rect id="Rectangle_253" data-name="Rectangle 253" width="4.03" height="3.711" rx="0.87" transform="translate(20.508 62.876)" fill="#fff" opacity="0.4"/>
      <rect id="Rectangle_254" data-name="Rectangle 254" width="4.03" height="3.711" rx="0.87" transform="translate(25.629 62.876)" fill="#fff" opacity="0.4"/>
      <rect id="Rectangle_255" data-name="Rectangle 255" width="4.03" height="3.711" rx="0.87" transform="translate(3.545 62.876)" fill="#fff" opacity="0.4"/>
      <rect id="Rectangle_256" data-name="Rectangle 256" width="4.03" height="3.711" rx="0.87" transform="translate(9.099 62.876)" fill="#fff" opacity="0.4"/>
      <g id="Group_3495" data-name="Group 3495" transform="translate(5.279 47.136)" opacity="0.3">
        <path id="Path_679" data-name="Path 679" d="M249.352,201.549h.437v-3.056h-5.676V195h-.437v3.493H238v3.056h.437v-2.62h10.915Z" transform="translate(-232.324 -195)" fill="#fff"/>
        <path id="Path_680" data-name="Path 680" d="M230.676,222.62H225V224.8h.437v-1.746h5.239V224.8h.437V220h-.437Z" transform="translate(-225 -209.085)" fill="#fff"/>
        <path id="Path_681" data-name="Path 681" d="M257.676,223.056V220h-.437v3.056H252V224.8h.437v-1.31h4.8v1.31h.437v-1.31h4.8v1.31h.437v-1.746Z" transform="translate(-240.212 -209.085)" fill="#fff"/>
      </g>
      <path id="Path_682" data-name="Path 682" d="M256.2,176v9.784H232.214A2.292,2.292,0,0,1,230,183.605V174h24.324a1.864,1.864,0,0,1,1.873,2Z" transform="translate(-222.538 -136.032)" opacity="0.2"/>
      <rect id="Rectangle_257" data-name="Rectangle 257" width="33.837" height="33.837" rx="4.71" transform="translate(46.399 23.206)" fill="#76ba1b"/>
      <rect id="Rectangle_258" data-name="Rectangle 258" width="25.14" height="24.996" transform="translate(50.747 27.624)" fill="#fff" opacity="0.25"/>
      <rect id="Rectangle_259" data-name="Rectangle 259" width="2.532" height="6.492" transform="translate(53.314 42.989)" fill="#fff" opacity="0.35"/>
      <rect id="Rectangle_260" data-name="Rectangle 260" width="2.532" height="9.632" transform="translate(53.314 42.989)" fill="#fff" opacity="0.35"/>
      <rect id="Rectangle_261" data-name="Rectangle 261" width="2.532" height="9.557" transform="translate(57.681 38.439)" fill="#fff" opacity="0.35"/>
      <rect id="Rectangle_262" data-name="Rectangle 262" width="2.532" height="14.181" transform="translate(57.681 38.439)" fill="#fff" opacity="0.35"/>
      <rect id="Rectangle_263" data-name="Rectangle 263" width="2.532" height="7.671" transform="translate(62.051 41.238)" fill="#fff" opacity="0.35"/>
      <rect id="Rectangle_264" data-name="Rectangle 264" width="2.532" height="11.382" transform="translate(62.051 41.238)" fill="#fff" opacity="0.35"/>
      <rect id="Rectangle_265" data-name="Rectangle 265" width="2.532" height="10.321" transform="translate(66.421 37.308)" fill="#fff" opacity="0.35"/>
      <rect id="Rectangle_266" data-name="Rectangle 266" width="2.532" height="15.312" transform="translate(66.421 37.308)" fill="#fff" opacity="0.35"/>
      <rect id="Rectangle_267" data-name="Rectangle 267" width="2.532" height="14.364" transform="translate(70.788 31.305)" fill="#fff" opacity="0.35"/>
      <rect id="Rectangle_268" data-name="Rectangle 268" width="2.532" height="21.315" transform="translate(70.788 31.305)" fill="#fff" opacity="0.35"/>
      <path id="Path_683" data-name="Path 683" d="M328.169,140v18.512a2.061,2.061,0,0,1-2.109,2.008H319V142.135A2.183,2.183,0,0,1,321.131,140Z" transform="translate(-272.68 -116.877)" opacity="0.2"/>
      <rect id="Rectangle_269" data-name="Rectangle 269" width="33.837" height="33.837" rx="4.71" transform="translate(18.495)" fill="#76ba1b"/>
      <circle id="Ellipse_62" data-name="Ellipse 62" cx="11.094" cy="11.094" r="11.094" transform="translate(22.692 26.094) rotate(-80.78)" fill="#fff" opacity="0.25"/>
      <path id="Path_684" data-name="Path 684" d="M279.705,111.469l10.915,2.07a11.094,11.094,0,1,1-10.915-13.168Z" transform="translate(-244.301 -94.55)" fill="#fff" opacity="0.25"/>
      <path id="Path_685" data-name="Path 685" d="M279.7,111.466V122.56a11.1,11.1,0,1,1,.031-22.2Z" transform="translate(-244.294 -94.547)" fill="#fff" opacity="0.25"/>
      <path id="Path_686" data-name="Path 686" d="M286.456,111.463l-5.846-9.431a10.916,10.916,0,0,1,2.79-1.236,11.055,11.055,0,0,1,3.021-.437Z" transform="translate(-251.051 -94.544)" fill="#fff" opacity="0.25"/>
    </g>
    <g id="freepik--Character--inject-205" transform="translate(132.704 80.597)">
      <g id="freepik--group--inject-205">
        <path id="Path_687" data-name="Path 687" d="M422.334,176s5.894,10.33,6.331,12.806-5.021,18.3-5.021,18.3,1.2,4.165-.109,4.868-3.6,2.118-3.929.917a26,26,0,0,1,0-5.161l.987-.843s3.493-16.539,3.493-17.111-6.335-10.326-6.335-10.326Z" transform="translate(-368.06 -148.767)" fill="#e4897b"/>
        <path id="Path_688" data-name="Path 688" d="M373.055,397.171l-3.541.371-.179-2.052-.485-5.584,3.541-.376.537,6.169Z" transform="translate(-340.51 -269.068)" fill="#e4897b"/>
        <path id="Path_689" data-name="Path 689" d="M414.166,395.859h-3.432l-.031-.777,0-.1-.175-4.977,0-.1L410.45,388h3.436Z" transform="translate(-363.947 -268.206)" fill="#e4897b"/>
        <path id="Path_690" data-name="Path 690" d="M372.391,389.53l.537,6.169-3.593-.21-.485-5.584Z" transform="translate(-340.51 -269.068)" opacity="0.2"/>
        <path id="Path_691" data-name="Path 691" d="M414.234,398.239h0l-3.436-.437h0l-.179-4.8h0l3.441.275.175,4.811Z" transform="translate(-364.038 -271.023)" opacity="0.2"/>
        <path id="Path_692" data-name="Path 692" d="M422.069,171.223l-5.907,4.017-.113-.144-3.585-4.672-2.183-2.864,3.244-8.82C417.253,160.163,422.069,171.223,422.069,171.223Z" transform="translate(-363.852 -139.043)" fill="#263238"/>
        <path id="Path_693" data-name="Path 693" d="M418.865,184.476,415.28,179.8l2.877-4.414A17.48,17.48,0,0,1,418.865,184.476Z" transform="translate(-366.669 -148.423)" opacity="0.2"/>
        <path id="Path_694" data-name="Path 694" d="M401.776,405.53h4.17a.3.3,0,0,1,.293.236l.677,3.056a.515.515,0,0,1-.5.611c-1.349-.022-2.332-.1-4.026-.1-1.044,0-4.191.109-5.632.109s-1.629-1.423-1.039-1.554a13.6,13.6,0,0,0,5.484-2.135.825.825,0,0,1,.576-.218Z" transform="translate(-355.47 -278.082)" fill="#263238"/>
        <path id="Path_695" data-name="Path 695" d="M361.286,405.28h4.17a.3.3,0,0,1,.293.236l.677,3.056a.515.515,0,0,1-.5.611c-1.349-.022-2.332-.1-4.026-.1-1.043,0-4.191.109-5.632.109s-1.629-1.423-1.039-1.554a13.6,13.6,0,0,0,5.484-2.135.825.825,0,0,1,.576-.218Z" transform="translate(-332.658 -277.941)" fill="#263238"/>
        <path id="Path_696" data-name="Path 696" d="M366.112,304.534h5.034s-.41-43.334,5.034-57.969c.384,4.838.816,9.854,1.24,14.037.262,2.589.528,4.8.777,6.51,1.585,10.915,5.58,37.858,5.58,37.858h4.99s-.594-25.821-1.179-36.544c-.651-11.644-.93-37.243-.961-39.426H368.4C366.671,238.169,362.226,274.844,366.112,304.534Z" transform="translate(-338.096 -178.627)" fill="#76ba1b"/>
        <path id="Path_697" data-name="Path 697" d="M366.112,304.534h5.034s-.41-43.334,5.034-57.969c.384,4.838.816,9.854,1.24,14.037.262,2.589.528,4.8.777,6.51,1.585,10.915,5.58,37.858,5.58,37.858h4.99s-.594-25.821-1.179-36.544c-.651-11.644-.93-37.243-.961-39.426H368.4C366.671,238.169,362.226,274.844,366.112,304.534Z" transform="translate(-338.096 -178.627)" fill="#fff" opacity="0.6"/>
        <path id="Path_698" data-name="Path 698" d="M388.111,128.2c.044.166.092.332.148.485a4.8,4.8,0,0,0,2.323,2.65,4.3,4.3,0,0,0,5.135-.821c1.72-1.746,1.677-3.742,1.869-7.134a4.654,4.654,0,0,0-6.423-4.646C387.831,120.091,387.377,125.142,388.111,128.2Z" transform="translate(-351.192 -116.304)" fill="#e4897b"/>
        <path id="Path_699" data-name="Path 699" d="M392.73,146.32a4.8,4.8,0,0,0,.624.384,4.327,4.327,0,0,0,3.716.162,4.964,4.964,0,0,0-.607-1.153A6.711,6.711,0,0,0,392.73,146.32Z" transform="translate(-353.964 -131.674)" opacity="0.2"/>
        <path id="Path_700" data-name="Path 700" d="M398.234,145.841c-1.672,1.519-5.768.956-5.768.956s-2.559-.7-2.022-1.5a2.848,2.848,0,0,0,2.537-1.851,4.366,4.366,0,0,0,.153-1.72,9.034,9.034,0,0,0-.127-.961l5.06-3.768C397.408,139.493,396.6,144.047,398.234,145.841Z" transform="translate(-352.635 -126.795)" fill="#e4897b"/>
        <path id="Path_701" data-name="Path 701" d="M389.973,118.326c.035.1-.052.293-.118.515a4.987,4.987,0,0,0-.183,1.34,5.532,5.532,0,0,0,1.746,3.93,21.83,21.83,0,0,0,1.528,3.978.847.847,0,0,0,.253.336.812.812,0,0,0,.489.083l2.96-.1a.6.6,0,0,0,.476-.166,1.423,1.423,0,0,0,.109-.266c.266-.637,1.393-.336,1.781-.908a3.162,3.162,0,0,0,.231-.812c.244-.707,1.244-1.074,1.209-1.825-.022-.437-.437-.83-.3-1.249s.655-.55.873-.926a1.221,1.221,0,0,0-.24-1.222,1.6,1.6,0,0,1-.375-1.209,2.667,2.667,0,0,1,.227-.463,1.611,1.611,0,0,0-.293-1.8,2.752,2.752,0,0,1-.541-.563c-.2-.38-.031-.873-.275-1.253s-.747-.367-1.174-.341a1.388,1.388,0,0,1-1.188-.323c-.183-.249-.175-.6-.375-.834-.288-.323-.812-.236-1.218-.074a1.637,1.637,0,0,1-1.244.188c-.275-.127-.437-.406-.685-.572a.991.991,0,0,0-1.166.065c-.218.188-.349.472-.6.62a1.607,1.607,0,0,1-1.183,0,1.118,1.118,0,0,0-1.14.188c-.367.437.031,1.214-.345,1.655-.214.253-.607.288-.838.524a.672.672,0,0,0,.323,1.074c.131.026.3.035.349.157a1.089,1.089,0,0,1,.026.166c.048.17.288.179.437.122C389.82,118.239,389.942,118.247,389.973,118.326Z" transform="translate(-351.425 -113.627)" fill="#263238"/>
        <path id="Path_702" data-name="Path 702" d="M394.326,131.485a2.183,2.183,0,0,1-1.131,1.506c-.69.293-1.144-.681-1.044-1.7.1-.908.563-2.183,1.31-2.013S394.567,130.572,394.326,131.485Z" transform="translate(-353.631 -122.437)" fill="#e4897b"/>
        <path id="Path_703" data-name="Path 703" d="M391.17,257.63c.384,4.838.816,9.867,1.24,14.05.62-6.038,1.38-10.343,1.38-10.343a18.826,18.826,0,0,0,2.668-3.707c1.956-3.122,0-8.95,0-8.95C396.519,254.094,391.17,257.63,391.17,257.63Z" transform="translate(-353.085 -189.714)" opacity="0.2"/>
        <path id="Path_704" data-name="Path 704" d="M390.143,189.757,369.33,188.74a185.9,185.9,0,0,1,2.768-22.595,85.644,85.644,0,0,1,2.183-8.889,43.73,43.73,0,0,1,1.585-4.366s12.937,1.065,15.587,3.1S390,179.135,390.143,189.757Z" transform="translate(-340.781 -135.747)" fill="#263238"/>
        <path id="Path_705" data-name="Path 705" d="M392.14,151.777a9.3,9.3,0,0,1,5.676-1.471c3.7.083,4.074,1.471,4.074,1.471s4.074,2.03.873,5.379-9.5-5.135-9.5-5.135Z" transform="translate(-353.632 -134.289)" fill="#263238"/>
        <path id="Path_706" data-name="Path 706" d="M392.14,151.777a9.3,9.3,0,0,1,5.676-1.471c3.7.083,4.074,1.471,4.074,1.471s4.074,2.03.873,5.379-9.5-5.135-9.5-5.135Z" transform="translate(-353.632 -134.289)" fill="#fff" opacity="0.25"/>
        <path id="Path_707" data-name="Path 707" d="M379.765,163.156s-.9,5.894-4.1,8.623a85.611,85.611,0,0,1,2.183-8.889Z" transform="translate(-344.353 -141.381)" opacity="0.2"/>
        <path id="Path_708" data-name="Path 708" d="M342.455,136.006s-12.928-2.641-14.744-3.336-11.426-9.88-11.426-9.88l-2.1,1.589s7.2,9.343,10.8,12.037,16.189,6.763,16.189,6.763Z" transform="translate(-309.71 -118.789)" fill="#e4897b"/>
        <path id="Path_709" data-name="Path 709" d="M370.218,150.406l-11.26-2.056-.288,7.78,8.413,3.419S372.388,154.227,370.218,150.406Z" transform="translate(-334.775 -133.189)" fill="#263238"/>
        <path id="Path_710" data-name="Path 710" d="M310.516,117.672a29.852,29.852,0,0,0-5.357-3.956c-.554-.218-1.358,3.122-1.2,3.558a5.7,5.7,0,0,0,2.947,1.471,4.23,4.23,0,0,1,1.93,1.065Z" transform="translate(-303.942 -113.672)" fill="#e4897b"/>
        <path id="Path_711" data-name="Path 711" d="M357.271,147.7l1.236.284-.563,7.92-1.183-.432Z" transform="translate(-333.699 -132.823)" fill="#263238"/>
        <path id="Path_712" data-name="Path 712" d="M357.271,147.7l1.236.284-.563,7.92-1.183-.432Z" transform="translate(-333.699 -132.823)" fill="#fff" opacity="0.25"/>
        <path id="Path_713" data-name="Path 713" d="M422,190.549l6.671-4.519.458,1.153-6.357,4Z" transform="translate(-370.455 -154.418)" fill="#263238"/>
        <path id="Path_714" data-name="Path 714" d="M422,190.549l6.671-4.519.458,1.153-6.357,4Z" transform="translate(-370.455 -154.418)" fill="#fff" opacity="0.25"/>
        <path id="Path_715" data-name="Path 715" d="M366.81,398.75l.249,1.419h5.947v-1.31Z" transform="translate(-339.361 -274.262)" fill="#76ba1b"/>
        <path id="Path_716" data-name="Path 716" d="M407.27,400l.568,1.31h4.99l.327-1.31Z" transform="translate(-362.156 -274.966)" fill="#76ba1b"/>
      </g>
    </g>
  </g>
</svg>
